<svg width="97" height="127" viewBox="0 0 97 127" fill="none" xmlns="http://www.w3.org/2000/svg">
<path d="M2.56138 88.4981C1.63995 88.2555 0.771467 87.8439 0 87.2842L1.16675 84.7559C1.83839 85.2375 2.58326 85.6073 3.37263 85.8512C4.19672 86.1208 5.05793 86.2594 5.9249 86.2619C6.64842 86.3087 7.37149 86.1639 8.02139 85.842C8.22092 85.7375 8.38926 85.582 8.50933 85.3912C8.6294 85.2004 8.69692 84.9812 8.70504 84.7559C8.71661 84.5827 8.68618 84.4092 8.61635 84.2503C8.54651 84.0913 8.43935 83.9517 8.30397 83.8432C7.99999 83.5945 7.64995 83.4084 7.27395 83.2955C6.85464 83.1586 6.2895 83.0035 5.57851 82.8392C4.65076 82.638 3.73726 82.3758 2.84395 82.0542C2.13867 81.8019 1.51062 81.3712 1.0209 80.8038C0.497612 80.1518 0.231632 79.33 0.273453 78.4946C0.26685 77.6838 0.501689 76.8894 0.947984 76.2128C1.46357 75.4892 2.17525 74.9286 2.99891 74.5973C4.06118 74.1705 5.20016 73.9685 6.3442 74.004C7.26577 74 8.18429 74.1104 9.07876 74.3326C9.89088 74.5127 10.6693 74.8207 11.3849 75.2453L10.3731 77.8466C9.16464 77.1248 7.78764 76.7344 6.38066 76.7148C5.66141 76.6638 4.94281 76.8223 4.3115 77.1711C4.10511 77.2947 3.9344 77.4699 3.81613 77.6795C3.69786 77.8892 3.63612 78.126 3.63697 78.3668C3.63663 78.6047 3.70772 78.8372 3.84101 79.0342C3.97429 79.2311 4.16362 79.3834 4.38442 79.4712C5.14522 79.7859 5.93633 80.0214 6.74526 80.174C7.65553 80.3852 8.55327 80.6472 9.43426 80.959C10.1356 81.2144 10.7622 81.6411 11.2573 82.2003C11.7842 82.8396 12.0511 83.6544 12.0047 84.4821C12.0112 85.2885 11.7728 86.0779 11.3211 86.7456C10.8073 87.4853 10.0923 88.0618 9.26106 88.4068C8.19517 88.832 7.05354 89.0339 5.90666 89.0001C4.77363 88.99 3.64759 88.821 2.56138 88.4981Z" fill="white"/>
<path d="M28.1656 88.7082L28.1383 80.0555L23.8997 87.1839H22.3957L18.1753 80.2381V88.7082H15.0488V74.2871H17.8107L23.1978 83.2501L28.512 74.2871H31.2466L31.2922 88.7082H28.1656Z" fill="white"/>
<path d="M44.9468 85.6691H38.2562L36.9801 88.7541H33.5527L39.9334 74.333H43.2331L49.6776 88.7541H46.2229L44.9468 85.6691ZM43.8985 83.1317L41.6106 77.6097L39.3227 83.1317H43.8985Z" fill="white"/>
<path d="M61.0706 88.7086L58.2905 84.6926H55.2187V88.7086H51.8916V74.2875H58.1629C59.3047 74.26 60.4392 74.4779 61.4899 74.9264C62.3773 75.3069 63.1322 75.9421 63.6593 76.7518C64.1672 77.5736 64.4297 78.5237 64.4159 79.49C64.4354 80.4583 64.1691 81.4108 63.6502 82.2282C63.1078 83.0241 62.344 83.6429 61.4535 84.008L64.6894 88.6447L61.0706 88.7086ZM60.2229 77.6554C59.563 77.178 58.7562 76.9485 57.9441 77.0074H55.2095V82.0183H57.9441C58.7588 82.0759 59.5672 81.8395 60.2229 81.352C60.4826 81.1266 60.688 80.8453 60.8237 80.5292C60.9595 80.2131 61.0221 79.8703 61.0068 79.5265C61.0221 79.1828 60.9595 78.84 60.8237 78.5239C60.688 78.2077 60.4826 77.9265 60.2229 77.7011" fill="white"/>
<path d="M70.9521 77.007H66.3398V74.2871H78.9006V77.007H74.2883V88.7082H70.9521V77.007Z" fill="white"/>
<path d="M9.64784 95.005C10.5452 95.3813 11.3076 96.0211 11.8343 96.8401C12.361 97.6591 12.6274 98.6188 12.5982 99.5925C12.6141 100.565 12.3466 101.522 11.8286 102.345C11.3025 103.162 10.5425 103.802 9.64784 104.18C8.58992 104.624 7.4503 104.84 6.30344 104.813H3.38969V108.813H0.0361328V94.3628H6.30344C7.45133 94.3343 8.59192 94.5534 9.64784 95.005ZM8.42003 101.482C8.66687 101.238 8.86285 100.948 8.99662 100.627C9.13038 100.307 9.19926 99.9628 9.19926 99.6154C9.19926 99.268 9.13038 98.9241 8.99662 98.6036C8.86285 98.2831 8.66687 97.9924 8.42003 97.7483C7.75114 97.2726 6.93883 97.0425 6.12019 97.0969H3.37137V102.134H6.12019C6.93883 102.188 7.75114 101.958 8.42003 101.482Z" fill="white"/>
<path d="M26.8822 106.17V108.868H15.667V94.3623H26.6073V97.0505H18.9931V100.207H25.7185V102.812H18.9931V106.17H26.8822Z" fill="white"/>
<path d="M32.9688 108.134C31.7939 107.52 30.811 106.593 30.1284 105.455C29.4563 104.286 29.1025 102.96 29.1025 101.611C29.1025 100.261 29.4563 98.9359 30.1284 97.7665C30.8136 96.6308 31.7958 95.7044 32.9688 95.0874C34.2267 94.4483 35.6174 94.1152 37.0279 94.1152C38.4385 94.1152 39.8291 94.4483 41.087 95.0874C42.2548 95.7084 43.2331 96.6341 43.9183 97.7665C44.4395 98.6277 44.7797 99.5865 44.9177 100.584C45.0558 101.581 44.989 102.597 44.7213 103.567C44.4537 104.538 43.9908 105.444 43.3611 106.229C42.7315 107.014 41.9482 107.663 41.0595 108.134C39.8034 108.779 38.412 109.115 37.0004 109.115C35.5888 109.115 34.1975 108.779 32.9414 108.134H32.9688ZM39.3553 105.666C40.0425 105.279 40.6075 104.707 40.9862 104.015C41.3717 103.272 41.573 102.448 41.573 101.611C41.573 100.774 41.3717 99.9494 40.9862 99.2069C40.6073 98.517 40.0421 97.9479 39.3553 97.5646C38.649 97.1637 37.8489 96.9579 37.0371 96.9683C36.2252 96.9579 35.4252 97.1637 34.7189 97.5646C34.0366 97.9508 33.4751 98.5194 33.0971 99.2069C32.7116 99.9494 32.5104 100.774 32.5104 101.611C32.5104 102.448 32.7116 103.272 33.0971 104.015C33.4749 104.705 34.0363 105.276 34.7189 105.666C35.4261 106.064 36.2261 106.266 37.0371 106.253C37.8481 106.266 38.6481 106.064 39.3553 105.666Z" fill="white"/>
<path d="M57.3129 95.005C57.9696 95.318 58.5532 95.766 59.0255 96.3198C59.4978 96.8737 59.8483 97.521 60.054 98.2196C60.2598 98.9182 60.3162 99.6523 60.2196 100.374C60.1231 101.096 59.8757 101.789 59.4936 102.409C58.9653 103.225 58.206 103.863 57.3129 104.244C56.2549 104.688 55.1153 104.904 53.9685 104.877H51.0547V108.877H47.7012V94.3628H53.9685C55.1163 94.3343 56.2569 94.5534 57.3129 95.005ZM56.0759 101.482C56.325 101.24 56.523 100.949 56.6581 100.629C56.7933 100.308 56.863 99.9635 56.863 99.6154C56.863 99.2673 56.7933 98.9228 56.6581 98.6021C56.523 98.2814 56.325 97.9911 56.0759 97.7483C55.4111 97.2712 54.6012 97.0409 53.7852 97.0969H51.0364V102.134H53.7852C54.6012 102.19 55.4111 101.96 56.0759 101.482Z" fill="white"/>
<path d="M63.7627 94.3623H67.1071V106.134H74.3731V108.868H63.7627V94.3623Z" fill="white"/>
<path d="M88.4583 106.17V108.868H77.2432V94.3623H88.1834V97.0505H80.5692V100.207H87.2946V102.812H80.5692V106.17H88.4583Z" fill="white"/>
<path d="M8.90487 115.943V122.629C8.95277 123.227 8.87549 123.828 8.67796 124.394C8.48044 124.96 8.16703 125.479 7.75779 125.917C6.81889 126.692 5.61821 127.075 4.40476 126.987C3.65986 126.995 2.91755 126.899 2.19881 126.703C1.57246 126.548 0.982734 126.271 0.463466 125.888L1.44389 124.219C1.82475 124.515 2.25683 124.738 2.71843 124.877C3.21891 125.039 3.74154 125.121 4.2675 125.122C4.90935 125.177 5.54787 124.984 6.05186 124.582C6.25724 124.363 6.41472 124.102 6.5143 123.818C6.61389 123.535 6.65339 123.233 6.6303 122.933V122.589C6.30289 122.927 5.9064 123.189 5.46807 123.359C5.02974 123.528 4.55996 123.601 4.09102 123.571C3.38758 123.578 2.69356 123.409 2.07135 123.08C1.47127 122.768 0.969092 122.296 0.620337 121.716C0.252751 121.103 0.0658069 120.398 0.0811036 119.683C0.0644234 118.972 0.251536 118.27 0.620337 117.661C0.968483 117.078 1.47058 116.602 2.07135 116.287C2.6943 115.961 3.38837 115.796 4.09102 115.806C4.58165 115.788 5.06964 115.885 5.51691 116.087C5.96419 116.29 6.35865 116.593 6.66952 116.974V115.992L8.90487 115.943ZM6.02244 121.136C6.40022 120.757 6.61238 120.244 6.61238 119.708C6.61238 119.172 6.40022 118.659 6.02244 118.28C5.59272 117.93 5.05618 117.74 4.5028 117.74C3.94941 117.74 3.41286 117.93 2.98314 118.28C2.78878 118.463 2.63393 118.685 2.52809 118.93C2.42225 119.176 2.36765 119.44 2.36765 119.708C2.36765 119.976 2.42225 120.24 2.52809 120.486C2.63393 120.731 2.78878 120.953 2.98314 121.136C3.41286 121.486 3.94941 121.676 4.5028 121.676C5.05618 121.676 5.59272 121.486 6.02244 121.136Z" fill="white"/>
<path d="M14.4155 116.12C14.9332 115.914 15.4864 115.814 16.043 115.825V117.975H15.5234C15.2379 117.959 14.9521 118 14.6827 118.096C14.4133 118.192 14.1658 118.341 13.9547 118.535C13.7532 118.762 13.599 119.028 13.5014 119.317C13.4038 119.605 13.3646 119.91 13.3861 120.213V124.003H11.0625V115.943H13.2881V117.003C13.5746 116.609 13.965 116.303 14.4155 116.12Z" fill="white"/>
<path d="M18.8948 123.561C18.2464 123.229 17.7033 122.722 17.3262 122.098C16.9538 121.448 16.7578 120.712 16.7578 119.963C16.7578 119.214 16.9538 118.477 17.3262 117.828C17.7018 117.2 18.2452 116.69 18.8948 116.355C19.5984 115.995 20.3794 115.813 21.1694 115.825C21.9565 115.812 22.7346 115.994 23.4342 116.355C24.0821 116.692 24.6248 117.202 25.0029 117.828C25.3753 118.477 25.5712 119.214 25.5712 119.963C25.5712 120.712 25.3753 121.448 25.0029 122.098C24.6214 122.719 24.0794 123.224 23.4342 123.561C22.7346 123.922 21.9565 124.104 21.1694 124.091C20.3794 124.103 19.5984 123.921 18.8948 123.561ZM22.64 121.597C23.0076 121.138 23.2079 120.566 23.2079 119.978C23.2079 119.389 23.0076 118.817 22.64 118.358C22.4502 118.161 22.2212 118.006 21.968 117.903C21.7147 117.799 21.4427 117.751 21.1694 117.759C20.8945 117.749 20.6206 117.797 20.3656 117.901C20.1105 118.004 19.88 118.16 19.689 118.358C19.3146 118.814 19.1099 119.387 19.1099 119.978C19.1099 120.568 19.3146 121.141 19.689 121.597C19.8791 121.797 20.1093 121.955 20.3644 122.06C20.6195 122.165 20.8938 122.215 21.1694 122.206C21.4434 122.213 21.7159 122.163 21.9692 122.058C22.2225 121.953 22.451 121.796 22.64 121.597Z" fill="white"/>
<path d="M35.1986 115.943V123.974H32.9926V122.992C32.6848 123.334 32.3069 123.605 31.8848 123.787C31.4481 123.974 30.9773 124.068 30.5024 124.062C30.0451 124.086 29.5877 124.018 29.1568 123.863C28.7259 123.708 28.3301 123.469 27.9925 123.159C27.6641 122.793 27.4132 122.364 27.2548 121.899C27.0964 121.433 27.0338 120.94 27.0709 120.449V115.943H29.3945V120.135C29.3945 121.431 29.9435 122.099 31.022 122.099C31.2723 122.11 31.5222 122.067 31.7541 121.972C31.9861 121.877 32.1946 121.733 32.3652 121.549C32.7331 121.097 32.9154 120.521 32.875 119.939V116.012L35.1986 115.943Z" fill="white"/>
<path d="M44.1321 116.345C44.7359 116.685 45.2345 117.184 45.5733 117.789C45.9151 118.461 46.0932 119.204 46.0932 119.958C46.0932 120.712 45.9151 121.456 45.5733 122.128C45.2377 122.737 44.7385 123.24 44.1321 123.581C43.512 123.926 42.8121 124.102 42.1026 124.091C41.6522 124.112 41.2025 124.035 40.7845 123.866C40.3666 123.696 39.9901 123.438 39.681 123.109V126.85H37.3574V115.943H39.583V116.876C39.8936 116.518 40.2826 116.237 40.7197 116.054C41.1569 115.872 41.6302 115.794 42.1026 115.825C42.8137 115.811 43.5152 115.991 44.1321 116.345ZM43.1517 121.578C43.5261 121.121 43.7308 120.549 43.7308 119.958C43.7308 119.367 43.5261 118.795 43.1517 118.338C42.7593 117.952 42.2312 117.736 41.6811 117.736C41.1309 117.736 40.6028 117.952 40.2104 118.338C39.836 118.795 39.6314 119.367 39.6314 119.958C39.6314 120.549 39.836 121.121 40.2104 121.578C40.4028 121.773 40.6318 121.927 40.8843 122.033C41.1367 122.138 41.4075 122.193 41.6811 122.193C41.9546 122.193 42.2254 122.138 42.4778 122.033C42.7303 121.927 42.9593 121.773 43.1517 121.578Z" fill="white"/>
<path d="M0 30C0 24.0666 1.75947 18.2664 5.05591 13.3329C8.35235 8.39943 13.0377 4.55426 18.5195 2.28363C24.0013 0.0129984 30.0333 -0.581101 35.8527 0.576455C41.6721 1.73401 47.0176 4.59123 51.2132 8.78681C55.4088 12.9824 58.266 18.3279 59.4235 24.1473C60.5811 29.9667 59.987 35.9987 57.7164 41.4805C55.4457 46.9623 51.6006 51.6476 46.6671 54.9441C41.7336 58.2405 35.9334 60 30 60C22.0435 60 14.4129 56.8393 8.78679 51.2132C3.1607 45.5871 0 37.9565 0 30" fill="white"/>
</svg>
