<svg width="97" height="124" viewBox="0 0 97 124" fill="none" xmlns="http://www.w3.org/2000/svg">
<path d="M2.57951 88.5699C1.6526 88.3311 0.778103 87.9224 0.000488281 87.3643L1.13739 84.831C1.80903 85.3127 2.55352 85.6837 3.34253 85.9298C4.17301 86.2001 5.04058 86.3391 5.91393 86.3418C6.6432 86.3919 7.37267 86.2471 8.0275 85.9222C8.2332 85.8134 8.40564 85.651 8.52654 85.4522C8.64744 85.2534 8.71229 85.0256 8.71422 84.7929C8.71694 84.6279 8.68192 84.4644 8.61183 84.315C8.54174 84.1655 8.43845 84.0341 8.30982 83.9307C8.002 83.6832 7.6498 83.4968 7.27211 83.3813C6.85244 83.2439 6.28018 83.0913 5.56294 82.9235C4.64301 82.7238 3.73591 82.469 2.84657 82.1605C2.14965 81.8888 1.5328 81.4452 1.05346 80.8709C0.5287 80.2264 0.257366 79.4124 0.290435 78.5819C0.281728 77.768 0.518369 76.9703 0.969526 76.2928C1.48553 75.5592 2.20407 74.9918 3.03732 74.6599C4.10166 74.2225 5.24409 74.007 6.39463 74.0266C7.31045 74.0264 8.22279 74.1391 9.11099 74.3623C9.91828 74.5614 10.6903 74.8831 11.4001 75.3161L10.3624 77.8646C9.16064 77.1482 7.79338 76.7565 6.39463 76.7277C5.67161 76.6769 4.94906 76.833 4.31157 77.1779C4.1039 77.3031 3.9322 77.4799 3.81319 77.6912C3.69418 77.9025 3.63192 78.141 3.63248 78.3835C3.63017 78.624 3.70223 78.8594 3.83881 79.0575C3.97539 79.2555 4.16982 79.4065 4.3955 79.4899C5.16012 79.8088 5.95522 80.0492 6.76851 80.2071C7.68755 80.4104 8.59443 80.6651 9.48488 80.9701C10.1832 81.2292 10.8069 81.6564 11.3009 82.2139C11.8301 82.856 12.102 83.6717 12.0639 84.5029C12.077 85.3197 11.8342 86.1201 11.3695 86.792C10.8456 87.5243 10.1227 88.091 9.28649 88.4249C8.21208 88.8522 7.06219 89.0573 5.90629 89.0277C4.78121 89.0344 3.66095 88.8802 2.57951 88.5699Z" fill="white"/>
<path d="M27.5683 88.7908L27.5454 80.0847L23.2725 87.2571H21.7617L17.5116 80.2678V88.7908H14.3604V74.2781H17.1378L22.5705 83.297L27.9193 74.2781H30.6738L30.712 88.7908H27.5683Z" fill="white"/>
<path d="M43.7148 85.6785H36.9773L35.6954 88.7916H32.2466L38.717 74.2942H42.0362L48.5219 88.7916H44.9967L43.7148 85.6785ZM42.6542 83.13L40.3652 77.5752L38.0761 83.13H42.6542Z" fill="white"/>
<path d="M59.2859 88.7911L56.4856 84.7471H53.3954V88.7911H50.0381V74.2937H56.3178C57.4672 74.267 58.6091 74.4855 59.6675 74.9346C60.5571 75.3168 61.3156 75.9507 61.8497 76.7582C62.3725 77.5969 62.6378 78.5706 62.6127 79.5585C62.6422 80.5447 62.3765 81.5171 61.8497 82.3512C61.3047 83.1506 60.5383 83.7738 59.6446 84.1443L62.8569 88.7911H59.2859ZM58.4314 77.6662C57.7665 77.1913 56.9574 76.9621 56.1423 77.0177H53.3954V82.0765H56.1347C56.952 82.1316 57.7626 81.8966 58.4237 81.4127C58.6854 81.1802 58.8902 80.8907 59.0225 80.5667C59.1548 80.2426 59.211 79.8925 59.1867 79.5433C59.2122 79.1928 59.1565 78.8412 59.0242 78.5157C58.8919 78.1902 58.6864 77.8996 58.4237 77.6662" fill="white"/>
<path d="M68.0765 77.0173H63.4297V74.2781H76.073V77.0173H71.4338V88.7908H68.0765V77.0173Z" fill="white"/>
<path d="M9.94604 94.6949C10.626 95.018 11.2303 95.4808 11.7194 96.053C12.2086 96.6253 12.5717 97.2941 12.7851 98.0161C12.9985 98.7381 13.0574 99.4969 12.9579 100.243C12.8584 100.989 12.6029 101.706 12.2078 102.347C11.6576 103.186 10.8702 103.841 9.94604 104.231C8.85503 104.692 7.67827 104.915 6.49426 104.885H3.46804V109.022H0.000488281V94.0486H6.49426C7.67886 94.0211 8.8557 94.2467 9.94604 94.7106V94.6949ZM8.67724 101.401C8.9453 101.163 9.15556 100.867 9.2921 100.535C9.42864 100.203 9.48788 99.8445 9.46532 99.4864C9.49156 99.1244 9.43413 98.7613 9.29746 98.4251C9.1608 98.0889 8.94858 97.7887 8.67724 97.5477C7.99076 97.0562 7.15562 96.8168 6.313 96.87H3.46804V102.079H6.29724C7.13986 102.132 7.975 101.893 8.66147 101.401" fill="white"/>
<path d="M24.5801 105.807H17.6214L16.2974 109.023H12.7432L19.4261 94.0493H22.8463L29.5529 109.023H25.9277L24.5801 105.807ZM23.4926 103.175L21.1283 97.4381L18.7641 103.175H23.4926Z" fill="white"/>
<path d="M40.6666 109.022L37.7507 104.845H34.5984V109.022H31.1309V94.0487H37.6167C38.804 94.0205 39.9835 94.2462 41.0764 94.7107C42.0132 95.0978 42.8084 95.7637 43.3539 96.618C43.8995 97.4723 44.1691 98.4737 44.1263 99.4865C44.1581 100.503 43.8835 101.505 43.3382 102.363C42.7819 103.195 41.9884 103.84 41.0606 104.215L44.4257 109.038L40.6666 109.022ZM39.784 97.532C39.0989 97.0375 38.2627 96.7978 37.4197 96.8543H34.5984V102.079H37.4276C38.272 102.138 39.1097 101.895 39.7918 101.394C40.0507 101.143 40.2565 100.843 40.397 100.511C40.5376 100.18 40.61 99.8231 40.61 99.4628C40.61 99.1026 40.5376 98.746 40.397 98.4144C40.2565 98.0827 40.0507 97.7826 39.7918 97.532" fill="white"/>
<path d="M52.3129 103.127L50.3033 105.232V109.022H46.8516V94.033H50.3033V101.031L56.939 94.033H60.7927L54.5826 100.708L61.1552 109.022H57.1124L52.3129 103.127Z" fill="white"/>
<path d="M0.000488281 116.095H2.23238V119.116H5.60262V116.095H7.85244V123.848H5.60262V120.953H2.23238V123.848H0.000488281V116.095Z" fill="white"/>
<path d="M15.7894 116.83C16.1286 117.166 16.3909 117.572 16.558 118.019C16.7252 118.467 16.7932 118.945 16.7575 119.421V123.849H14.6511V122.899C14.3942 123.279 14.0375 123.582 13.6201 123.773C13.2027 123.964 12.7407 124.037 12.2847 123.983C11.7516 123.998 11.2218 123.894 10.7341 123.679C10.325 123.505 9.97589 123.215 9.73015 122.845C9.50348 122.482 9.3853 122.062 9.38954 121.635C9.37542 121.306 9.44243 120.978 9.58467 120.681C9.72692 120.384 9.94002 120.127 10.2052 119.932C10.9544 119.463 11.8338 119.246 12.715 119.313H14.5077C14.5197 119.102 14.4858 118.892 14.4085 118.695C14.3311 118.498 14.212 118.321 14.0595 118.175C13.6739 117.885 13.1961 117.745 12.715 117.781C12.3035 117.779 11.8946 117.846 11.5049 117.978C11.1339 118.088 10.7871 118.267 10.4831 118.507L9.67637 116.929C10.1407 116.613 10.6562 116.379 11.2001 116.239C11.7845 116.08 12.3872 115.999 12.9928 115.997C13.9892 115.932 14.9747 116.235 15.7625 116.848L15.7894 116.83ZM13.8444 122.226C14.1406 122.048 14.3657 121.773 14.4808 121.447V120.649H12.9391C12.0427 120.649 11.5497 120.954 11.5497 121.545C11.5453 121.679 11.5741 121.813 11.6335 121.933C11.6929 122.053 11.7811 122.157 11.8903 122.235C12.1554 122.411 12.469 122.499 12.7867 122.486C13.1456 122.493 13.4994 122.4 13.8085 122.217" fill="white"/>
<path d="M30.0931 121.643C30.106 121.96 30.0399 122.275 29.9006 122.56C29.7613 122.845 29.5533 123.09 29.2953 123.275C28.5884 123.707 27.7643 123.907 26.938 123.848H22.7969V116.095H26.7587C27.5515 116.049 28.341 116.23 29.0354 116.615C29.2931 116.765 29.5056 116.981 29.6507 117.241C29.7959 117.502 29.8682 117.796 29.86 118.094C29.8671 118.457 29.764 118.813 29.5642 119.116C29.3536 119.418 29.0614 119.654 28.7217 119.797C29.1305 119.895 29.4919 120.134 29.7425 120.471C29.9932 120.809 30.1173 121.224 30.0931 121.643ZM24.8585 119.313H26.5615C27.3324 119.313 27.7178 119.014 27.7178 118.417C27.7178 117.87 27.3234 117.592 26.5346 117.592H24.8316L24.8585 119.313ZM27.9867 121.509C27.9959 121.383 27.9747 121.258 27.9248 121.142C27.8748 121.027 27.7976 120.925 27.6999 120.846C27.4276 120.691 27.116 120.619 26.8035 120.64H24.8674V122.361H26.7587C27.5833 122.361 27.9957 122.074 27.9957 121.464" fill="white"/>
<path d="M33.1932 123.454C32.5623 123.121 32.0374 122.618 31.6784 122.002C31.3067 121.379 31.1173 120.665 31.1316 119.94C31.1197 119.216 31.3089 118.502 31.6784 117.878C32.0441 117.277 32.5681 116.787 33.1932 116.462C33.8757 116.115 34.6326 115.94 35.3982 115.951C36.1582 115.939 36.9096 116.114 37.5853 116.462C38.2104 116.787 38.7344 117.277 39.1001 117.878C39.4695 118.502 39.6588 119.216 39.6469 119.94C39.6612 120.665 39.4717 121.379 39.1001 122.002C38.7386 122.619 38.2105 123.122 37.5763 123.454C36.9006 123.802 36.1492 123.977 35.3892 123.965C34.6236 123.976 33.8667 123.801 33.1842 123.454H33.1932ZM36.7696 121.536C36.9609 121.324 37.1085 121.076 37.2039 120.807C37.2992 120.537 37.3405 120.252 37.3253 119.967C37.3413 119.683 37.3004 119.399 37.205 119.131C37.1095 118.863 36.9615 118.617 36.7696 118.407C36.3926 118.054 35.895 117.859 35.3785 117.86C34.862 117.862 34.3657 118.061 33.9909 118.416C33.7975 118.625 33.6478 118.871 33.5508 119.139C33.4538 119.407 33.4115 119.691 33.4262 119.976C33.4123 120.262 33.455 120.547 33.5519 120.817C33.6488 121.086 33.798 121.333 33.9909 121.544C34.3699 121.917 34.8801 122.126 35.4117 122.126C35.9432 122.126 36.4534 121.917 36.8323 121.544" fill="white"/>
<path d="M41.1885 116.095H43.4293V120.702L47.2029 116.095H49.2645V123.848H47.0326V119.232L43.268 123.848H41.1885V116.095Z" fill="white"/>
<path d="M51.4312 116.095H53.663V119.116H57.0333V116.095H59.2831V123.848H57.0333V120.953H53.663V123.848H51.4312V116.095Z" fill="white"/>
<path d="M62.8953 123.453C62.2547 123.124 61.7203 122.621 61.3535 122.001C60.9792 121.379 60.7867 120.665 60.7978 119.94C60.7891 119.214 60.9814 118.501 61.3535 117.878C61.7273 117.273 62.2608 116.783 62.8953 116.462C63.5873 116.114 64.3529 115.939 65.1272 115.951C65.8733 115.934 66.6113 116.11 67.2694 116.462C67.8636 116.785 68.331 117.3 68.596 117.923L66.8571 118.864C66.698 118.538 66.4488 118.264 66.1391 118.075C65.8294 117.886 65.472 117.79 65.1092 117.797C64.8408 117.789 64.5735 117.835 64.3237 117.934C64.0739 118.032 63.8471 118.181 63.6572 118.371C63.4585 118.579 63.3043 118.826 63.2041 119.095C63.104 119.365 63.0599 119.652 63.0745 119.94C63.0602 120.228 63.1044 120.517 63.2046 120.788C63.3047 121.059 63.4586 121.307 63.6572 121.517C63.8471 121.707 64.0739 121.856 64.3237 121.955C64.5735 122.053 64.8408 122.1 65.1092 122.091C65.4722 122.1 65.8301 122.004 66.14 121.814C66.4499 121.625 66.6989 121.351 66.8571 121.024L68.596 122.001C68.3225 122.614 67.8568 123.12 67.2694 123.444C66.6137 123.803 65.8746 123.983 65.1272 123.964C64.3529 123.976 63.5873 123.801 62.8953 123.453Z" fill="white"/>
<path d="M73.3947 120.908H72.2205V123.848H69.9707V116.095H72.2205V119.107H73.4306L75.537 116.095H77.9302L75.2233 119.815L78.1184 123.848H75.4653L73.3947 120.908Z" fill="white"/>
<path d="M80.4238 123.454C79.7885 123.124 79.26 122.621 78.9001 122.002C78.5284 121.38 78.339 120.665 78.3533 119.94C78.3413 119.216 78.5306 118.502 78.9001 117.879C79.2668 117.275 79.7944 116.784 80.4238 116.463C81.1071 116.126 81.8584 115.952 82.6199 115.952C83.3813 115.952 84.1327 116.126 84.8159 116.463C85.4392 116.79 85.9625 117.279 86.3307 117.879C86.6959 118.504 86.8849 119.216 86.8775 119.94C86.8876 120.665 86.6984 121.378 86.3307 122.002C85.9656 122.607 85.4416 123.1 84.8159 123.427C84.1327 123.763 83.3813 123.938 82.6199 123.938C81.8584 123.938 81.1071 123.763 80.4238 123.427V123.454ZM84.0092 121.509C84.389 121.077 84.5852 120.515 84.556 119.94C84.5877 119.369 84.391 118.808 84.0092 118.381C83.6288 118.007 83.1171 117.798 82.584 117.798C82.051 117.798 81.5393 118.007 81.1588 118.381C80.9653 118.59 80.8157 118.836 80.7187 119.103C80.6217 119.371 80.5794 119.656 80.5942 119.94C80.5802 120.226 80.6229 120.512 80.7198 120.781C80.8167 121.05 80.9659 121.298 81.1588 121.509C81.5393 121.882 82.051 122.092 82.584 122.092C83.1171 122.092 83.6288 121.882 84.0092 121.509Z" fill="white"/>
<path d="M88.4126 116.095H90.6445V120.702L94.4271 116.095H96.4887V123.848H94.2478V119.232L90.4563 123.848H88.3857L88.4126 116.095ZM89.7482 113.038H91.2182C91.2098 113.328 91.3124 113.61 91.505 113.827C91.6084 113.925 91.7312 114.001 91.8655 114.049C91.9998 114.096 92.1426 114.116 92.2848 114.105C92.431 114.115 92.5778 114.096 92.7164 114.048C92.855 114 92.9826 113.925 93.0915 113.827C93.189 113.721 93.264 113.597 93.3117 113.461C93.3595 113.326 93.3791 113.182 93.3694 113.038H94.8663C94.8663 114.526 93.9699 115.27 92.3028 115.27C90.6356 115.27 89.7571 114.526 89.7482 113.038Z" fill="white"/>
<path fill-rule="evenodd" clip-rule="evenodd" d="M5.05762 13.3374C1.76007 18.2726 0 24.0747 0 30.0102C0 37.9694 3.16178 45.6026 8.78977 51.2306C14.4178 56.8586 22.051 60.0203 30.0102 60.0203C35.9456 60.0203 41.7478 58.2603 46.6829 54.9627C51.6181 51.6651 55.4645 46.9782 57.7359 41.4946C60.0073 36.0109 60.6016 29.9769 59.4437 24.1555C58.2857 18.3341 55.4276 12.9868 51.2306 8.78979C47.0336 4.59279 41.6863 1.7346 35.8649 0.57665C30.0435 -0.581298 24.0094 0.0130029 18.5258 2.2844C13.0421 4.5558 8.35518 8.40228 5.05762 13.3374ZM44.0166 43.6924C40.8114 46.8976 36.6223 48.8932 32.1588 49.3847L32.1772 55.6452H27.2207V49.3066C24.291 48.8902 21.4794 47.821 18.9993 46.1639C15.7402 43.9862 13.2 40.891 11.7 37.2697C10.2 33.6483 9.80752 29.6635 10.5722 25.8192C11.3369 21.9748 13.2244 18.4435 15.9961 15.6719C18.7677 12.9002 22.299 11.0127 26.1434 10.248C29.9878 9.48331 33.9726 9.87577 37.5939 11.3758C41.2152 12.8758 44.3104 15.4159 46.4881 18.6751C48.6657 21.9342 49.8281 25.7658 49.8281 29.6855C49.8219 34.9398 47.732 39.9771 44.0166 43.6924ZM32.7658 32.2798C28.6862 36.5757 27.4575 42.8747 27.2533 44.3066C27.2032 44.2971 27.1531 44.2874 27.103 44.2775C24.2179 43.704 21.5676 42.2876 19.4876 40.2076C17.4076 38.1276 15.9913 35.4774 15.4178 32.5923C14.8443 29.7071 15.1394 26.7167 16.2658 23.9994C17.3922 21.282 19.2993 18.9598 21.7457 17.3265C24.1922 15.6932 27.0682 14.8222 30.0097 14.8237C33.9501 14.8278 37.7279 16.3949 40.5141 19.1812C42.2602 20.9273 43.5275 23.0628 44.2314 25.3837C41.1832 26.0557 36.6838 28.166 32.7658 32.2798ZM36.3515 35.6952C39.4585 32.4254 42.8667 30.8812 44.8577 30.3347C44.7406 33.0487 43.8817 35.6834 42.3688 37.9495C40.7355 40.396 38.4133 42.3031 35.6959 43.4295C34.5937 43.8864 33.4465 44.2065 32.2797 44.3873C32.6454 42.6188 33.7374 38.4401 36.3515 35.6952Z" fill="white"/>
</svg>
