<svg width="97" height="127" viewBox="0 0 97 127" fill="none" xmlns="http://www.w3.org/2000/svg">
<path d="M3.06627 88.5146C2.13996 88.2698 1.26625 87.8575 0.488281 87.2983L1.62811 84.7662C2.30284 85.2515 3.05213 85.6235 3.84654 85.8678C4.67897 86.1395 5.54888 86.2789 6.42453 86.2809C7.15419 86.333 7.88424 86.1849 8.53587 85.8525C8.74204 85.7454 8.91509 85.584 9.0364 85.3859C9.15772 85.1878 9.2227 84.9603 9.22436 84.728C9.22708 84.5625 9.19197 84.3986 9.1217 84.2488C9.05143 84.099 8.94787 83.9672 8.81891 83.8635C8.51226 83.6125 8.15855 83.4252 7.77854 83.3127C7.35781 83.175 6.79172 83.022 6.07264 82.8538C5.14946 82.6572 4.23983 82.4016 3.34931 82.0888C2.64713 81.8297 2.02297 81.3952 1.53631 80.8266C1.0102 80.1803 0.738172 79.3643 0.771326 78.5316C0.761163 77.7154 0.998534 76.9153 1.45216 76.2367C1.97106 75.5076 2.68775 74.9422 3.51761 74.6073C4.58924 74.1782 5.73722 73.9726 6.89117 74.0029C7.8093 74.0032 8.72393 74.1162 9.61449 74.3395C10.4255 74.5342 11.2002 74.857 11.9094 75.2958L10.8767 77.8431C9.65509 77.1186 8.26541 76.7257 6.84527 76.7033C6.12179 76.6505 5.39863 76.81 4.76452 77.1623C4.55641 77.286 4.38415 77.4619 4.26476 77.6725C4.14536 77.8831 4.08295 78.1212 4.08369 78.3633C4.08137 78.6045 4.15362 78.8405 4.29055 79.0391C4.42748 79.2376 4.62241 79.389 4.84867 79.4725C5.61525 79.7923 6.41238 80.0333 7.22776 80.1916C8.14757 80.3917 9.05445 80.6471 9.94343 80.9566C10.6583 81.1979 11.3005 81.6164 11.81 82.1729C12.3439 82.8148 12.6169 83.634 12.575 84.4679C12.584 85.2862 12.341 86.0874 11.8788 86.7628C11.355 87.4966 10.6296 88.0626 9.79044 88.3922C8.71691 88.824 7.56586 89.0297 6.40923 88.9965C5.28119 88.9965 4.15865 88.8395 3.07392 88.5299" fill="white"/>
<path d="M28.088 88.7281L28.0727 80.015L23.7965 87.1905H22.2818L18.0209 80.1986V88.7281H14.8691V74.2012H17.6537L23.085 83.2279L28.4399 74.2012H31.2015L31.2474 88.7281H28.088Z" fill="white"/>
<path d="M44.2597 85.6223H37.5126L36.2274 88.7358H32.7773L39.2567 74.2012H42.5767L49.0714 88.7358H45.5449L44.2597 85.6223ZM43.1734 83.0673L40.8785 77.4982L38.5835 83.0673H43.1734Z" fill="white"/>
<path d="M59.8495 88.7282L57.042 84.6815H53.9821V88.7282H50.6162V74.1936H56.912C58.0619 74.1668 59.2042 74.3859 60.2626 74.8362C61.1693 75.2207 61.9359 75.8745 62.4585 76.7092C62.9812 77.5439 63.2348 78.519 63.1848 79.5026C63.2157 80.4889 62.9492 81.4618 62.4199 82.2947C61.8714 83.0974 61.1003 83.7222 60.2014 84.0924L63.4602 88.7588L59.8495 88.7282ZM58.9927 77.5978C58.3278 77.1177 57.5161 76.885 56.6978 76.9399H53.9592V82.004H56.6978C57.5174 82.0606 58.3306 81.8248 58.9927 81.3385C59.254 81.1062 59.4587 80.8173 59.5913 80.4938C59.7239 80.1703 59.7808 79.8208 59.7577 79.472C59.782 79.1219 59.7257 78.7709 59.5931 78.446C59.4604 78.121 59.2551 77.8309 58.9927 77.5978Z" fill="white"/>
<path d="M68.6472 76.9398H63.9961V74.2012H76.6565V76.9398H72.0131V88.7281H68.6472V76.9398Z" fill="white"/>
<path d="M12.1122 105.562H5.28187L3.98086 108.714H0.488281L7.04752 94H10.4085L16.9832 108.714H13.4132L12.1122 105.562ZM11.0357 102.975L8.7125 97.3454L6.38927 102.975H11.0357Z" fill="white"/>
<path d="M31.8589 94.0078L25.4933 108.714H22.1324L15.7822 94.0078H19.4607L23.9367 104.509L28.4748 94.0078H31.8589Z" fill="white"/>
<path d="M44.4668 105.98V108.714H33.083V94.0078H44.1958V96.7337H36.4594V99.932H43.2897V102.581H36.4594V105.98H44.4668Z" fill="white"/>
<path d="M60.6679 94.0078V108.714H57.8723L50.5387 99.7849V108.714H47.1777V94.0078H49.9966L57.307 102.937V94.0078H60.6679Z" fill="white"/>
<path d="M65.6697 107.219C65.0549 106.551 64.5821 105.766 64.28 104.91C63.9778 104.054 63.8525 103.146 63.9117 102.24V94.0078H67.3192V102.116C67.3192 104.749 68.4111 106.065 70.5949 106.065C71.0464 106.094 71.4988 106.024 71.9202 105.86C72.3416 105.695 72.7219 105.44 73.0343 105.113C73.6743 104.25 73.9847 103.187 73.9094 102.116V94.0078H77.2703V102.24C77.3707 103.142 77.2681 104.055 76.97 104.912C76.6718 105.77 76.1857 106.55 75.5472 107.195C74.9087 107.84 74.134 108.334 73.2798 108.641C72.4256 108.948 71.5135 109.06 70.6104 108.969C69.7174 109.024 68.8227 108.897 67.9802 108.596C67.1377 108.295 66.3649 107.827 65.7084 107.219" fill="white"/>
<path d="M91.0165 105.98V108.714H79.625V94.0078H90.7455V96.7337H83.0092V99.932H89.8395V102.581H83.0092V105.98H91.0165Z" fill="white"/>
<path d="M0.488281 116.203H2.77058V119.306H6.22969V116.203H8.52982V124.147H6.22969V121.178H2.77058V124.147H0.488281V116.203Z" fill="white"/>
<path d="M16.6428 116.961C16.9933 117.308 17.2635 117.727 17.4345 118.189C17.6055 118.651 17.673 119.145 17.6324 119.636V124.147H15.4838V123.158C15.2188 123.545 14.8528 123.853 14.4254 124.048C13.998 124.243 13.5255 124.317 13.0589 124.263C12.5133 124.279 11.971 124.172 11.472 123.951C11.0509 123.76 10.6946 123.45 10.4467 123.06C10.2103 122.69 10.0864 122.259 10.0901 121.82C10.0681 121.477 10.1333 121.133 10.2798 120.821C10.4264 120.509 10.6494 120.24 10.9282 120.037C11.696 119.553 12.6 119.331 13.5047 119.404H15.3323C15.3465 119.19 15.3131 118.974 15.2345 118.774C15.1559 118.574 15.034 118.393 14.8776 118.245C14.4861 117.944 13.9972 117.798 13.5047 117.835C13.0803 117.837 12.659 117.906 12.2565 118.04C11.8789 118.153 11.5252 118.334 11.2135 118.575L10.3843 116.97C10.8587 116.643 11.3868 116.402 11.9445 116.257C12.5513 116.089 13.1782 116.005 13.8078 116.008C14.8303 115.946 15.8397 116.263 16.6428 116.899V116.961ZM14.6815 122.382C14.9873 122.197 15.2178 121.909 15.3323 121.571V120.759H13.7543C12.8093 120.759 12.3368 121.071 12.3368 121.695C12.3319 121.831 12.3611 121.966 12.4219 122.088C12.4826 122.209 12.5729 122.313 12.6845 122.391C12.9646 122.581 13.3005 122.672 13.6384 122.649C14.0039 122.657 14.3645 122.564 14.6815 122.382Z" fill="white"/>
<path d="M27.3141 121.133H26.1195V124.147H23.8193V116.203H26.1195V119.288H27.3587L29.5162 116.203H31.9679L29.1863 120.01L32.1551 124.147H29.4448L27.3141 121.133Z" fill="white"/>
<path d="M33.2969 116.203H35.5792V120.928L39.4484 116.203H41.5613V124.147H39.2701V119.422L35.4187 124.147H33.2969V116.203Z" fill="white"/>
<path d="M50.4671 116.596C51.0673 116.932 51.5614 117.429 51.8935 118.031C52.2276 118.697 52.4015 119.431 52.4015 120.175C52.4015 120.92 52.2276 121.654 51.8935 122.32C51.5614 122.922 51.0673 123.419 50.4671 123.755C49.8511 124.097 49.1566 124.272 48.4522 124.263C48.0078 124.287 47.5637 124.213 47.1509 124.046C46.7382 123.88 46.3668 123.625 46.0629 123.3V127H43.7539V116.204H45.956V117.095C46.265 116.743 46.6509 116.467 47.0837 116.288C47.5165 116.108 47.9847 116.031 48.4522 116.061C49.1566 116.052 49.8511 116.227 50.4671 116.569V116.596ZM49.5042 121.749C49.8728 121.297 50.0741 120.732 50.0741 120.149C50.0741 119.566 49.8728 119 49.5042 118.548C49.1171 118.166 48.595 117.952 48.0511 117.952C47.5071 117.952 46.985 118.166 46.5979 118.548C46.2293 119 46.028 119.566 46.028 120.149C46.028 120.732 46.2293 121.297 46.5979 121.749C46.985 122.131 47.5071 122.346 48.0511 122.346C48.595 122.346 49.1171 122.131 49.5042 121.749Z" fill="white"/>
<path d="M55.4866 123.738C54.8396 123.411 54.2987 122.907 53.9265 122.285C53.5581 121.643 53.3643 120.916 53.3643 120.176C53.3643 119.436 53.5581 118.709 53.9265 118.068C54.2987 117.446 54.8396 116.942 55.4866 116.615C56.1804 116.274 56.9428 116.098 57.7155 116.098C58.4881 116.098 59.2505 116.274 59.9443 116.615C60.5999 116.944 61.1475 117.455 61.5223 118.086C61.8906 118.727 62.0845 119.454 62.0845 120.194C62.0845 120.934 61.8906 121.661 61.5223 122.302C61.1545 122.922 60.6201 123.425 59.9799 123.756C59.2861 124.096 58.5237 124.272 57.7511 124.272C56.9785 124.272 56.2161 124.096 55.5223 123.756L55.4866 123.738ZM59.2221 121.794C59.5907 121.342 59.792 120.777 59.792 120.194C59.792 119.611 59.5907 119.046 59.2221 118.594C59.0366 118.396 58.8109 118.241 58.5602 118.138C58.3096 118.035 58.0398 117.986 57.7689 117.996C57.4969 117.988 57.2261 118.036 56.9742 118.139C56.7222 118.242 56.4948 118.397 56.3068 118.594C55.9383 119.046 55.737 119.611 55.737 120.194C55.737 120.777 55.9383 121.342 56.3068 121.794C56.4948 121.991 56.7222 122.146 56.9742 122.249C57.2261 122.352 57.4969 122.4 57.7689 122.392C58.0398 122.401 58.3096 122.353 58.5602 122.25C58.8109 122.147 59.0366 121.992 59.2221 121.794Z" fill="white"/>
<path d="M71.133 121.892C71.1481 122.215 71.0818 122.538 70.94 122.829C70.7983 123.12 70.5857 123.371 70.3217 123.559C69.5964 124 68.7524 124.205 67.9056 124.147H63.6709V116.204H67.7273C68.539 116.159 69.3467 116.347 70.0542 116.748C70.3253 116.895 70.5514 117.112 70.7084 117.378C70.8654 117.643 70.9475 117.946 70.9457 118.254C70.9505 118.624 70.845 118.988 70.6426 119.297C70.4195 119.613 70.1099 119.858 69.7511 120.002C70.1678 120.105 70.5355 120.35 70.791 120.695C71.0465 121.04 71.1737 121.463 71.1508 121.892H71.133ZM65.8016 119.467H67.5847C68.3871 119.467 68.7882 119.17 68.7882 118.575C68.7882 118.014 68.3871 117.737 67.5847 117.737H65.8016V119.467ZM69.0022 121.713C69.0126 121.585 68.9912 121.456 68.9398 121.338C68.8885 121.22 68.8089 121.116 68.708 121.036C68.4382 120.879 68.1282 120.805 67.8165 120.822H65.8373V122.605H67.6738C68.5654 122.605 68.9398 122.32 68.9398 121.713" fill="white"/>
<path d="M78.7639 116.961C79.1144 117.308 79.3846 117.727 79.5556 118.189C79.7266 118.651 79.7941 119.145 79.7535 119.636V124.147H77.596V123.158C77.3338 123.546 76.9696 123.855 76.5434 124.05C76.1172 124.245 75.6454 124.319 75.18 124.263C74.6343 124.28 74.0919 124.173 73.5931 123.951C73.1703 123.762 72.8133 123.452 72.5678 123.06C72.3275 122.692 72.2032 122.26 72.2112 121.82C72.1891 121.477 72.2544 121.133 72.4009 120.821C72.5475 120.509 72.7705 120.24 73.0493 120.037C73.8144 119.555 74.7151 119.333 75.6169 119.404H77.4801C77.4951 119.189 77.4612 118.972 77.3809 118.772C77.3007 118.571 77.1761 118.391 77.0165 118.245C76.6262 117.942 76.1364 117.796 75.6436 117.835C75.2222 117.837 74.8038 117.906 74.4044 118.04C74.0267 118.153 73.6731 118.334 73.3613 118.575L72.5322 116.97C73.0066 116.643 73.5346 116.402 74.0923 116.257C74.699 116.089 75.326 116.005 75.9556 116.008C76.9781 115.946 77.9875 116.263 78.7907 116.899L78.7639 116.961ZM76.8293 122.382C77.1191 122.214 77.3472 121.958 77.4801 121.651V120.84H75.8754C74.9304 120.84 74.4579 121.152 74.4579 121.776C74.453 121.911 74.4822 122.046 74.543 122.168C74.6037 122.289 74.694 122.394 74.8056 122.471C75.0824 122.661 75.4154 122.753 75.7506 122.73C76.1189 122.737 76.4823 122.644 76.8026 122.462" fill="white"/>
<path fill-rule="evenodd" clip-rule="evenodd" d="M5.54043 13.3385C2.24492 18.273 0.48675 24.074 0.488282 30.0078C0.490339 37.9629 3.65195 45.5915 9.27782 51.216C14.9037 56.8404 22.5331 60 30.4883 60C36.422 60 42.2225 58.2403 47.1562 54.9436C52.0898 51.6468 55.935 46.961 58.2054 41.4787C60.4758 35.9965 61.0694 29.9641 59.9113 24.1444C58.7531 18.3248 55.8951 12.9793 51.6987 8.78407C47.5024 4.5888 42.1562 1.73219 36.3362 0.57551C30.5163 -0.581171 24.4841 0.0140355 19.0024 2.28585C13.5208 4.55767 8.83593 8.40405 5.54043 13.3385ZM30.4881 51.6442C26.2068 51.6458 22.0212 50.3775 18.4607 47.9999C14.9003 45.6223 12.125 42.2421 10.4859 38.287C8.84682 34.3319 8.41755 29.9795 9.25242 25.7803C10.0873 21.5812 12.1488 17.724 15.1761 14.6966C18.2035 11.6693 22.0607 9.60779 26.2598 8.77293C30.4589 7.93806 34.8114 8.36732 38.7665 10.0064C42.7216 11.6455 46.1018 14.4208 48.4794 17.9812C50.857 21.5417 52.1253 25.7273 52.1237 30.0086C52.1176 35.7448 49.8361 41.2444 45.78 45.3005C41.7239 49.3566 36.2243 51.6381 30.4881 51.6442ZM30.4881 14.745C27.4689 14.7435 24.5171 15.6374 22.006 17.3136C19.4949 18.9899 17.5373 21.3732 16.3809 24.1621C15.2244 26.951 14.921 30.0203 15.5091 32.9816C16.0972 35.943 17.5503 38.6634 19.6846 40.7988C21.819 42.9342 24.5387 44.3887 27.4997 44.9783C30.4608 45.5679 33.5301 45.2661 36.3196 44.111C39.1092 42.956 41.4935 40.9996 43.171 38.4894C44.8485 35.9791 45.7439 33.0278 45.7439 30.0086C45.7418 25.9617 44.1344 22.0809 41.2742 19.2179C38.4141 16.3548 34.535 14.7434 30.4881 14.7373V14.745ZM30.4426 24.2559C29.312 24.2543 28.2063 24.5883 27.2656 25.2155C26.3249 25.8427 25.5914 26.7349 25.1581 27.7791C24.7247 28.8234 24.6109 29.9728 24.8311 31.0817C25.0513 32.1907 25.5956 33.2094 26.395 34.0089C27.1945 34.8083 28.2132 35.3526 29.3222 35.5728C30.4311 35.793 31.5805 35.6792 32.6248 35.2458C33.669 34.8125 34.5612 34.079 35.1884 33.1383C35.8156 32.1976 36.1496 31.0919 36.148 29.9613C36.146 28.4474 35.5431 26.9962 34.4719 25.9265C33.4026 24.8585 31.9537 24.2579 30.4426 24.2559Z" fill="white"/>
</svg>
