<svg width="99" height="142" viewBox="0 0 99 142" fill="none" xmlns="http://www.w3.org/2000/svg">
<path d="M2.8639 98.9506C1.83365 98.6794 0.862585 98.2192 0 97.5933L1.30455 94.7665C2.05552 95.3049 2.88837 95.7185 3.77097 95.9911C4.6924 96.2926 5.65533 96.4475 6.62469 96.4503C7.43367 96.5026 8.24214 96.3407 8.9688 95.9809C9.19189 95.864 9.38012 95.6901 9.51437 95.4768C9.64862 95.2635 9.72412 95.0184 9.73319 94.7665C9.74613 94.5728 9.71211 94.3788 9.63402 94.2011C9.55594 94.0234 9.43612 93.8672 9.28475 93.7459C8.94487 93.4679 8.55348 93.2598 8.13307 93.1336C7.66425 92.9805 7.03235 92.807 6.23739 92.6233C5.20006 92.3984 4.17866 92.1052 3.17984 91.7457C2.39127 91.4636 1.68904 90.9819 1.14148 90.3476C0.556385 89.6185 0.25899 88.6997 0.30575 87.7656C0.298368 86.859 0.560943 85.9708 1.05995 85.2143C1.63643 84.4053 2.43217 83.7785 3.35311 83.408C4.54085 82.9308 5.81436 82.705 7.09351 82.7446C8.12393 82.7402 9.15094 82.8636 10.1511 83.112C11.0591 83.3134 11.9294 83.6578 12.7296 84.1325L11.5983 87.0411C10.2471 86.234 8.70744 85.7976 7.13428 85.7756C6.33008 85.7186 5.5266 85.8959 4.82073 86.2859C4.58997 86.424 4.39909 86.6199 4.26686 86.8543C4.13462 87.0887 4.06558 87.3535 4.06654 87.6228C4.06616 87.8888 4.14564 88.1487 4.29467 88.3689C4.4437 88.5891 4.65539 88.7594 4.90227 88.8576C5.75293 89.2095 6.63747 89.4728 7.54194 89.6434C8.55973 89.8795 9.5635 90.1725 10.5485 90.5211C11.3327 90.8067 12.0334 91.2837 12.5869 91.909C13.1761 92.6239 13.4745 93.5349 13.4226 94.4603C13.4298 95.362 13.1633 96.2446 12.6582 96.9912C12.0837 97.8182 11.2843 98.4628 10.3549 98.8486C9.1631 99.324 7.88663 99.5498 6.6043 99.5119C5.33744 99.5006 4.07841 99.3117 2.8639 98.9506Z" fill="#222630"/>
<path d="M31.4922 99.1855L31.4616 89.5108L26.7224 97.4812H25.0408L20.322 89.7149V99.1855H16.8262V83.0611H19.9143L25.9377 93.0827L31.8795 83.0611H34.937L34.988 99.1855H31.4922Z" fill="#222630"/>
<path d="M50.2554 95.7874H42.7746L41.3478 99.2368H37.5156L44.6499 83.1124H48.3393L55.545 99.2368H51.6823L50.2554 95.7874ZM49.0834 92.9503L46.5252 86.7761L43.9671 92.9503H49.0834Z" fill="#222630"/>
<path d="M68.2827 99.1859L65.1742 94.6956H61.7396V99.1859H58.0195V83.0615H65.0315C66.3082 83.0308 67.5767 83.2744 68.7515 83.7759C69.7437 84.2014 70.5877 84.9116 71.1772 85.817C71.745 86.7358 72.0385 87.7981 72.0231 88.8786C72.0449 89.9612 71.7471 91.0262 71.167 91.9401C70.5605 92.83 69.7064 93.522 68.7107 93.9302L72.3288 99.1145L68.2827 99.1859ZM67.3348 86.8273C66.597 86.2934 65.6949 86.0369 64.7869 86.1027H61.7293V91.7054H64.7869C65.6978 91.7699 66.6017 91.5056 67.3348 90.9604C67.6252 90.7084 67.8549 90.3939 68.0066 90.0405C68.1584 89.687 68.2284 89.3038 68.2113 88.9194C68.2284 88.535 68.1584 88.1518 68.0066 87.7983C67.8549 87.4448 67.6252 87.1303 67.3348 86.8783" fill="#222630"/>
<path d="M79.3324 86.1023H74.1753V83.0611H88.2196V86.1023H83.0626V99.1855H79.3324V86.1023Z" fill="#222630"/>
<path d="M10.7865 106.226C11.7899 106.647 12.6422 107.362 13.2312 108.278C13.8201 109.193 14.118 110.266 14.0854 111.355C14.1031 112.443 13.804 113.512 13.2248 114.433C12.6365 115.346 11.7868 116.061 10.7865 116.484C9.60363 116.981 8.32941 117.222 7.04709 117.192H3.7892V121.665H0.0395508V105.508H7.04709C8.33056 105.476 9.60586 105.721 10.7865 106.226ZM9.41367 113.468C9.68966 113.195 9.9088 112.87 10.0584 112.512C10.2079 112.154 10.2849 111.769 10.2849 111.381C10.2849 110.992 10.2079 110.608 10.0584 110.249C9.9088 109.891 9.68966 109.566 9.41367 109.293C8.66577 108.761 7.75753 108.504 6.8422 108.565H3.76871V114.197H6.8422C7.75753 114.257 8.66577 114 9.41367 113.468Z" fill="#222630"/>
<path d="M30.0564 118.71V121.726H17.5166V105.507H29.749V108.513H21.2355V112.042H28.7553V114.955H21.2355V118.71H30.0564Z" fill="#222630"/>
<path d="M36.862 120.906C35.5483 120.219 34.4493 119.182 33.6861 117.91C32.9346 116.603 32.5391 115.12 32.5391 113.612C32.5391 112.103 32.9346 110.621 33.6861 109.313C34.4522 108.044 35.5504 107.008 36.862 106.318C38.2685 105.603 39.8234 105.231 41.4005 105.231C42.9777 105.231 44.5326 105.603 45.939 106.318C47.2447 107.012 48.3386 108.047 49.1047 109.313C49.6875 110.276 50.0678 111.348 50.2222 112.464C50.3766 113.579 50.3019 114.714 50.0026 115.8C49.7033 116.885 49.1858 117.898 48.4817 118.776C47.7777 119.654 46.902 120.378 45.9083 120.906C44.5038 121.627 42.9481 122.003 41.3698 122.003C39.7915 122.003 38.2358 121.627 36.8313 120.906H36.862ZM44.0027 118.146C44.7711 117.713 45.4029 117.074 45.8263 116.299C46.2573 115.469 46.4824 114.547 46.4824 113.612C46.4824 112.676 46.2573 111.754 45.8263 110.924C45.4027 110.153 44.7707 109.516 44.0027 109.088C43.213 108.639 42.3185 108.409 41.4108 108.421C40.503 108.409 39.6085 108.639 38.8188 109.088C38.0559 109.52 37.4281 110.155 37.0055 110.924C36.5744 111.754 36.3494 112.676 36.3494 113.612C36.3494 114.547 36.5744 115.469 37.0055 116.299C37.4279 117.071 38.0555 117.71 38.8188 118.146C39.6095 118.591 40.504 118.817 41.4108 118.803C42.3176 118.817 43.212 118.591 44.0027 118.146Z" fill="#222630"/>
<path d="M64.0799 106.226C64.8143 106.576 65.4668 107.077 65.9949 107.696C66.523 108.315 66.9148 109.039 67.1449 109.82C67.3749 110.601 67.438 111.422 67.33 112.229C67.2221 113.036 66.9454 113.812 66.5182 114.504C65.9276 115.416 65.0786 116.131 64.0799 116.556C62.8971 117.053 61.6228 117.294 60.3405 117.264H57.0827V121.737H53.333V105.508H60.3405C61.624 105.476 62.8993 105.721 64.0799 106.226ZM62.6969 113.468C62.9754 113.197 63.1967 112.872 63.3479 112.514C63.499 112.155 63.5769 111.77 63.5769 111.381C63.5769 110.992 63.499 110.606 63.3479 110.248C63.1967 109.889 62.9754 109.565 62.6969 109.293C61.9536 108.76 61.048 108.502 60.1356 108.565H57.0622V114.197H60.1356C61.048 114.259 61.9536 114.002 62.6969 113.468Z" fill="#222630"/>
<path d="M71.293 105.507H75.0324V118.669H83.1566V121.726H71.293V105.507Z" fill="#222630"/>
<path d="M98.9055 118.71V121.726H86.3657V105.507H98.5981V108.513H90.0846V112.042H97.6044V114.955H90.0846V118.71H98.9055Z" fill="#222630"/>
<path d="M9.95645 129.637V137.112C10.01 137.781 9.92359 138.453 9.70274 139.086C9.48188 139.72 9.13146 140.3 8.67388 140.789C7.62409 141.656 6.2816 142.084 4.92482 141.986C4.09195 141.994 3.26196 141.887 2.45833 141.668C1.758 141.495 1.09862 141.185 0.518026 140.757L1.61424 138.891C2.0401 139.221 2.5232 139.471 3.03933 139.626C3.59891 139.807 4.18327 139.9 4.77135 139.9C5.48901 139.962 6.20295 139.746 6.76647 139.297C6.9961 139.051 7.17218 138.76 7.28353 138.443C7.39487 138.125 7.43904 137.788 7.41323 137.453V137.068C7.04715 137.446 6.60382 137.739 6.11372 137.929C5.62362 138.118 5.09836 138.199 4.57403 138.166C3.78751 138.173 3.01152 137.985 2.31582 137.617C1.64486 137.268 1.08337 136.74 0.693425 136.091C0.282423 135.406 0.0733987 134.618 0.090502 133.819C0.0718518 133.023 0.281065 132.239 0.693425 131.558C1.08269 130.906 1.64409 130.374 2.31582 130.021C3.01234 129.657 3.78839 129.472 4.57403 129.484C5.12261 129.464 5.66823 129.572 6.16833 129.799C6.66844 130.025 7.10949 130.364 7.45708 130.79V129.692L9.95645 129.637ZM6.73357 135.444C7.15597 135.02 7.39319 134.446 7.39319 133.847C7.39319 133.248 7.15597 132.674 6.73357 132.25C6.2531 131.859 5.65318 131.646 5.03444 131.646C4.4157 131.646 3.81577 131.859 3.3353 132.25C3.11798 132.455 2.94484 132.702 2.8265 132.977C2.70816 133.252 2.64711 133.548 2.64711 133.847C2.64711 134.146 2.70816 134.442 2.8265 134.716C2.94484 134.991 3.11798 135.239 3.3353 135.444C3.81577 135.834 4.4157 136.047 5.03444 136.047C5.65318 136.047 6.2531 135.834 6.73357 135.444Z" fill="#0090D7"/>
<path d="M16.1177 129.834C16.6965 129.605 17.3151 129.493 17.9374 129.505V131.909H17.3564C17.0372 131.891 16.7176 131.937 16.4164 132.045C16.1152 132.152 15.8385 132.319 15.6025 132.535C15.3771 132.789 15.2048 133.087 15.0956 133.409C14.9864 133.731 14.9426 134.072 14.9667 134.412V138.649H12.3687V129.637H14.8571V130.822C15.1774 130.382 15.614 130.04 16.1177 129.834Z" fill="#0090D7"/>
<path d="M21.1263 138.155C20.4013 137.783 19.7939 137.217 19.3723 136.519C18.9559 135.793 18.7368 134.97 18.7368 134.132C18.7368 133.294 18.9559 132.471 19.3723 131.745C19.7923 131.043 20.3998 130.473 21.1263 130.098C21.9129 129.695 22.7861 129.492 23.6695 129.505C24.5495 129.49 25.4195 129.694 26.2017 130.098C26.9262 130.475 27.5329 131.045 27.9557 131.745C28.3721 132.471 28.5912 133.294 28.5912 134.132C28.5912 134.97 28.3721 135.793 27.9557 136.519C27.5292 137.213 26.9231 137.778 26.2017 138.155C25.4195 138.559 24.5495 138.763 23.6695 138.748C22.7861 138.761 21.9129 138.558 21.1263 138.155ZM25.3138 135.96C25.7248 135.446 25.9487 134.807 25.9487 134.149C25.9487 133.49 25.7248 132.851 25.3138 132.337C25.1015 132.117 24.8455 131.944 24.5623 131.829C24.2792 131.713 23.975 131.658 23.6695 131.668C23.3621 131.657 23.0559 131.711 22.7707 131.826C22.4855 131.942 22.2278 132.116 22.0142 132.337C21.5955 132.848 21.3667 133.488 21.3667 134.149C21.3667 134.809 21.5955 135.449 22.0142 135.96C22.2268 136.183 22.4841 136.359 22.7693 136.477C23.0546 136.594 23.3613 136.65 23.6695 136.64C23.9758 136.648 24.2805 136.592 24.5637 136.474C24.8469 136.357 25.1024 136.182 25.3138 135.96Z" fill="#0090D7"/>
<path d="M39.3556 129.637V138.616H36.8891V137.519C36.5448 137.901 36.1223 138.204 35.6504 138.408C35.1621 138.617 34.6357 138.721 34.1047 138.715C33.5934 138.742 33.082 138.666 32.6002 138.492C32.1184 138.319 31.6759 138.051 31.2984 137.705C30.9312 137.296 30.6506 136.817 30.4735 136.296C30.2964 135.775 30.2265 135.224 30.268 134.676V129.637H32.866V134.324C32.866 135.773 33.4799 136.52 34.6857 136.52C34.9656 136.533 35.2449 136.484 35.5043 136.378C35.7636 136.272 35.9968 136.11 36.1875 135.905C36.5989 135.399 36.8027 134.756 36.7575 134.105V129.714L39.3556 129.637Z" fill="#0090D7"/>
<path d="M49.3439 130.087C50.019 130.466 50.5765 131.024 50.9553 131.7C51.3374 132.452 51.5367 133.283 51.5367 134.126C51.5367 134.969 51.3374 135.801 50.9553 136.552C50.58 137.234 50.0218 137.796 49.3439 138.177C48.6505 138.563 47.868 138.76 47.0747 138.747C46.571 138.771 46.0683 138.685 45.6009 138.495C45.1336 138.306 44.7127 138.017 44.3671 137.65V141.832H41.769V129.637H44.2574V130.68C44.6047 130.279 45.0397 129.965 45.5285 129.761C46.0172 129.558 46.5465 129.47 47.0747 129.505C47.8698 129.489 48.6542 129.691 49.3439 130.087ZM48.2477 135.937C48.6663 135.427 48.8951 134.787 48.8951 134.126C48.8951 133.466 48.6663 132.826 48.2477 132.315C47.809 131.883 47.2185 131.641 46.6033 131.641C45.9882 131.641 45.3977 131.883 44.959 132.315C44.5404 132.826 44.3115 133.466 44.3115 134.126C44.3115 134.787 44.5404 135.427 44.959 135.937C45.1741 136.155 45.4302 136.328 45.7124 136.446C45.9947 136.564 46.2975 136.625 46.6033 136.625C46.9092 136.625 47.212 136.564 47.4942 136.446C47.7765 136.328 48.0326 136.155 48.2477 135.937Z" fill="#0090D7"/>
<path d="M0 33.5433C0 26.9091 1.96728 20.4238 5.65307 14.9077C9.33885 9.39149 14.5776 5.09216 20.7068 2.55335C26.8361 0.0145337 33.5805 -0.649735 40.0873 0.64454C46.594 1.93882 52.5709 5.13351 57.262 9.82462C61.9531 14.5157 65.1478 20.4926 66.4421 26.9993C67.7364 33.5061 67.0721 40.2505 64.5333 46.3798C61.9945 52.509 57.6951 57.7478 52.179 61.4335C46.6628 65.1193 40.1775 67.0866 33.5433 67.0866C24.6471 67.0866 16.1152 63.5526 9.82461 57.262C3.53402 50.9714 0 42.4396 0 33.5433" fill="#0090D7"/>
</svg>
