<svg width="60" height="60" viewBox="0 0 60 60" fill="none" xmlns="http://www.w3.org/2000/svg">
<path d="M50.0508 14.9526H9.91015C9.35534 14.9526 8.90625 15.4024 8.90625 15.9565V44.0553C8.90625 44.6094 9.35603 45.0585 9.91015 45.0585H50.0508C50.6049 45.0585 51.054 44.6094 51.054 44.0553V15.9565C51.054 15.4024 50.6049 14.9526 50.0508 14.9526ZM11.8599 43.0514L19.945 31.7321L24.3709 37.9186L21.3765 43.0514H11.8599ZM23.7014 43.0514L36.0011 21.9626L48.3035 43.0514H23.7014ZM49.0469 16.9597V40.3423L36.8689 19.4684C36.5469 18.9896 35.8974 18.8625 35.4186 19.1845C35.3067 19.2598 35.21 19.3565 35.1347 19.4684L25.4785 36.0268L20.7623 29.4307C20.5751 29.164 20.2711 29.0037 19.945 29.0023C19.6209 29.0023 19.3169 29.1585 19.1283 29.4224L10.914 40.9227V16.9597H49.0469Z" fill="#9BC130"/>
<path d="M59.8605 40.7041L57.0747 30.3065V11.9421C57.0747 10.2797 55.7267 8.93177 54.0644 8.93177H51.3429L50.5069 5.79641C50.0696 4.19695 48.4224 3.24971 46.8202 3.67738L27.199 8.93177H5.89538C4.23304 8.93177 2.88507 10.2797 2.88507 11.9421V15.4457L2.23078 15.6198C0.629933 16.0571 -0.320762 17.7015 0.0993124 19.3072L2.88507 29.7047V48.0692C2.88507 49.7315 4.23304 51.0795 5.89538 51.0795H8.61688L9.45288 54.2142C9.88471 55.8171 11.5339 56.7664 13.1368 56.3346C13.1375 56.3339 13.1389 56.3339 13.1396 56.3339L32.7608 51.0795H54.0644C55.7267 51.0795 57.0747 49.7315 57.0747 48.0685V44.5656L57.729 44.3908C59.3299 43.9541 60.2805 42.3097 59.8605 40.7041ZM47.3405 5.62023C47.8731 5.4779 48.4203 5.79157 48.5668 6.32219L49.2633 8.93177H34.9572L47.3405 5.62023ZM2.0387 18.7911C1.89914 18.2543 2.21696 17.705 2.75103 17.5578L2.88507 17.5226V21.9499L2.0387 18.7911ZM12.6186 54.3959C12.0866 54.5382 11.5394 54.2245 11.3923 53.6939L10.6945 51.0795H25.0026L12.6186 54.3959ZM55.0676 48.0692C55.0676 48.6233 54.6185 49.0724 54.0644 49.0724H5.89538C5.34127 49.0724 4.89217 48.6233 4.89217 48.0692V11.9421C4.89217 11.388 5.34127 10.9389 5.89538 10.9389H54.0644C54.6185 10.9389 55.0676 11.388 55.0676 11.9421V48.0692ZM57.2081 42.4493L57.0747 42.488V38.0606L57.9211 41.2195C58.0579 41.7549 57.7408 42.3021 57.2081 42.4493Z" fill="black"/>
<path d="M23.9595 27.9984C26.1767 27.9984 27.9737 26.2014 27.9737 23.9849C27.9737 21.7678 26.1767 19.9707 23.9595 19.9707C21.7424 19.9707 19.9453 21.7678 19.9453 23.9849C19.9453 26.2014 21.7424 27.9984 23.9595 27.9984ZM23.9595 21.9778C25.0677 21.9778 25.9666 22.876 25.9666 23.9849C25.9666 25.0931 25.0677 25.9913 23.9595 25.9913C22.8513 25.9913 21.9524 25.0931 21.9524 23.9849C21.9524 22.876 22.8513 21.9778 23.9595 21.9778Z" fill="#9BC130"/>
</svg>
