<svg width="60" height="60" viewBox="0 0 60 60" fill="none" xmlns="http://www.w3.org/2000/svg">
<path d="M6.5625 58.125H10.3125C10.8307 58.125 11.25 57.7052 11.25 57.1875V50.625H33.75V57.1875C33.75 57.7052 34.1693 58.125 34.6875 58.125H43.125H48.75H57.1875C57.7057 58.125 58.125 57.7052 58.125 57.1875V43.125C58.125 42.8764 58.0261 42.6379 57.8503 42.4622L56.25 40.8618V32.8125V2.8125C56.25 2.29477 55.8307 1.875 55.3125 1.875H6.5625C3.97796 1.875 1.875 3.97796 1.875 6.5625V53.4375C1.875 56.022 3.97796 58.125 6.5625 58.125ZM44.0625 56.25V46.875H47.8125V56.25H44.0625ZM56.25 56.25H49.6875V45.9375C49.6875 45.4198 49.2682 45 48.75 45H43.125C42.6068 45 42.1875 45.4198 42.1875 45.9375V56.25H35.625V43.5132L45.9375 33.2007L49.9622 37.2253C50.2313 37.494 50.6342 37.5742 50.9839 37.4286C51.3345 37.2835 51.5625 36.9415 51.5625 36.5625V33.75H54.375V41.25C54.375 41.4986 54.4739 41.7371 54.6497 41.9128L56.25 43.5132V56.25ZM6.5625 3.75H54.375V31.875H50.625C50.1068 31.875 49.6875 32.2948 49.6875 32.8125V34.2993L46.6003 31.2122C46.2341 30.846 45.6409 30.846 45.2747 31.2122L34.0247 42.4622C33.8489 42.6379 33.75 42.8764 33.75 43.125V48.75H11.25V10.3125C11.25 9.79477 10.8307 9.375 10.3125 9.375H6.5625C5.01159 9.375 3.75 8.11341 3.75 6.5625C3.75 5.01159 5.01159 3.75 6.5625 3.75ZM3.75 10.3102C4.53369 10.8998 5.50781 11.25 6.5625 11.25H9.375V56.25H6.5625C5.01159 56.25 3.75 54.9884 3.75 53.4375V10.3102Z" fill="black"/>
<path d="M15 40.3125H20.625C21.1432 40.3125 21.5625 39.8927 21.5625 39.375C21.5625 38.1528 22.3462 37.11 23.4375 36.7232V39.375C23.4375 39.8927 23.8568 40.3125 24.375 40.3125H30.9375C31.4557 40.3125 31.875 39.8927 31.875 39.375V27.1875H50.625C51.1432 27.1875 51.5625 26.7677 51.5625 26.25V7.5C51.5625 6.98227 51.1432 6.5625 50.625 6.5625H15C14.4818 6.5625 14.0625 6.98227 14.0625 7.5V39.375C14.0625 39.8927 14.4818 40.3125 15 40.3125ZM49.6875 25.3125H38.4375V23.4375H41.25C41.7682 23.4375 42.1875 23.0177 42.1875 22.5C42.1875 20.2364 40.5743 18.3421 38.4375 17.9068V8.4375H49.6875V25.3125ZM26.25 8.4375V17.8125H25.3125V19.6875H27.1875C27.7057 19.6875 28.125 19.2677 28.125 18.75V8.4375H36.5625V18.75C36.5625 19.2677 36.9818 19.6875 37.5 19.6875C38.7222 19.6875 39.765 20.4712 40.1523 21.5625H37.5C36.9818 21.5625 36.5625 21.9823 36.5625 22.5V25.3125H30.9375C30.4193 25.3125 30 25.7323 30 26.25V38.4375H25.3125V35.625C25.3125 35.1073 24.8932 34.6875 24.375 34.6875C22.1109 34.6875 20.2176 36.3007 19.7818 38.4375H15.9375V19.6875H22.5V17.8125H15.9375V8.4375H26.25Z" fill="#1BB0AC"/>
<path d="M13.125 45H15V46.875H13.125V45Z" fill="black"/>
<path d="M16.875 45H18.75V46.875H16.875V45Z" fill="black"/>
<path d="M20.625 45H22.5V46.875H20.625V45Z" fill="black"/>
</svg>
