<svg width="51" height="68" viewBox="0 0 51 68" fill="none" xmlns="http://www.w3.org/2000/svg">
<path d="M1.35384 46.7764C0.866814 46.6482 0.407767 46.4306 0 46.1348L0.616697 44.7984C0.971698 45.053 1.36541 45.2485 1.78264 45.3773C2.21822 45.5199 2.67342 45.5931 3.13167 45.5944C3.51409 45.6192 3.89628 45.5426 4.23979 45.3725C4.34525 45.3173 4.43423 45.235 4.4977 45.1342C4.56116 45.0334 4.59685 44.9175 4.60114 44.7984C4.60725 44.7069 4.59117 44.6152 4.55426 44.5312C4.51735 44.4472 4.4607 44.3733 4.38915 44.316C4.22848 44.1846 4.04346 44.0862 3.84472 44.0265C3.62309 43.9542 3.32438 43.8722 2.94858 43.7853C2.45821 43.679 1.97537 43.5404 1.5032 43.3704C1.13042 43.2371 0.798455 43.0094 0.539608 42.7095C0.263018 42.3649 0.122431 41.9305 0.144536 41.4889C0.141047 41.0604 0.265173 40.6405 0.501067 40.2829C0.773585 39.9004 1.14975 39.6041 1.58511 39.429C2.14658 39.2034 2.7486 39.0966 3.35329 39.1154C3.8404 39.1133 4.32589 39.1716 4.79868 39.2891C5.22793 39.3843 5.63937 39.5471 6.01762 39.7715L5.48282 41.1464C4.84407 40.7649 4.11624 40.5586 3.37256 40.5482C2.9924 40.5213 2.61257 40.6051 2.27889 40.7894C2.1698 40.8547 2.07957 40.9473 2.01706 41.0581C1.95455 41.169 1.92191 41.2941 1.92236 41.4214C1.92218 41.5472 1.95975 41.67 2.0302 41.7741C2.10065 41.8782 2.20073 41.9587 2.31743 42.0051C2.71956 42.1715 3.13771 42.296 3.56528 42.3766C4.04641 42.4882 4.52092 42.6267 4.98658 42.7915C5.35729 42.9265 5.68849 43.152 5.95016 43.4476C6.22868 43.7856 6.36975 44.2162 6.34524 44.6537C6.34864 45.08 6.22263 45.4972 5.98389 45.8501C5.71229 46.2411 5.33439 46.5458 4.89503 46.7282C4.33164 46.9529 3.72822 47.0596 3.12203 47.0417C2.52315 47.0364 1.92797 46.9471 1.35384 46.7764Z" fill="#222630"/>
<path d="M14.8881 46.8876L14.8736 42.3141L12.6333 46.0819H11.8383L9.60763 42.4106V46.8876H7.95508V39.2651H9.41492L12.2623 44.0026L15.0712 39.2651H16.5166L16.5407 46.8876H14.8881Z" fill="#222630"/>
<path d="M23.7568 45.2809H20.2204L19.5459 46.9115H17.7344L21.1069 39.2891H22.851L26.2573 46.9115H24.4313L23.7568 45.2809ZM23.2028 43.9397L21.9934 41.021L20.7841 43.9397H23.2028Z" fill="#222630"/>
<path d="M32.2794 46.8873L30.8099 44.7646H29.1863V46.8873H27.4277V39.2649H30.7425C31.346 39.2504 31.9457 39.3655 32.501 39.6026C32.97 39.8037 33.3691 40.1395 33.6477 40.5675C33.9161 41.0018 34.0549 41.504 34.0476 42.0148C34.0579 42.5266 33.9171 43.03 33.6429 43.462C33.3562 43.8827 32.9524 44.2098 32.4818 44.4028L34.1921 46.8535L32.2794 46.8873ZM31.8313 41.0451C31.4825 40.7927 31.0561 40.6714 30.6268 40.7025H29.1815V43.3511H30.6268C31.0575 43.3816 31.4847 43.2566 31.8313 42.9989C31.9686 42.8798 32.0772 42.7311 32.1489 42.564C32.2207 42.3969 32.2537 42.2158 32.2457 42.034C32.2537 41.8523 32.2207 41.6712 32.1489 41.5041C32.0772 41.337 31.9686 41.1883 31.8313 41.0692" fill="#222630"/>
<path d="M37.5023 40.7028H35.0645V39.2651H41.7036V40.7028H39.2657V46.8876H37.5023V40.7028Z" fill="#222630"/>
<path d="M5.0999 50.2162C5.57421 50.4151 5.97716 50.7533 6.25557 51.1862C6.53399 51.6191 6.67478 52.1263 6.65937 52.641C6.66774 53.1552 6.52638 53.6607 6.25255 54.0958C5.97447 54.5278 5.57277 54.8658 5.0999 55.0657C4.54072 55.3005 3.93837 55.4145 3.33218 55.4003H1.79209V57.5147H0.0195312V49.8768H3.33218C3.93891 49.8617 4.54178 49.9775 5.0999 50.2162ZM4.45093 53.64C4.5814 53.511 4.68499 53.3573 4.75569 53.1879C4.82639 53.0185 4.8628 52.8367 4.8628 52.6531C4.8628 52.4695 4.82639 52.2877 4.75569 52.1183C4.68499 51.9489 4.5814 51.7952 4.45093 51.6662C4.09738 51.4148 3.66802 51.2932 3.23532 51.3219H1.7824V53.9843H3.23532C3.66802 54.013 4.09738 53.8914 4.45093 53.64Z" fill="#222630"/>
<path d="M14.2091 56.1182V57.5439H8.28125V49.877H14.0639V51.2978H10.0393V52.9661H13.5941V54.3433H10.0393V56.1182H14.2091Z" fill="#222630"/>
<path d="M17.4264 57.1559C16.8053 56.8312 16.2858 56.3412 15.925 55.7398C15.5698 55.1217 15.3828 54.4211 15.3828 53.7079C15.3828 52.9948 15.5698 52.2941 15.925 51.676C16.2872 51.0757 16.8064 50.5861 17.4264 50.26C18.0913 49.9221 18.8263 49.7461 19.5719 49.7461C20.3174 49.7461 21.0525 49.9221 21.7173 50.26C22.3346 50.5882 22.8517 51.0775 23.2138 51.676C23.4893 52.1312 23.6691 52.638 23.7421 53.1652C23.8151 53.6925 23.7798 54.2291 23.6383 54.7422C23.4968 55.2553 23.2522 55.734 22.9193 56.1491C22.5865 56.5641 22.1725 56.9067 21.7028 57.1559C21.0389 57.4967 20.3034 57.6745 19.5573 57.6745C18.8112 57.6745 18.0758 57.4967 17.4119 57.1559H17.4264ZM20.802 55.8514C21.1652 55.6469 21.4639 55.3444 21.6641 54.9785C21.8678 54.586 21.9742 54.1502 21.9742 53.7079C21.9742 53.2656 21.8678 52.8298 21.6641 52.4374C21.4638 52.0727 21.165 51.7719 20.802 51.5693C20.4287 51.3574 20.0058 51.2486 19.5767 51.2541C19.1476 51.2486 18.7247 51.3574 18.3514 51.5693C17.9908 51.7734 17.694 52.074 17.4942 52.4374C17.2904 52.8298 17.1841 53.2656 17.1841 53.7079C17.1841 54.1502 17.2904 54.586 17.4942 54.9785C17.6939 55.3432 17.9906 55.6453 18.3514 55.8514C18.7252 56.0616 19.148 56.1687 19.5767 56.1617C20.0054 56.1687 20.4282 56.0616 20.802 55.8514Z" fill="#222630"/>
<path d="M30.2932 50.2162C30.6404 50.3817 30.9488 50.6184 31.1985 50.9112C31.4481 51.204 31.6334 51.5461 31.7421 51.9153C31.8509 52.2846 31.8807 52.6726 31.8297 53.0542C31.7786 53.4357 31.6479 53.8022 31.4459 54.1298C31.1667 54.5608 30.7653 54.8985 30.2932 55.0996C29.7341 55.3344 29.1317 55.4485 28.5255 55.4343H26.9854V57.5486H25.2129V49.8768H28.5255C29.1323 49.8617 29.7351 49.9775 30.2932 50.2162ZM29.6394 53.64C29.7711 53.5116 29.8757 53.3582 29.9472 53.1887C30.0186 53.0192 30.0554 52.8371 30.0554 52.6531C30.0554 52.4691 30.0186 52.287 29.9472 52.1175C29.8757 51.948 29.7711 51.7946 29.6394 51.6662C29.2881 51.414 28.86 51.2923 28.4287 51.3219H26.9758V53.9843H28.4287C28.86 54.0139 29.2881 53.8922 29.6394 53.64Z" fill="#222630"/>
<path d="M33.7031 49.877H35.4708V56.0988H39.3114V57.5439H33.7031V49.877Z" fill="#222630"/>
<path d="M46.756 56.1182V57.5439H40.8281V49.877H46.6107V51.2978H42.5861V52.9661H46.1409V54.3433H42.5861V56.1182H46.756Z" fill="#222630"/>
<path d="M4.70741 61.2832V64.8168C4.73272 65.1329 4.69187 65.4507 4.58747 65.7501C4.48307 66.0494 4.31741 66.3236 4.1011 66.5551C3.60484 66.9646 2.97021 67.1672 2.32882 67.1207C1.9351 67.1245 1.54274 67.0739 1.16285 66.9702C0.831781 66.8885 0.520077 66.7422 0.245613 66.5396L0.763823 65.6574C0.965136 65.8138 1.19351 65.9317 1.4375 66.0051C1.70203 66.0907 1.97827 66.1345 2.25627 66.1348C2.59553 66.1639 2.93303 66.0618 3.19942 65.8494C3.30797 65.7333 3.39121 65.5958 3.44385 65.4458C3.49648 65.2957 3.51736 65.1363 3.50516 64.9777V64.7961C3.3321 64.9744 3.12253 65.1132 2.89085 65.2028C2.65916 65.2923 2.41086 65.3306 2.16299 65.315C1.79118 65.3184 1.42435 65.2292 1.09548 65.0555C0.778297 64.8905 0.512866 64.6409 0.328528 64.3343C0.134237 64.0103 0.0354256 63.6379 0.0435108 63.2602C0.0346943 62.8839 0.133595 62.513 0.328528 62.1912C0.512544 61.883 0.777935 61.6316 1.09548 61.4648C1.42474 61.2927 1.7916 61.2053 2.16299 61.2105C2.42232 61.2014 2.68025 61.2523 2.91666 61.3594C3.15308 61.4665 3.36157 61.6269 3.52589 61.828V61.3091L4.70741 61.2832ZM3.18387 64.0281C3.38354 63.8277 3.49569 63.5562 3.49569 63.2731C3.49569 62.99 3.38354 62.7185 3.18387 62.5181C2.95674 62.3336 2.67314 62.2329 2.38064 62.2329C2.08815 62.2329 1.80455 62.3336 1.57741 62.5181C1.47468 62.6152 1.39283 62.7322 1.33689 62.862C1.28095 62.9918 1.25209 63.1317 1.25209 63.2731C1.25209 63.4145 1.28095 63.5544 1.33689 63.6843C1.39283 63.8141 1.47468 63.9311 1.57741 64.0281C1.80455 64.2127 2.08815 64.3134 2.38064 64.3134C2.67314 64.3134 2.95674 64.2127 3.18387 64.0281Z" fill="#0090D7"/>
<path d="M7.61994 61.3763C7.89353 61.2678 8.18595 61.2149 8.48017 61.2206V62.357H8.20552C8.05461 62.3485 7.90353 62.3704 7.76115 62.4211C7.61877 62.4719 7.48795 62.5507 7.37638 62.6528C7.26984 62.7732 7.18838 62.9137 7.13677 63.0661C7.08515 63.2185 7.06443 63.3796 7.07582 63.5401V65.543H5.84766V61.2829H7.024V61.8433C7.17544 61.6352 7.38181 61.4735 7.61994 61.3763Z" fill="#0090D7"/>
<path d="M9.98893 65.31C9.64621 65.1343 9.3591 64.8666 9.15979 64.5368C8.96295 64.1933 8.85938 63.8042 8.85938 63.4082C8.85938 63.0122 8.96295 62.6231 9.15979 62.2796C9.35835 61.9479 9.64553 61.6783 9.98893 61.5013C10.3608 61.3109 10.7736 61.2147 11.1912 61.2211C11.6072 61.214 12.0185 61.3103 12.3882 61.5013C12.7307 61.6796 13.0175 61.9489 13.2174 62.2796C13.4142 62.6231 13.5178 63.0122 13.5178 63.4082C13.5178 63.8042 13.4142 64.1933 13.2174 64.5368C13.0158 64.8647 12.7293 65.1319 12.3882 65.31C12.0185 65.5009 11.6072 65.5972 11.1912 65.5902C10.7736 65.5966 10.3608 65.5003 9.98893 65.31ZM11.9685 64.2722C12.1628 64.0292 12.2686 63.7272 12.2686 63.416C12.2686 63.1047 12.1628 62.8028 11.9685 62.5598C11.8681 62.4557 11.7471 62.3738 11.6133 62.3193C11.4794 62.2647 11.3356 62.2389 11.1912 62.2433C11.0459 62.2381 10.9011 62.2637 10.7663 62.3182C10.6315 62.3727 10.5096 62.455 10.4087 62.5598C10.2108 62.8011 10.1026 63.1037 10.1026 63.416C10.1026 63.7282 10.2108 64.0308 10.4087 64.2722C10.5092 64.3779 10.6308 64.4612 10.7657 64.5166C10.9005 64.572 11.0455 64.5984 11.1912 64.5939C11.336 64.5976 11.48 64.5709 11.6139 64.5155C11.7478 64.4601 11.8686 64.3772 11.9685 64.2722Z" fill="#0090D7"/>
<path d="M18.6061 61.2832V65.5278H17.4402V65.0089C17.2774 65.1895 17.0777 65.3329 16.8546 65.4292C16.6238 65.528 16.3749 65.5775 16.1239 65.5745C15.8822 65.587 15.6404 65.5512 15.4127 65.4693C15.1849 65.3873 14.9757 65.2608 14.7973 65.0971C14.6237 64.9037 14.4911 64.6771 14.4073 64.4309C14.3236 64.1848 14.2906 63.9242 14.3102 63.6649V61.2832H15.5383V63.4989C15.5383 64.1838 15.8285 64.5367 16.3986 64.5367C16.5309 64.5428 16.6629 64.5199 16.7855 64.4697C16.9081 64.4196 17.0183 64.3432 17.1085 64.2461C17.303 64.007 17.3993 63.7027 17.378 63.3951V61.3195L18.6061 61.2832Z" fill="#0090D7"/>
<path d="M23.3269 61.4959C23.6461 61.6752 23.9096 61.9391 24.0887 62.2586C24.2693 62.6138 24.3635 63.0068 24.3635 63.4054C24.3635 63.804 24.2693 64.197 24.0887 64.5522C23.9113 64.8743 23.6474 65.1403 23.3269 65.3201C22.9991 65.5026 22.6292 65.5957 22.2542 65.5899C22.0161 65.601 21.7785 65.5603 21.5575 65.4707C21.3366 65.3812 21.1376 65.2448 20.9742 65.0711V67.048H19.7461V61.2831H20.9224V61.7761C21.0866 61.5869 21.2922 61.4384 21.5233 61.342C21.7543 61.2457 22.0045 61.2042 22.2542 61.2209C22.6301 61.2134 23.0009 61.3085 23.3269 61.4959ZM22.8087 64.2616C23.0066 64.0203 23.1148 63.7177 23.1148 63.4054C23.1148 63.0931 23.0066 62.7906 22.8087 62.5492C22.6013 62.3451 22.3222 62.2308 22.0314 62.2308C21.7406 62.2308 21.4615 62.3451 21.2541 62.5492C21.0562 62.7906 20.948 63.0931 20.948 63.4054C20.948 63.7177 21.0562 64.0203 21.2541 64.2616C21.3558 64.3645 21.4768 64.4462 21.6102 64.502C21.7437 64.5577 21.8868 64.5864 22.0314 64.5864C22.176 64.5864 22.3191 64.5577 22.4525 64.502C22.586 64.4462 22.707 64.3645 22.8087 64.2616Z" fill="#0090D7"/>
<path d="M0 15.8568C0 12.7206 0.929986 9.65489 2.67235 7.04725C4.41472 4.43961 6.89122 2.4072 9.78867 1.20704C12.6861 0.00687046 15.8744 -0.307147 18.9503 0.304691C22.0262 0.91653 24.8517 2.42675 27.0693 4.64436C29.2869 6.86198 30.7971 9.68739 31.4089 12.7633C32.0208 15.8392 31.7068 19.0275 30.5066 21.925C29.3064 24.8224 27.274 27.2989 24.6664 29.0413C22.0587 30.7836 18.993 31.7136 15.8568 31.7136C11.6513 31.7136 7.61808 30.043 4.64435 27.0693C1.67062 24.0955 0 20.0623 0 15.8568" fill="#0090D7"/>
</svg>
