<svg width="51" height="68" viewBox="0 0 51 68" fill="none" xmlns="http://www.w3.org/2000/svg">
<path d="M1.36318 46.8156C0.873253 46.6895 0.411021 46.4734 0 46.1784L0.600929 44.8394C0.955936 45.094 1.34944 45.2901 1.76649 45.4202C2.20545 45.5631 2.66402 45.6365 3.12564 45.638C3.51112 45.6644 3.89669 45.5879 4.24281 45.4162C4.35153 45.3587 4.44268 45.2728 4.50658 45.1678C4.57049 45.0627 4.60477 44.9422 4.60579 44.8193C4.60722 44.732 4.58871 44.6456 4.55166 44.5667C4.51462 44.4877 4.46002 44.4182 4.39203 44.3635C4.22933 44.2327 4.04317 44.1342 3.84353 44.0731C3.62171 44.0005 3.31923 43.9199 2.94012 43.8312C2.45388 43.7256 1.97442 43.5909 1.50434 43.4278C1.13597 43.2842 0.809929 43.0498 0.556565 42.7463C0.279195 42.4056 0.135777 41.9753 0.153256 41.5363C0.148654 41.1061 0.273734 40.6845 0.512201 40.3264C0.784942 39.9386 1.16474 39.6387 1.60517 39.4633C2.16774 39.2321 2.77159 39.1182 3.37973 39.1286C3.8638 39.1284 4.34603 39.188 4.81551 39.306C5.24221 39.4112 5.65026 39.5813 6.02543 39.8102L5.47693 41.1572C4.84174 40.7786 4.11906 40.5715 3.37973 40.5563C2.99756 40.5294 2.61565 40.6119 2.27869 40.7942C2.16893 40.8604 2.07817 40.9539 2.01527 41.0656C1.95236 41.1772 1.91945 41.3033 1.91975 41.4315C1.91853 41.5586 1.95662 41.683 2.02881 41.7877C2.101 41.8924 2.20377 41.9722 2.32306 42.0163C2.72721 42.1849 3.14747 42.3119 3.57735 42.3954C4.06312 42.5028 4.54247 42.6375 5.01313 42.7987C5.38224 42.9356 5.71192 43.1614 5.973 43.4561C6.25273 43.7955 6.39646 44.2267 6.37631 44.666C6.38322 45.0977 6.25489 45.5208 6.0093 45.8759C5.73237 46.263 5.35026 46.5625 4.90827 46.739C4.34037 46.9649 3.73258 47.0733 3.12161 47.0576C2.52693 47.0612 1.9348 46.9797 1.36318 46.8156Z" fill="#222630"/>
<path d="M14.5711 46.9322L14.559 42.3304L12.3005 46.1215H11.5019L9.25551 42.4272V46.9322H7.58984V39.2612H9.05789L11.9294 44.0283L14.7566 39.2612H16.2126L16.2327 46.9322H14.5711Z" fill="#222630"/>
<path d="M23.1067 45.2869H19.5454L18.8679 46.9324H17.0449L20.465 39.2695H22.2194L25.6475 46.9324H23.7842L23.1067 45.2869ZM22.5461 43.9398L21.3361 41.0038L20.1262 43.9398H22.5461Z" fill="#222630"/>
<path d="M31.3354 46.9311L29.8552 44.7936H28.2218V46.9311H26.4473V39.2682H29.7665C30.374 39.2542 30.9776 39.3697 31.537 39.607C32.0072 39.809 32.4082 40.1441 32.6905 40.5709C32.9668 41.0142 33.1071 41.5289 33.0938 42.0511C33.1094 42.5723 32.969 43.0863 32.6905 43.5272C32.4024 43.9497 31.9973 44.2791 31.5249 44.475L33.2229 46.9311H31.3354ZM30.8837 41.0509C30.5323 40.7998 30.1046 40.6787 29.6737 40.7081H28.2218V43.382H29.6697C30.1017 43.4111 30.5302 43.2869 30.8796 43.0311C31.0179 42.9082 31.1262 42.7552 31.1961 42.5839C31.266 42.4126 31.2957 42.2276 31.2829 42.043C31.2964 41.8578 31.267 41.6719 31.197 41.4999C31.1271 41.3278 31.0185 41.1742 30.8796 41.0509" fill="#222630"/>
<path d="M35.9835 40.7091H33.5273V39.2612H40.2102V40.7091H37.7581V46.9322H35.9835V40.7091Z" fill="#222630"/>
<path d="M5.25688 50.0537C5.61629 50.2245 5.93568 50.4691 6.19424 50.7716C6.4528 51.074 6.64472 51.4276 6.75752 51.8092C6.87031 52.1908 6.90143 52.5919 6.84886 52.9863C6.79628 53.3808 6.66119 53.7597 6.45239 54.0984C6.16154 54.5416 5.74537 54.8882 5.25688 55.094C4.68021 55.3376 4.05821 55.4555 3.43239 55.4397H1.83283V57.6266H0V49.7121H3.43239C4.05853 49.6975 4.68056 49.8168 5.25688 50.062V50.0537ZM4.58624 53.5986C4.72792 53.4725 4.83906 53.3159 4.91123 53.1405C4.9834 52.9651 5.01471 52.7756 5.00279 52.5863C5.01666 52.395 4.9863 52.2031 4.91407 52.0254C4.84183 51.8477 4.72966 51.689 4.58624 51.5616C4.22339 51.3018 3.78196 51.1753 3.33658 51.2034H1.83283V53.9568H3.32825C3.77363 53.9849 4.21506 53.8584 4.5779 53.5986" fill="#222630"/>
<path d="M12.9929 55.9274H9.31479L8.61498 57.6269H6.73633L10.2687 49.7124H12.0765L15.6214 57.6269H13.7052L12.9929 55.9274ZM12.4181 54.5361L11.1684 51.5036L9.91879 54.5361H12.4181Z" fill="#222630"/>
<path d="M21.4954 57.6281L19.9541 55.4204H18.2879V57.6281H16.4551V49.7136H19.8833C20.5108 49.6987 21.1343 49.818 21.712 50.0636C22.2071 50.2682 22.6274 50.6201 22.9158 51.0717C23.2042 51.5232 23.3467 52.0525 23.324 52.5879C23.3408 53.125 23.1957 53.6547 22.9075 54.1083C22.6134 54.5479 22.194 54.889 21.7036 55.0872L23.4823 57.6365L21.4954 57.6281ZM21.0288 51.5548C20.6667 51.2934 20.2247 51.1667 19.7792 51.1966H18.2879V53.9583H19.7833C20.2296 53.9891 20.6724 53.8607 21.033 53.5959C21.1698 53.4635 21.2786 53.3049 21.3529 53.1296C21.4271 52.9542 21.4654 52.7658 21.4654 52.5754C21.4654 52.3849 21.4271 52.1965 21.3529 52.0212C21.2786 51.8458 21.1698 51.6872 21.033 51.5548" fill="#222630"/>
<path d="M27.6523 54.5111L26.5901 55.6233V57.6269H24.7656V49.7041H26.5901V53.4031L30.0975 49.7041H32.1344L28.852 53.2323L32.326 57.6269H30.1891L27.6523 54.5111Z" fill="#222630"/>
<path d="M0 61.3628H1.1797V62.9594H2.9611V61.3628H4.15027V65.461H2.9611V63.9307H1.1797V65.461H0V61.3628Z" fill="#9BC130"/>
<path d="M8.34467 61.7518C8.52398 61.9294 8.66259 62.1438 8.75093 62.3802C8.83927 62.6166 8.87524 62.8693 8.85635 63.121V65.4615H7.74298V64.9593C7.60721 65.1604 7.41869 65.3203 7.19806 65.4215C6.97744 65.5226 6.73323 65.561 6.49221 65.5325C6.21042 65.5405 5.93041 65.4854 5.67258 65.3714C5.45635 65.2797 5.27184 65.1265 5.14195 64.9308C5.02214 64.7392 4.95967 64.5172 4.96191 64.2912C4.95445 64.1173 4.98987 63.9443 5.06505 63.7873C5.14024 63.6303 5.25288 63.4942 5.39305 63.3911C5.78903 63.1433 6.25388 63.0288 6.71962 63.0642H7.66717C7.67353 62.9527 7.65564 62.8412 7.61474 62.7373C7.57384 62.6334 7.51092 62.5397 7.43029 62.4625C7.22651 62.3091 6.97395 62.235 6.71962 62.254C6.50213 62.2531 6.28599 62.2883 6.08003 62.3582C5.88392 62.4164 5.70063 62.5112 5.53992 62.6378L5.11352 61.8039C5.35893 61.6367 5.63143 61.5133 5.91894 61.4391C6.22781 61.3551 6.5464 61.3121 6.86649 61.3112C7.39312 61.277 7.91402 61.4371 8.33046 61.7613L8.34467 61.7518ZM7.31658 64.6039C7.47318 64.5098 7.59212 64.364 7.65296 64.1917V63.7701H6.83807C6.36429 63.7701 6.10371 63.9312 6.10371 64.2439C6.10138 64.3148 6.11659 64.3852 6.148 64.4488C6.1794 64.5125 6.22603 64.5674 6.28375 64.6087C6.42383 64.7015 6.58959 64.7479 6.75752 64.7413C6.94725 64.7449 7.13426 64.6957 7.29763 64.5992" fill="#9BC130"/>
<path d="M15.9054 64.2952C15.9122 64.4627 15.8772 64.6292 15.8036 64.7797C15.73 64.9303 15.6201 65.0601 15.4837 65.1575C15.11 65.3858 14.6744 65.4918 14.2377 65.4607H12.0488V61.3626H14.1429C14.562 61.3384 14.9793 61.4337 15.3463 61.6374C15.4825 61.7165 15.5948 61.8308 15.6716 61.9684C15.7483 62.106 15.7865 62.2616 15.7822 62.4191C15.7859 62.6108 15.7314 62.7991 15.6258 62.9592C15.5145 63.119 15.36 63.2438 15.1805 63.3193C15.3966 63.3711 15.5876 63.4973 15.7201 63.6757C15.8526 63.8541 15.9182 64.0734 15.9054 64.2952ZM13.1385 63.0634H14.0387C14.4461 63.0634 14.6499 62.9055 14.6499 62.5896C14.6499 62.3006 14.4414 62.1538 14.0245 62.1538H13.1243L13.1385 63.0634ZM14.792 64.2242C14.7969 64.1578 14.7857 64.0913 14.7592 64.0302C14.7328 63.9692 14.6921 63.9154 14.6404 63.8736C14.4965 63.7918 14.3318 63.7539 14.1666 63.7646H13.1432V64.6743H14.1429C14.5788 64.6743 14.7967 64.5226 14.7967 64.2005" fill="#9BC130"/>
<path d="M17.5452 65.252C17.2117 65.0761 16.9343 64.8102 16.7445 64.4845C16.548 64.1554 16.4479 63.7779 16.4555 63.3948C16.4492 63.0118 16.5492 62.6346 16.7445 62.3051C16.9378 61.987 17.2148 61.728 17.5452 61.5565C17.9059 61.373 18.306 61.2803 18.7107 61.2865C19.1124 61.2798 19.5095 61.3725 19.8667 61.5565C20.1971 61.728 20.474 61.987 20.6673 62.3051C20.8626 62.6346 20.9627 63.0118 20.9563 63.3948C20.9639 63.7779 20.8638 64.1554 20.6673 64.4845C20.4763 64.8109 20.1972 65.0769 19.8619 65.252C19.5048 65.436 19.1076 65.5288 18.7059 65.522C18.3012 65.5282 17.9012 65.4355 17.5404 65.252H17.5452ZM19.4355 64.2381C19.5367 64.126 19.6147 63.9951 19.6651 63.8528C19.7155 63.7106 19.7373 63.5597 19.7293 63.409C19.7377 63.2589 19.7161 63.1087 19.6656 62.9671C19.6152 62.8256 19.537 62.6955 19.4355 62.5846C19.2363 62.398 18.9732 62.2946 18.7002 62.2955C18.4272 62.2964 18.1649 62.4015 17.9668 62.5894C17.8645 62.6999 17.7854 62.8298 17.7342 62.9713C17.6829 63.1129 17.6605 63.2633 17.6683 63.4137C17.661 63.5648 17.6835 63.7158 17.7348 63.8581C17.786 64.0004 17.8648 64.1312 17.9668 64.2428C18.1671 64.4399 18.4368 64.5503 18.7178 64.5503C18.9987 64.5503 19.2684 64.4399 19.4687 64.2428" fill="#9BC130"/>
<path d="M21.7715 61.3628H22.9559V63.798L24.9505 61.3628H26.0402V65.461H24.8605V63.021L22.8706 65.461H21.7715V61.3628Z" fill="#9BC130"/>
<path d="M27.1836 61.3628H28.3633V62.9594H30.1447V61.3628H31.3339V65.461H30.1447V63.9307H28.3633V65.461H27.1836V61.3628Z" fill="#9BC130"/>
<path d="M33.2436 65.2513C32.9051 65.0774 32.6226 64.8113 32.4287 64.4838C32.2309 64.1551 32.1291 63.7776 32.135 63.3941C32.1304 63.0107 32.232 62.6335 32.4287 62.3044C32.6263 61.9846 32.9083 61.7256 33.2436 61.5558C33.6094 61.3722 34.0141 61.2796 34.4233 61.2858C34.8178 61.2767 35.2078 61.3697 35.5557 61.5558C35.8697 61.7269 36.1168 61.999 36.2569 62.3281L35.3377 62.8255C35.2536 62.6532 35.1219 62.5085 34.9582 62.4086C34.7945 62.3087 34.6056 62.2577 34.4139 62.2617C34.272 62.2571 34.1307 62.2816 33.9987 62.3338C33.8666 62.3859 33.7467 62.4646 33.6464 62.565C33.5413 62.675 33.4599 62.8052 33.4069 62.9478C33.354 63.0903 33.3306 63.2422 33.3384 63.3941C33.3308 63.5466 33.3542 63.6992 33.4071 63.8425C33.4601 63.9858 33.5414 64.1169 33.6464 64.2279C33.7467 64.3283 33.8666 64.407 33.9987 64.4591C34.1307 64.5113 34.272 64.5358 34.4139 64.5311C34.6057 64.5358 34.7949 64.4851 34.9587 64.3851C35.1225 64.2851 35.2541 64.1401 35.3377 63.9673L36.2569 64.4838C36.1123 64.8075 35.8661 65.0753 35.5557 65.2465C35.2091 65.4364 34.8184 65.5312 34.4233 65.5213C34.0141 65.5275 33.6094 65.4349 33.2436 65.2513Z" fill="#9BC130"/>
<path d="M38.7922 63.907H38.1716V65.461H36.9824V61.3628H38.1716V62.9547H38.8112L39.9246 61.3628H41.1896L39.7587 63.329L41.289 65.461H39.8867L38.7922 63.907Z" fill="#9BC130"/>
<path d="M42.5089 65.2517C42.173 65.0774 41.8937 64.8112 41.7035 64.4841C41.507 64.1551 41.4069 63.7776 41.4145 63.3945C41.4081 63.0115 41.5082 62.6343 41.7035 62.3048C41.8973 61.9854 42.1762 61.7262 42.5089 61.5562C42.87 61.3785 43.2671 61.2861 43.6696 61.2861C44.0721 61.2861 44.4692 61.3785 44.8304 61.5562C45.1598 61.7291 45.4365 61.9877 45.6311 62.3048C45.8241 62.6352 45.924 63.0118 45.9201 63.3945C45.9254 63.7773 45.8254 64.1543 45.6311 64.4841C45.4381 64.8037 45.1611 65.0643 44.8304 65.2374C44.4692 65.4151 44.0721 65.5075 43.6696 65.5075C43.2671 65.5075 42.87 65.4151 42.5089 65.2374V65.2517ZM44.404 64.2236C44.6047 63.9954 44.7084 63.6979 44.693 63.3945C44.7097 63.0922 44.6058 62.7957 44.404 62.5701C44.2029 62.3727 43.9324 62.2622 43.6507 62.2622C43.3689 62.2622 43.0985 62.3727 42.8974 62.5701C42.7951 62.6806 42.716 62.8105 42.6647 62.9521C42.6135 63.0937 42.5911 63.2441 42.5989 63.3945C42.5915 63.5455 42.6141 63.6965 42.6653 63.8388C42.7165 63.9811 42.7954 64.1119 42.8974 64.2236C43.0985 64.4209 43.3689 64.5315 43.6507 64.5315C43.9324 64.5315 44.2029 64.4209 44.404 64.2236Z" fill="#9BC130"/>
<path d="M46.731 61.3626H47.9107V63.7979L49.91 61.3626H50.9997V65.4608H49.8153V63.0209L47.8112 65.4608H46.7168L46.731 61.3626ZM47.4369 59.7471H48.2139C48.2095 59.9003 48.2637 60.0494 48.3655 60.164C48.4202 60.2159 48.4851 60.2557 48.5561 60.281C48.6271 60.3063 48.7026 60.3165 48.7777 60.3109C48.855 60.3162 48.9326 60.306 49.0058 60.2807C49.0791 60.2555 49.1465 60.2158 49.2041 60.164C49.2557 60.1081 49.2953 60.0423 49.3205 59.9707C49.3458 59.899 49.3561 59.8229 49.351 59.7471H50.1422C50.1422 60.5335 49.6684 60.9268 48.7872 60.9268C47.906 60.9268 47.4417 60.5335 47.4369 59.7471Z" fill="#9BC130"/>
<path fill-rule="evenodd" clip-rule="evenodd" d="M2.67329 7.04971C0.930311 9.65826 0 12.7251 0 15.8624C0 20.0693 1.67121 24.104 4.64598 27.0787C7.62075 30.0535 11.6554 31.7247 15.8624 31.7247C18.9996 31.7247 22.0665 30.7944 24.675 29.0514C27.2836 27.3085 29.3167 24.8311 30.5173 21.9326C31.7178 19.0342 32.032 15.8448 31.4199 12.7678C30.8079 9.69078 29.2971 6.86437 27.0787 4.64598C24.8603 2.42759 22.0339 0.91685 18.9569 0.304798C15.88 -0.307255 12.6906 0.00687277 9.7921 1.20746C6.89363 2.40804 4.41627 4.44116 2.67329 7.04971ZM23.2646 23.095C21.5708 24.7888 19.3571 25.8435 16.9984 26.1036L17.0081 29.4115H14.3883V26.0627C12.8392 25.8427 11.3526 25.2775 10.0413 24.4013C8.31863 23.2503 6.97598 21.6143 6.18313 19.7001C5.39028 17.786 5.18284 15.6798 5.58703 13.6478C5.99122 11.6158 6.98889 9.74927 8.45389 8.28427C9.91889 6.81928 11.7854 5.8216 13.8174 5.41741C15.8494 5.01322 17.9557 5.22066 19.8698 6.01351C21.7839 6.80637 23.4199 8.14901 24.5709 9.87166C25.722 11.5943 26.3363 13.6196 26.3363 15.6914C26.3331 18.4687 25.2284 21.1312 23.2646 23.095ZM17.3192 17.0613C15.1614 19.3336 14.5125 22.6661 14.4053 23.4198C14.3784 23.4148 14.3515 23.4096 14.3246 23.4042C12.7997 23.1011 11.3988 22.3525 10.2994 21.2531C9.19999 20.1536 8.45136 18.7528 8.14823 17.2278C7.8451 15.7029 8.00109 14.1222 8.59646 12.6859C9.19184 11.2496 10.1999 10.0222 11.493 9.15884C12.7861 8.29554 14.3062 7.83517 15.861 7.83598C17.9438 7.83814 19.9406 8.66647 21.4133 10.1392C22.336 11.0619 23.0057 12.1903 23.3778 13.4167C21.7667 13.7723 19.3894 14.8877 17.3192 17.0613ZM19.2145 18.8666C20.856 17.139 22.6567 16.3228 23.7092 16.0336C23.6475 17.4685 23.1935 18.8614 22.3936 20.0595C21.5303 21.3526 20.3029 22.3606 18.8666 22.956C18.2843 23.1974 17.6784 23.3665 17.062 23.4621C17.2551 22.528 17.8322 20.318 19.2145 18.8666Z" fill="#9BC130"/>
</svg>
