<svg width="48" height="68" viewBox="0 0 48 68" fill="none" xmlns="http://www.w3.org/2000/svg">
<path d="M1.3669 46.9333C0.875757 46.8034 0.412497 46.5849 0 46.2884L0.60436 44.9458C0.962118 45.2031 1.35941 45.4004 1.78063 45.5299C2.222 45.6739 2.68324 45.7478 3.14753 45.7489C3.53441 45.7765 3.9215 45.698 4.26701 45.5218C4.37633 45.465 4.46808 45.3794 4.5324 45.2744C4.59673 45.1693 4.63118 45.0487 4.63206 44.9255C4.63351 44.8378 4.61489 44.7509 4.57763 44.6715C4.54038 44.592 4.48546 44.5221 4.41709 44.4672C4.25449 44.3341 4.06695 44.2348 3.86546 44.1751C3.64238 44.1021 3.34222 44.021 2.96095 43.9318C2.47146 43.8275 1.98915 43.692 1.51698 43.5262C1.14467 43.3888 0.813725 43.1584 0.555686 42.8569C0.276734 42.5143 0.132498 42.0816 0.150077 41.6401C0.144688 41.2073 0.270547 40.7831 0.511069 40.4232C0.786203 40.0367 1.16621 39.7369 1.60622 39.5593C2.17442 39.3318 2.78311 39.2228 3.39495 39.2389C3.88177 39.239 4.36672 39.2989 4.83892 39.4173C5.26891 39.5205 5.67968 39.6917 6.05575 39.9243L5.50818 41.275C4.86045 40.8909 4.12361 40.6825 3.37062 40.6707C2.98701 40.6426 2.60357 40.7272 2.26736 40.914C2.15701 40.9796 2.06568 41.0729 2.00237 41.1845C1.93907 41.2962 1.90597 41.4225 1.90637 41.5508C1.90514 41.6787 1.94344 41.8038 2.01605 41.9091C2.08865 42.0144 2.19201 42.0947 2.31198 42.139C2.71843 42.3085 3.14109 42.4363 3.57342 42.5202C4.06113 42.6263 4.54197 42.7618 5.01333 42.9259C5.3924 43.0538 5.73288 43.2757 6.00302 43.5708C6.28609 43.9111 6.43087 44.3455 6.40863 44.7876C6.41344 45.2215 6.28457 45.6463 6.03952 46.0044C5.76179 46.3935 5.37714 46.6936 4.93221 46.8684C4.363 47.0973 3.75269 47.2064 3.13942 47.1888C2.54131 47.1888 1.94611 47.1055 1.37096 46.9414" fill="#222630"/>
<path d="M14.6339 47.0448L14.6258 42.4249L12.3585 46.2295H11.5554L9.29611 42.5223V47.0448H7.625V39.3423H9.10142L11.9812 44.1285L14.8205 39.3423H16.2848L16.3091 47.0448H14.6339Z" fill="#222630"/>
<path d="M23.2093 45.398H19.6318L18.9504 47.0489H17.1211L20.5566 39.3423H22.3169L25.7606 47.0489H23.8907L23.2093 45.398ZM22.6333 44.0433L21.4165 41.0905L20.1997 44.0433H22.6333Z" fill="#222630"/>
<path d="M31.4738 47.0456L29.9852 44.9H28.3628V47.0456H26.5781V39.3391H29.9163C30.526 39.3249 31.1317 39.441 31.6929 39.6798C32.1736 39.8836 32.5801 40.2303 32.8572 40.6729C33.1343 41.1154 33.2688 41.6325 33.2423 42.154C33.2587 42.677 33.1173 43.1928 32.8367 43.6345C32.5459 44.06 32.137 44.3913 31.6604 44.5876L33.3883 47.0619L31.4738 47.0456ZM31.0195 41.144C30.667 40.8895 30.2366 40.7661 29.8027 40.7952H28.3506V43.4803H29.8027C30.2373 43.5103 30.6684 43.3853 31.0195 43.1274C31.1581 43.0043 31.2666 42.8511 31.3369 42.6796C31.4072 42.508 31.4374 42.3227 31.4252 42.1378C31.438 41.9521 31.4082 41.766 31.3378 41.5937C31.2675 41.4215 31.1586 41.2676 31.0195 41.144Z" fill="#222630"/>
<path d="M36.1399 40.7944H33.6738V39.3423H40.3867V40.7944H37.9246V47.0448H36.1399V40.7944Z" fill="#222630"/>
<path d="M6.16323 55.9702H2.54167L1.85184 57.6414H0L3.47786 49.8398H5.2599L8.74596 57.6414H6.85306L6.16323 55.9702ZM5.59249 54.5988L4.36066 51.6137L3.12884 54.5988H5.59249Z" fill="#222630"/>
<path d="M16.6336 49.8462L13.2584 57.6437H11.4764L8.10938 49.8462H10.0598L12.4331 55.414L14.8393 49.8462H16.6336Z" fill="#222630"/>
<path d="M23.3192 56.1942V57.6437H17.2832V49.8462H23.1754V51.2915H19.0735V52.9873H22.695V54.3916H19.0735V56.1942H23.3192Z" fill="#222630"/>
<path d="M31.9087 49.8462V57.6437H30.4264L26.5379 52.9093V57.6437H24.7559V49.8462H26.2505L30.1266 54.5805V49.8462H31.9087Z" fill="#222630"/>
<path d="M34.5608 56.8512C34.2348 56.4971 33.9841 56.0805 33.8239 55.6267C33.6637 55.1728 33.5973 54.6912 33.6287 54.211V49.8462H35.4354V54.1453C35.4354 55.5413 36.0143 56.2394 37.1722 56.2394C37.4116 56.2547 37.6515 56.2175 37.8749 56.1302C38.0984 56.043 38.3 55.9079 38.4656 55.7343C38.805 55.277 38.9696 54.7134 38.9296 54.1453V49.8462H40.7117V54.211C40.7649 54.6893 40.7105 55.1735 40.5524 55.6281C40.3944 56.0827 40.1366 56.4961 39.7981 56.8382C39.4595 57.1803 39.0487 57.4424 38.5958 57.6052C38.1429 57.768 37.6593 57.8274 37.1804 57.7792C36.707 57.8081 36.2326 57.7408 35.7858 57.5813C35.3391 57.4218 34.9294 57.1734 34.5813 56.8512" fill="#222630"/>
<path d="M48.001 56.1942V57.6437H41.9609V49.8462H47.8573V51.2915H43.7553V52.9873H47.3769V54.3916H43.7553V56.1942H48.001Z" fill="#222630"/>
<path d="M0 61.6113H1.21012V63.2563H3.04422V61.6113H4.2638V65.8231H3.04422V64.249H1.21012V65.8231H0V61.6113Z" fill="#1BB0AC"/>
<path d="M8.5645 62.0142C8.75031 62.1978 8.89359 62.42 8.98425 62.665C9.0749 62.91 9.11073 63.172 9.0892 63.4323V65.8242H7.94998V65.2995C7.80946 65.5051 7.61539 65.6684 7.38877 65.7717C7.16216 65.875 6.91161 65.9144 6.66422 65.8857C6.37492 65.894 6.08741 65.8375 5.82281 65.7202C5.59953 65.6188 5.41063 65.4545 5.2792 65.2475C5.15382 65.0514 5.08813 64.8232 5.09012 64.5904C5.07841 64.4082 5.11301 64.2259 5.1907 64.0606C5.26839 63.8953 5.38665 63.7523 5.53446 63.645C5.94159 63.3885 6.4209 63.2707 6.90058 63.3094H7.86962C7.87714 63.1956 7.85943 63.0814 7.81776 62.9752C7.77609 62.869 7.71148 62.7733 7.62854 62.6949C7.42093 62.5353 7.16173 62.4578 6.90058 62.4775C6.67559 62.4782 6.45217 62.5149 6.23879 62.5862C6.03854 62.6459 5.85105 62.742 5.68572 62.8698L5.24611 62.0189C5.49763 61.8455 5.77762 61.7175 6.07334 61.6408C6.39508 61.5518 6.72748 61.5073 7.0613 61.5084C7.60346 61.4757 8.13865 61.644 8.5645 61.9811V62.0142ZM7.52455 64.8882C7.68671 64.7901 7.80894 64.6377 7.86962 64.4581V64.0279H7.03293C6.53187 64.0279 6.28133 64.1934 6.28133 64.5243C6.27874 64.5962 6.29426 64.6677 6.32647 64.7321C6.35868 64.7966 6.40655 64.8519 6.46569 64.893C6.61423 64.9939 6.7923 65.0422 6.97148 65.0301C7.16529 65.0338 7.35647 64.9848 7.52455 64.8882Z" fill="#1BB0AC"/>
<path d="M14.2241 64.2254H13.5907V65.8231H12.3711V61.6113H13.5907V63.2469H14.2477L15.3917 61.6113H16.6916L15.2168 63.6298L16.7909 65.8231H15.3539L14.2241 64.2254Z" fill="#1BB0AC"/>
<path d="M17.3965 61.6113H18.6066V64.1167L20.6581 61.6113H21.7785V65.8231H20.5636V63.3178L18.5215 65.8231H17.3965V61.6113Z" fill="#1BB0AC"/>
<path d="M26.5009 61.8197C26.8191 61.9978 27.0811 62.2615 27.2572 62.5808C27.4343 62.9336 27.5266 63.3229 27.5266 63.7177C27.5266 64.1124 27.4343 64.5017 27.2572 64.8545C27.0811 65.1739 26.8191 65.4375 26.5009 65.6156C26.1743 65.7968 25.806 65.8897 25.4326 65.885C25.1969 65.8975 24.9614 65.8583 24.7426 65.7701C24.5237 65.6819 24.3268 65.5469 24.1657 65.3745V67.3362H22.9414V61.6118H24.109V62.0845C24.2729 61.8978 24.4774 61.7512 24.7069 61.6562C24.9364 61.5611 25.1847 61.52 25.4326 61.5361C25.806 61.5314 26.1743 61.6243 26.5009 61.8056V61.8197ZM25.9904 64.552C26.1858 64.3124 26.2925 64.0127 26.2925 63.7035C26.2925 63.3943 26.1858 63.0946 25.9904 62.855C25.7851 62.6523 25.5083 62.5387 25.2198 62.5387C24.9314 62.5387 24.6546 62.6523 24.4493 62.855C24.2539 63.0946 24.1472 63.3943 24.1472 63.7035C24.1472 64.0127 24.2539 64.3124 24.4493 64.552C24.6546 64.7546 24.9314 64.8683 25.2198 64.8683C25.5083 64.8683 25.7851 64.7546 25.9904 64.552Z" fill="#1BB0AC"/>
<path d="M29.1624 65.6061C28.8194 65.4327 28.5325 65.1655 28.3352 64.8356C28.1399 64.4954 28.0371 64.11 28.0371 63.7177C28.0371 63.3254 28.1399 62.94 28.3352 62.5997C28.5325 62.2698 28.8194 62.0027 29.1624 61.8292C29.5303 61.6489 29.9345 61.5552 30.3442 61.5552C30.7539 61.5552 31.1581 61.6489 31.526 61.8292C31.8736 62.004 32.164 62.2746 32.3627 62.6092C32.558 62.9494 32.6608 63.3349 32.6608 63.7271C32.6608 64.1194 32.558 64.5049 32.3627 64.8451C32.1677 65.1735 31.8843 65.4405 31.5449 65.6156C31.177 65.7959 30.7728 65.8897 30.3631 65.8897C29.9534 65.8897 29.5492 65.7959 29.1814 65.6156L29.1624 65.6061ZM31.1431 64.5757C31.3385 64.3361 31.4452 64.0363 31.4452 63.7271C31.4452 63.418 31.3385 63.1182 31.1431 62.8786C31.0447 62.7739 30.925 62.6915 30.7921 62.6369C30.6592 62.5822 30.5162 62.5567 30.3726 62.5619C30.2283 62.5572 30.0847 62.583 29.9512 62.6376C29.8176 62.6921 29.697 62.7743 29.5973 62.8786C29.4019 63.1182 29.2952 63.418 29.2952 63.7271C29.2952 64.0363 29.4019 64.3361 29.5973 64.5757C29.697 64.68 29.8176 64.7621 29.9512 64.8167C30.0847 64.8713 30.2283 64.8971 30.3726 64.8924C30.5162 64.8976 30.6592 64.8721 30.7921 64.8174C30.925 64.7628 31.0447 64.6804 31.1431 64.5757Z" fill="#1BB0AC"/>
<path d="M37.4565 64.6287C37.4646 64.8003 37.4294 64.9712 37.3543 65.1256C37.2791 65.2801 37.1664 65.4132 37.0264 65.5127C36.6418 65.7465 36.1943 65.8555 35.7453 65.8247H33.5V61.6129H35.6508C36.0812 61.5888 36.5094 61.6889 36.8846 61.9012C37.0283 61.9791 37.1482 62.0946 37.2315 62.2353C37.3147 62.376 37.3582 62.5366 37.3573 62.7001C37.3598 62.8963 37.3039 63.0889 37.1966 63.2532C37.0783 63.4206 36.9141 63.5503 36.7239 63.6266C36.9448 63.6813 37.1398 63.8112 37.2752 63.9941C37.4107 64.177 37.4782 64.4015 37.466 64.6287H37.4565ZM34.6298 63.343H35.5752C36.0006 63.343 36.2133 63.1854 36.2133 62.8703C36.2133 62.5725 36.0006 62.4259 35.5752 62.4259H34.6298V63.343ZM36.3268 64.5342C36.3323 64.4661 36.3209 64.3977 36.2937 64.3351C36.2665 64.2724 36.2243 64.2174 36.1708 64.1749C36.0277 64.0917 35.8634 64.0523 35.6981 64.0615H34.6487V65.0069H35.6224C36.0952 65.0069 36.2937 64.8556 36.2937 64.5342" fill="#1BB0AC"/>
<path d="M41.502 62.0142C41.6878 62.1978 41.8311 62.42 41.9218 62.665C42.0124 62.91 42.0482 63.172 42.0267 63.4323V65.8242H40.8828V65.2995C40.7437 65.5055 40.5506 65.6692 40.3246 65.7726C40.0986 65.876 39.8485 65.9151 39.6017 65.8857C39.3124 65.8945 39.0248 65.838 38.7603 65.7202C38.5361 65.6202 38.3468 65.4556 38.2167 65.2475C38.0893 65.0524 38.0234 64.8235 38.0276 64.5904C38.0159 64.4082 38.0505 64.2259 38.1282 64.0606C38.2059 63.8953 38.3242 63.7523 38.472 63.645C38.8776 63.3891 39.3552 63.2714 39.8334 63.3094H40.8213C40.8292 63.1951 40.8113 63.0804 40.7687 62.974C40.7261 62.8676 40.6601 62.7722 40.5755 62.6949C40.3685 62.534 40.1088 62.4565 39.8475 62.4775C39.6241 62.4782 39.4022 62.5149 39.1905 62.5862C38.9902 62.6459 38.8027 62.742 38.6374 62.8698L38.1978 62.0189C38.4493 61.8455 38.7293 61.7175 39.025 61.6408C39.3467 61.5515 39.6791 61.507 40.013 61.5084C40.5551 61.4757 41.0903 61.644 41.5162 61.9811L41.502 62.0142ZM40.4762 64.8882C40.6299 64.7994 40.7508 64.6635 40.8213 64.5006V64.0705H39.9704C39.4694 64.0705 39.2188 64.2359 39.2188 64.5668C39.2162 64.6388 39.2318 64.7103 39.264 64.7747C39.2962 64.8391 39.3441 64.8944 39.4032 64.9355C39.55 65.0364 39.7266 65.0847 39.9043 65.0726C40.0996 65.0763 40.2922 65.0273 40.4621 64.9308" fill="#1BB0AC"/>
<path d="M5.31286e-07 15.9108C-0.000812445 12.7646 0.931406 9.68877 2.67876 7.07239C4.42611 4.45602 6.91011 2.41658 9.8166 1.21201C12.7231 0.00744191 15.9215 -0.30815 19.0074 0.305148C22.0932 0.918446 24.9279 2.43309 27.1529 4.65751C29.3779 6.88193 30.8933 9.71622 31.5074 12.8019C32.1215 15.8876 31.8067 19.0861 30.6029 21.9929C29.3991 24.8997 27.3603 27.3843 24.7444 29.1323C22.1284 30.8803 19.0529 31.8133 15.9067 31.8133C11.6887 31.8133 7.64337 30.138 4.66041 27.1558C1.67745 24.1737 0.00109045 20.1288 5.31286e-07 15.9108Z" fill="#1BB0AC"/>
<path fill-rule="evenodd" clip-rule="evenodd" d="M9.5305 25.4505C11.4183 26.7111 13.6376 27.3836 15.9077 27.3828C18.9492 27.3795 21.8651 26.1699 24.0158 24.0192C26.1664 21.8685 27.3761 18.9526 27.3794 15.9111C27.3802 13.641 26.7077 11.4217 25.4471 9.53392C24.1864 7.6461 22.3942 6.17458 20.2971 5.30549C18.2 4.4364 15.8922 4.2088 13.6657 4.65146C11.4393 5.09413 9.3941 6.18718 7.78893 7.79235C6.18376 9.39752 5.09071 11.4427 4.64804 13.6692C4.20538 15.8956 4.43298 18.2034 5.30207 20.3005C6.17116 22.3976 7.64268 24.1898 9.5305 25.4505ZM11.4103 9.17993C12.7417 8.29115 14.3068 7.81719 15.9077 7.818V7.81389C18.0534 7.81716 20.1102 8.67156 21.6267 10.1896C23.1432 11.7077 23.9956 13.7653 23.9966 15.9111C23.9966 17.5119 23.5219 19.0768 22.6324 20.4078C21.743 21.7388 20.4788 22.7761 18.9997 23.3885C17.5206 24.0009 15.8932 24.161 14.3232 23.8484C12.7531 23.5358 11.3111 22.7646 10.1794 21.6323C9.04776 20.5001 8.27729 19.0576 7.96548 17.4874C7.65367 15.9173 7.81453 14.2899 8.4277 12.8111C9.04088 11.3324 10.0788 10.0687 11.4103 9.17993ZM14.1992 13.3704C14.698 13.0378 15.2842 12.8608 15.8837 12.8616H15.8796C16.6823 12.8616 17.4522 13.1802 18.0202 13.7474C18.5881 14.3146 18.9078 15.084 18.9089 15.8867C18.9097 16.4862 18.7326 17.0724 18.4 17.5712C18.0675 18.07 17.5944 18.4589 17.0407 18.6887C16.4871 18.9185 15.8776 18.9788 15.2896 18.8621C14.7016 18.7453 14.1615 18.4567 13.7376 18.0328C13.3137 17.6089 13.0251 17.0688 12.9084 16.4808C12.7916 15.8928 12.8519 15.2834 13.0817 14.7297C13.3115 14.176 13.7004 13.7029 14.1992 13.3704Z" fill="white"/>
</svg>
