<svg width="24" height="24" viewBox="0 0 24 24" fill="none" xmlns="http://www.w3.org/2000/svg">
<path d="M22.0006 0H2.00059C1.77969 0 1.60059 0.1791 1.60059 0.4V23.6C1.60059 23.8209 1.77969 24 2.00059 24H22.0006C22.2215 24 22.4006 23.8209 22.4006 23.6V0.4C22.4006 0.1791 22.2215 0 22.0006 0ZM10.4006 23.2H2.40059V0.8H10.4006V23.2ZM21.6006 23.2H11.2006V20.8H21.6006V23.2ZM21.6006 20H11.2006V17.6H21.6006V20ZM13.249 16.1172C13.3242 16.0425 13.4258 16.0004 13.5318 16H19.2694C19.3754 16.0004 19.477 16.0425 19.5522 16.1172C19.6275 16.192 19.6697 16.2938 19.6694 16.4C19.6697 16.5061 19.6275 16.608 19.5522 16.6828C19.477 16.7575 19.3754 16.7996 19.2694 16.8H13.5318C13.4258 16.7996 13.3242 16.7575 13.249 16.6828C13.0928 16.5266 13.0928 16.2734 13.249 16.1172ZM13.3178 14.5172C13.393 14.4424 13.4946 14.4004 13.6006 14.4H19.3378C19.5587 14.3998 19.7379 14.5787 19.7381 14.7997C19.7382 14.9057 19.6962 15.0074 19.6214 15.0824C19.5462 15.1578 19.4442 15.2001 19.3378 15.2H13.6006C13.4946 15.1996 13.393 15.1575 13.3178 15.0828C13.1616 14.9266 13.1616 14.6734 13.3178 14.5172ZM21.6006 16.8H20.3966C20.5443 16.4049 20.4659 15.9606 20.1918 15.64C20.6557 15.1667 20.6481 14.4069 20.1748 13.943C19.9512 13.7239 19.6509 13.6008 19.3378 13.6H13.6006C12.9416 13.5953 12.4035 14.1256 12.3988 14.7846C12.3967 15.068 12.4956 15.3429 12.6778 15.56C12.3528 15.8848 12.2461 16.3687 12.4046 16.8H11.2006V6.4H12.0006V7.6C12.0006 7.8209 12.1797 8 12.4006 8C12.6215 8 12.8006 7.8209 12.8006 7.6V6.4H13.6006V7.6C13.6006 7.8209 13.7797 8 14.0006 8C14.2215 8 14.4006 7.8209 14.4006 7.6V6.4H15.2006V7.6C15.2006 7.8209 15.3797 8 15.6006 8C15.8215 8 16.0006 7.8209 16.0006 7.6V6.4H16.8006V7.6C16.8006 7.8209 16.9797 8 17.2006 8C17.4215 8 17.6006 7.8209 17.6006 7.6V6.4H18.4006V7.6C18.4006 7.8209 18.5797 8 18.8006 8C19.0215 8 19.2006 7.8209 19.2006 7.6V6.4H20.4006C20.6215 6.4 20.8006 6.2209 20.8006 6C20.8006 5.7791 20.6215 5.6 20.4006 5.6H19.2006V5.2C19.2006 4.9791 19.0215 4.8 18.8006 4.8C18.5797 4.8 18.4006 4.9791 18.4006 5.2V5.6H17.6006V5.2C17.6006 4.9791 17.4215 4.8 17.2006 4.8C16.9797 4.8 16.8006 4.9791 16.8006 5.2V5.6H16.0006V5.2C16.0006 4.9791 15.8215 4.8 15.6006 4.8C15.3797 4.8 15.2006 4.9791 15.2006 5.2V5.6H14.4006V5.2C14.4006 4.9791 14.2215 4.8 14.0006 4.8C13.7797 4.8 13.6006 4.9791 13.6006 5.2V5.6H12.8006V5.2C12.8006 4.9791 12.6215 4.8 12.4006 4.8C12.1797 4.8 12.0006 4.9791 12.0006 5.2V5.6H11.2006V4H21.6006V16.8ZM21.6006 3.2H11.2006V0.8H21.6006V3.2Z" fill="white"/>
<path d="M17.2002 1.6H15.6002C15.3793 1.6 15.2002 1.7791 15.2002 2C15.2002 2.2209 15.3793 2.4 15.6002 2.4H17.2002C17.4211 2.4 17.6002 2.2209 17.6002 2C17.6002 1.7791 17.4211 1.6 17.2002 1.6Z" fill="white"/>
<path d="M17.2002 18.4001H15.6002C15.3793 18.4001 15.2002 18.5792 15.2002 18.8001C15.2002 19.021 15.3793 19.2001 15.6002 19.2001H17.2002C17.4211 19.2001 17.6002 19.021 17.6002 18.8001C17.6002 18.5792 17.4211 18.4001 17.2002 18.4001Z" fill="white"/>
<path d="M17.2002 21.6H15.6002C15.3793 21.6 15.2002 21.7791 15.2002 22C15.2002 22.2209 15.3793 22.4 15.6002 22.4H17.2002C17.4211 22.4 17.6002 22.2209 17.6002 22C17.6002 21.7791 17.4211 21.6 17.2002 21.6Z" fill="white"/>
<path d="M6.69178 1.71724C6.53833 1.55834 6.28508 1.55394 6.12618 1.70739C6.12283 1.71059 6.11958 1.71389 6.11633 1.71724L3.31634 4.51724C3.16014 4.67349 3.16019 4.92674 3.31644 5.08294C3.39144 5.15789 3.49309 5.20004 3.59914 5.20004C3.70524 5.20004 3.80694 5.15784 3.88194 5.08284L6.68193 2.28284C6.84083 2.12939 6.84523 1.87614 6.69178 1.71724Z" fill="white"/>
<path d="M8.68205 2.11717C8.52585 1.96102 8.27265 1.96102 8.11645 2.11717L3.31645 6.91717C3.15755 7.07062 3.15315 7.32387 3.3066 7.48277C3.46005 7.64167 3.7133 7.64607 3.8722 7.49262C3.87555 7.48942 3.8788 7.48612 3.88205 7.48277L8.68205 2.68277C8.8382 2.52657 8.8382 2.27337 8.68205 2.11717Z" fill="white"/>
<path d="M8.80039 10.4C8.57949 10.4 8.40039 10.5791 8.40039 10.8V12.8C8.40039 13.0209 8.57949 13.2 8.80039 13.2C9.02129 13.2 9.20039 13.0209 9.20039 12.8V10.8C9.20039 10.5791 9.02129 10.4 8.80039 10.4Z" fill="white"/>
</svg>
