<svg width="20" height="20" viewBox="0 0 20 20" fill="none" xmlns="http://www.w3.org/2000/svg">
<path d="M18.333 0H1.66634C1.48226 0 1.33301 0.14925 1.33301 0.333333V19.6667C1.33301 19.8507 1.48226 20 1.66634 20H18.333C18.5171 20 18.6663 19.8507 18.6663 19.6667V0.333333C18.6663 0.14925 18.5171 0 18.333 0ZM8.66634 19.3333H1.99967V0.666667H8.66634V19.3333ZM17.9997 19.3333H9.33301V17.3333H17.9997V19.3333ZM17.9997 16.6667H9.33301V14.6667H17.9997V16.6667ZM11.04 13.431C11.1027 13.3688 11.1873 13.3337 11.2757 13.3333H16.057C16.1453 13.3337 16.23 13.3688 16.2927 13.431C16.3554 13.4933 16.3906 13.5782 16.3903 13.6667C16.3906 13.7551 16.3554 13.84 16.2927 13.9023C16.23 13.9646 16.1453 13.9997 16.057 14H11.2757C11.1873 13.9997 11.1027 13.9646 11.04 13.9023C10.9099 13.7722 10.9099 13.5612 11.04 13.431ZM11.0973 12.0977C11.16 12.0354 11.2447 12.0003 11.333 12H16.114C16.2981 11.9999 16.4475 12.149 16.4476 12.3331C16.4477 12.4214 16.4127 12.5061 16.3503 12.5687C16.2877 12.6315 16.2027 12.6667 16.114 12.6667H11.333C11.2447 12.6664 11.16 12.6313 11.0973 12.569C10.9672 12.4388 10.9672 12.2278 11.0973 12.0977ZM17.9997 14H16.9963C17.1195 13.6707 17.0541 13.3005 16.8257 13.0333C17.2123 12.6389 17.2059 12.0058 16.8115 11.6192C16.6252 11.4366 16.3749 11.334 16.114 11.3333H11.333C10.7839 11.3294 10.3355 11.7713 10.3315 12.3205C10.3298 12.5566 10.4122 12.7857 10.564 12.9667C10.2932 13.2373 10.2043 13.6406 10.3363 14H9.33301V5.33333H9.99967V6.33333C9.99967 6.51742 10.1489 6.66667 10.333 6.66667C10.5171 6.66667 10.6663 6.51742 10.6663 6.33333V5.33333H11.333V6.33333C11.333 6.51742 11.4823 6.66667 11.6663 6.66667C11.8504 6.66667 11.9997 6.51742 11.9997 6.33333V5.33333H12.6663V6.33333C12.6663 6.51742 12.8156 6.66667 12.9997 6.66667C13.1838 6.66667 13.333 6.51742 13.333 6.33333V5.33333H13.9997V6.33333C13.9997 6.51742 14.1489 6.66667 14.333 6.66667C14.5171 6.66667 14.6663 6.51742 14.6663 6.33333V5.33333H15.333V6.33333C15.333 6.51742 15.4823 6.66667 15.6663 6.66667C15.8504 6.66667 15.9997 6.51742 15.9997 6.33333V5.33333H16.9997C17.1838 5.33333 17.333 5.18408 17.333 5C17.333 4.81592 17.1838 4.66667 16.9997 4.66667H15.9997V4.33333C15.9997 4.14925 15.8504 4 15.6663 4C15.4823 4 15.333 4.14925 15.333 4.33333V4.66667H14.6663V4.33333C14.6663 4.14925 14.5171 4 14.333 4C14.1489 4 13.9997 4.14925 13.9997 4.33333V4.66667H13.333V4.33333C13.333 4.14925 13.1838 4 12.9997 4C12.8156 4 12.6663 4.14925 12.6663 4.33333V4.66667H11.9997V4.33333C11.9997 4.14925 11.8504 4 11.6663 4C11.4823 4 11.333 4.14925 11.333 4.33333V4.66667H10.6663V4.33333C10.6663 4.14925 10.5171 4 10.333 4C10.1489 4 9.99967 4.14925 9.99967 4.33333V4.66667H9.33301V3.33333H17.9997V14ZM17.9997 2.66667H9.33301V0.666667H17.9997V2.66667Z" fill="#222630"/>
<path d="M14.3337 1.33329H13.0003C12.8162 1.33329 12.667 1.48254 12.667 1.66663C12.667 1.85071 12.8162 1.99996 13.0003 1.99996H14.3337C14.5177 1.99996 14.667 1.85071 14.667 1.66663C14.667 1.48254 14.5177 1.33329 14.3337 1.33329Z" fill="#222630"/>
<path d="M14.3337 15.3333H13.0003C12.8162 15.3333 12.667 15.4826 12.667 15.6667C12.667 15.8508 12.8162 16 13.0003 16H14.3337C14.5177 16 14.667 15.8508 14.667 15.6667C14.667 15.4826 14.5177 15.3333 14.3337 15.3333Z" fill="#222630"/>
<path d="M14.3337 18H13.0003C12.8162 18 12.667 18.1493 12.667 18.3334C12.667 18.5175 12.8162 18.6667 13.0003 18.6667H14.3337C14.5177 18.6667 14.667 18.5175 14.667 18.3334C14.667 18.1493 14.5177 18 14.3337 18Z" fill="#222630"/>
<path d="M5.57649 1.43106C5.44861 1.29864 5.23757 1.29498 5.10515 1.42285C5.10236 1.42552 5.09965 1.42827 5.09695 1.43106L2.76361 3.76439C2.63345 3.8946 2.63349 4.10564 2.7637 4.23581C2.8262 4.29827 2.91091 4.33339 2.99928 4.33339C3.0877 4.33339 3.17245 4.29823 3.23495 4.23573L5.56828 1.90239C5.70069 1.77452 5.70436 1.56348 5.57649 1.43106Z" fill="#222630"/>
<path d="M7.2352 1.76433C7.10504 1.63421 6.89404 1.63421 6.76387 1.76433L2.76387 5.76433C2.63146 5.89221 2.62779 6.10325 2.75567 6.23567C2.88354 6.36808 3.09458 6.37175 3.227 6.24388C3.22979 6.24121 3.2325 6.23846 3.23521 6.23567L7.2352 2.23566C7.36533 2.1055 7.36533 1.8945 7.2352 1.76433Z" fill="#222630"/>
<path d="M7.33333 8.66669C7.14925 8.66669 7 8.81594 7 9.00002V10.6667C7 10.8508 7.14925 11 7.33333 11C7.51742 11 7.66667 10.8508 7.66667 10.6667V9.00002C7.66667 8.81594 7.51742 8.66669 7.33333 8.66669Z" fill="#222630"/>
</svg>
