<svg width="60" height="61" viewBox="0 0 60 61" fill="none" xmlns="http://www.w3.org/2000/svg">
<circle cx="30" cy="31" r="24" stroke="#E1E3E5"/>
<path d="M54.0005 31C54.0005 36.2609 52.2719 41.376 49.0806 45.5584C45.8894 49.7409 41.4123 52.7589 36.3382 54.1481C31.264 55.5373 25.874 55.2208 20.9973 53.2473C16.1206 51.2738 12.0275 47.7525 9.34766 43.2254" stroke="#1BB0AC"/>
<path d="M29.6859 15L26.8158 31H32.556L29.6859 15Z" fill="#E1E3E5"/>
<path d="M29.6852 47L32.5553 31L26.8151 31L29.6852 47Z" fill="#1BB0AC"/>
<rect y="25" width="12" height="12" fill="white"/>
<rect x="36" width="12" height="12" transform="rotate(90 36 0)" fill="white"/>
<rect x="48" y="25" width="12" height="12" fill="white"/>
<rect x="36" y="49" width="12" height="12" transform="rotate(90 36 49)" fill="white"/>
<path d="M55.32 30.928C55.88 31.2 56.16 31.656 56.16 32.296C56.16 32.8 55.984 33.212 55.632 33.532C55.288 33.844 54.796 34 54.156 34H51V28H53.916C54.548 28 55.036 28.156 55.38 28.468C55.732 28.78 55.908 29.188 55.908 29.692C55.908 30.22 55.712 30.632 55.32 30.928ZM53.772 29.272H52.452V30.352H53.772C54.212 30.352 54.432 30.172 54.432 29.812C54.432 29.452 54.212 29.272 53.772 29.272ZM53.976 32.692C54.424 32.692 54.648 32.5 54.648 32.116C54.648 31.948 54.588 31.816 54.468 31.72C54.348 31.624 54.184 31.576 53.976 31.576H52.452V32.692H53.976Z" fill="black"/>
<path d="M7.996 31.108C8.604 31.404 8.908 31.88 8.908 32.536C8.908 33.048 8.696 33.476 8.272 33.82C7.848 34.164 7.252 34.336 6.484 34.336C5.268 34.336 4.44 33.856 4 32.896L5.26 32.152C5.452 32.696 5.864 32.968 6.496 32.968C6.784 32.968 7.004 32.912 7.156 32.8C7.316 32.688 7.396 32.536 7.396 32.344C7.396 31.976 7.16 31.792 6.688 31.792H5.836V30.472H6.484C6.948 30.472 7.18 30.288 7.18 29.92C7.18 29.744 7.112 29.604 6.976 29.5C6.84 29.396 6.66 29.344 6.436 29.344C5.916 29.344 5.544 29.596 5.32 30.1L4.072 29.38C4.528 28.46 5.308 28 6.412 28C7.1 28 7.644 28.176 8.044 28.528C8.452 28.872 8.656 29.292 8.656 29.788C8.656 30.372 8.436 30.812 7.996 31.108Z" fill="black"/>
<path d="M30.168 9.336C29.264 9.336 28.508 9.032 27.9 8.424C27.3 7.816 27 7.064 27 6.168C27 5.272 27.3 4.52 27.9 3.912C28.508 3.304 29.264 3 30.168 3C30.752 3 31.284 3.14 31.764 3.42C32.244 3.7 32.608 4.076 32.856 4.548L31.524 5.328C31.404 5.08 31.22 4.884 30.972 4.74C30.732 4.596 30.46 4.524 30.156 4.524C29.692 4.524 29.308 4.68 29.004 4.992C28.7 5.296 28.548 5.688 28.548 6.168C28.548 6.64 28.7 7.032 29.004 7.344C29.308 7.648 29.692 7.8 30.156 7.8C30.468 7.8 30.744 7.732 30.984 7.596C31.232 7.452 31.416 7.256 31.536 7.008L32.88 7.776C32.616 8.248 32.244 8.628 31.764 8.916C31.284 9.196 30.752 9.336 30.168 9.336Z" fill="black"/>
<path d="M31.46 52C32.348 52 33.1 52.308 33.716 52.924C34.332 53.532 34.64 54.28 34.64 55.168C34.64 56.056 34.332 56.808 33.716 57.424C33.1 58.032 32.348 58.336 31.46 58.336C30.708 58.336 30.052 58.108 29.492 57.652C28.932 57.196 28.572 56.608 28.412 55.888H27.548V58.168H26V52.168H27.548V54.436H28.424C28.584 53.724 28.944 53.14 29.504 52.684C30.064 52.228 30.716 52 31.46 52ZM30.296 56.356C30.608 56.668 30.996 56.824 31.46 56.824C31.924 56.824 32.312 56.668 32.624 56.356C32.936 56.044 33.092 55.648 33.092 55.168C33.092 54.688 32.936 54.292 32.624 53.98C32.312 53.668 31.924 53.512 31.46 53.512C30.996 53.512 30.608 53.668 30.296 53.98C29.992 54.292 29.84 54.688 29.84 55.168C29.84 55.648 29.992 56.044 30.296 56.356Z" fill="black"/>
</svg>
