<svg width="41" height="41" viewBox="0 0 41 41" fill="none" xmlns="http://www.w3.org/2000/svg">
<g clip-path="url(#clip0)">
<path d="M39.6303 14.1995C40.5083 13.316 40.9995 12.132 40.9995 10.8995C40.9995 9.66702 40.5083 8.48311 39.6303 7.59953L37.4656 5.42916L39.2292 3.65879L37.2991 1.72546L35.5735 3.48842L33.3634 1.32546C32.4849 0.475033 31.2991 -0.00195313 30.0634 -0.00195312C28.8277 -0.00195312 27.6419 0.475033 26.7634 1.32546L25.9611 2.12546C25.4824 1.65591 24.9138 1.28337 24.2878 1.02916C23.6618 0.774945 22.9907 0.644055 22.313 0.643978C20.9104 0.661558 19.5723 1.22273 18.5919 2.20446C17.6114 3.18618 17.0688 4.50834 17.083 5.88102C17.0726 7.26193 17.6161 8.59171 18.5967 9.58472L21.2836 12.2736L12.2995 21.281L9.61259 18.5921C9.13619 18.1022 8.5633 17.7117 7.9285 17.4444C7.29369 17.177 6.61012 17.0383 5.91903 17.0366C5.22197 17.0443 4.53331 17.1866 3.89254 17.4553C3.25177 17.7239 2.67147 18.1137 2.18491 18.6023C1.69834 19.0909 1.31508 19.6686 1.05709 20.3024C0.799098 20.9362 0.671445 21.6137 0.681449 22.2958C0.687271 23.6584 1.22943 24.9663 2.1952 25.9477L1.37021 26.7551C0.492201 27.6387 0.000976563 28.8226 0.000976562 30.0551C0.000976563 31.2876 0.492201 32.4715 1.37021 33.3551L3.53487 35.5551L1.76378 37.2958L3.70139 39.2588L5.46491 37.4884L7.63714 39.6588C8.06428 40.0923 8.5763 40.4371 9.14264 40.6726C9.70898 40.9081 10.318 41.0295 10.9333 41.0295C11.5487 41.0295 12.1577 40.9081 12.724 40.6726C13.2904 40.4371 13.8024 40.0923 14.2295 39.6588L15.0394 38.8514C15.5166 39.3229 16.0849 39.6968 16.7113 39.9511C17.3376 40.2055 18.0094 40.3352 18.6875 40.3329C20.0901 40.3153 21.4283 39.7541 22.4087 38.7724C23.3891 37.7907 23.9317 36.4685 23.9176 35.0958C23.9279 33.7149 23.3844 32.3851 22.4038 31.3921L19.679 28.6884L28.701 19.6736L31.3879 22.3625C31.8663 22.8484 32.44 23.2348 33.0747 23.4983C33.7094 23.7618 34.392 23.897 35.0815 23.8958C36.4853 23.8802 37.8255 23.3199 38.8075 22.3379C39.7895 21.356 40.3332 20.0327 40.3191 18.6588C40.3132 17.2963 39.7711 15.9883 38.8053 15.0069L39.6303 14.1995ZM31.4333 3.25879L37.7003 9.53287C38.065 9.89822 38.2692 10.3887 38.2692 10.8995C38.2692 11.4103 38.065 11.9009 37.7003 12.2662L36.898 13.0662L27.8987 4.05879L28.701 3.25879C29.065 2.9073 29.5558 2.71023 30.0672 2.71023C30.5785 2.71023 31.0693 2.9073 31.4333 3.25879ZM9.56718 37.6958L3.30024 31.4218C2.93775 31.0567 2.73496 30.5678 2.73496 30.0588C2.73496 29.5498 2.93775 29.0608 3.30024 28.6958L4.10253 27.8884L13.1018 36.8958L12.2995 37.6958C11.9355 38.0473 11.4447 38.2444 10.9333 38.2444C10.422 38.2444 9.93119 38.0473 9.56718 37.6958ZM21.1928 35.081C21.1968 35.7366 20.9356 36.3671 20.4662 36.8348C19.9968 37.3026 19.3574 37.5695 18.6875 37.5773C18.3581 37.5741 18.0327 37.507 17.7299 37.3799C17.4272 37.2527 17.1533 37.0681 16.924 36.8366L4.14794 24.0662C3.69686 23.574 3.4589 22.9295 3.48432 22.2689C3.50975 21.6082 3.79656 20.983 4.28418 20.5255C4.74184 20.0976 5.35043 19.8588 5.98337 19.8588C6.61631 19.8588 7.22489 20.0976 7.68256 20.5255L20.4359 33.3329C20.9123 33.8052 21.1835 34.4396 21.1928 35.1032V35.081ZM17.7642 26.7551L14.2295 23.2143L23.2364 14.1995L26.7634 17.7773L17.7642 26.7551ZM35.0815 21.1625C34.7519 21.1606 34.426 21.094 34.1231 20.9668C33.8202 20.8396 33.5465 20.6542 33.318 20.4218L20.5495 7.64398C20.0984 7.15181 19.8604 6.50732 19.8858 5.84664C19.9113 5.18596 20.1981 4.56081 20.6857 4.10324C21.1451 3.67869 21.753 3.44218 22.3849 3.44218C23.0167 3.44218 23.6247 3.67869 24.0841 4.10324L36.8526 16.8884C37.3197 17.3644 37.5807 17.9988 37.5807 18.6588C37.5807 19.3188 37.3197 19.9532 36.8526 20.4292C36.6236 20.661 36.3497 20.8459 36.0469 20.973C35.7441 21.1002 35.4185 21.1671 35.0891 21.1699" fill="#F65C5C"/>
</g>
<defs>
<clipPath id="clip0">
<rect width="41" height="41" fill="white"/>
</clipPath>
</defs>
</svg>
