<svg width="196" height="43" viewBox="0 0 196 43" fill="none" xmlns="http://www.w3.org/2000/svg">
<g clip-path="url(#clip0)">
<path fill-rule="evenodd" clip-rule="evenodd" d="M40.842 21.2939C40.9195 26.7418 38.8406 31.9995 35.0584 35.9211C31.2761 39.8427 26.097 42.1104 20.65 42.2299C15.1859 42.1357 9.98207 39.8792 6.17895 35.9548C2.37583 32.0303 0.28365 26.7583 0.360955 21.2939C0.287388 15.832 2.38122 10.5636 6.18395 6.64219C9.98667 2.72082 15.1884 0.466166 20.65 0.371948C26.0946 0.49146 31.2715 2.75722 35.0534 6.67583C38.8353 10.5944 40.9158 15.8485 40.842 21.2939Z" fill="white"/>
<path fill-rule="evenodd" clip-rule="evenodd" d="M0.717949 21.294C0.636945 15.9247 2.69076 10.7429 6.42814 6.88698C10.1655 3.0311 15.2807 0.816586 20.65 0.73C26.002 0.842203 31.0922 3.06796 34.8085 6.92104C38.5248 10.7741 40.5652 15.9414 40.4839 21.294C40.5652 26.6466 38.5248 31.8139 34.8085 35.667C31.0922 39.52 26.002 41.7458 20.65 41.858C17.9908 41.8168 15.3659 41.2522 12.925 40.1964C10.4842 39.1407 8.27519 37.6144 6.42427 35.7048C4.57335 33.7952 3.11674 31.5396 2.13764 29.067C1.15854 26.5944 0.676126 23.9531 0.717949 21.294ZM0.00194879 21.294C-0.0827805 26.8556 2.04481 32.2231 5.91686 36.2163C9.78891 40.2095 15.0884 42.5014 20.65 42.588C26.21 42.4972 31.5068 40.2039 35.3776 36.2116C39.2484 32.2193 41.377 26.8542 41.2959 21.294C41.377 15.7338 39.2484 10.3687 35.3776 6.3764C31.5068 2.38408 26.21 0.0908043 20.65 0C15.0884 0.0865918 9.78891 2.37848 5.91686 6.37167C2.04481 10.3649 -0.0827805 15.7324 0.00194879 21.294Z" fill="#224E75"/>
<path fill-rule="evenodd" clip-rule="evenodd" d="M33.6979 19.1331C33.5469 19.2711 33.3809 19.3951 33.1889 19.5461C31.5456 20.6563 29.7047 21.4411 27.7659 21.8581C22.5899 23.2351 18.8459 23.5141 14.5659 24.6141C13.7145 24.8274 12.8816 25.1083 12.0749 25.4541C12.8749 25.8541 13.7269 26.2541 14.6079 26.5961C16.2708 26.0837 17.9676 25.6887 19.6859 25.4141C20.6499 25.2351 23.5949 24.7141 25.7289 24.2441C29.5689 23.3911 35.1989 21.4911 33.6989 19.1511L33.6979 19.1331ZM31.2199 14.1331C30.2773 13.7018 29.3015 13.3473 28.3019 13.0731C27.7445 13.5289 27.1171 13.8916 26.4439 14.1471C27.6311 14.4074 28.8029 14.7336 29.9539 15.1241C30.1609 15.2371 31.0829 14.3431 31.2209 14.1361L31.2199 14.1331ZM12.3899 19.4461C17.3999 17.9181 22.6899 17.4461 28.0269 15.9771C26.2831 15.3683 24.4203 15.1795 22.5899 15.4261C19.2885 15.8207 16.0279 16.5023 12.8449 17.4631C11.6609 17.8901 5.50787 19.6381 7.22887 22.1981C7.22887 22.1981 8.26087 20.6471 12.3909 19.4491L12.3899 19.4461ZM8.92187 28.2141C8.94829 28.4976 9.04201 28.7707 9.19524 29.0108C9.34847 29.2508 9.55679 29.4508 9.80287 29.5941C9.87743 29.3413 10.0042 29.1069 10.1749 28.9061C9.74787 28.6861 9.32187 28.4381 8.92187 28.1901V28.2141ZM11.2729 27.9701C11.7097 27.7032 12.1703 27.4776 12.6489 27.2961C11.9329 26.9934 11.2032 26.6631 10.4599 26.3051C10.1612 26.4995 9.88431 26.7255 9.63387 26.9791C10.1979 27.3231 10.7629 27.6531 11.3409 27.9701H11.2729ZM30.5429 16.9581C29.0796 17.6074 27.5591 18.119 26.0009 18.4861C24.2939 18.9261 20.1239 19.5461 15.6639 20.5511C14.2879 20.8681 10.4059 21.8041 8.53387 23.4511C8.96091 23.7954 9.42196 24.0953 9.90987 24.3461C10.9635 23.6854 12.1161 23.1976 13.3239 22.9011C15.7321 22.2494 18.1776 21.7438 20.6469 21.3871C23.9141 20.8569 27.1354 20.0745 30.2819 19.0471C31.0613 18.7744 31.7947 18.3846 32.4569 17.8911C31.8789 17.4908 31.2491 17.1712 30.5849 16.9411L30.5429 16.9581ZM32.0299 16.0221C32.5084 16.2365 32.9686 16.4897 33.4059 16.7791C33.7229 16.1601 33.5299 15.7601 32.8689 15.1791C32.6159 15.4892 32.3299 15.7709 32.0159 16.0191L32.0299 16.0221ZM8.63287 25.4141C8.19287 25.1391 7.88987 24.9601 7.50387 24.6981C7.29787 25.1521 7.68287 25.6481 8.09587 25.8981C8.26472 25.7258 8.44406 25.5642 8.63287 25.4141ZM30.0639 11.0141C29.9036 11.4104 29.6593 11.7672 29.3479 12.0601C30.1049 12.2661 30.8759 12.5601 31.6049 12.8311C31.5049 12.1431 30.7239 11.4551 30.0629 11.0141H30.0639ZM6.41687 15.4581C11.6889 11.8931 17.4969 9.81506 27.3669 11.5761C27.6324 11.4458 27.8617 11.2521 28.0346 11.0121C28.2074 10.7721 28.3184 10.4932 28.3579 10.2001C25.5984 9.25934 22.684 8.85673 19.7729 9.01406C15.6953 9.22861 11.7109 10.3129 8.08687 12.1941L8.99087 11.0141C12.622 9.20113 16.5942 8.17316 20.6489 7.99706C23.2887 7.87472 25.9287 8.23391 28.4399 9.05706C28.1399 8.45106 27.4209 8.14906 26.4029 7.68106C23.0309 6.12606 16.8499 5.98806 11.7849 8.25906C12.453 7.805 13.1505 7.39577 13.8729 7.03406C16.3342 5.95783 19.0063 5.4496 21.6909 5.54706C24.6352 5.53501 27.4766 6.62967 29.6519 8.61406C29.9384 8.95409 30.1455 9.35381 30.2579 9.78406C31.4956 10.3308 32.5407 11.2366 33.2579 12.3841C33.4779 12.8664 33.5452 13.4044 33.4509 13.9261C33.9621 14.2248 34.403 14.6299 34.7439 15.1141C34.9742 15.4737 35.1287 15.8766 35.1979 16.2981C35.2611 16.601 35.2581 16.9141 35.1891 17.2158C35.1201 17.5175 34.9866 17.8007 34.7979 18.0461C35.2929 18.3663 35.6549 18.8552 35.8169 19.4221C35.8689 20.0643 35.7573 20.7092 35.4925 21.2966C35.2278 21.884 34.8185 22.3947 34.3029 22.7811C32.5833 24.0996 30.6185 25.0627 28.5229 25.6141C24.3939 26.6881 20.7599 27.1421 17.8549 27.6921C19.7942 28.2089 21.7939 28.4635 23.8009 28.4491C27.8443 28.3245 31.8083 27.2946 35.4009 25.4351L35.1529 26.1651C31.2377 28.3282 26.8457 29.483 22.3729 29.5251C19.9152 29.4148 17.4837 28.9739 15.1439 28.2141C14.4734 28.3859 13.8192 28.6161 13.1889 28.9021C15.9598 30.2098 18.9645 30.9493 22.0259 31.0771C26.1024 31.164 30.1578 30.4692 33.9729 29.0301C33.7799 29.2231 33.6839 29.5301 33.4909 29.7181C30.7104 31.0044 27.7318 31.8095 24.6819 32.0991C22.2321 32.2308 19.7753 32.0832 17.3589 31.6591C15.4828 31.261 13.6619 30.6371 11.9359 29.8011C11.7891 29.9048 11.6656 30.0379 11.5731 30.192C11.4807 30.3461 11.4213 30.5178 11.3989 30.6961C18.1849 34.3571 24.5299 34.4401 31.7569 32.0721L31.0959 32.7331C28.1107 34.1242 24.8472 34.8151 21.5544 34.7531C18.2616 34.691 15.0265 33.8777 12.0959 32.3751C11.9284 32.3063 11.7672 32.2233 11.6139 32.1271C13.8194 34.366 16.744 35.7551 19.8729 36.0501C22.6996 36.2747 25.542 35.8999 28.2139 34.9501L27.0139 35.5971C24.7438 36.6993 22.2203 37.1743 19.7049 36.9731C16.3778 36.8347 13.2137 35.4949 10.7989 33.2021C10.2575 32.6772 9.90007 31.9915 9.77987 31.2471C8.7984 30.7655 7.97301 30.0164 7.39887 29.0861C7.14747 28.6089 7.06971 28.0592 7.17887 27.5311C7.20717 27.3765 7.24865 27.2246 7.30287 27.0771C6.79781 26.7429 6.35907 26.3181 6.00887 25.8241C5.82526 25.4643 5.74348 25.0611 5.77239 24.6582C5.80129 24.2553 5.93978 23.868 6.17287 23.5381C5.89087 23.2122 5.66725 22.84 5.51187 22.4381C5.39248 22.0318 5.35509 21.6059 5.40187 21.1851C5.51968 20.4177 5.86487 19.7032 6.39287 19.1341C7.9405 17.5516 9.89216 16.4234 12.0359 15.8721C14.0264 15.1991 16.0587 14.6567 18.1199 14.2481C20.801 13.8349 23.4563 13.2689 26.0729 12.5531C22.6283 11.8609 19.0795 11.8698 15.6385 12.5794C12.1974 13.289 8.93463 14.6846 6.04487 16.6831L6.41687 15.4581Z" fill="#224E75"/>
<path d="M67.1331 17.5911L67.9171 23.2711H66.3341L67.1331 17.5911ZM60.9111 30.5981H65.1611L65.6701 27.3771H68.5881L69.0971 30.5981H73.3501L69.7611 11.9611H64.5041L60.9111 30.5981Z" fill="#224E75"/>
<path d="M77.3598 19.1739C77.6061 19.1813 77.8515 19.1395 78.0815 19.0511C78.3115 18.9627 78.5217 18.8294 78.6997 18.659C78.8778 18.4886 79.0201 18.2845 79.1185 18.0586C79.2169 17.8326 79.2693 17.5894 79.2728 17.3429C79.2821 17.1038 79.2398 16.8654 79.1486 16.6441C79.0575 16.4227 78.9198 16.2236 78.7448 16.0603C78.5698 15.897 78.3617 15.7733 78.1346 15.6977C77.9075 15.622 77.6668 15.5962 77.4288 15.6219C76.6324 15.6194 75.8458 15.7982 75.1288 16.1449V12.1119C76.3197 11.7766 77.5527 11.6142 78.7898 11.6299C79.4415 11.5968 80.093 11.7003 80.7023 11.9338C81.3117 12.1673 81.8655 12.5257 82.3281 12.9859C82.7908 13.4461 83.1521 13.998 83.3888 14.6061C83.6256 15.2142 83.7325 15.8651 83.7028 16.5169C83.7489 17.4147 83.5276 18.3059 83.0669 19.0777C82.6062 19.8496 81.9268 20.4674 81.1148 20.8529V21.0459C82.019 21.3653 82.7905 21.9776 83.3067 22.7857C83.8229 23.5938 84.0542 24.5513 83.9638 25.5059C84.0179 26.2345 83.9159 26.9663 83.6645 27.6523C83.4132 28.3383 83.0183 28.9628 82.5063 29.484C81.9943 30.0052 81.377 30.4111 80.6955 30.6746C80.0141 30.9381 79.2843 31.0531 78.5548 31.0119C77.1664 31.0805 75.7884 30.7408 74.5908 30.035V26.1659C75.4525 26.5643 76.3949 26.7573 77.3438 26.7299C77.5861 26.745 77.829 26.7102 78.0573 26.6277C78.2856 26.5452 78.4946 26.4168 78.6714 26.2503C78.8481 26.0839 78.9889 25.883 79.0849 25.66C79.181 25.437 79.2303 25.1967 79.2298 24.9539C79.2298 23.9079 78.5828 23.2059 77.1648 23.2059H75.5648V19.2149L77.3598 19.1739Z" fill="#224E75"/>
<path d="M85.9351 11.9611H97.3461V30.5981H93.1751V16.4341H90.1191V30.5981H85.9351V11.9611Z" fill="#224E75"/>
<path d="M103.925 16.0631H104.916C105.866 16.0631 106.458 16.6411 106.458 18.1971C106.458 20.2071 105.467 20.3441 104.916 20.3441H103.925V16.0631ZM99.7957 30.5981H103.925V24.4451H105.301C109.43 24.4451 110.724 20.6051 110.724 18.1551C110.724 15.7051 109.266 11.9611 105.302 11.9611H99.7407L99.7957 30.5981Z" fill="#224E75"/>
<path d="M118.488 26.3179C117.015 26.3179 116.258 24.5419 116.258 21.2529C116.258 17.9639 117.015 16.1879 118.488 16.1879C119.961 16.1879 120.732 17.9639 120.732 21.2529C120.732 24.5419 119.961 26.3179 118.488 26.3179ZM118.488 30.8179C123.457 30.8179 125.123 26.0419 125.123 21.1829C125.123 16.3239 123.457 11.6169 118.488 11.6169C113.519 11.6169 111.867 16.4069 111.867 21.2519C111.867 26.0969 113.533 30.8179 118.488 30.8179Z" fill="#224E75"/>
<path d="M147.435 26.8711V22.6291H148.054C148.536 22.6291 149.854 22.6291 149.854 24.5701C149.854 26.5111 148.478 26.8701 148.054 26.8701L147.435 26.8711ZM143.306 30.6011H148.306C149.38 30.6011 153.906 30.1331 153.906 24.4901C153.906 19.7271 150.406 18.9021 148.139 18.9021H147.396V16.4211H152.902V11.9611H143.264L143.306 30.6011Z" fill="#224E75"/>
<path d="M169.004 11.9611H173.104V18.6611H176.024V11.9611H180.124V30.5981H176.024V23.1381H173.106V30.5981H169.006L169.004 11.9611Z" fill="#224E75"/>
<path d="M182.865 11.9611H186.965L186.951 18.6611H187.846L190.186 11.9611H194.646L191.453 20.7981L195.087 30.5981H190.269L187.929 23.0981H186.952L186.966 30.5981H182.866L182.865 11.9611Z" fill="#224E75"/>
<path d="M52.8169 11.9611H61.3919V16.6001H57.0699V30.6001H52.8169V11.9611Z" fill="#224E75"/>
<path d="M127.132 11.9611H130.683L133.821 16.3521L136.972 11.9611H140.523V30.5981H136.339V19.2291L133.822 22.4911L131.317 19.2291V30.5991H127.132V11.9611Z" fill="#224E75"/>
<path d="M161.047 17.619L161.832 23.304H160.247L161.047 17.619ZM154.827 30.626H159.08L159.589 27.405H162.424L162.933 30.626H167.186L163.623 11.989H158.365L154.827 30.626Z" fill="#224E75"/>
</g>
<defs>
<clipPath id="clip0">
<rect width="195.088" height="42.587" fill="white"/>
</clipPath>
</defs>
</svg>
