<svg width="172" height="221" viewBox="0 0 172 221" fill="none" xmlns="http://www.w3.org/2000/svg">
<path d="M64.0292 65.2955C64.0292 74.2248 76.7234 81.8984 102.112 88.3163C111.04 90.2696 119.131 92.6414 126.384 95.4318C133.638 97.9432 140.892 101.71 148.146 106.733C155.679 111.477 161.538 117.895 165.723 125.987C169.908 134.079 172 143.427 172 154.03C172 175.516 163.909 192.119 147.728 203.839C131.546 215.28 111.598 221 87.8832 221C44.9181 221 15.6237 204.397 0 171.191L46.8711 144.822C53.2879 162.96 66.9586 172.028 87.8832 172.028C107.134 172.028 116.759 166.029 116.759 154.03C116.759 145.101 104.065 137.427 78.6764 131.009C69.1906 128.498 61.0998 125.987 54.4039 123.475C47.708 120.964 40.4542 117.336 32.6423 112.593C24.8305 107.57 18.8321 101.292 14.6472 93.7576C10.7413 85.9444 8.78832 76.8756 8.78832 66.5511C8.78832 45.9021 16.3212 29.7178 31.3869 17.9981C46.7316 5.99937 65.7032 0 88.3017 0C105.32 0 120.805 3.90656 134.754 11.7197C148.704 19.2538 159.724 30.1364 167.815 44.3674L121.781 69.4811C115.085 55.25 103.925 48.1345 88.3017 48.1345C81.3269 48.1345 75.468 49.8087 70.7251 53.1572C66.2611 56.2266 64.0292 60.2727 64.0292 65.2955Z" fill="#E1E3E5"/>
</svg>
