<svg width="24" height="24" viewBox="0 0 24 24" fill="none" xmlns="http://www.w3.org/2000/svg">
<g opacity="0.5" clip-path="url(#clip0)">
<path d="M14.1988 12.02L23.5439 2.67455C24.1521 2.06667 24.1521 1.08381 23.5439 0.47593C22.936 -0.13195 21.9532 -0.13195 21.3453 0.47593L11.9999 9.82134L2.65474 0.47593C2.04658 -0.13195 1.064 -0.13195 0.456124 0.47593C-0.152041 1.08381 -0.152041 2.06667 0.456124 2.67455L9.80125 12.02L0.456124 21.3654C-0.152041 21.9732 -0.152041 22.9561 0.456124 23.564C0.759067 23.8672 1.15739 24.0195 1.55543 24.0195C1.95347 24.0195 2.35151 23.8672 2.65474 23.564L11.9999 14.2186L21.3453 23.564C21.6485 23.8672 22.0466 24.0195 22.4446 24.0195C22.8426 24.0195 23.2407 23.8672 23.5439 23.564C24.1521 22.9561 24.1521 21.9732 23.5439 21.3654L14.1988 12.02Z" fill="white"/>
</g>
<defs>
<clipPath id="clip0">
<rect width="24" height="24" fill="white"/>
</clipPath>
</defs>
</svg>
