<svg width="12" height="12" viewBox="0 0 12 12" fill="none" xmlns="http://www.w3.org/2000/svg">
<path d="M6 0C2.68634 0 0 2.68629 0 6C0 9.31371 2.68634 12 6 12C9.31366 12 12 9.31371 12 6C12 2.68629 9.31366 0 6 0ZM8.07375 6.31805L5.07375 8.19305C5.01305 8.23095 4.94402 8.25 4.875 8.25C4.81247 8.25 4.74984 8.23444 4.69317 8.20294C4.57397 8.13684 4.5 8.01141 4.5 7.875V4.125C4.5 3.98859 4.57397 3.86316 4.69317 3.79706C4.81238 3.73059 4.95813 3.73462 5.07375 3.80695L8.07375 5.68195C8.18334 5.75062 8.25 5.87074 8.25 6C8.25 6.12926 8.18334 6.2494 8.07375 6.31805Z" fill="white"/>
</svg>
