<svg width="39" height="43" viewBox="0 0 39 43" fill="none" xmlns="http://www.w3.org/2000/svg">
<path d="M36.3222 6.42623L19.5 0L2.67779 6.42623C1.89149 6.73155 1.21574 7.26456 0.738236 7.95608C0.260734 8.64761 0.0035284 9.46572 0 10.3042L0 12.533H18.1087V19.4496H20.8913V12.5553H39V10.3265C38.9944 9.48848 38.7364 8.67127 38.2592 7.98012C37.782 7.28897 37.1073 6.75554 36.3222 6.44851V6.42623ZM2.88723 9.78421C2.96259 9.61397 3.07161 9.4605 3.2078 9.33288C3.34399 9.20527 3.5046 9.10611 3.68009 9.04129L19.5 2.97167L35.3199 9.019C35.4948 9.08492 35.6548 9.18448 35.7909 9.31196C35.927 9.43945 36.0363 9.59236 36.1128 9.76192L2.88723 9.78421ZM32.0587 29.1595C32.0567 27.6922 31.469 26.2855 30.4244 25.248C29.3797 24.2105 27.9635 23.6267 26.4862 23.6247H15.3188C15.3168 21.791 14.5825 20.0329 13.2769 18.7362C11.9714 17.4395 10.2013 16.7102 8.35501 16.7082H4.18124C3.07231 16.7082 2.00879 17.1457 1.22466 17.9245C0.440522 18.7034 0 19.7597 0 20.8611L0 22.2429C0.00197739 23.3437 0.443135 24.3989 1.22684 25.1773C2.01055 25.9557 3.07292 26.3939 4.18124 26.3958H5.5725C5.94148 26.3958 6.29535 26.5414 6.55626 26.8005C6.81717 27.0597 6.96375 27.4112 6.96375 27.7776V40.2364H0V43H39V40.2364H32.0363L32.0587 29.1595ZM18.1087 26.3958H23.6738V29.1595C23.6738 29.5266 23.5274 29.8789 23.2667 30.1392C23.006 30.3995 22.6522 30.5468 22.2825 30.5487H19.5C19.1303 30.5468 18.7765 30.3995 18.5158 30.1392C18.2551 29.8789 18.1087 29.5266 18.1087 29.1595V26.3958ZM5.5725 23.6247H4.18124C3.81226 23.6247 3.45839 23.4792 3.19748 23.22C2.93657 22.9609 2.78999 22.6094 2.78999 22.2429V20.8611C2.78998 20.4939 2.93632 20.1417 3.19702 19.8814C3.45772 19.621 3.81157 19.4738 4.18124 19.4718H8.35501C9.46333 19.4738 10.5257 19.912 11.3094 20.6904C12.0931 21.4688 12.5343 22.5239 12.5362 23.6247C12.5362 24.3584 12.8292 25.0621 13.3508 25.5816C13.8724 26.101 14.5801 26.3939 15.3188 26.3958V29.1595C15.3188 30.2609 15.7593 31.3172 16.5434 32.096C17.3276 32.8748 18.3911 33.3124 19.5 33.3124H22.2825C22.8316 33.3124 23.3753 33.205 23.8826 32.9962C24.3899 32.7875 24.8508 32.4816 25.2391 32.096C25.6274 31.7104 25.9353 31.2526 26.1455 30.7487C26.3556 30.2449 26.4638 29.7048 26.4638 29.1595V26.3958C27.2011 26.3978 27.9077 26.6896 28.4291 27.2074C28.9505 27.7253 29.2443 28.4271 29.2463 29.1595V40.2364H26.4638V34.7016H23.6738V40.2364H15.3188V34.7016H12.5362V40.2364H9.72382V27.7776C9.72385 26.6814 9.28744 25.6295 8.50976 24.8516C7.73208 24.0736 6.67624 23.6326 5.5725 23.6247Z" fill="#F49528"/>
</svg>
