<svg width="193" height="29" viewBox="0 0 193 29" fill="none" xmlns="http://www.w3.org/2000/svg">
<g clip-path="url(#clip0)">
<path d="M111.786 8.30969H122.895V10.7449H122.084C122.049 10.4023 121.886 10.0847 121.626 9.85352C121.366 9.6223 121.029 9.49388 120.678 9.4931H118.737V20.7115H115.992V9.46814H113.988C113.636 9.46296 113.294 9.58933 113.033 9.8217C112.772 10.0541 112.611 10.3751 112.581 10.72H111.777L111.786 8.30969Z" fill="#575756"/>
<path d="M135.012 8.30969H137.017V20.7115H134.331V12.0337L127.715 20.7115H125.705V10.5841C125.733 10.2057 125.62 9.83018 125.386 9.52803C125.153 9.22589 124.815 9.01787 124.436 8.943V8.30969H128.381V17.029L135.012 8.30969Z" fill="#575756"/>
<path d="M76.9107 20.7115H73.4273L70.9522 16.0999C70.9522 16.0999 70.2169 14.7186 69.4129 14.7186H68.4084V20.7115H65.664V10.5841C65.6827 10.2064 65.5552 9.83584 65.307 9.54682C65.0588 9.2578 64.7084 9.07179 64.3262 9.02621V8.30969H68.4084V13.5028H69.6144C69.9299 13.4389 70.2264 13.3051 70.4813 13.1115C70.7361 12.918 70.9426 12.6698 71.0849 12.386C73.239 8.943 72.9848 8.30969 73.9046 8.30969H76.5803V9.14178C74.7086 9.14178 74.1692 12.8917 72.3493 14.0705C73.2268 14.3978 73.5553 15.192 75.522 18.6719C75.522 18.6719 75.9871 19.8563 76.9239 19.8563L76.9107 20.7115Z" fill="#575756"/>
<path d="M142.792 13.2172H149.349V12.558C149.356 12.1306 149.277 11.706 149.115 11.309C148.954 10.912 148.714 10.5506 148.409 10.2458C148.103 9.94097 147.739 9.69887 147.338 9.53362C146.936 9.36836 146.506 9.28325 146.07 9.28325C145.635 9.28325 145.204 9.36836 144.803 9.53362C144.401 9.69887 144.037 9.94097 143.732 10.2458C143.427 10.5506 143.187 10.912 143.025 11.309C142.864 11.706 142.784 12.1306 142.792 12.558V13.2172ZM151.692 18.0155C151.067 18.9116 150.227 19.6437 149.248 20.148C148.268 20.6522 147.177 20.9133 146.071 20.9084C142.723 20.9084 139.508 18.3428 139.508 14.9914V14.2693C139.507 13.4351 139.679 12.6094 140.012 11.842C140.345 11.0746 140.833 10.3814 141.446 9.80399C142.059 9.22663 142.785 8.77711 143.58 8.48249C144.375 8.18787 145.222 8.05426 146.071 8.08968C146.92 8.09173 147.76 8.25863 148.544 8.5808C149.327 8.90297 150.037 9.37405 150.635 9.96693C151.232 10.5598 151.704 11.2628 152.023 12.0354C152.343 12.8081 152.503 13.6351 152.496 14.469H142.792V16.5104C142.803 16.9581 142.907 17.3989 143.097 17.8061C143.287 18.2133 143.559 18.5784 143.896 18.8794C144.234 19.1804 144.63 19.4111 145.061 19.5574C145.492 19.7037 145.949 19.7626 146.404 19.7305C147.191 19.7383 147.97 19.5774 148.687 19.259C149.404 18.9406 150.042 18.4724 150.556 17.887L151.692 18.0155Z" fill="#575756"/>
<path d="M86.371 8.08595C85.6757 8.06558 84.9843 8.19442 84.3449 8.46348C83.7056 8.73254 83.1337 9.13535 82.6692 9.6438V8.30969H78.6548V9.03823C79.0215 9.10519 79.3514 9.29938 79.5844 9.58537C79.8173 9.87136 79.9378 10.2301 79.9239 10.5961V26.3669H82.6682V19.3931C83.1022 19.8787 83.6385 20.2658 84.24 20.5276C84.8415 20.7894 85.4938 20.9197 86.1517 20.9093C86.9553 20.9044 87.7498 20.7406 88.4877 20.4279C89.2256 20.1151 89.8919 19.6597 90.4468 19.0888C91.0017 18.5178 91.434 17.8431 91.7178 17.1047C92.0016 16.3663 92.1312 15.5793 92.0989 14.7907V14.0215C92.0989 10.3862 89.83 8.10444 86.3447 8.10444L86.371 8.08595ZM88.8866 16.4549C88.9168 17.2446 88.6338 18.015 88.0971 18.6039C87.5605 19.1929 86.8121 19.5543 86.0095 19.6122H85.745C85.0433 19.6219 84.3585 19.4007 83.7997 18.9838C83.2409 18.5669 82.8403 17.9784 82.6617 17.3119V11.945C82.7858 11.2224 83.1654 10.566 83.7336 10.091C84.3018 9.61605 85.0223 9.35295 85.7685 9.34795H86.2976C86.2976 9.34795 88.8395 9.47738 88.9102 12.5052L88.8866 16.4549Z" fill="#575756"/>
<path d="M44.6601 8.08603C43.8183 8.03771 42.9751 8.15506 42.1802 8.43118C41.3852 8.7073 40.6544 9.13664 40.0308 9.69396C39.4071 10.2513 38.9031 10.9254 38.5484 11.6766C38.1938 12.4279 37.9955 13.2412 37.9653 14.0687V15.107C37.9653 17.8649 40.7097 20.8927 44.6601 20.8927C48.3619 20.8927 51.4188 18.1977 51.4188 15.0395V14.1982C51.4188 11.0455 48.8769 8.08603 44.6601 8.08603ZM48.1435 16.3958C48.1436 16.8413 48.053 17.2822 47.877 17.6928C47.7009 18.1034 47.443 18.4752 47.1184 18.7864C46.7938 19.0975 46.4091 19.3418 45.9869 19.5048C45.5647 19.6677 45.1136 19.7461 44.6601 19.7352C44.2087 19.7437 43.7602 19.6623 43.3417 19.496C42.9232 19.3296 42.5434 19.0816 42.2251 18.7671C41.9069 18.4526 41.6569 18.0781 41.4901 17.6661C41.3233 17.254 41.2433 16.8131 41.2548 16.3699V12.4221C41.3477 11.5855 41.7541 10.8126 42.3949 10.2538C43.0358 9.69506 43.8653 9.39024 44.7223 9.39866C45.5793 9.40707 46.4024 9.72812 47.0318 10.2994C47.6611 10.8706 48.0517 11.6513 48.1275 12.4896L48.1435 16.3958Z" fill="#575756"/>
<path d="M109.911 8.30969H105.9V9.03638C106.289 9.10304 106.639 9.30653 106.885 9.60867C107.131 9.91081 107.257 10.2908 107.238 10.6774V20.7115H109.911V8.30969Z" fill="#575756"/>
<path d="M98.1314 13.0202V8.30969H94.1387V9.03638C94.5033 9.09756 94.8307 9.29246 95.0546 9.58167C95.2785 9.87088 95.3822 10.2328 95.3447 10.5942V20.7216H101.542C103.953 20.7216 105.694 19.2729 105.694 17.237V16.6194C105.694 14.3811 104.023 12.9842 101.405 12.9842L98.1314 13.0202ZM98.1314 19.4596V14.2665H100.485C100.8 14.2707 101.111 14.3381 101.399 14.4646C101.686 14.5912 101.944 14.7741 102.157 15.0021C102.37 15.2302 102.533 15.4986 102.637 15.7909C102.74 16.0832 102.782 16.3931 102.759 16.7017V17.2213C102.726 17.8145 102.466 18.3736 102.032 18.7874C101.598 19.2011 101.021 19.4392 100.416 19.4541L98.1314 19.4596Z" fill="#575756"/>
<path d="M51.8896 8.30969H62.9989V10.7449H62.2005C62.1664 10.4019 62.0034 10.0837 61.7434 9.85232C61.4834 9.6209 61.1449 9.49284 60.794 9.4931H58.8471V20.7115H56.1027V9.46814H54.0927C53.7405 9.46171 53.3991 9.58777 53.1385 9.82051C52.8778 10.0532 52.7177 10.375 52.6908 10.72H51.8896V8.30969Z" fill="#575756"/>
<path d="M14.765 2.95261e-08C11.8447 0.000182912 8.9901 0.850768 6.5621 2.44419C4.13409 4.03761 2.24178 6.3023 1.12445 8.95187C0.00712335 11.6014 -0.285028 14.5169 0.284941 17.3295C0.854909 20.1421 2.2614 22.7256 4.32654 24.7532C6.39169 26.7809 9.02273 28.1616 11.887 28.7208C14.7512 29.2799 17.7199 28.9925 20.4178 27.8947C23.1156 26.797 25.4214 24.9383 27.0436 22.5536C28.6657 20.1689 29.5313 17.3655 29.5309 14.4977C29.5304 10.6523 27.9745 6.96465 25.2054 4.24584C22.4362 1.52702 18.6808 -0.000245194 14.765 2.95261e-08V2.95261e-08ZM11.6394 21.6092C11.7968 21.6958 11.9338 21.8142 12.0414 21.9565C12.149 22.0988 12.2247 22.2618 12.2635 22.4349C12.3442 22.7681 12.2869 23.1192 12.1044 23.4112C11.9948 23.588 11.8388 23.7327 11.6529 23.8302C11.467 23.9278 11.2578 23.9746 11.0472 23.9659C10.7985 23.9634 10.5532 23.9085 10.3279 23.805L9.63498 23.4833C8.13489 22.6725 6.88857 21.475 6.03035 20.02C5.17213 18.5649 4.73456 16.9075 4.76479 15.2262V13.7756C4.73851 12.0899 5.18114 10.429 6.04498 8.97205C6.90883 7.51508 8.16114 6.31719 9.66699 5.50748L10.3439 5.19591C10.5683 5.09001 10.8142 5.03503 11.0632 5.03504C11.2735 5.02784 11.4821 5.07535 11.6678 5.17276C11.8534 5.27017 12.0096 5.41403 12.1204 5.58976C12.3029 5.8817 12.3602 6.23278 12.2795 6.56607C12.241 6.7422 12.1638 6.90793 12.0532 7.05166C11.9426 7.19539 11.8014 7.31365 11.6394 7.39816C10.7635 7.80318 10.0249 8.44738 9.51204 9.25372C8.99914 10.0601 8.7336 10.9944 8.74718 11.945V17.0864C8.73891 18.0331 9.00701 18.9623 9.51974 19.764C10.0325 20.5657 10.7683 21.2064 11.6403 21.6102L11.6394 21.6092ZM24.7445 15.2225C24.7743 16.9055 24.3354 18.5645 23.4751 20.0204C22.6148 21.4763 21.3658 22.6737 19.863 23.4833L19.1701 23.805C18.945 23.9091 18.6996 23.964 18.4508 23.9659C18.2402 23.9746 18.0311 23.9278 17.8451 23.8302C17.6592 23.7327 17.5033 23.588 17.3936 23.4112C17.2157 23.1176 17.1588 22.7683 17.2345 22.4349C17.2733 22.2618 17.349 22.0988 17.4566 21.9565C17.5642 21.8142 17.7012 21.6958 17.8587 21.6092C18.7373 21.2075 19.4798 20.566 19.9973 19.7612C20.5148 18.9565 20.7855 18.0224 20.7772 17.0707V11.945C20.787 10.9966 20.5191 10.0654 20.0053 9.26226C19.4916 8.45911 18.7537 7.81784 17.8794 7.4148C17.7178 7.32913 17.5767 7.2106 17.4655 7.06711C17.3543 6.92362 17.2755 6.75848 17.2345 6.58271C17.1588 6.24926 17.2157 5.90001 17.3936 5.6064C17.5041 5.43034 17.6601 5.28622 17.8459 5.18876C18.0316 5.09131 18.2404 5.044 18.4508 5.05168C18.6999 5.05113 18.9459 5.10613 19.1701 5.21255L19.847 5.52412C21.3524 6.33382 22.604 7.53189 23.4668 8.989C24.3295 10.4461 24.7707 12.107 24.7426 13.7923L24.7445 15.2225Z" fill="#00B3E1"/>
<path d="M171.498 14.6919H170.745V16.8627H171.448C172.295 16.8627 172.807 16.5197 172.807 15.7533C172.807 14.9868 172.358 14.715 171.501 14.715L171.498 14.6919ZM171.407 17.6236H169.89V11.4615H173.121L173.248 12.2298H170.741V13.9541H171.547C172.865 13.9541 173.662 14.5874 173.662 15.7246C173.662 16.981 172.757 17.5996 171.403 17.5996" fill="#575756"/>
<path d="M176.422 15.0248H178.421L177.421 12.4277L176.422 15.0248ZM177.014 11.4255H177.861L180.272 17.4757L179.432 17.6606L178.696 15.7542H176.148L175.455 17.5978H174.562L177.014 11.4255Z" fill="#575756"/>
<path d="M185.641 17.6005V14.7751H182.478V17.6005H181.631V11.4615H182.478V14.0059H185.641V11.4615H186.488V17.6005H185.641Z" fill="#575756"/>
<path d="M191.757 11.4615L189.166 14.2194V11.4615H188.31V17.6051H189.166V14.4894L192.054 17.668L193 17.471L190.092 14.3498L192.842 11.4625L191.757 11.4615Z" fill="#575756"/>
<path d="M161.45 0H160.92V28.9945H161.45V0Z" fill="#575756"/>
</g>
<defs>
<clipPath id="clip0">
<rect width="193" height="29" fill="white"/>
</clipPath>
</defs>
</svg>
