<svg width="38" height="52" viewBox="0 0 38 52" fill="none" xmlns="http://www.w3.org/2000/svg">
<g clip-path="url(#clip0)">
<path d="M37.9997 18.6811C38.001 15.0454 36.9229 11.4883 34.8978 8.44601C32.8726 5.40373 29.9884 3.00846 26.5987 1.55389C23.209 0.0993194 19.4611 -0.351336 15.8147 0.257182C12.1682 0.8657 8.78166 2.50694 6.07021 4.97967C3.35877 7.45241 1.44028 10.6492 0.54999 14.178C-0.340302 17.7068 -0.163708 21.4143 1.05812 24.8459C2.27995 28.2775 4.4939 31.284 7.42853 33.4969C10.3632 35.7098 13.8909 37.0328 17.5792 37.3037V52.0001H31.7497V49.4993H20.1233V37.3204C24.9575 37.0358 29.4991 34.9487 32.8211 31.4848C36.1432 28.021 37.9954 23.4415 37.9997 18.6811ZM2.54377 18.6811C2.53962 15.5269 3.47342 12.4404 5.2303 9.80101C6.98718 7.16166 9.49053 5.08463 12.4324 3.82539C15.3744 2.56614 18.6266 2.17959 21.789 2.71328C24.9515 3.24697 27.8863 4.67762 30.2325 6.82928C32.5787 8.98094 34.234 11.7598 34.9948 14.824C35.7555 17.8882 35.5886 21.1042 34.5145 24.0764C33.4404 27.0485 31.506 29.6473 28.9492 31.5531C26.3923 33.4588 23.3246 34.5884 20.1233 34.8029V27.5089L20.3608 27.784L30.359 19.448L28.7138 17.5057L20.1233 24.658V11.2203H17.5792V18.631L9.099 11.5371L7.41991 13.446L17.4266 21.7821L17.5792 21.607V34.7862C13.4798 34.4323 9.66343 32.5832 6.88095 29.6028C4.09846 26.6224 2.55128 22.7263 2.54377 18.6811Z" fill="#019D64"/>
</g>
<defs>
<clipPath id="clip0">
<rect width="38" height="52" fill="white"/>
</clipPath>
</defs>
</svg>
