<svg width="18" height="18" viewBox="0 0 18 18" fill="none" xmlns="http://www.w3.org/2000/svg">
<path d="M12 0C8.69164 0 5.99998 2.69167 5.99998 6.00001C5.99998 6.39404 6.04283 6.79834 6.12742 7.20446L5.45723 7.53954C5.34955 7.59336 5.27414 7.69591 5.25473 7.81492C5.23533 7.93392 5.27453 8.05479 5.35985 8.14011L5.84473 8.62499L5.46971 9H4.87498C4.6677 9 4.49996 9.16773 4.49996 9.37501V9.96975L3.9697 10.5H3.375C3.16772 10.5 2.99999 10.6677 2.99999 10.875V11.4698L2.46973 12H1.87499C1.66771 12 1.49998 12.1677 1.49998 12.375V12.9697L0.109863 14.3599C0.0395508 14.4302 0 14.5254 0 14.625V17.625C0 17.8323 0.16773 18 0.375012 18H3.375C3.4746 18 3.56984 17.9604 3.64015 17.8901L9.37501 12.1553L9.85989 12.6401C9.94486 12.7255 10.0661 12.7654 10.1851 12.7453C10.3041 12.7259 10.4066 12.6504 10.4605 12.5428L10.7955 11.8726C14.6111 12.668 18 9.70239 18 6.00001C18 2.69167 15.3084 0 12 0ZM10.6857 11.0771C10.5158 11.0339 10.3359 11.1145 10.2568 11.2727L10.0221 11.7418L9.64013 11.3599C9.49363 11.2134 9.25632 11.2134 9.10986 11.3599L3.21971 17.25H0.749988V14.7803L2.14014 13.3901C2.21045 13.3198 2.25 13.2246 2.25 13.125V12.75H2.62501C2.72461 12.75 2.81985 12.7104 2.89016 12.6401L3.64015 11.8901C3.71046 11.8198 3.75001 11.7246 3.75001 11.625V11.25H4.12502C4.22462 11.25 4.31986 11.2104 4.39017 11.1401L5.14016 10.3901C5.21047 10.3198 5.25002 10.2246 5.25002 10.125V9.74999H5.625C5.7246 9.74999 5.81984 9.71044 5.89015 9.64013L6.64014 8.89014C6.78663 8.74364 6.78663 8.50634 6.64014 8.35988L6.25816 7.9779L6.72729 7.74316C6.88549 7.66406 6.96681 7.48536 6.92286 7.31433C6.80825 6.869 6.75 6.42698 6.75 6.00001C6.75 3.10511 9.10512 0.750023 12 0.750023C14.8949 0.750023 17.25 3.10514 17.25 6.00001C17.25 9.32189 14.15 11.9692 10.6857 11.0771Z" fill="#222630"/>
<path d="M13.875 2.25C12.8412 2.25 12 3.09118 12 4.12499C12 5.15879 12.8412 5.99998 13.875 5.99998C14.9088 5.99998 15.75 5.15883 15.75 4.12499C15.75 3.09115 14.9088 2.25 13.875 2.25ZM13.875 5.24999C13.2546 5.24999 12.75 4.74536 12.75 4.12499C12.75 3.50462 13.2546 2.99999 13.875 2.99999C14.4954 2.99999 15 3.50462 15 4.12499C15 4.74536 14.4954 5.24999 13.875 5.24999Z" fill="#222630"/>
<path d="M7.60986 9.85975L2.35987 15.1098C2.21338 15.2563 2.21338 15.4936 2.35987 15.64C2.4331 15.7133 2.52908 15.7499 2.62502 15.7499C2.72096 15.7499 2.8169 15.7133 2.89017 15.64L8.14016 10.39C8.28665 10.2435 8.28665 10.0062 8.14016 9.85978C7.99366 9.71329 7.75636 9.71329 7.60986 9.85975Z" fill="#222630"/>
</svg>
