<svg width="42" height="42" viewBox="0 0 42 42" fill="none" xmlns="http://www.w3.org/2000/svg">
<g clip-path="url(#clip0)">
<path d="M33.1129 15.0016L26.595 15.1511L26.4455 8.62573L15.0018 8.88735L15.1513 15.4052L8.62598 15.5547L8.88759 26.9984L15.4055 26.8489L15.555 33.3743L26.9986 33.1127L26.8491 26.5873L33.3745 26.4453L33.1129 15.0016ZM24.5619 24.3972L24.7114 30.9226L17.745 31.0796L17.603 24.5617L11.0777 24.7037L10.9207 17.7448L17.4386 17.5953L17.2966 11.0774L24.2554 10.9204L24.3975 17.4383L30.9228 17.2888L31.0798 24.2552L24.5619 24.3972Z" fill="#1BB0AC"/>
<path d="M21.0024 1.33015e-06C16.8477 -0.00147698 12.7858 1.2293 9.33057 3.53665C5.87538 5.84401 3.18212 9.12427 1.59147 12.9625C0.000815351 16.8007 -0.415759 21.0245 0.394437 25.0995C1.20463 29.1746 3.2052 32.9177 6.14307 35.8556C9.08095 38.7935 12.8241 40.7941 16.8992 41.6043C20.9742 42.4145 25.198 41.9979 29.0362 40.4072C32.8744 38.8166 36.1547 36.1233 38.462 32.6681C40.7694 29.2129 42.0002 25.151 41.9987 20.9963C41.9928 15.4295 39.7788 10.0925 35.8425 6.15622C31.9062 2.21994 26.5692 0.00593707 21.0024 1.33015e-06ZM21.0024 39.7576C17.2915 39.7591 13.6634 38.66 10.5772 36.5994C7.49088 34.5388 5.08503 31.6092 3.66388 28.1811C2.24273 24.753 1.87013 20.9805 2.59319 17.3407C3.31626 13.7009 5.10252 10.3572 7.72604 7.73264C10.3496 5.10807 13.6925 3.32048 17.3321 2.59596C20.9716 1.87144 24.7443 2.24255 28.1729 3.66233C31.6015 5.08211 34.5321 7.48679 36.5939 10.5722C38.6558 13.6577 39.7563 17.2853 39.7563 20.9963C39.7504 25.969 37.7729 30.7364 34.2573 34.2533C30.7418 37.7703 25.9751 39.7497 21.0024 39.7576Z" fill="#1BB0AC"/>
</g>
<defs>
<clipPath id="clip0">
<rect width="42" height="42" fill="white"/>
</clipPath>
</defs>
</svg>
