<svg width="22" height="22" viewBox="0 0 22 22" fill="none" xmlns="http://www.w3.org/2000/svg">
<g clip-path="url(#clip0)">
<path d="M20.5364 11.285C20.4478 11.1039 20.4478 10.8962 20.5364 10.7151L21.3569 9.03657C21.8137 8.10196 21.4518 6.988 20.5328 6.50044L18.8824 5.62474C18.7044 5.5303 18.5823 5.36221 18.5474 5.16373L18.2247 3.32344C18.0449 2.29881 17.0971 1.61028 16.0673 1.75599L14.2174 2.01767C14.0177 2.04585 13.8203 1.98166 13.6754 1.84154L12.3326 0.542515C11.5849 -0.180817 10.4136 -0.18086 9.66593 0.542515L8.32308 1.84167C8.17819 1.98183 7.98075 2.0459 7.78112 2.0178L5.9312 1.75612C4.90103 1.61033 3.95357 2.29894 3.77384 3.32357L3.45106 5.16378C3.41621 5.36229 3.29414 5.53034 3.11612 5.62483L1.4657 6.50053C0.546773 6.98805 0.184806 8.10209 0.641648 9.0367L1.46213 10.7152C1.55065 10.8963 1.55065 11.104 1.46213 11.2851L0.641605 12.9636C0.184763 13.8982 0.54673 15.0122 1.46565 15.4998L3.11607 16.3755C3.29414 16.4699 3.41621 16.638 3.45106 16.8365L3.77384 18.6768C3.93746 19.6095 4.73728 20.2637 5.6565 20.2636C5.74704 20.2636 5.8389 20.2572 5.93124 20.2442L7.78116 19.9825C7.98067 19.9542 8.17824 20.0185 8.32313 20.1586L9.66593 21.4576C10.0398 21.8194 10.5195 22.0002 10.9992 22.0001C11.4789 22.0001 11.9588 21.8193 12.3326 21.4576L13.6754 20.1586C13.8203 20.0185 14.0178 19.9545 14.2174 19.9825L16.0673 20.2442C17.0976 20.3899 18.0449 19.7014 18.2247 18.6767L18.5475 16.8365C18.5823 16.638 18.7044 16.4699 18.8824 16.3755L20.5328 15.4998C21.4518 15.0122 21.8137 13.8982 21.3569 12.9636L20.5364 11.285ZM19.9381 14.3788L18.2877 15.2545C17.7615 15.5338 17.4006 16.0304 17.2977 16.6172L16.9749 18.4575C16.9141 18.8041 16.5936 19.037 16.245 18.9878L14.3951 18.7261C13.8051 18.6425 13.2214 18.8324 12.7932 19.2466L11.4503 20.5456C11.1974 20.7902 10.8011 20.7902 10.5481 20.5456L9.20531 19.2465C8.84343 18.8965 8.37035 18.7068 7.87647 18.7068C7.78598 18.7068 7.69475 18.7131 7.6034 18.7261L5.75348 18.9877C5.40518 19.037 5.08442 18.8041 5.02358 18.4574L4.70075 16.6171C4.5978 16.0303 4.23695 15.5337 3.71072 15.2545L2.0603 14.3788C1.74938 14.2138 1.62692 13.837 1.78147 13.5208L2.602 11.8422C2.86359 11.307 2.86359 10.6931 2.602 10.1579L1.78147 8.47936C1.62692 8.16315 1.74938 7.78627 2.0603 7.62132L3.71072 6.74562C4.23691 6.46637 4.5978 5.96974 4.70071 5.38296L5.02349 3.5427C5.08433 3.19603 5.40479 2.96315 5.7534 3.01239L7.60332 3.27407C8.19306 3.35755 8.77705 3.16776 9.20523 2.75359L10.5481 1.45456C10.801 1.2099 11.1973 1.2099 11.4503 1.45456L12.7931 2.75359C13.2213 3.1678 13.8052 3.35755 14.395 3.27407L16.2449 3.01239C16.5933 2.9631 16.914 3.19603 16.9748 3.5427L17.2976 5.383C17.4006 5.96978 17.7614 6.46645 18.2876 6.74562L19.9381 7.62132C20.249 7.78627 20.3715 8.16315 20.2169 8.47936L19.3964 10.1579C19.1348 10.693 19.1348 11.307 19.3964 11.8422L20.2169 13.5207C20.3715 13.837 20.249 14.2139 19.9381 14.3788Z" fill="white"/>
<path d="M15.6359 6.36431C15.3881 6.11656 14.9864 6.11656 14.7386 6.36431L6.36453 14.7384C6.11677 14.9862 6.11677 15.3879 6.36453 15.6357C6.48841 15.7595 6.65079 15.8215 6.81312 15.8215C6.97546 15.8215 7.13788 15.7596 7.26171 15.6357L15.6358 7.26158C15.8837 7.01378 15.8837 6.61211 15.6359 6.36431Z" fill="white"/>
<path d="M8.46104 5.29004C7.17834 5.29004 6.13477 6.33362 6.13477 7.61631C6.13477 8.89901 7.17834 9.94258 8.46104 9.94258C9.74373 9.94258 10.7873 8.89901 10.7873 7.61631C10.7873 6.33362 9.74373 5.29004 8.46104 5.29004ZM8.46104 8.67368C7.878 8.67368 7.40367 8.19935 7.40367 7.61627C7.40367 7.03323 7.878 6.5589 8.46104 6.5589C9.04408 6.5589 9.51845 7.03323 9.51845 7.61627C9.51841 8.19935 9.04408 8.67368 8.46104 8.67368Z" fill="white"/>
<path d="M13.5372 12.0576C12.2545 12.0576 11.2109 13.1012 11.2109 14.3839C11.2109 15.6666 12.2545 16.7101 13.5372 16.7101C14.8199 16.7101 15.8635 15.6666 15.8635 14.3839C15.8635 13.1012 14.8199 12.0576 13.5372 12.0576ZM13.5372 15.4412C12.9542 15.4412 12.4798 14.9669 12.4798 14.3839C12.4798 13.8008 12.9541 13.3265 13.5372 13.3265C14.1203 13.3265 14.5946 13.8008 14.5946 14.3839C14.5946 14.9669 14.1203 15.4412 13.5372 15.4412Z" fill="white"/>
</g>
<defs>
<clipPath id="clip0">
<rect width="22" height="22" fill="white"/>
</clipPath>
</defs>
</svg>
