<svg width="194" height="38" viewBox="0 0 194 38" fill="none" xmlns="http://www.w3.org/2000/svg">
<g clip-path="url(#clip0)">
<path d="M187.87 5.53194H192.467C191.272 6.27116 190.16 7.13292 189.15 8.10272L184.562 12.7111L187.074 16.2531C189.14 19.2524 191.456 22.0774 194 24.6986H187.424C186.531 22.7033 185.456 20.7912 184.213 18.9857L181.245 14.6154L183.815 11.4257C185.369 9.60307 186.728 7.62805 187.87 5.53194ZM180.895 7.66474V22.5182L181.099 23.6322C181.329 23.8875 181.64 24.0587 181.982 24.1178V24.6986H175.57V24.1178L176.463 23.6322C176.623 23.2831 176.69 22.8997 176.656 22.5182V7.66474L176.54 6.59834C176.433 6.46547 176.298 6.35733 176.144 6.28163C175.989 6.20593 175.82 6.16453 175.648 6.16035V5.53194H182.021V6.16035C181.849 6.16254 181.681 6.20313 181.528 6.27904C181.375 6.35495 181.241 6.46416 181.138 6.59834L180.895 7.66474ZM171.409 7.66474V22.5182L171.603 23.6322L172.495 24.1178V24.6986H166.064V24.1178C166.423 24.037 166.757 23.8702 167.034 23.6322L167.18 22.5182V14.8058H159.672V22.5182L159.866 23.6322C160.1 23.887 160.414 24.0578 160.758 24.1178V24.6986H154.279V24.1178C154.647 24.0642 154.988 23.8936 155.249 23.6322L155.443 22.5182V7.66474L155.249 6.59834C155.129 6.46048 154.98 6.34987 154.813 6.27423C154.645 6.19858 154.463 6.15972 154.279 6.16035V5.53194H160.758V6.16035C160.586 6.16319 160.416 6.20401 160.261 6.27981C160.107 6.35562 159.972 6.46446 159.866 6.59834L159.672 7.66474V13.5395H167.18V7.66474L167.034 6.59834C166.775 6.34222 166.431 6.18666 166.064 6.16035V5.53194H172.495V6.16035C172.323 6.16319 172.153 6.20401 171.998 6.27981C171.844 6.35562 171.709 6.46446 171.603 6.59834L171.409 7.66474ZM194 31.4207H50.9251V29.5164H194V31.4207ZM140.311 6.16035V5.53194H145.946C146.03 6.5124 146.262 7.47514 146.635 8.38837L150.787 19.8141C151.343 21.4936 152.021 23.1322 152.814 24.7176H147.867L145.752 17.8336H139.467L138.128 22.3753L137.74 24.6986H134.18L140.505 10.3403C140.991 9.3584 141.319 8.30788 141.475 7.22675C141.446 6.66499 141.067 6.26509 140.311 6.16035ZM142.59 8.73114L139.923 16.453H145.267L142.59 8.73114ZM132.609 9.68328H131.522L131.27 8.86444C131.14 8.11926 130.715 7.45502 130.087 7.01728L127.41 6.66499H124.781C124.363 6.61772 123.942 6.72275 123.598 6.96015C123.405 7.2106 123.318 7.52438 123.355 7.83612V12.3969H124.441C127.604 12.3969 129.796 12.7143 131.018 13.349C132.764 14.1869 133.637 15.8373 133.637 18.3002C133.637 20.69 132.939 22.4039 131.561 23.4417C130.339 24.2796 128.448 24.6986 125.867 24.6986H118.107V24.1178L119.077 23.6322L119.223 22.5182V7.66474L119.077 6.59834C118.96 6.45751 118.812 6.34482 118.644 6.2689C118.476 6.19298 118.292 6.15585 118.107 6.16035V5.53194H132.657L132.609 9.68328ZM123.316 13.6156V21.8231C123.286 22.0442 123.3 22.2691 123.358 22.4847C123.417 22.7004 123.518 22.9027 123.656 23.0799C124.05 23.3803 124.547 23.5201 125.043 23.4703H125.635C126.169 23.5087 126.704 23.4125 127.189 23.1909C127.675 22.9692 128.094 22.6295 128.409 22.204C129.021 21.0563 129.293 19.7633 129.194 18.4716C129.306 17.2176 129.011 15.961 128.351 14.882C127.759 14.0346 126.653 13.6156 125.043 13.6156H123.316ZM116.293 10.9972C116.293 13.2253 115.605 14.8058 114.218 15.8056C113.021 16.6434 111.175 17.0624 108.679 17.0624H106.739V22.4991L106.933 23.6131C107.18 23.8921 107.528 24.0662 107.903 24.0987V24.6795H101.472V24.0987L102.364 23.6131L102.568 22.4991V7.66474L102.364 6.59834C102.259 6.46343 102.124 6.35383 101.97 6.27792C101.815 6.20201 101.645 6.1618 101.472 6.16035V5.53194H109.581C111.256 5.40858 112.933 5.73787 114.431 6.48408C115.705 7.33466 116.339 8.8454 116.332 11.0163L116.293 10.9972ZM107.001 6.87446C106.797 6.99824 106.7 7.2934 106.7 7.74091V15.8532H108.64C109.157 15.8962 109.676 15.7903 110.132 15.5484C110.589 15.3066 110.963 14.9393 111.211 14.4916C111.706 13.3269 111.925 12.0668 111.851 10.8068C111.851 8.05512 110.687 6.67451 108.339 6.67451H107.845L107.001 6.87446ZM98.4454 9.68328H97.4075L97.1553 8.86444C96.9704 8.12921 96.5359 7.47772 95.9234 7.01728L93.2947 6.66499H91.1122L90.3265 6.86494L90.1228 7.61713V13.5395H92.703C93.9021 13.6542 95.1106 13.4538 96.2047 12.9587V15.3866C95.1106 14.8915 93.9021 14.691 92.703 14.8058H90.1228V21.985C90.0983 22.2215 90.1416 22.4601 90.2479 22.6737C90.3542 22.8874 90.5191 23.0676 90.7242 23.1942L93.1977 23.4893H93.7409L96.4084 23.099C97.0245 22.5348 97.4106 21.77 97.4948 20.9471L97.6888 20.214H98.9401V24.6795H84.8363V24.0987C85.2066 24.0501 85.5488 23.8787 85.8063 23.6131L86.0003 22.4991V7.66474L85.8063 6.59834C85.6894 6.45751 85.5412 6.34482 85.3731 6.2689C85.2049 6.19298 85.0213 6.15585 84.8363 6.16035V5.53194H98.4842L98.4454 9.68328ZM81.5868 9.68328H80.5877L80.3355 8.86444C80.1763 8.11847 79.7364 7.45887 79.1036 7.01728L76.4846 6.66499H73.7201C73.3031 6.63005 72.8862 6.73403 72.5367 6.96015C72.4186 7.23682 72.3687 7.53696 72.3912 7.83612V12.3969H73.4776C76.6075 12.3969 78.7997 12.7143 80.0542 13.349C81.7614 14.1869 82.6247 15.8341 82.6247 18.3002C82.6247 20.7662 81.936 22.4039 80.5489 23.4417C79.3526 24.2796 77.4578 24.6986 74.8647 24.6986H67.0368V24.1178C67.4071 24.0691 67.7493 23.8978 68.0068 23.6322L68.2105 22.5182V7.66474L68.0068 6.59834C67.8807 6.36983 67.5509 6.227 67.0368 6.16035V5.53194H81.5868V9.68328ZM61.9443 7.08393C61.1065 6.6017 60.1385 6.38243 59.1701 6.45552C58.3398 6.38562 57.5063 6.54685 56.7651 6.92072C56.024 7.29459 55.4052 7.86595 54.9797 8.56927C54.2813 9.79754 53.9418 11.8066 53.9418 14.5868C53.9418 17.3671 54.3201 19.4237 55.0767 20.7472C55.5404 21.5644 56.2347 22.2328 57.0762 22.672C57.9177 23.1112 58.8705 23.3024 59.82 23.2227C61.506 23.2059 63.1655 22.8084 64.67 22.0611L65.2617 23.2799C63.2574 24.4398 60.9627 25.0268 58.6366 24.9747C52.4351 24.9747 49.3375 21.7564 49.344 15.32C49.344 8.55975 52.5579 5.17647 58.9858 5.17013C60.9213 5.08286 62.8548 5.38082 64.67 6.0461V10.0261H63.4769L63.1374 8.86444C62.9365 8.16426 62.5197 7.54229 61.9443 7.08393ZM72.43 13.6347V21.8421C72.3752 22.2815 72.4781 22.726 72.721 23.099C73.1326 23.4015 73.6451 23.5408 74.1566 23.4893H74.6901C77.0634 23.4893 78.25 21.8231 78.25 18.4906C78.3595 17.238 78.0679 15.9831 77.4158 14.901C76.7853 14.0536 75.6698 13.6347 74.0499 13.6347H72.43Z" fill="#52A347"/>
<path d="M32.3785 2.47557L34.1148 4.02756L12.2607 16.4054L1.67802 10.3403L2.64802 8.43598L12.2413 13.8251L32.3785 2.47557ZM27.9844 0L30.3027 1.16161L12.2607 11.3591L3.87992 6.665L5.28642 4.95114L12.2607 8.88349L27.9844 0ZM35.6474 5.62716L36.9278 7.3315L12.2607 21.2518L0.349121 14.5868L0.892321 12.454L12.2607 18.8619L35.6474 5.62716Z" fill="#52A347"/>
<path d="M39.2074 11.8922C39.9326 13.9172 40.3001 16.0489 40.2938 18.1954C40.2941 20.3772 39.9264 22.5441 39.2055 24.6081L38.7127 25.9172C37.7015 28.2696 36.2394 30.4094 34.4059 32.2204C32.5666 34.015 30.3844 35.4355 27.9845 36.4003C25.5011 37.4554 22.8238 37.9998 20.1178 37.9999C17.4142 38.0064 14.7387 37.4617 12.2608 36.4003C9.88973 35.409 7.72831 33.9913 5.88791 32.2204C4.03598 30.4243 2.5713 28.2807 1.58111 25.9172C0.535218 23.4724 -0.0023433 20.847 7.67813e-06 18.1954V16.8909L12.2608 23.7273L38.121 9.16907L39.2074 11.8922Z" fill="#52A347"/>
</g>
<defs>
<clipPath id="clip0">
<rect width="194" height="38" fill="white"/>
</clipPath>
</defs>
</svg>
