<svg width="37" height="42" viewBox="0 0 37 42" fill="none" xmlns="http://www.w3.org/2000/svg">
<g clip-path="url(#clip0)">
<path d="M17.0765 36.3306V39.203H24.191V42.0075H7.11465V39.203H14.2292V36.3382C9.07237 36.0216 4.21033 33.8553 0.557403 30.2466L2.57267 28.2714C6.0497 31.6856 10.7535 33.602 15.6566 33.602C20.5597 33.602 25.2636 31.6856 28.7406 28.2714C30.4583 26.585 31.8213 24.5798 32.7515 22.3712C33.6816 20.1627 34.1605 17.7943 34.1605 15.4023C34.1605 13.0103 33.6816 10.6419 32.7515 8.43328C31.8213 6.2247 30.4583 4.21954 28.7406 2.53311L30.7482 0.550347C33.6431 3.40276 35.6425 7.01994 36.5064 10.9674C37.3702 14.9148 37.0617 19.0246 35.618 22.8031C34.1742 26.5816 31.6566 29.8681 28.3675 32.2677C25.0784 34.6674 21.1577 36.0782 17.0765 36.3306ZM0.000150804 15.4023C-0.01345 12.3412 0.893214 9.34502 2.60528 6.7933C4.31735 4.24159 6.75778 2.24915 9.6174 1.06842C12.477 -0.112319 15.6272 -0.428227 18.6687 0.160716C21.7103 0.749658 24.5065 2.21695 26.7029 4.3767C28.8994 6.53645 30.3974 9.29148 31.0071 12.2928C31.6168 15.294 31.3108 18.4065 30.1278 21.2359C28.9449 24.0653 26.9382 26.4842 24.362 28.1863C21.7859 29.8883 18.7561 30.7969 15.6566 30.797C11.5149 30.801 7.54068 29.1825 4.60561 26.2965C1.67055 23.4105 0.0142981 19.4927 0.000150804 15.4023ZM15.6566 2.79698C14.4659 2.8 13.2814 2.96748 12.1376 3.29456L13.4734 4.04846C14.3469 4.56359 15.0247 5.34788 15.4027 6.28066C15.7807 7.21344 15.838 8.24305 15.5656 9.21109C15.2932 10.1791 14.7064 11.032 13.8953 11.6384C13.0842 12.2449 12.0938 12.5713 11.0765 12.5676H9.54977C9.28658 12.5676 9.03417 12.6708 8.84806 12.8546C8.66196 13.0384 8.5574 13.2877 8.5574 13.5477V15.5304C8.55678 15.6899 8.59619 15.8471 8.67213 15.9879C8.74806 16.1286 8.85814 16.2486 8.99252 16.3371L11.5421 18.0108C12.2183 18.4584 12.7234 19.1166 12.9773 19.8804L13.8093 22.3306L16.9773 22.3985L17.0765 14.0377C17.0776 13.3234 17.3069 12.6276 17.7318 12.0496C18.1567 11.4716 18.7555 11.0407 19.4429 10.8185L20.3971 10.5019C21.2647 10.2193 22.2102 10.2866 23.0279 10.6889C23.8456 11.0913 24.4694 11.7963 24.7635 12.6505L25.0307 13.4044C25.0848 13.564 25.1868 13.7036 25.3231 13.8046C25.4595 13.9056 25.6237 13.9632 25.794 13.9698H28.3513C27.9853 10.8963 26.4913 8.06194 24.1519 6.00302C21.8125 3.94409 18.7901 2.80346 15.6566 2.79698ZM2.84748 15.4023C2.86053 18.6277 4.12056 21.7264 6.36997 24.0648C8.61938 26.4033 11.6883 27.8048 14.9492 27.9829C18.2101 28.161 21.4168 27.1023 23.9136 25.0231C26.4104 22.9439 28.0087 20.0013 28.3818 16.797H25.8246C25.0523 16.8013 24.2984 16.5645 23.6706 16.1204C23.0427 15.6763 22.5729 15.0476 22.3284 14.3242L22.0612 13.5703C22.037 13.4953 21.998 13.4258 21.9464 13.3659C21.8948 13.3059 21.8317 13.2566 21.7607 13.2208C21.6897 13.1851 21.6123 13.1636 21.5328 13.1576C21.4534 13.1515 21.3735 13.1611 21.2979 13.1858L20.3437 13.5024C20.2221 13.5407 20.116 13.616 20.0406 13.7176C19.9651 13.8192 19.9242 13.9419 19.9238 14.0678V22.3608C19.9218 23.1313 19.6105 23.8695 19.0581 24.4137C18.5057 24.9578 17.7574 25.2633 16.9773 25.2633H13.9238C13.3062 25.2647 12.7039 25.0738 12.2024 24.7179C11.7009 24.362 11.3256 23.8591 11.1299 23.2806L10.2979 20.8228C10.2388 20.6252 10.1048 20.4578 9.92382 20.3554L7.40473 18.6667C6.88003 18.3236 6.44935 17.8578 6.15102 17.3106C5.85269 16.7634 5.69597 16.1519 5.69481 15.5304V13.5703C5.69481 12.5705 6.09693 11.6117 6.81272 10.9048C7.52851 10.1979 8.49932 9.80075 9.5116 9.80075H11.0383C11.4335 9.80024 11.8176 9.67196 12.132 9.43552C12.4464 9.19908 12.6737 8.86749 12.7793 8.49141C12.8849 8.11532 12.8629 7.71544 12.7167 7.35287C12.5705 6.9903 12.3081 6.68498 11.9696 6.48357L8.91618 4.68174C7.05386 5.80258 5.51425 7.37704 4.44492 9.25423C3.37559 11.1314 2.8124 13.2484 2.80931 15.4023" fill="#0090D7"/>
</g>
<defs>
<clipPath id="clip0">
<rect width="37" height="42" fill="white"/>
</clipPath>
</defs>
</svg>
