<svg width="37" height="41" viewBox="0 0 37 41" fill="none" xmlns="http://www.w3.org/2000/svg">
<g clip-path="url(#clip0)">
<path d="M31.0542 28.7037C29.8111 28.6476 28.5795 28.9603 27.518 29.6016C26.4565 30.2429 25.6139 31.1834 25.0986 32.3018C24.5833 33.4202 24.419 34.6654 24.6269 35.8769C24.8348 37.0884 25.4054 38.2106 26.265 39.099C27.1247 39.9874 28.2341 40.6012 29.4503 40.8614C30.6665 41.1217 31.9337 41.0163 33.0887 40.5589C34.2437 40.1016 35.2335 39.3132 35.9306 38.2954C36.6277 37.2775 37.0002 36.0769 37 34.8481C37.0342 33.2555 36.4275 31.7145 35.313 30.5627C34.1985 29.411 32.6671 28.7425 31.0542 28.7037ZM31.0542 38.2642C30.3621 38.2967 29.676 38.1237 29.0844 37.7675C28.4928 37.4113 28.0229 36.8882 27.7353 36.2658C27.4476 35.6434 27.3554 34.9501 27.4706 34.2755C27.5858 33.6008 27.9031 32.9757 28.3815 32.4808C28.86 31.9859 29.4776 31.6439 30.1548 31.4989C30.8319 31.3539 31.5376 31.4126 32.1806 31.6674C32.8237 31.9222 33.3747 32.3614 33.7626 32.9283C34.1504 33.4953 34.3573 34.164 34.3566 34.8481C34.3767 35.7333 34.0402 36.5902 33.4211 37.2307C32.8019 37.8712 31.9507 38.2429 31.0542 38.2642ZM6.67213 8.2L5.70613 3.2238C5.5316 2.33026 5.05208 1.52281 4.34755 0.936142C3.64301 0.349473 2.75607 0.0190547 1.83465 0L0 0V2.7358H1.83465C2.13951 2.73556 2.43491 2.84027 2.67 3.03192C2.90509 3.22356 3.06516 3.49014 3.12265 3.78575L9.37543 36.0756V36.1421C9.62947 37.4848 10.3463 38.6992 11.4041 39.5794C12.462 40.4595 13.7957 40.951 15.1789 40.9704C16.7929 40.9151 18.3221 40.2432 19.4441 39.0962C20.5662 37.9493 21.1933 36.4169 21.1933 34.8223C21.1933 33.2276 20.5662 31.6953 19.4441 30.5483C18.3221 29.4014 16.7929 28.7294 15.1789 28.6741C14.2927 28.6723 13.4183 28.8748 12.6254 29.2656C12.0052 29.5791 11.4452 29.997 10.9705 30.5004L7.2038 10.9358H34.3566V18.1524C34.3668 18.4728 34.2596 18.7861 34.0546 19.0347C33.8496 19.2833 33.5607 19.4504 33.2408 19.5055L30.3953 19.9565V13.6642H27.7519V20.378L23.7905 21.0065V13.6642H21.1471V21.4427L18.4813 21.8716C18.1806 21.9027 17.8797 21.8153 17.6441 21.6283C17.4084 21.4414 17.2571 21.17 17.2232 20.8734C17.2195 20.8143 17.2195 20.755 17.2232 20.6959V13.6642H14.5349V20.7033C14.5148 21.7167 14.9023 22.6966 15.6126 23.4284C16.3228 24.1601 17.2978 24.5841 18.324 24.6074C18.5121 24.6073 18.6999 24.5925 18.8856 24.563L33.6377 22.1821C34.5966 22.016 35.4633 21.5157 36.0803 20.7722C36.6973 20.0286 37.0236 19.0912 37 18.1302V8.2H6.67213ZM11.914 34.8186C11.9185 34.1941 12.0951 33.5827 12.425 33.0499C12.7548 32.5172 13.2253 32.0831 13.7861 31.7944C14.1809 31.6045 14.6108 31.496 15.0496 31.4755C15.4883 31.4549 15.9267 31.5229 16.3379 31.6751C16.7492 31.8273 17.1248 32.0606 17.4418 32.3607C17.7588 32.6609 18.0105 33.0217 18.1817 33.4211C18.3957 33.8854 18.5055 34.3898 18.5037 34.8999C18.5238 35.7851 18.1874 36.642 17.5682 37.2825C16.9491 37.9229 16.0978 38.2946 15.2014 38.316C14.4226 38.297 13.675 38.0104 13.0872 37.5056C12.4994 37.0009 12.1084 36.3095 11.9814 35.5506C11.9363 35.3266 11.9138 35.0987 11.914 34.8703" fill="#9BC130"/>
</g>
<defs>
<clipPath id="clip0">
<rect width="37" height="41" fill="white"/>
</clipPath>
</defs>
</svg>
