<svg width="16" height="16" viewBox="0 0 16 16" fill="none" xmlns="http://www.w3.org/2000/svg">
<path d="M14.8366 8.1465C14.8366 7.3735 14.2077 6.74459 13.4347 6.74459H12.5251V4.77509H13.4517V5.34412C13.4517 5.603 13.6615 5.81287 13.9204 5.81287C14.1793 5.81287 14.3892 5.603 14.3892 5.34412V4.30634C14.3892 4.04747 14.1793 3.83759 13.9204 3.83759H12.5251V2.80309C13.2853 2.78816 13.8991 2.16556 13.8991 1.40191C13.8991 0.628906 13.2703 0 12.4973 0H3.50402C2.73102 0 2.10214 0.628906 2.10214 1.40191C2.10214 2.16559 2.71605 2.78816 3.47621 2.80309V6.74459H2.56652C1.79352 6.74459 1.16461 7.3735 1.16461 8.1465C1.16461 8.75841 1.55886 9.27969 2.10655 9.4705C2.20989 11.1792 3.25308 12.6382 4.7248 13.3363L4.15633 15.4072C4.11761 15.5482 4.14692 15.6992 4.23561 15.8155C4.32427 15.9318 4.46214 16 4.60836 16H11.3929C11.5391 16 11.677 15.9318 11.7656 15.8155C11.8543 15.6992 11.8836 15.5482 11.8449 15.4072L11.2764 13.3363C12.7481 12.6382 13.7913 11.1792 13.8947 9.4705C14.4424 9.27969 14.8366 8.75841 14.8366 8.1465V8.1465ZM3.03964 1.40191C3.03964 1.14584 3.24796 0.9375 3.50405 0.9375H12.4973C12.7533 0.9375 12.9617 1.14584 12.9617 1.40191C12.9617 1.65797 12.7533 1.86631 12.4973 1.86631H3.50402C3.24796 1.86631 3.03964 1.65797 3.03964 1.40191V1.40191ZM4.41371 2.80381H11.5876V6.74459H4.41371V2.80381ZM2.56652 7.68209H13.4347C13.6908 7.68209 13.8991 7.89044 13.8991 8.1465C13.8991 8.40256 13.6908 8.61091 13.4347 8.61091H2.56652C2.31046 8.61091 2.10211 8.40256 2.10211 8.1465C2.10214 7.89044 2.31046 7.68209 2.56652 7.68209V7.68209ZM10.7781 15.0625H5.22314L5.61108 13.6493C5.95514 13.732 6.31405 13.7761 6.68311 13.7761H9.31817C9.68724 13.7761 10.0461 13.732 10.3902 13.6493L10.7781 15.0625ZM9.31817 12.8386H6.68311C4.79236 12.8386 3.23314 11.3926 3.05283 9.54841H12.9485C12.7682 11.3926 11.2089 12.8386 9.31817 12.8386V12.8386Z" fill="white"/>
</svg>
