<svg width="16" height="16" viewBox="0 0 16 16" fill="none" xmlns="http://www.w3.org/2000/svg">
<path d="M14.8371 8.1465C14.8371 7.3735 14.2082 6.74459 13.4352 6.74459H12.5255V4.77509H13.4521V5.34412C13.4521 5.603 13.662 5.81287 13.9209 5.81287C14.1797 5.81287 14.3896 5.603 14.3896 5.34412V4.30634C14.3896 4.04747 14.1797 3.83759 13.9209 3.83759H12.5255V2.80309C13.2857 2.78816 13.8996 2.16556 13.8996 1.40191C13.8996 0.628906 13.2707 0 12.4977 0H3.50445C2.73145 0 2.10257 0.628906 2.10257 1.40191C2.10257 2.16559 2.71648 2.78816 3.47663 2.80309V6.74459H2.56695C1.79395 6.74459 1.16504 7.3735 1.16504 8.1465C1.16504 8.75841 1.55929 9.27969 2.10698 9.4705C2.21032 11.1792 3.25351 12.6382 4.72523 13.3363L4.15676 15.4072C4.11804 15.5482 4.14735 15.6992 4.23604 15.8155C4.3247 15.9318 4.46257 16 4.60879 16H11.3933C11.5395 16 11.6774 15.9318 11.766 15.8155C11.8547 15.6992 11.884 15.5482 11.8453 15.4072L11.2769 13.3363C12.7486 12.6382 13.7918 11.1792 13.8951 9.4705C14.4429 9.27969 14.8371 8.75841 14.8371 8.1465ZM3.04007 1.40191C3.04007 1.14584 3.24838 0.9375 3.50448 0.9375H12.4977C12.7538 0.9375 12.9621 1.14584 12.9621 1.40191C12.9621 1.65797 12.7538 1.86631 12.4977 1.86631H3.50445C3.24838 1.86631 3.04007 1.65797 3.04007 1.40191ZM4.41413 2.80381H11.588V6.74459H4.41413V2.80381ZM2.56695 7.68209H13.4352C13.6912 7.68209 13.8996 7.89044 13.8996 8.1465C13.8996 8.40256 13.6912 8.61091 13.4352 8.61091H2.56695C2.31088 8.61091 2.10254 8.40256 2.10254 8.1465C2.10257 7.89044 2.31088 7.68209 2.56695 7.68209ZM10.7786 15.0625H5.22357L5.61151 13.6493C5.95557 13.732 6.31448 13.7761 6.68354 13.7761H9.3186C9.68766 13.7761 10.0466 13.732 10.3906 13.6493L10.7786 15.0625ZM9.3186 12.8386H6.68354C4.79279 12.8386 3.23357 11.3926 3.05326 9.54841H12.9489C12.7686 11.3926 11.2094 12.8386 9.3186 12.8386Z" fill="#222630"/>
</svg>
