<svg width="171" height="53" viewBox="0 0 171 53" fill="none" xmlns="http://www.w3.org/2000/svg">
<g clip-path="url(#clip0)">
<path fill-rule="evenodd" clip-rule="evenodd" d="M53.973 43.479H47.807L50.618 38.52L43.637 26.079H49.894L53.527 33.479L57.16 26.079H63.33L53.974 43.479H53.973Z" fill="#253081"/>
<path fill-rule="evenodd" clip-rule="evenodd" d="M131.962 43.479H124.238C119.913 43.479 116.612 39.961 116.612 35.002C116.612 29.409 119.971 26.078 124.238 26.078H131.962V30.403H126.92C123.92 30.403 122.206 31.311 122.206 34.915C122.206 38.519 124.037 39.153 126.92 39.153H131.962V43.479Z" fill="#253081"/>
<path fill-rule="evenodd" clip-rule="evenodd" d="M152.206 43.479H146.483V31.211L139.952 43.479H133.133V26.079H138.77V37.989L145.301 26.081H152.206V43.481V43.479Z" fill="#253081"/>
<path fill-rule="evenodd" clip-rule="evenodd" d="M78.582 43.479L85.934 26.079H92.292L98.376 40.51L104.459 26.079H110.712L118.064 43.479H112.064L107.624 30.951L103.09 43.479H93.647L92.292 39.879H85.934L84.579 43.479H78.582Z" fill="#253081"/>
<path fill-rule="evenodd" clip-rule="evenodd" d="M89.1051 30.952L87.2891 35.911H90.9221L89.1051 30.952Z" fill="white"/>
<path fill-rule="evenodd" clip-rule="evenodd" d="M69.4141 43.48H63.7771V26.08H75.4971C76.2971 25.9966 77.1056 26.0938 77.863 26.3644C78.6205 26.6349 79.3076 27.0719 79.8737 27.6433C80.4399 28.2146 80.8707 28.9057 81.1343 29.6655C81.3979 30.4254 81.4877 31.2348 81.3971 32.034C81.3971 33.202 81.3971 38.434 75.4971 38.434H69.4141V43.48Z" fill="#253081"/>
<path fill-rule="evenodd" clip-rule="evenodd" d="M69.4131 34.114H73.4931C74.1271 34.114 75.7711 34.114 75.7711 32.214C75.7711 30.314 74.1281 30.414 73.4931 30.414H69.4131V34.114Z" fill="white"/>
<path fill-rule="evenodd" clip-rule="evenodd" d="M169.91 26.079V30.404H159.01V32.653H164.776C170.759 32.653 170.759 36.084 170.759 37.987C170.759 39.89 170.759 43.48 164.859 43.48H153.33V26.079H169.91Z" fill="#253081"/>
<path fill-rule="evenodd" clip-rule="evenodd" d="M159.01 36.718V39.428H163.825C165.094 39.428 165.094 38.433 165.094 37.986C165.094 37.539 165.094 36.717 163.825 36.717L159.01 36.718Z" fill="white"/>
<path fill-rule="evenodd" clip-rule="evenodd" d="M18.2061 17.415C18.6412 17.3813 19.0785 17.4402 19.4891 17.588L19.3891 5.767H20.8311C20.7602 9.79913 20.9094 13.8321 21.2781 17.848C24.6258 18.5758 27.6821 20.2812 30.0595 22.748C32.4369 25.2148 34.0283 28.3319 34.6321 31.7042C35.2359 35.0766 34.8248 38.5522 33.4509 41.6906C32.0771 44.829 29.8023 47.4889 26.9151 49.333C26.8291 49.247 26.6411 48.973 26.4541 48.8C21.2791 42.212 20.0101 32.38 19.6541 23.8C20.371 23.9678 21.0983 24.0881 21.8311 24.16C22.9184 31.4573 26.1847 38.2559 31.2021 43.665C33.0331 41.4522 33.9726 38.6357 33.8366 35.7668C33.7007 32.8978 32.4991 30.1828 30.4671 28.153C28.2206 25.7272 25.3226 24.0003 22.1201 23.179C20.6048 22.8141 19.0506 22.6352 17.4921 22.646C15.934 22.6452 14.3811 22.8241 12.8641 23.179C6.13907 24.9 1.15207 30.13 1.15207 36.358C1.20351 39.0013 2.09173 41.5603 3.68907 43.667C8.73138 38.2839 11.9933 31.4784 13.0311 24.176C13.7965 24.0987 14.5571 23.9785 15.3091 23.816C14.9491 32.394 13.6801 42.139 8.50907 48.716V48.63C8.34656 48.885 8.16327 49.1262 7.96107 49.351C5.07357 47.4977 2.80236 44.8277 1.43618 41.6803C0.0700029 38.5329 -0.32944 35.0504 0.288633 31.6754C0.906705 28.3005 2.51438 25.1855 4.90727 22.7266C7.30016 20.2676 10.3702 18.5757 13.7271 17.866C14.2171 9.029 14.1271 5.766 14.1271 5.766H15.5691L15.4831 17.587C15.8607 17.4474 16.2633 17.3885 16.6651 17.414V0H18.2081V17.415H18.2061ZM18.3061 23.729C18.4791 31.929 19.0271 42.229 21.7511 49.174C22.0768 49.943 22.444 50.6938 22.8511 51.423C21.1044 51.916 19.3025 52.1871 17.4881 52.23C15.6725 52.2 13.869 51.9287 12.1251 51.423C12.5861 50.529 12.9471 49.707 13.3071 48.9C15.8591 42.038 16.5791 31.846 16.6661 23.729H18.3091H18.3061Z" fill="#253081"/>
</g>
<defs>
<clipPath id="clip0">
<rect width="170.759" height="52.23" fill="white"/>
</clipPath>
</defs>
</svg>
