<svg width="21" height="13" viewBox="0 0 21 13" fill="none" xmlns="http://www.w3.org/2000/svg">
<path d="M20.8055 11.1153C20.8055 11.0322 20.7225 11.0322 20.7225 10.9492C20.3904 10.285 19.6432 9.4548 18.6469 8.54155C18.1488 8.12644 17.8997 7.79434 17.7337 7.62829C17.4846 7.2962 17.4846 7.04714 17.5676 6.71505C17.6507 6.46598 17.9827 6.05086 18.5639 5.30365C18.896 4.88853 19.062 4.63947 19.3111 4.3904C20.5564 2.72995 21.1376 1.65064 20.9716 1.1525L20.8886 1.06949C20.8055 0.986464 20.7225 0.903444 20.5564 0.903444C20.3904 0.820421 20.1413 0.820421 19.8923 0.903444H16.7374C16.6544 0.903444 16.6544 0.903444 16.4883 0.903444C16.4053 0.903444 16.3223 0.903444 16.3223 0.903444H16.2393H16.1562L16.0732 0.986459C15.9902 1.06948 15.9902 1.06948 15.9902 1.1525C15.6581 2.06575 15.243 2.81296 14.8279 3.64319C14.5788 4.0583 14.3297 4.47343 14.0807 4.80552C13.8316 5.13761 13.6655 5.38667 13.4995 5.55272C13.3335 5.71877 13.1674 5.80179 13.0844 5.96783C13.0014 6.05086 12.8353 6.13389 12.8353 6.05086C12.7523 6.05086 12.6693 6.05086 12.6693 5.96783C12.5862 5.88481 12.5032 5.80179 12.4202 5.71876C12.3372 5.63574 12.3372 5.46969 12.2542 5.30365C12.2542 5.1376 12.2542 4.97156 12.2542 4.88853C12.2542 4.80551 12.2542 4.55645 12.2542 4.3904C12.2542 4.14134 12.2542 3.97528 12.2542 3.89226C12.2542 3.64319 12.2542 3.31111 12.2542 2.97902C12.2542 2.64693 12.2542 2.39785 12.2542 2.2318C12.2542 2.06576 12.2542 1.81669 12.2542 1.65065C12.2542 1.40158 12.2542 1.23553 12.2542 1.1525C12.2542 1.06948 12.1711 0.903439 12.1711 0.820416C12.0881 0.737393 12.0051 0.654367 11.9221 0.571344C11.839 0.488322 11.673 0.488324 11.59 0.405301C11.1749 0.322278 10.6767 0.239258 10.0956 0.239258C8.76721 0.239258 7.85395 0.322283 7.52186 0.488329C7.35581 0.571352 7.18977 0.65437 7.10675 0.820416C6.9407 0.986462 6.9407 1.06949 7.02372 1.06949C7.43883 1.15251 7.77093 1.31855 7.93698 1.56762L8.02 1.73367C8.10303 1.8167 8.10301 1.98273 8.18603 2.2318C8.26906 2.48087 8.26906 2.72994 8.26906 3.06203C8.26906 3.56017 8.26906 4.05831 8.26906 4.3904C8.26906 4.80552 8.18603 5.05458 8.18603 5.30365C8.18603 5.55272 8.10303 5.71877 8.02 5.80179C7.93698 5.96784 7.93697 6.05086 7.85395 6.05086C7.85395 6.05086 7.85394 6.13388 7.77092 6.13388C7.6879 6.13388 7.60488 6.21691 7.43883 6.21691C7.35581 6.21691 7.18977 6.13389 7.10675 6.05086C6.9407 5.96784 6.77465 5.80179 6.69163 5.63575C6.52559 5.4697 6.35953 5.22063 6.19349 4.88853C6.02744 4.55644 5.77836 4.22436 5.61232 3.72622L5.44629 3.39413C5.36326 3.22809 5.19722 2.89599 5.03117 2.48087C4.86513 2.06576 4.69908 1.73367 4.53303 1.31856C4.45001 1.15251 4.36699 1.06948 4.28397 0.986459H4.20094C4.20094 0.986459 4.11791 0.903444 4.03489 0.903444C3.95186 0.903444 3.86885 0.820416 3.78583 0.820416H0.796998C0.464907 0.820416 0.298863 0.903436 0.21584 0.986459L0.132812 1.06949C0.132812 1.06949 0.132812 1.15251 0.132812 1.23553C0.132812 1.31855 0.132818 1.40157 0.21584 1.56762C0.630955 2.56389 1.12909 3.56017 1.62723 4.55645C2.12537 5.4697 2.62351 6.29993 2.9556 6.88109C3.37071 7.46225 3.7028 8.04341 4.11792 8.54155C4.53303 9.03969 4.78209 9.37178 4.86512 9.53782C5.03116 9.70387 5.11418 9.78689 5.1972 9.86991L5.44629 10.119C5.61233 10.285 5.8614 10.5341 6.19349 10.7832C6.52558 11.0322 6.94069 11.2813 7.3558 11.5304C7.77092 11.7794 8.26907 11.9455 8.7672 12.1115C9.34837 12.2776 9.8465 12.3606 10.3446 12.2776H11.59C11.839 12.2776 12.0051 12.1946 12.1711 12.0285L12.2542 11.9455C12.2542 11.8625 12.3372 11.8625 12.3372 11.7794C12.3372 11.6964 12.3372 11.6134 12.3372 11.4474C12.3372 11.1153 12.3372 10.8662 12.4202 10.6171C12.5032 10.3681 12.5032 10.202 12.5863 10.036C12.6693 9.86992 12.7523 9.78689 12.8353 9.70387C12.9183 9.62084 13.0014 9.53782 13.0014 9.53782H13.0844C13.2504 9.4548 13.4995 9.53782 13.6656 9.70387C13.9146 9.86991 14.1637 10.119 14.3297 10.3681C14.4958 10.6171 14.7449 10.8662 15.077 11.1983C15.409 11.5304 15.6581 11.7794 15.8242 11.8625L16.0732 12.0285C16.2393 12.1115 16.4053 12.1946 16.6544 12.2776C16.9035 12.3606 17.0695 12.3606 17.2355 12.3606L20.0583 12.2776C20.3074 12.2776 20.5565 12.1946 20.7225 12.1115C20.8885 12.0285 20.9716 11.9455 20.9716 11.7794C20.9716 11.6964 20.9716 11.5304 20.9716 11.4474C20.8055 11.2813 20.8055 11.1983 20.8055 11.1153Z" fill="white"/>
</svg>
