<svg width="21" height="13" viewBox="0 0 21 13" fill="none" xmlns="http://www.w3.org/2000/svg">
<path d="M20.8065 11.1153C20.8065 11.0322 20.7235 11.0322 20.7235 10.9492C20.3914 10.285 19.6442 9.4548 18.6479 8.54155C18.1498 8.12644 17.9007 7.79434 17.7346 7.62829C17.4856 7.2962 17.4856 7.04714 17.5686 6.71505C17.6516 6.46598 17.9837 6.05086 18.5649 5.30365C18.897 4.88853 19.063 4.63947 19.3121 4.3904C20.5574 2.72995 21.1386 1.65064 20.9725 1.1525L20.8895 1.06949C20.8065 0.986464 20.7235 0.903444 20.5574 0.903444C20.3914 0.820421 20.1423 0.820421 19.8932 0.903444H16.7384C16.6554 0.903444 16.6553 0.903444 16.4893 0.903444C16.4063 0.903444 16.3233 0.903444 16.3233 0.903444H16.2402H16.1572L16.0742 0.986459C15.9912 1.06948 15.9912 1.06948 15.9912 1.1525C15.6591 2.06575 15.244 2.81296 14.8288 3.64319C14.5798 4.05831 14.3307 4.47343 14.0816 4.80552C13.8326 5.13761 13.6665 5.38667 13.5005 5.55272C13.3344 5.71877 13.1684 5.80179 13.0854 5.96783C13.0023 6.05086 12.8363 6.13389 12.8363 6.05086C12.7533 6.05086 12.6702 6.05086 12.6702 5.96783C12.5872 5.88481 12.5042 5.80179 12.4212 5.71876C12.3382 5.63574 12.3382 5.46969 12.2551 5.30365C12.2551 5.1376 12.2551 4.97156 12.2551 4.88853C12.2551 4.80551 12.2551 4.55645 12.2551 4.3904C12.2551 4.14134 12.2551 3.97528 12.2551 3.89226C12.2551 3.64319 12.2551 3.31111 12.2551 2.97902C12.2551 2.64693 12.2551 2.39785 12.2551 2.2318C12.2551 2.06576 12.2551 1.81669 12.2551 1.65065C12.2551 1.40158 12.2551 1.23553 12.2551 1.1525C12.2551 1.06948 12.1721 0.903439 12.1721 0.820416C12.0891 0.737393 12.0061 0.654367 11.923 0.571344C11.84 0.488322 11.674 0.488324 11.591 0.405301C11.1758 0.322278 10.6777 0.239258 10.0966 0.239258C8.76819 0.239258 7.85493 0.322283 7.52284 0.488329C7.35679 0.571352 7.19075 0.65437 7.10772 0.820416C6.94168 0.986462 6.94167 1.06949 7.02469 1.06949C7.43981 1.15251 7.77191 1.31855 7.93795 1.56762L8.02098 1.73367C8.104 1.8167 8.10399 1.98273 8.18701 2.2318C8.27003 2.48087 8.27004 2.72994 8.27004 3.06203C8.27004 3.56017 8.27004 4.05831 8.27004 4.3904C8.27004 4.80552 8.18701 5.05458 8.18701 5.30365C8.18701 5.55272 8.104 5.71877 8.02098 5.80179C7.93796 5.96784 7.93795 6.05086 7.85492 6.05086C7.85492 6.05086 7.85492 6.13388 7.7719 6.13388C7.68887 6.13388 7.60585 6.21691 7.43981 6.21691C7.35679 6.21691 7.19075 6.13389 7.10772 6.05086C6.94168 5.96784 6.77563 5.80179 6.69261 5.63575C6.52656 5.4697 6.36051 5.22063 6.19447 4.88853C6.02842 4.55644 5.77934 4.22436 5.61329 3.72622L5.44726 3.39413C5.36424 3.22809 5.1982 2.89599 5.03215 2.48087C4.8661 2.06576 4.70005 1.73367 4.53401 1.31856C4.45098 1.15251 4.36797 1.06948 4.28495 0.986459H4.20192C4.20192 0.986459 4.11889 0.903444 4.03586 0.903444C3.95284 0.903444 3.86983 0.820416 3.78681 0.820416H0.797975C0.465883 0.820416 0.29984 0.903436 0.216817 0.986459L0.133789 1.06949C0.133789 1.06949 0.133789 1.15251 0.133789 1.23553C0.133789 1.31855 0.133794 1.40157 0.216817 1.56762C0.631932 2.56389 1.13007 3.56017 1.6282 4.55645C2.12634 5.4697 2.62448 6.29993 2.95658 6.88109C3.37169 7.46225 3.70378 8.04341 4.11889 8.54155C4.53401 9.03969 4.78307 9.37178 4.86609 9.53782C5.03214 9.70387 5.11516 9.78689 5.19818 9.86991L5.44726 10.119C5.61331 10.285 5.86237 10.5341 6.19447 10.7832C6.52656 11.0322 6.94167 11.2813 7.35678 11.5304C7.7719 11.7794 8.27004 11.9455 8.76818 12.1115C9.34934 12.2776 9.84747 12.3606 10.3456 12.2776H11.591C11.84 12.2776 12.0061 12.1946 12.1721 12.0285L12.2551 11.9455C12.2551 11.8625 12.3382 11.8625 12.3382 11.7794C12.3382 11.6964 12.3382 11.6134 12.3382 11.4474C12.3382 11.1153 12.3382 10.8662 12.4212 10.6171C12.5042 10.3681 12.5042 10.202 12.5872 10.036C12.6703 9.86992 12.7533 9.78689 12.8363 9.70387C12.9193 9.62084 13.0024 9.53782 13.0024 9.53782H13.0854C13.2514 9.4548 13.5005 9.53782 13.6665 9.70387C13.9156 9.86991 14.1647 10.119 14.3307 10.3681C14.4967 10.6171 14.7458 10.8662 15.0779 11.1983C15.41 11.5304 15.6591 11.7794 15.8251 11.8625L16.0742 12.0285C16.2402 12.1115 16.4063 12.1946 16.6554 12.2776C16.9044 12.3606 17.0705 12.3606 17.2365 12.3606L20.0593 12.2776C20.3084 12.2776 20.5574 12.1946 20.7235 12.1115C20.8895 12.0285 20.9725 11.9455 20.9725 11.7794C20.9725 11.6964 20.9725 11.5304 20.9725 11.4474C20.8065 11.2813 20.8065 11.1983 20.8065 11.1153Z" fill="#222630"/>
</svg>
