<svg width="20" height="20" viewBox="0 0 20 20" fill="none" xmlns="http://www.w3.org/2000/svg">
<path d="M19.707 4.6874C19.5452 4.6874 19.414 4.81863 19.414 4.98037V17.4999H18.8281V2.94913C18.8281 2.78738 18.6969 2.65616 18.5351 2.65616H1.46484C1.3031 2.65616 1.17187 2.78738 1.17187 2.94913V17.4999H0.585936V16.2303C0.585936 16.0686 0.454711 15.9374 0.292968 15.9374C0.131225 15.9374 0 16.0686 0 16.2303V17.7928C0 17.9547 0.131225 18.0858 0.292968 18.0858H1.17187V18.1835C1.17187 18.3454 1.3031 18.4764 1.46484 18.4764H4.44488C4.52926 18.4764 4.60967 18.4401 4.66521 18.3766C4.72091 18.3132 4.74639 18.2288 4.7354 18.145L4.72762 18.0858H13.75C13.9117 18.0858 14.0429 17.9546 14.0429 17.7928C14.0429 17.631 13.9117 17.4999 13.75 17.4999H4.65011L4.57274 16.9139H15.4272L15.3499 17.4999H15C14.8382 17.4999 14.707 17.631 14.707 17.7928C14.707 17.9546 14.8382 18.0858 15 18.0858H15.2725L15.2646 18.145C15.2536 18.2288 15.2792 18.3132 15.3347 18.3766C15.3904 18.4401 15.4707 18.4764 15.5551 18.4764H18.5351C18.697 18.4764 18.8281 18.3454 18.8281 18.1835V18.0858H19.707C19.8689 18.0858 20 17.9547 20 17.7928V4.98037C20 4.81863 19.8687 4.6874 19.707 4.6874ZM16.3867 11.1264C16.2251 11.1264 16.0937 10.9951 16.0937 10.8335C16.0937 10.6719 16.2251 10.5405 16.3867 10.5405H18.2422V11.1264H16.3867ZM15.5711 3.24209L16.8556 8.47036C16.8884 8.60402 17.0082 8.69344 17.1399 8.69344C17.1629 8.69344 17.1866 8.69069 17.2099 8.68489C17.3671 8.64629 17.4632 8.4876 17.4246 8.33059L16.1744 3.24209H17.0164L17.2667 6.13851C17.2799 6.2911 17.4078 6.40615 17.5583 6.40615C17.5666 6.40615 17.5752 6.40585 17.5837 6.40508C17.745 6.3912 17.8643 6.24929 17.8505 6.08801L17.6045 3.24209H18.2422V9.95458H16.6516L15.0026 3.24209H15.5711ZM2.39547 3.24209L2.1495 6.08801C2.13562 6.24914 2.25494 6.3912 2.41622 6.40508C2.42477 6.40585 2.43331 6.40615 2.44171 6.40615C2.59216 6.40615 2.72003 6.29095 2.7333 6.13836L2.98355 3.24209H3.82552L2.57537 8.33059C2.53677 8.4876 2.6329 8.64629 2.79006 8.68489C2.81356 8.69069 2.83706 8.69344 2.8601 8.69344C2.99178 8.69344 3.11157 8.60402 3.14437 8.47036L4.42885 3.24209H4.9974L3.34838 9.95458H1.75781V3.24209H2.39547ZM3.61327 11.1264H1.75781V10.5405H3.61327C3.77486 10.5405 3.90624 10.6719 3.90624 10.8335C3.90624 10.9951 3.77486 11.1264 3.61327 11.1264ZM1.75781 17.8905V11.7124H3.29467L4.11071 17.8905H1.75781ZM3.8803 11.6707C4.23476 11.5575 4.49218 11.225 4.49218 10.8335C4.49218 10.463 4.26162 10.1455 3.93661 10.0164L5.60088 3.24209H9.70701V16.328H4.49538L3.8803 11.6707ZM10.2929 16.328V3.24209H14.3991L16.0634 10.0164C15.7383 10.1455 15.5078 10.463 15.5078 10.8335C15.5078 11.225 15.7652 11.5575 16.1197 11.6707L15.5046 16.328H10.2929ZM18.2422 17.8905H15.8893L16.7053 11.7124H18.2422V17.8905Z" fill="#222630"/>
<path d="M19.707 1.48434H0.292968C0.131225 1.48434 0 1.61557 0 1.77731V14.9804C0 15.1423 0.131225 15.2734 0.292968 15.2734C0.454711 15.2734 0.585936 15.1423 0.585936 14.9804V2.07028H19.414V3.73043C19.414 3.89233 19.5452 4.0234 19.707 4.0234C19.8687 4.0234 20 3.89233 20 3.73043V1.77731C20 1.61557 19.8687 1.48434 19.707 1.48434Z" fill="#222630"/>
</svg>
