<svg width="20" height="20" viewBox="0 0 20 20" fill="none" xmlns="http://www.w3.org/2000/svg">
<path d="M19.707 4.6875C19.5452 4.6875 19.414 4.81872 19.414 4.98046V17.5H18.8281V2.94922C18.8281 2.78748 18.6969 2.65625 18.5351 2.65625H1.46484C1.3031 2.65625 1.17187 2.78748 1.17187 2.94922V17.5H0.585936V16.2304C0.585936 16.0687 0.454711 15.9375 0.292968 15.9375C0.131225 15.9375 0 16.0687 0 16.2304V17.7929C0 17.9548 0.131225 18.0859 0.292968 18.0859H1.17187V18.1836C1.17187 18.3455 1.3031 18.4765 1.46484 18.4765H4.44488C4.52926 18.4765 4.60967 18.4402 4.66521 18.3767C4.72091 18.3133 4.74639 18.2289 4.7354 18.1451L4.72762 18.0859H13.75C13.9117 18.0859 14.0429 17.9547 14.0429 17.7929C14.0429 17.631 13.9117 17.5 13.75 17.5H4.65011L4.57274 16.914H15.4272L15.3499 17.5H15C14.8382 17.5 14.707 17.631 14.707 17.7929C14.707 17.9547 14.8382 18.0859 15 18.0859H15.2725L15.2646 18.1451C15.2536 18.2289 15.2792 18.3133 15.3347 18.3767C15.3904 18.4402 15.4707 18.4765 15.5551 18.4765H18.5351C18.697 18.4765 18.8281 18.3455 18.8281 18.1836V18.0859H19.707C19.8689 18.0859 20 17.9548 20 17.7929V4.98046C20 4.81872 19.8687 4.6875 19.707 4.6875ZM16.3867 11.1265C16.2251 11.1265 16.0937 10.9952 16.0937 10.8336C16.0937 10.672 16.2251 10.5406 16.3867 10.5406H18.2422V11.1265H16.3867ZM15.5711 3.24219L16.8556 8.47045C16.8884 8.60411 17.0082 8.69353 17.1399 8.69353C17.1629 8.69353 17.1866 8.69078 17.2099 8.68499C17.3671 8.64638 17.4632 8.48769 17.4246 8.33068L16.1744 3.24219H17.0164L17.2667 6.1386C17.2799 6.29119 17.4078 6.40624 17.5583 6.40624C17.5666 6.40624 17.5752 6.40594 17.5837 6.40517C17.745 6.39129 17.8643 6.24938 17.8505 6.0881L17.6045 3.24219H18.2422V9.95467H16.6516L15.0026 3.24219H15.5711ZM2.39547 3.24219L2.1495 6.0881C2.13562 6.24923 2.25494 6.39129 2.41622 6.40517C2.42477 6.40594 2.43331 6.40624 2.44171 6.40624C2.59216 6.40624 2.72003 6.29104 2.7333 6.13845L2.98355 3.24219H3.82552L2.57537 8.33068C2.53677 8.48769 2.6329 8.64638 2.79006 8.68499C2.81356 8.69078 2.83706 8.69353 2.8601 8.69353C2.99178 8.69353 3.11157 8.60411 3.14437 8.47045L4.42885 3.24219H4.9974L3.34838 9.95467H1.75781V3.24219H2.39547ZM3.61327 11.1265H1.75781V10.5406H3.61327C3.77486 10.5406 3.90624 10.672 3.90624 10.8336C3.90624 10.9952 3.77486 11.1265 3.61327 11.1265ZM1.75781 17.8906V11.7125H3.29467L4.11071 17.8906H1.75781ZM3.8803 11.6708C4.23476 11.5576 4.49218 11.2251 4.49218 10.8336C4.49218 10.4631 4.26162 10.1456 3.93661 10.0165L5.60088 3.24219H9.70701V16.3281H4.49538L3.8803 11.6708ZM10.2929 16.3281V3.24219H14.3991L16.0634 10.0165C15.7383 10.1456 15.5078 10.4631 15.5078 10.8336C15.5078 11.2251 15.7652 11.5576 16.1197 11.6708L15.5046 16.3281H10.2929ZM18.2422 17.8906H15.8893L16.7053 11.7125H18.2422V17.8906Z" fill="white"/>
<path d="M19.707 1.48438H0.292968C0.131225 1.48438 0 1.6156 0 1.77734V14.9804C0 15.1423 0.131225 15.2734 0.292968 15.2734C0.454711 15.2734 0.585936 15.1423 0.585936 14.9804V2.07031H19.414V3.73046C19.414 3.89236 19.5452 4.02343 19.707 4.02343C19.8687 4.02343 20 3.89236 20 3.73046V1.77734C20 1.6156 19.8687 1.48438 19.707 1.48438Z" fill="white"/>
</svg>
