<svg width="97" height="127" fill="none" xmlns="http://www.w3.org/2000/svg"><path d="M2.561 88.498A7.7 7.7 0 010 87.284l1.167-2.528a7.672 7.672 0 002.206 1.095c.824.27 1.685.408 2.552.41a4.124 4.124 0 002.096-.419 1.276 1.276 0 00.684-1.086 1.078 1.078 0 00-.401-.913 2.98 2.98 0 00-1.03-.547c-.42-.137-.984-.293-1.695-.457a21.568 21.568 0 01-2.735-.785 4.338 4.338 0 01-1.823-1.25 3.417 3.417 0 01-.748-2.31 4.084 4.084 0 01.675-2.281 4.648 4.648 0 012.05-1.616 8.284 8.284 0 013.346-.593c.922-.004 1.84.106 2.735.329a7.85 7.85 0 012.306.912l-1.012 2.602a8.003 8.003 0 00-3.992-1.132 3.733 3.733 0 00-2.07.456 1.387 1.387 0 00-.674 1.196 1.188 1.188 0 00.747 1.104c.761.315 1.552.55 2.361.703.91.211 1.808.473 2.69.785a4.485 4.485 0 011.822 1.241 3.3 3.3 0 01.748 2.282 3.983 3.983 0 01-.684 2.264 4.704 4.704 0 01-2.06 1.66A8.386 8.386 0 015.907 89a12.116 12.116 0 01-3.346-.502zm25.605.21l-.028-8.653-4.238 7.129h-1.504l-4.22-6.946v8.47h-3.127v-14.42h2.762l5.387 8.962 5.314-8.963h2.735l.045 14.421h-3.126zm16.781-3.038h-6.69l-1.277 3.084h-3.427l6.38-14.421h3.3l6.445 14.421h-3.455l-1.276-3.085zm-1.049-2.538l-2.287-5.522-2.288 5.522h4.575zm17.172 5.577l-2.78-4.016h-3.07v4.016h-3.327V74.287h6.27a7.985 7.985 0 013.328.64 4.887 4.887 0 012.17 1.825 5.07 5.07 0 01.756 2.738 4.92 4.92 0 01-.766 2.738 4.914 4.914 0 01-2.197 1.78l3.236 4.637-3.618.064zm-.847-11.054a3.46 3.46 0 00-2.279-.648H55.21v5.011h2.735a3.416 3.416 0 002.279-.666 2.28 2.28 0 00.784-1.826 2.283 2.283 0 00-.784-1.825m10.728-.694H66.34v-2.72H78.9v2.72h-4.612v11.701h-3.336V77.007zM9.648 95.005a4.812 4.812 0 012.95 4.588 5.015 5.015 0 01-.77 2.752 4.831 4.831 0 01-2.18 1.835 8.147 8.147 0 01-3.345.633H3.39v4H.036v-14.45h6.267a8 8 0 013.345.642zm-1.228 6.477a2.617 2.617 0 00.78-1.867 2.627 2.627 0 00-.78-1.867 3.56 3.56 0 00-2.3-.651H3.371v5.037h2.75a3.562 3.562 0 002.299-.652zm18.462 4.688v2.698H15.667V94.362h10.94v2.689h-7.614v3.156h6.726v2.605h-6.726v3.358h7.89zm6.087 1.964a7.203 7.203 0 01-2.84-2.679 7.714 7.714 0 010-7.689 7.27 7.27 0 012.84-2.679 8.961 8.961 0 018.118 0 7.335 7.335 0 012.831 2.68 7.4 7.4 0 01-2.858 10.367 8.886 8.886 0 01-8.119 0h.028zm6.386-2.468a4.22 4.22 0 001.631-1.651 5.219 5.219 0 000-4.808 4.191 4.191 0 00-1.63-1.642 4.578 4.578 0 00-2.319-.597 4.577 4.577 0 00-2.318.597 4.227 4.227 0 00-1.622 1.642 5.217 5.217 0 000 4.808 4.26 4.26 0 001.622 1.651c.707.398 1.507.6 2.318.587a4.576 4.576 0 002.318-.587zm17.958-10.661a5.18 5.18 0 012.907 5.369 5.188 5.188 0 01-.726 2.035 4.876 4.876 0 01-2.181 1.835 8.147 8.147 0 01-3.345.633h-2.913v4H47.7V94.363h6.267a8 8 0 013.345.642zm-1.237 6.477a2.6 2.6 0 00.787-1.867 2.608 2.608 0 00-.787-1.867 3.516 3.516 0 00-2.29-.651h-2.75v5.037h2.75a3.511 3.511 0 002.29-.652zm7.687-7.12h3.344v11.772h7.266v2.734h-10.61V94.362zm24.695 11.808v2.698H77.243V94.362h10.94v2.689H80.57v3.156h6.726v2.605H80.57v3.358h7.89zm-79.553 9.773v6.686a4.311 4.311 0 01-1.147 3.288 4.73 4.73 0 01-3.353 1.07 8.056 8.056 0 01-2.206-.284 4.911 4.911 0 01-1.736-.815l.98-1.669c.382.296.814.519 1.275.658a5.06 5.06 0 001.55.245 2.517 2.517 0 001.784-.54 2.164 2.164 0 00.578-1.649v-.344a3.256 3.256 0 01-2.539.982 4.23 4.23 0 01-2.02-.491 3.667 3.667 0 01-1.45-1.364 3.796 3.796 0 01-.54-2.033 3.736 3.736 0 01.54-2.022 3.683 3.683 0 011.45-1.374 4.226 4.226 0 012.02-.481 3.182 3.182 0 012.579 1.168v-.982l2.235-.049zm-2.883 5.193a2.022 2.022 0 000-2.856 2.405 2.405 0 00-3.039 0 1.962 1.962 0 000 2.856 2.405 2.405 0 003.04 0zm8.393-5.016a4.178 4.178 0 011.628-.295v2.15h-.52a2.146 2.146 0 00-1.568.56 2.274 2.274 0 00-.569 1.678v3.79h-2.323v-8.06h2.225v1.06c.287-.394.677-.7 1.127-.883zm4.48 7.441a3.922 3.922 0 01-1.569-1.463 4.295 4.295 0 010-4.27 3.923 3.923 0 011.569-1.473 4.833 4.833 0 012.274-.53 4.767 4.767 0 012.265.53c.648.337 1.19.847 1.569 1.473a4.292 4.292 0 010 4.27 4.03 4.03 0 01-1.569 1.463 4.77 4.77 0 01-2.265.53 4.833 4.833 0 01-2.274-.53zm3.745-1.964a2.592 2.592 0 000-3.239 1.958 1.958 0 00-1.47-.599 1.96 1.96 0 00-1.48.599 2.554 2.554 0 00-.001 3.239 1.963 1.963 0 001.48.609 1.958 1.958 0 001.471-.609zm12.559-5.654v8.031h-2.206v-.982a3.189 3.189 0 01-1.108.795 3.403 3.403 0 01-1.383.275 3.443 3.443 0 01-2.51-.903 3.649 3.649 0 01-.921-2.71v-4.506h2.323v4.192c0 1.296.55 1.964 1.628 1.964a1.73 1.73 0 001.343-.55 2.3 2.3 0 00.51-1.61v-3.927l2.324-.069zm8.933.402c.604.34 1.102.839 1.441 1.444a4.784 4.784 0 010 4.339 3.736 3.736 0 01-1.44 1.453 4.048 4.048 0 01-2.03.51 3.128 3.128 0 01-2.422-.982v3.741h-2.324v-10.907h2.226v.933a3.074 3.074 0 012.52-1.051 3.923 3.923 0 012.03.52zm-.98 5.233a2.556 2.556 0 000-3.24 2.097 2.097 0 00-2.942 0 2.555 2.555 0 000 3.24 2.072 2.072 0 001.471.615 2.075 2.075 0 001.47-.615zM0 30a30 30 0 1160 0 30 30 0 01-60 0" fill="#fff"/></svg>