<svg width="48" height="68" fill="none" xmlns="http://www.w3.org/2000/svg"><path d="M1.367 46.933A4.168 4.168 0 010 46.288l.604-1.342c.358.257.755.454 1.177.584a4.44 4.44 0 001.367.219 2.13 2.13 0 001.119-.227.678.678 0 00.365-.596.576.576 0 00-.215-.459 1.58 1.58 0 00-.552-.292 11.316 11.316 0 00-.904-.243c-.49-.105-.972-.24-1.444-.406a2.325 2.325 0 01-.961-.67A1.813 1.813 0 01.15 41.64c-.005-.433.12-.857.361-1.217a2.487 2.487 0 011.095-.864 4.494 4.494 0 011.789-.32c.487 0 .972.06 1.444.178.43.103.84.275 1.217.507l-.548 1.351a4.324 4.324 0 00-2.137-.604 1.975 1.975 0 00-1.104.243.739.739 0 00-.36.637.62.62 0 00.405.588c.406.17.83.297 1.261.381.488.106.969.242 1.44.406.38.128.72.35.99.645.283.34.428.775.406 1.217a2.11 2.11 0 01-.37 1.216 2.47 2.47 0 01-1.107.864c-.569.23-1.18.338-1.793.32a6.446 6.446 0 01-1.768-.247m13.263.104l-.008-4.62-2.268 3.805h-.803l-2.259-3.708v4.523H7.625v-7.703h1.476l2.88 4.787 2.84-4.787h1.464l.024 7.703h-1.675zm8.576-1.647h-3.578l-.682 1.65h-1.829l3.436-7.706h1.76l3.444 7.707h-1.87l-.682-1.651zm-.577-1.355l-1.216-2.953-1.217 2.953h2.433zm8.841 3.003L29.985 44.9h-1.622v2.146h-1.785v-7.707h3.338a4.283 4.283 0 011.777.34 2.546 2.546 0 011.55 2.475 2.609 2.609 0 01-.406 1.48c-.291.426-.7.757-1.177.954l1.728 2.474-1.914-.016zm-.454-5.902a1.865 1.865 0 00-1.217-.349H28.35v2.685h1.452a1.84 1.84 0 001.216-.353 1.215 1.215 0 00.406-.99 1.217 1.217 0 00-.405-.993zm5.12-.35h-2.466v-1.452h6.713v1.452h-2.462v6.25H36.14v-6.25zM6.163 55.97H2.542l-.69 1.671H0l3.478-7.801H5.26l3.486 7.801H6.853l-.69-1.67zm-.57-1.371L4.36 51.614l-1.232 2.985h2.463zm11.041-4.753l-3.376 7.798h-1.782L8.11 49.846h1.95l2.374 5.568 2.406-5.568h1.795zm6.686 6.348v1.45h-6.037v-7.798h5.892v1.446h-4.102v1.695h3.622v1.405h-3.622v1.802h4.246zm8.589-6.348v7.798h-1.483l-3.888-4.735v4.735h-1.782v-7.798h1.494l3.877 4.735v-4.735h1.782zm2.651 7.005a3.555 3.555 0 01-.931-2.64v-4.365h1.806v4.3c0 1.395.58 2.093 1.737 2.093a1.643 1.643 0 001.294-.505c.339-.457.504-1.02.464-1.589v-4.299h1.782v4.365a3.228 3.228 0 01-3.532 3.568 3.512 3.512 0 01-2.599-.928m13.42-.657v1.45h-6.04v-7.798h5.896v1.446h-4.102v1.695h3.622v1.405h-3.622v1.802h4.246z" fill="#222630"/><path d="M0 61.611h1.21v1.645h1.834v-1.645h1.22v4.212h-1.22V64.25H1.21v1.574H0v-4.212zm8.565.403a1.787 1.787 0 01.524 1.418v2.392H7.95V65.3a1.366 1.366 0 01-1.286.587 1.939 1.939 0 01-.841-.166 1.262 1.262 0 01-.544-.472 1.2 1.2 0 01-.189-.658 1.082 1.082 0 01.444-.945 2.227 2.227 0 011.367-.336h.969a.775.775 0 00-.241-.614 1.063 1.063 0 00-.728-.218 2.098 2.098 0 00-.662.11c-.2.059-.388.155-.553.283l-.44-.851a2.64 2.64 0 01.827-.378 3.66 3.66 0 01.988-.133 2.208 2.208 0 011.504.473v.033zm-1.04 2.874a.803.803 0 00.345-.43v-.43h-.837c-.501 0-.752.165-.752.496a.43.43 0 00.185.369.8.8 0 00.505.137c.194.004.385-.045.554-.142zm6.699-.663h-.633v1.598h-1.22v-4.212h1.22v1.636h.657l1.144-1.636h1.3l-1.475 2.019 1.574 2.193h-1.437l-1.13-1.598zm3.172-2.614h1.21v2.506l2.052-2.506h1.12v4.212h-1.214v-2.505l-2.043 2.505h-1.125v-4.212zm9.104.209c.32.178.581.441.757.76a2.534 2.534 0 010 2.275 1.952 1.952 0 01-.756.76 2.147 2.147 0 01-1.068.27 1.616 1.616 0 01-1.267-.51v1.961H22.94v-5.724h1.168v.472a1.62 1.62 0 011.324-.548c.373-.005.741.088 1.068.27v.014zm-.51 2.732a1.343 1.343 0 000-1.697 1.097 1.097 0 00-1.54 0 1.343 1.343 0 000 1.697 1.097 1.097 0 001.54 0zm3.172 1.054a2.032 2.032 0 01-.827-.77 2.245 2.245 0 010-2.236c.197-.33.484-.597.827-.77a2.685 2.685 0 012.364 0c.348.174.638.445.837.78a2.246 2.246 0 010 2.235 2.038 2.038 0 01-.818.77 2.685 2.685 0 01-2.364 0l-.019-.009zm1.981-1.03a1.343 1.343 0 000-1.697 1.007 1.007 0 00-.77-.317 1.025 1.025 0 00-.776.317 1.343 1.343 0 000 1.697 1.027 1.027 0 00.776.316 1.006 1.006 0 00.77-.316zm6.313.053a1.026 1.026 0 01-.43.884 2.18 2.18 0 01-1.28.312H33.5v-4.212h2.15a2.25 2.25 0 011.235.288.904.904 0 01.472.8.989.989 0 01-.16.552 1.064 1.064 0 01-.473.374.978.978 0 01.742 1.002h-.01zm-2.826-1.286h.945c.426 0 .638-.158.638-.473 0-.297-.212-.444-.638-.444h-.945v.917zm1.697 1.191a.416.416 0 00-.156-.36.847.847 0 00-.473-.113h-1.05v.946h.974c.473 0 .672-.151.672-.473m5.208-2.52a1.787 1.787 0 01.525 1.418v2.392h-1.144V65.3a1.353 1.353 0 01-1.281.587 1.924 1.924 0 01-.842-.166 1.234 1.234 0 01-.543-.472 1.163 1.163 0 01-.19-.658 1.082 1.082 0 01.445-.945 2.222 2.222 0 011.361-.336h.988a.761.761 0 00-.245-.614 1.05 1.05 0 00-.729-.218 2.072 2.072 0 00-.657.11c-.2.059-.387.155-.553.283l-.44-.851c.252-.173.532-.301.828-.378.322-.09.654-.134.988-.133a2.208 2.208 0 011.503.473l-.014.033zm-1.026 2.874a.827.827 0 00.345-.387v-.43h-.85c-.502 0-.752.165-.752.496a.43.43 0 00.184.369c.147.1.324.149.501.137.196.003.388-.046.558-.142M0 15.91a15.907 15.907 0 1131.814-.007A15.907 15.907 0 010 15.91z" fill="#1BB0AC"/><path fill-rule="evenodd" clip-rule="evenodd" d="M9.53 25.45a11.476 11.476 0 006.378 1.933A11.484 11.484 0 0027.379 15.91 11.476 11.476 0 109.53 25.45zm1.88-16.27a8.093 8.093 0 014.498-1.362v-.004a8.101 8.101 0 018.089 8.097A8.093 8.093 0 1111.41 9.18zm2.79 4.19a3.029 3.029 0 011.684-.508h-.004a3.03 3.03 0 11-1.68.508z" fill="#fff"/></svg>