<svg width="51" height="68" fill="none" xmlns="http://www.w3.org/2000/svg"><path d="M1.354 46.776A4.07 4.07 0 010 46.135l.617-1.337c.355.255.748.45 1.166.58.435.142.89.215 1.349.216a2.18 2.18 0 001.108-.221.675.675 0 00.314-.842.569.569 0 00-.165-.215 1.576 1.576 0 00-.544-.29 10.89 10.89 0 00-.896-.24 11.39 11.39 0 01-1.446-.416 2.293 2.293 0 01-.963-.66 1.806 1.806 0 01-.395-1.221c-.004-.429.12-.848.356-1.206a2.457 2.457 0 011.084-.854 4.378 4.378 0 011.768-.314c.487-.002.973.057 1.446.174.429.095.84.258 1.219.483l-.535 1.374a4.23 4.23 0 00-2.11-.598c-.38-.027-.76.057-1.094.241a.733.733 0 00-.357.632.628.628 0 00.395.584c.403.166.82.291 1.248.372.481.111.956.25 1.422.414.37.136.701.361.963.657.279.338.42.768.395 1.206.004.426-.122.843-.361 1.196-.272.391-.65.696-1.089.878a4.433 4.433 0 01-1.773.314 6.403 6.403 0 01-1.768-.266zm13.534.112l-.014-4.574-2.24 3.768h-.796l-2.23-3.671v4.477H7.955v-7.623h1.46l2.847 4.738 2.81-4.738h1.445l.024 7.623h-1.653zm8.869-1.608H20.22l-.674 1.631h-1.812l3.373-7.622h1.744l3.406 7.622h-1.826l-.674-1.63zm-.554-1.34l-1.21-2.919-1.209 2.919h2.419zm9.077 2.947l-1.47-2.122h-1.624v2.122h-1.758v-7.622h3.314a4.22 4.22 0 011.759.338c.469.2.868.536 1.147.965.268.434.407.936.4 1.447.01.512-.13 1.015-.405 1.447-.287.42-.69.748-1.161.94l1.71 2.451-1.913.034zm-.449-5.842a1.829 1.829 0 00-1.204-.343h-1.445v2.65h1.445c.43.03.858-.095 1.204-.353a1.204 1.204 0 00.415-.965 1.207 1.207 0 00-.415-.965m5.671-.366h-2.438v-1.438h6.64v1.438h-2.438v6.185h-1.764v-6.185zM5.1 50.216a2.544 2.544 0 011.56 2.425 2.65 2.65 0 01-.407 1.455 2.56 2.56 0 01-1.153.97 4.305 4.305 0 01-1.768.334h-1.54v2.115H.02v-7.638h3.312a4.21 4.21 0 011.768.34zm-.65 3.424a1.387 1.387 0 000-1.974 1.883 1.883 0 00-1.215-.344H1.782v2.662h1.453c.433.029.862-.093 1.216-.344zm9.76 2.478v1.426H8.28v-7.667h5.783v1.42h-4.025v1.67h3.555v1.376H10.04v1.775h4.17zm3.216 1.038a3.809 3.809 0 01-1.501-1.416 4.078 4.078 0 010-4.064c.362-.6.881-1.09 1.501-1.416a4.735 4.735 0 014.291 0 3.876 3.876 0 011.497 1.416 3.913 3.913 0 01-1.511 5.48 4.698 4.698 0 01-4.291 0h.014zm3.376-1.305a2.23 2.23 0 00.862-.873 2.758 2.758 0 000-2.54 2.216 2.216 0 00-.862-.869 2.42 2.42 0 00-1.225-.315 2.42 2.42 0 00-1.226.315c-.36.204-.657.505-.857.868a2.756 2.756 0 000 2.541c.2.365.497.667.857.873.374.21.797.318 1.226.31.428.008.851-.1 1.225-.31zm9.491-5.635a2.738 2.738 0 011.537 2.838 2.743 2.743 0 01-.384 1.076c-.28.43-.68.768-1.153.97a4.305 4.305 0 01-1.767.334h-1.54v2.115h-1.773v-7.672h3.313c.606-.015 1.21.1 1.767.34zm-.654 3.424a1.378 1.378 0 000-1.974 1.858 1.858 0 00-1.21-.344h-1.453v2.662h1.453c.431.03.86-.092 1.21-.344zm4.064-3.763h1.768v6.222h3.84v1.445h-5.608v-7.667zm13.053 6.241v1.426h-5.928v-7.667h5.783v1.42h-4.025v1.67h3.555v1.376h-3.555v1.775h4.17z" fill="#222630"/><path d="M4.707 61.283v3.534a2.281 2.281 0 01-.606 1.738 2.5 2.5 0 01-1.772.566 4.271 4.271 0 01-1.166-.15 2.589 2.589 0 01-.917-.431l.518-.883c.201.157.43.275.673.348.265.086.541.13.82.13.339.029.676-.073.942-.286a1.147 1.147 0 00.306-.871v-.182a1.722 1.722 0 01-1.342.519 2.242 2.242 0 01-1.068-.26 1.94 1.94 0 01-.766-.72 2.005 2.005 0 01-.285-1.075c-.01-.376.09-.747.285-1.069.184-.308.449-.56.766-.726.33-.172.697-.26 1.068-.255a1.683 1.683 0 011.363.618v-.519l1.181-.026zm-1.523 2.745a1.07 1.07 0 000-1.51 1.274 1.274 0 00-1.607 0 1.04 1.04 0 000 1.51 1.273 1.273 0 001.607 0zm4.436-2.652c.274-.108.566-.161.86-.155v1.136h-.274a1.135 1.135 0 00-.83.296 1.209 1.209 0 00-.3.887v2.003H5.848v-4.26h1.176v.56c.151-.208.358-.37.596-.467zm2.369 3.934a2.075 2.075 0 01-.83-.773 2.27 2.27 0 010-2.257c.2-.332.487-.602.83-.779.372-.19.785-.286 1.202-.28.416-.007.827.09 1.197.28.343.179.63.448.83.779a2.27 2.27 0 010 2.257 2.132 2.132 0 01-.83.773c-.37.19-.78.287-1.197.28a2.55 2.55 0 01-1.202-.28zm1.98-1.038a1.371 1.371 0 000-1.712 1.037 1.037 0 00-.778-.317 1.035 1.035 0 00-.782.317 1.35 1.35 0 000 1.712 1.035 1.035 0 00.782.322 1.036 1.036 0 00.777-.322zm6.637-2.989v4.245H17.44v-.52a1.69 1.69 0 01-.585.421 1.8 1.8 0 01-.731.145 1.823 1.823 0 01-1.327-.477 1.926 1.926 0 01-.487-1.432v-2.382h1.228V63.5c0 .685.29 1.038.86 1.038a.91.91 0 00.71-.29c.195-.24.291-.544.27-.852V61.32l1.228-.036zm4.721.213c.32.18.583.443.762.763a2.53 2.53 0 010 2.293 1.97 1.97 0 01-.762.768 2.137 2.137 0 01-1.073.27 1.65 1.65 0 01-1.28-.519v1.977h-1.228v-5.765h1.176v.493a1.623 1.623 0 011.332-.555 2.07 2.07 0 011.073.275zm-.518 2.766a1.35 1.35 0 000-1.713 1.108 1.108 0 00-1.555 0 1.35 1.35 0 000 1.713 1.094 1.094 0 001.555 0zM0 15.857a15.857 15.857 0 1131.713 0 15.857 15.857 0 01-31.713 0" fill="#0090D7"/></svg>