<svg width="51" height="68" fill="none" xmlns="http://www.w3.org/2000/svg"><path d="M1.363 46.816A4.084 4.084 0 010 46.178l.6-1.339c.356.255.75.451 1.166.581.44.143.898.216 1.36.218.385.026.77-.05 1.117-.222a.682.682 0 00.363-.597.572.572 0 00-.214-.456 1.642 1.642 0 00-.548-.29 11.424 11.424 0 00-.904-.242c-.486-.105-.966-.24-1.436-.403a2.343 2.343 0 01-.947-.682 1.803 1.803 0 01-.404-1.21c-.004-.43.12-.852.36-1.21a2.44 2.44 0 011.092-.863 4.467 4.467 0 011.775-.334c.484 0 .966.059 1.436.177.426.105.834.275 1.21.504l-.55 1.347a4.268 4.268 0 00-2.096-.6 2.016 2.016 0 00-1.101.237.742.742 0 00-.36.638.617.617 0 00.404.584c.404.169.824.296 1.254.38.486.107.965.242 1.436.403.37.137.699.362.96.657.28.34.423.77.403 1.21.007.432-.121.855-.367 1.21a2.488 2.488 0 01-1.1.863 4.52 4.52 0 01-1.787.319 6.236 6.236 0 01-1.759-.242zm13.208.116l-.012-4.602-2.258 3.791h-.8l-2.245-3.694v4.505H7.59v-7.67h1.468l2.871 4.766 2.828-4.767h1.456l.02 7.671H14.57zm8.536-1.645h-3.562l-.677 1.645h-1.823l3.42-7.663h1.754l3.428 7.663h-1.863l-.677-1.645zm-.56-1.347l-1.21-2.936-1.21 2.936h2.42zm8.788 2.991l-1.48-2.137h-1.633v2.137h-1.775v-7.663h3.32a4.281 4.281 0 011.77.339c.47.202.871.537 1.154.964.276.443.416.958.403 1.48a2.617 2.617 0 01-.404 1.476 2.63 2.63 0 01-1.165.948l1.698 2.456h-1.888zm-.451-5.88a1.863 1.863 0 00-1.21-.343h-1.452v2.674h1.448c.432.03.86-.095 1.21-.35a1.21 1.21 0 00.403-.989 1.208 1.208 0 00-.403-.992m5.103-.341h-2.456v-1.45h6.683v1.448h-2.452v6.223h-1.775V40.71zM5.257 50.054a2.832 2.832 0 011.195 4.044 2.67 2.67 0 01-1.195.996 4.403 4.403 0 01-1.825.346h-1.6v2.187H0v-7.915h3.432a4.398 4.398 0 011.825.35v-.008zm-.67 3.545a1.25 1.25 0 00.416-1.013 1.25 1.25 0 00-.417-1.024 1.937 1.937 0 00-1.25-.359H1.834v2.754h1.495c.446.028.887-.099 1.25-.358m8.414 2.328H9.315l-.7 1.7H6.736l3.533-7.915h1.807l3.545 7.915h-1.916l-.712-1.7zm-.575-1.39l-1.25-3.033-1.25 3.032h2.5zm9.077 3.091l-1.54-2.208h-1.667v2.208h-1.833v-7.914h3.428a4.407 4.407 0 011.829.35 2.612 2.612 0 011.612 2.524 2.679 2.679 0 01-.417 1.52c-.294.44-.713.781-1.203.98l1.778 2.548-1.987-.008zm-.466-6.073a1.916 1.916 0 00-1.25-.358h-1.491v2.761h1.495c.447.031.89-.097 1.25-.362a1.42 1.42 0 000-2.041m6.619 2.956l-1.062 1.112v2.004h-1.824v-7.923h1.824v3.7l3.508-3.7h2.036l-3.282 3.528 3.474 4.395h-2.137l-2.537-3.116z" fill="#222630"/><path d="M0 61.363h1.18v1.596h1.78v-1.596h1.19v4.098H2.96v-1.53H1.18v1.53H0v-4.098zm8.345.389a1.743 1.743 0 01.511 1.369v2.34H7.743v-.502a1.323 1.323 0 01-1.25.573 1.894 1.894 0 01-.82-.16 1.198 1.198 0 01-.531-.441 1.184 1.184 0 01-.18-.64 1.061 1.061 0 01.431-.9c.396-.248.86-.362 1.327-.327h.947a.772.772 0 00-.237-.602 1.051 1.051 0 00-.71-.208c-.218 0-.434.034-.64.104a1.6 1.6 0 00-.54.28l-.426-.834c.245-.167.517-.29.805-.365a3.65 3.65 0 01.947-.128 2.156 2.156 0 011.464.45l.015-.01zm-1.028 2.852a.786.786 0 00.336-.412v-.422h-.815c-.474 0-.734.161-.734.474a.43.43 0 00.18.365.8.8 0 00.474.132c.19.004.376-.045.54-.142m8.607-.304a1.01 1.01 0 01-.421.862c-.374.229-.81.335-1.246.304h-2.19v-4.098h2.095c.419-.025.836.07 1.203.274a.877.877 0 01.436.782.948.948 0 01-.156.54c-.111.16-.266.285-.445.36a.947.947 0 01.724.976zm-2.766-1.232h.9c.407 0 .61-.157.61-.473 0-.29-.208-.436-.624-.436h-.9l.014.91zm1.653 1.161a.411.411 0 00-.152-.35.848.848 0 00-.473-.11h-1.024v.91h1c.436 0 .654-.151.654-.474m2.748 1.052a2.014 2.014 0 01-.8-.767 2.046 2.046 0 01-.29-1.09 2.07 2.07 0 01.29-1.09c.193-.318.47-.577.8-.748a2.47 2.47 0 011.166-.27c.401-.007.799.086 1.156.27.33.171.607.43.8.748.196.33.296.707.29 1.09.007.383-.093.76-.29 1.09-.19.326-.47.592-.805.767a2.434 2.434 0 01-1.156.27 2.487 2.487 0 01-1.166-.27h.005zm1.89-1.014a1.146 1.146 0 00.294-.829 1.128 1.128 0 00-.293-.824 1.07 1.07 0 00-1.47.004 1.126 1.126 0 00-.298.825 1.147 1.147 0 00.299.829 1.07 1.07 0 001.502 0m2.302-2.88h1.185v2.435l1.995-2.435h1.09v4.098h-1.18v-2.44l-1.99 2.44h-1.1v-4.098zm5.413 0h1.18v1.596h1.78v-1.596h1.19v4.098h-1.19v-1.53h-1.78v1.53h-1.18v-4.098zm6.06 3.888a2.02 2.02 0 01-.815-.767 2.052 2.052 0 01-.294-1.09c-.005-.383.097-.76.294-1.09.197-.32.48-.578.815-.748.365-.184.77-.276 1.18-.27a2.28 2.28 0 011.132.27c.314.17.56.443.7.772l-.918.497a1.005 1.005 0 00-.924-.563 1.038 1.038 0 00-.768.303 1.117 1.117 0 00-.308.83 1.132 1.132 0 00.308.833 1.034 1.034 0 00.768.303.999.999 0 00.924-.564l.919.517a1.63 1.63 0 01-.701.763 2.24 2.24 0 01-1.133.274 2.544 2.544 0 01-1.18-.27zm5.548-1.344h-.62v1.554h-1.19v-4.098h1.19v1.592h.64l1.113-1.592h1.265l-1.431 1.966 1.53 2.132h-1.402l-1.095-1.554zm3.717 1.345a1.994 1.994 0 01-.806-.768 2.046 2.046 0 01-.289-1.09 2.07 2.07 0 01.29-1.09c.193-.319.472-.578.805-.748a2.629 2.629 0 012.321 0c.33.173.607.432.801.749.193.33.293.707.29 1.09a2.09 2.09 0 01-.29 1.09c-.193.319-.47.58-.8.752a2.63 2.63 0 01-2.322 0v.015zm1.895-1.028c.2-.229.304-.526.289-.83a1.142 1.142 0 00-.289-.824 1.075 1.075 0 00-1.507 0 1.128 1.128 0 00-.298.825 1.147 1.147 0 00.298.829 1.076 1.076 0 001.507 0zm2.327-2.861h1.18v2.435l1.999-2.435H51v4.098h-1.185v-2.44l-2.004 2.44h-1.094l.014-4.098zm.706-1.616h.777a.602.602 0 00.151.417.54.54 0 00.413.147.577.577 0 00.426-.147.558.558 0 00.147-.417h.791c0 .786-.474 1.18-1.355 1.18s-1.345-.394-1.35-1.18z" fill="#9BC130"/><path fill-rule="evenodd" clip-rule="evenodd" d="M2.673 7.05a15.862 15.862 0 1026.379 17.625A15.862 15.862 0 002.673 7.05zm20.592 16.045a10.488 10.488 0 01-6.267 3.009l.01 3.308h-2.62v-3.35a10.475 10.475 0 1111.948-10.37 10.487 10.487 0 01-3.071 7.403zm-5.946-6.034c-2.158 2.273-2.806 5.605-2.914 6.359a7.86 7.86 0 118.973-10.003c-1.611.355-3.989 1.47-6.059 3.644zm1.896 1.806c1.641-1.728 3.442-2.544 4.494-2.833a7.859 7.859 0 01-6.647 7.428c.193-.934.77-3.144 2.152-4.595z" fill="#9BC130"/></svg>