<svg width="60" height="60" fill="none" xmlns="http://www.w3.org/2000/svg"><path d="M50.05 14.953H9.91c-.555 0-1.004.45-1.004 1.004v28.098c0 .554.45 1.004 1.004 1.004h40.14c.555 0 1.004-.45 1.004-1.004V15.956c0-.554-.45-1.003-1.003-1.003zM11.86 43.05l8.085-11.319 4.426 6.187-2.994 5.132H11.86zm11.841 0l12.3-21.088L48.304 43.05H23.7zm25.346-26.09v23.382L36.869 19.468a1.045 1.045 0 00-1.734 0l-9.656 16.559-4.717-6.596a1.004 1.004 0 00-.817-.429c-.324 0-.628.157-.817.42l-8.214 11.5V16.96h38.133z" fill="#1BB0AC"/><path d="M59.86 40.704l-2.785-10.398V11.942a3.01 3.01 0 00-3.01-3.01h-2.722l-.836-3.136a3.016 3.016 0 00-3.687-2.119L27.2 8.932H5.895a3.01 3.01 0 00-3.01 3.01v3.504l-.654.174a3.028 3.028 0 00-2.132 3.687l2.786 10.398v18.364a3.01 3.01 0 003.01 3.01h2.722l.836 3.135a3.006 3.006 0 003.684 2.12h.003l19.62-5.255h21.304a3.01 3.01 0 003.01-3.01v-3.503l.655-.175a3.027 3.027 0 002.132-3.687zM47.34 5.62a1.003 1.003 0 011.227.702l.696 2.61H34.957L47.34 5.62zM2.04 18.791a1.015 1.015 0 01.712-1.233l.134-.035v4.427l-.846-3.16zm10.58 35.605a1.004 1.004 0 01-1.227-.702l-.697-2.614h14.308L12.62 54.396zm42.449-6.327c0 .554-.45 1.003-1.004 1.003H5.895a1.003 1.003 0 01-1.003-1.003V11.942c0-.554.45-1.003 1.003-1.003h48.17c.553 0 1.003.449 1.003 1.003V48.07zm2.14-5.62l-.133.039v-4.427l.846 3.158a1.015 1.015 0 01-.713 1.23z" fill="#000"/><path d="M23.96 27.998a4.014 4.014 0 100-8.027 4.014 4.014 0 000 8.027zm0-6.02a2.007 2.007 0 110 4.014 2.007 2.007 0 010-4.014z" fill="#1BB0AC"/></svg>