<svg width="60" height="60" fill="none" xmlns="http://www.w3.org/2000/svg"><path d="M6.563 58.125h3.75c.518 0 .937-.42.937-.938v-6.562h22.5v6.563c0 .517.42.937.938.937h22.5c.518 0 .937-.42.937-.938V43.126a.937.937 0 00-.275-.663l-1.6-1.6V2.812a.937.937 0 00-.938-.937H6.563a4.693 4.693 0 00-4.687 4.688v46.874a4.693 4.693 0 004.688 4.688zm37.5-1.875v-9.375h3.75v9.375h-3.75zm12.187 0h-6.563V45.937A.937.937 0 0048.75 45h-5.625a.937.937 0 00-.938.938V56.25h-6.562V43.513l10.313-10.312 4.024 4.024a.936.936 0 001.6-.663V33.75h2.813v7.5c0 .249.099.487.275.663l1.6 1.6V56.25zM6.562 3.75h47.813v28.125h-3.75a.937.937 0 00-.938.938v1.486L46.6 31.212a.937.937 0 00-1.325 0l-11.25 11.25a.937.937 0 00-.275.663v5.625h-22.5V10.312a.937.937 0 00-.938-.937h-3.75A2.816 2.816 0 013.75 6.562 2.816 2.816 0 016.563 3.75zM3.75 10.31c.784.59 1.758.94 2.813.94h2.812v45H6.562a2.816 2.816 0 01-2.812-2.813V10.31z" fill="#000"/><path d="M15 40.313h5.625c.518 0 .938-.42.938-.938 0-1.222.783-2.265 1.875-2.652v2.652c0 .518.419.938.937.938h6.563c.518 0 .937-.42.937-.938V27.187h18.75c.518 0 .938-.42.938-.937V7.5a.937.937 0 00-.938-.938H15a.937.937 0 00-.938.938v31.875c0 .518.42.938.938.938zm34.688-15h-11.25v-1.875h2.812c.518 0 .938-.42.938-.938a4.696 4.696 0 00-3.75-4.593v-9.47h11.25v16.876zM26.25 8.438v9.374h-.938v1.875h1.875c.519 0 .938-.42.938-.937V8.437h8.438V18.75c0 .518.419.938.937.938 1.222 0 2.265.783 2.652 1.875H37.5a.937.937 0 00-.938.937v2.813h-5.624a.937.937 0 00-.938.937v12.188h-4.688v-2.813a.937.937 0 00-.937-.938 4.696 4.696 0 00-4.593 3.75h-3.845v-18.75H22.5v-1.875h-6.563V8.438H26.25z" fill="#9BC130"/><path d="M13.125 45H15v1.875h-1.875V45zm3.75 0h1.875v1.875h-1.875V45zm3.75 0H22.5v1.875h-1.875V45z" fill="#000"/></svg>