<?xml version="1.0" encoding="utf-8"?><!DOCTYPE svg PUBLIC "-//W3C//DTD SVG 1.1//EN" "http://www.w3.org/Graphics/SVG/1.1/DTD/svg11.dtd"><svg viewBox="0 0 196 221" xmlns="http://www.w3.org/2000/svg" xmlns:xlink="http://www.w3.org/1999/xlink"><style>:root>svg{display:none}:root>svg:target{display:block}</style><svg viewBox="0 0 135 40" id="app-store" xmlns="http://www.w3.org/2000/svg"><path fill="#A6A6A6" d="M130.197 40H4.729A4.74 4.74 0 010 35.267V4.726A4.733 4.733 0 014.729 0h125.468C132.803 0 135 2.12 135 4.726v30.541c0 2.605-2.197 4.733-4.803 4.733z"/><path d="M134.032 35.268a3.83 3.83 0 01-3.834 3.83H4.729a3.835 3.835 0 01-3.839-3.83V4.725A3.84 3.84 0 014.729.89h125.468a3.834 3.834 0 013.834 3.835l.001 30.543z"/><g fill="#FFF"><path d="M30.128 19.784c-.029-3.223 2.639-4.791 2.761-4.864-1.511-2.203-3.853-2.504-4.676-2.528-1.967-.207-3.875 1.177-4.877 1.177-1.022 0-2.565-1.157-4.228-1.123-2.14.033-4.142 1.272-5.24 3.196-2.266 3.923-.576 9.688 1.595 12.859 1.086 1.553 2.355 3.287 4.016 3.226 1.625-.067 2.232-1.036 4.193-1.036 1.943 0 2.513 1.036 4.207.997 1.744-.028 2.842-1.56 3.89-3.127 1.255-1.78 1.759-3.533 1.779-3.623-.041-.014-3.387-1.291-3.42-5.154zM26.928 10.306c.874-1.093 1.472-2.58 1.306-4.089-1.265.056-2.847.875-3.758 1.944-.806.942-1.526 2.486-1.34 3.938 1.421.106 2.88-.717 3.792-1.793z"/></g><g fill="#FFF"><path d="M53.645 31.504h-2.271l-1.244-3.909h-4.324l-1.185 3.909H42.41l4.284-13.308h2.646l4.305 13.308zm-3.89-5.549L48.63 22.48c-.119-.355-.342-1.191-.671-2.507h-.04a96.75 96.75 0 01-.632 2.507l-1.105 3.475h3.573zM64.662 26.588c0 1.632-.441 2.922-1.323 3.869-.79.843-1.771 1.264-2.942 1.264-1.264 0-2.172-.454-2.725-1.362h-.04v5.055H55.5V25.067c0-1.026-.027-2.079-.079-3.159h1.875l.119 1.521h.04c.711-1.146 1.79-1.718 3.238-1.718 1.132 0 2.077.447 2.833 1.342.758.896 1.136 2.074 1.136 3.535zm-2.172.078c0-.934-.21-1.704-.632-2.31-.461-.632-1.08-.948-1.856-.948-.526 0-1.004.176-1.431.523-.428.35-.708.807-.839 1.373-.066.264-.099.48-.099.65v1.6c0 .698.214 1.287.642 1.768s.984.721 1.668.721c.803 0 1.428-.31 1.875-.928.448-.619.672-1.435.672-2.449zM75.699 26.588c0 1.632-.441 2.922-1.324 3.869-.789.843-1.77 1.264-2.941 1.264-1.264 0-2.172-.454-2.724-1.362h-.04v5.055h-2.132V25.067c0-1.026-.027-2.079-.079-3.159h1.875l.119 1.521h.04c.71-1.146 1.789-1.718 3.238-1.718 1.131 0 2.076.447 2.834 1.342.755.896 1.134 2.074 1.134 3.535zm-2.172.078c0-.934-.211-1.704-.633-2.31-.461-.632-1.078-.948-1.855-.948a2.22 2.22 0 00-1.432.523c-.428.35-.707.807-.838 1.373-.065.264-.099.48-.099.65v1.6c0 .698.214 1.287.64 1.768.428.48.984.721 1.67.721.803 0 1.428-.31 1.875-.928.448-.619.672-1.435.672-2.449zM88.039 27.772c0 1.132-.393 2.053-1.182 2.764-.867.777-2.074 1.165-3.625 1.165-1.432 0-2.58-.276-3.449-.829l.494-1.777c.936.566 1.963.85 3.082.85.803 0 1.428-.182 1.877-.544.447-.362.67-.848.67-1.454 0-.54-.184-.995-.553-1.364-.367-.369-.98-.712-1.836-1.029-2.33-.869-3.494-2.142-3.494-3.816 0-1.094.408-1.991 1.225-2.689.814-.699 1.9-1.048 3.258-1.048 1.211 0 2.217.211 3.02.632l-.533 1.738c-.75-.408-1.598-.612-2.547-.612-.75 0-1.336.185-1.756.553a1.58 1.58 0 00-.533 1.205c0 .526.203.961.611 1.303.355.316 1 .658 1.936 1.027 1.145.461 1.986 1 2.527 1.618.539.616.808 1.387.808 2.307zM95.088 23.508h-2.35v4.659c0 1.185.414 1.777 1.244 1.777.381 0 .697-.033.947-.099l.059 1.619c-.42.157-.973.236-1.658.236-.842 0-1.5-.257-1.975-.77-.473-.514-.711-1.376-.711-2.587v-4.837h-1.4v-1.6h1.4v-1.757l2.094-.632v2.389h2.35v1.602zM105.691 26.627c0 1.475-.422 2.686-1.264 3.633-.883.975-2.055 1.461-3.516 1.461-1.408 0-2.529-.467-3.365-1.401s-1.254-2.113-1.254-3.534c0-1.487.43-2.705 1.293-3.652.861-.948 2.023-1.422 3.484-1.422 1.408 0 2.541.467 3.396 1.402.818.907 1.226 2.078 1.226 3.513zm-2.212.069c0-.885-.189-1.644-.572-2.277-.447-.766-1.086-1.148-1.914-1.148-.857 0-1.508.383-1.955 1.148-.383.634-.572 1.405-.572 2.317 0 .885.189 1.644.572 2.276.461.766 1.105 1.148 1.936 1.148.814 0 1.453-.39 1.914-1.168.393-.645.591-1.412.591-2.296zM112.621 23.783a3.702 3.702 0 00-.672-.059c-.75 0-1.33.283-1.738.85-.355.5-.533 1.132-.533 1.895v5.035h-2.131l.02-6.574c0-1.106-.027-2.113-.08-3.021h1.857l.078 1.836h.059c.225-.631.58-1.139 1.066-1.52a2.578 2.578 0 011.541-.514c.197 0 .375.014.533.039v2.033zM122.156 26.252a5 5 0 01-.078.967h-6.396c.025.948.334 1.673.928 2.173.539.447 1.236.671 2.092.671.947 0 1.811-.151 2.588-.454l.334 1.48c-.908.396-1.98.593-3.217.593-1.488 0-2.656-.438-3.506-1.313-.848-.875-1.273-2.05-1.273-3.524 0-1.447.395-2.652 1.186-3.613.828-1.026 1.947-1.539 3.355-1.539 1.383 0 2.43.513 3.141 1.539.563.815.846 1.823.846 3.02zm-2.033-.553c.014-.632-.125-1.178-.414-1.639-.369-.593-.936-.889-1.699-.889-.697 0-1.264.289-1.697.869-.355.461-.566 1.014-.631 1.658h4.441z"/></g><g fill="#FFF"><path d="M49.05 10.009c0 1.177-.353 2.063-1.058 2.658-.653.549-1.581.824-2.783.824-.596 0-1.106-.026-1.533-.078V6.982c.557-.09 1.157-.136 1.805-.136 1.145 0 2.008.249 2.59.747.652.563.979 1.368.979 2.416zm-1.105.029c0-.763-.202-1.348-.606-1.756-.404-.407-.994-.611-1.771-.611-.33 0-.611.022-.844.068v4.889c.129.02.365.029.708.029.802 0 1.421-.223 1.857-.669s.656-1.096.656-1.95zM54.909 11.037c0 .725-.207 1.319-.621 1.785-.434.479-1.009.718-1.727.718-.692 0-1.243-.229-1.654-.689-.41-.459-.615-1.038-.615-1.736 0-.73.211-1.329.635-1.794s.994-.698 1.712-.698c.692 0 1.248.229 1.669.688.4.446.601 1.022.601 1.726zm-1.087.034c0-.435-.094-.808-.281-1.119-.22-.376-.533-.564-.94-.564-.421 0-.741.188-.961.564-.188.311-.281.69-.281 1.138 0 .435.094.808.281 1.119.227.376.543.564.951.564.4 0 .714-.191.94-.574.194-.317.291-.693.291-1.128zM62.765 8.719l-1.475 4.714h-.96l-.611-2.047a15.32 15.32 0 01-.379-1.523h-.019a11.15 11.15 0 01-.379 1.523l-.649 2.047h-.971l-1.387-4.714h1.077l.533 2.241c.129.53.235 1.035.32 1.513h.019c.078-.394.207-.896.389-1.503l.669-2.25h.854l.641 2.202c.155.537.281 1.054.378 1.552h.029c.071-.485.178-1.002.32-1.552l.572-2.202h1.029zM68.198 13.433H67.15v-2.7c0-.832-.316-1.248-.95-1.248a.946.946 0 00-.757.343 1.217 1.217 0 00-.291.808v2.796h-1.048v-3.366c0-.414-.013-.863-.038-1.349h.921l.049.737h.029c.122-.229.304-.418.543-.569.284-.176.602-.265.95-.265.44 0 .806.142 1.097.427.362.349.543.87.543 1.562v2.824zM71.088 13.433h-1.047V6.556h1.047v6.877zM77.258 11.037c0 .725-.207 1.319-.621 1.785-.434.479-1.01.718-1.727.718-.693 0-1.244-.229-1.654-.689-.41-.459-.615-1.038-.615-1.736 0-.73.211-1.329.635-1.794s.994-.698 1.711-.698c.693 0 1.248.229 1.67.688.4.446.601 1.022.601 1.726zm-1.088.034c0-.435-.094-.808-.281-1.119-.219-.376-.533-.564-.939-.564-.422 0-.742.188-.961.564-.188.311-.281.69-.281 1.138 0 .435.094.808.281 1.119.227.376.543.564.951.564.4 0 .713-.191.939-.574.195-.317.291-.693.291-1.128zM82.33 13.433h-.941l-.078-.543h-.029c-.322.433-.781.65-1.377.65-.445 0-.805-.143-1.076-.427a1.339 1.339 0 01-.369-.96c0-.576.24-1.015.723-1.319.482-.304 1.16-.453 2.033-.446V10.3c0-.621-.326-.931-.979-.931-.465 0-.875.117-1.229.349l-.213-.688c.438-.271.979-.407 1.617-.407 1.232 0 1.85.65 1.85 1.95v1.736c0 .471.023.846.068 1.124zm-1.088-1.62v-.727c-1.156-.02-1.734.297-1.734.95 0 .246.066.43.201.553a.733.733 0 00.512.184c.23 0 .445-.073.641-.218a.893.893 0 00.38-.742zM88.285 13.433h-.93l-.049-.757h-.029c-.297.576-.803.864-1.514.864-.568 0-1.041-.223-1.416-.669s-.562-1.025-.562-1.736c0-.763.203-1.381.611-1.853.395-.44.879-.66 1.455-.66.633 0 1.076.213 1.328.64h.02V6.556h1.049v5.607c0 .459.012.882.037 1.27zm-1.086-1.988v-.786a1.194 1.194 0 00-.408-.965 1.03 1.03 0 00-.701-.257c-.391 0-.697.155-.922.466-.223.311-.336.708-.336 1.193 0 .466.107.844.322 1.135.227.31.533.465.916.465.344 0 .619-.129.828-.388.202-.239.301-.527.301-.863zM97.248 11.037c0 .725-.207 1.319-.621 1.785-.434.479-1.008.718-1.727.718-.691 0-1.242-.229-1.654-.689-.41-.459-.615-1.038-.615-1.736 0-.73.211-1.329.635-1.794s.994-.698 1.713-.698c.691 0 1.248.229 1.668.688.4.446.601 1.022.601 1.726zm-1.086.034c0-.435-.094-.808-.281-1.119-.221-.376-.533-.564-.941-.564-.42 0-.74.188-.961.564-.188.311-.281.69-.281 1.138 0 .435.094.808.281 1.119.227.376.543.564.951.564.4 0 .715-.191.941-.574.193-.317.291-.693.291-1.128zM102.883 13.433h-1.047v-2.7c0-.832-.316-1.248-.951-1.248-.311 0-.562.114-.756.343s-.291.499-.291.808v2.796h-1.049v-3.366c0-.414-.012-.863-.037-1.349h.92l.049.737h.029a1.53 1.53 0 01.543-.569c.285-.176.602-.265.951-.265.439 0 .805.142 1.096.427.363.349.543.87.543 1.562v2.824zM109.936 9.504h-1.154v2.29c0 .582.205.873.611.873.188 0 .344-.016.467-.049l.027.795c-.207.078-.479.117-.814.117-.414 0-.736-.126-.969-.378-.234-.252-.35-.676-.35-1.271V9.504h-.689v-.785h.689v-.864l1.027-.31v1.173h1.154v.786zM115.484 13.433h-1.049v-2.68c0-.845-.316-1.268-.949-1.268-.486 0-.818.245-1 .735a1.317 1.317 0 00-.049.377v2.835h-1.047V6.556h1.047v2.841h.02c.33-.517.803-.775 1.416-.775.434 0 .793.142 1.078.427.355.355.533.883.533 1.581v2.803zM121.207 10.853c0 .188-.014.346-.039.475h-3.143c.014.466.164.821.455 1.067.266.22.609.33 1.029.33.465 0 .889-.074 1.271-.223l.164.728c-.447.194-.973.291-1.582.291-.73 0-1.305-.215-1.721-.645-.418-.43-.625-1.007-.625-1.731 0-.711.193-1.303.582-1.775.406-.504.955-.756 1.648-.756.678 0 1.193.252 1.541.756.281.4.42.895.42 1.483zm-1-.271a1.411 1.411 0 00-.203-.805c-.182-.291-.459-.437-.834-.437a.995.995 0 00-.834.427 1.586 1.586 0 00-.311.815h2.182z"/></g></svg><svg fill="none" viewBox="0 0 63 63" id="arrow-left" xmlns="http://www.w3.org/2000/svg"><path fill-rule="evenodd" clip-rule="evenodd" d="M42.16 48.403a3.937 3.937 0 11-5.57 5.569L16.904 34.284a3.937 3.937 0 010-5.568L36.591 9.028a3.937 3.937 0 115.568 5.569L25.256 31.5l16.903 16.903z" fill="#fff"/></svg><svg fill="none" viewBox="0 0 16 16" id="arrow-left-black" xmlns="http://www.w3.org/2000/svg"><path fill-rule="evenodd" clip-rule="evenodd" d="M10.707 12.293a1 1 0 01-1.414 1.414l-5-5a1 1 0 010-1.414l5-5a1 1 0 011.414 1.414L6.414 8l4.293 4.293z" fill="#222630"/></svg><svg fill="none" viewBox="0 0 63 63" id="arrow-left-disabled" xmlns="http://www.w3.org/2000/svg"><path fill-rule="evenodd" clip-rule="evenodd" d="M42.16 48.403a3.937 3.937 0 11-5.57 5.569L16.904 34.284a3.937 3.937 0 010-5.568L36.591 9.028a3.937 3.937 0 115.568 5.569L25.256 31.5l16.903 16.903z" fill="#fff" opacity=".5"/></svg><svg fill="none" viewBox="0 0 63 63" id="arrow-right" xmlns="http://www.w3.org/2000/svg"><path fill-rule="evenodd" clip-rule="evenodd" d="M20.84 14.597a3.937 3.937 0 115.57-5.569l19.687 19.688a3.937 3.937 0 010 5.568L26.409 53.972a3.937 3.937 0 11-5.568-5.569L37.744 31.5 20.841 14.597z" fill="#fff"/></svg><svg fill="none" viewBox="0 0 16 16" id="arrow-right-black" xmlns="http://www.w3.org/2000/svg"><path fill-rule="evenodd" clip-rule="evenodd" d="M5.293 3.707a1 1 0 011.414-1.414l5 5a1 1 0 010 1.414l-5 5a1 1 0 01-1.414-1.414L9.586 8 5.293 3.707z" fill="#222630"/></svg><svg fill="none" viewBox="0 0 63 63" id="arrow-right-disabled" xmlns="http://www.w3.org/2000/svg"><g opacity=".5" filter="url(#agfilter0_d)"><path fill-rule="evenodd" clip-rule="evenodd" d="M20.84 14.597a3.937 3.937 0 115.57-5.569l19.687 19.688a3.937 3.937 0 010 5.568L26.409 53.972a3.937 3.937 0 11-5.568-5.569L37.744 31.5 20.841 14.597z" fill="#fff"/></g><defs><filter id="agfilter0_d" x="-4" y="-2" width="71" height="71" filterUnits="userSpaceOnUse" color-interpolation-filters="sRGB"><feFlood flood-opacity="0" result="BackgroundImageFix"/><feColorMatrix in="SourceAlpha" values="0 0 0 0 0 0 0 0 0 0 0 0 0 0 0 0 0 0 127 0"/><feOffset dy="2"/><feGaussianBlur stdDeviation="2"/><feColorMatrix values="0 0 0 0 0 0 0 0 0 0 0 0 0 0 0 0 0 0 0.25 0"/><feBlend in2="BackgroundImageFix" result="effect1_dropShadow"/><feBlend in="SourceGraphic" in2="effect1_dropShadow" result="shape"/></filter></defs></svg><svg fill="none" viewBox="0 0 10 7" id="chevron-down" xmlns="http://www.w3.org/2000/svg"><path fill-rule="evenodd" clip-rule="evenodd" d="M5 6.5a.997.997 0 01-.707-.293l-4-4A.999.999 0 111.707.793l3.305 3.305L8.305.918a1 1 0 011.39 1.44l-4 3.861A.997.997 0 015 6.5z" fill="#89919A"/><mask id="aha" maskUnits="userSpaceOnUse" x="-1" y="0" width="11" height="7"><path fill-rule="evenodd" clip-rule="evenodd" d="M5 6.5a.997.997 0 01-.707-.293l-4-4A.999.999 0 111.707.793l3.305 3.305L8.305.918a1 1 0 011.39 1.44l-4 3.861A.997.997 0 015 6.5z" fill="#fff"/></mask></svg><svg fill="none" viewBox="0 0 20 20" id="closet" xmlns="http://www.w3.org/2000/svg"><path d="M18.333 0H1.666a.333.333 0 00-.333.333v19.334c0 .184.15.333.333.333h16.667c.184 0 .333-.15.333-.333V.333A.333.333 0 0018.333 0zM8.666 19.333H2V.667h6.666v18.666zm9.334 0H9.333v-2H18v2zm0-2.666H9.333v-2H18v2zm-6.96-3.236a.337.337 0 01.236-.098h4.781c.088 0 .173.036.236.098a.33.33 0 010 .471.336.336 0 01-.236.098h-4.781a.333.333 0 01-.236-.569zm.057-1.333a.336.336 0 01.236-.098h4.781a.333.333 0 110 .667h-4.781a.333.333 0 01-.236-.569zM18 14h-1.004a.967.967 0 00-.17-.967 1 1 0 00-.712-1.7h-4.781a.994.994 0 00-.769 1.634.982.982 0 00-.228 1.033H9.333V5.333H10v1a.333.333 0 10.666 0v-1h.667v1a.333.333 0 00.667 0v-1h.666v1a.333.333 0 00.667 0v-1H14v1a.333.333 0 10.666 0v-1h.667v1a.333.333 0 00.667 0v-1h1a.333.333 0 000-.666h-1v-.334a.333.333 0 00-.667 0v.334h-.667v-.334a.333.333 0 10-.666 0v.334h-.667v-.334a.333.333 0 10-.667 0v.334H12v-.334a.333.333 0 00-.667 0v.334h-.667v-.334a.333.333 0 10-.666 0v.334h-.667V3.333H18V14zm0-11.333H9.333v-2H18v2z" fill="#222630"/><path d="M14.334 1.333H13A.333.333 0 0013 2h1.334a.333.333 0 000-.667zM14.334 15.333H13A.333.333 0 0013 16h1.334a.333.333 0 000-.667zM14.334 18H13a.333.333 0 000 .667h1.334a.333.333 0 000-.667zM5.576 1.431a.333.333 0 00-.479 0L2.764 3.764a.333.333 0 00.471.472l2.333-2.334a.333.333 0 00.008-.47zM7.235 1.764a.333.333 0 00-.471 0l-4 4a.333.333 0 10.471.472l4-4a.333.333 0 000-.472zM7.333 8.667A.333.333 0 007 9v1.667a.333.333 0 00.667 0V9a.333.333 0 00-.334-.333z" fill="#222630"/></svg><svg fill="none" viewBox="0 0 24 24" id="closet-white" xmlns="http://www.w3.org/2000/svg"><path d="M22 0H2a.4.4 0 00-.4.4v23.2c0 .22.18.4.4.4h20a.4.4 0 00.4-.4V.4A.4.4 0 0022 0zM10.4 23.2h-8V.8h8v22.4zm11.2 0H11.2v-2.4h10.4v2.4zm0-3.2H11.2v-2.4h10.4V20zm-8.351-3.883a.403.403 0 01.283-.117h5.737a.403.403 0 01.4.4.397.397 0 01-.4.4h-5.737a.4.4 0 01-.283-.683zm.069-1.6a.403.403 0 01.283-.117h5.737a.4.4 0 110 .8H13.6a.4.4 0 01-.283-.683zM21.6 16.8h-1.204a1.16 1.16 0 00-.205-1.16 1.2 1.2 0 00-.854-2.04H13.6a1.193 1.193 0 00-.923 1.96 1.178 1.178 0 00-.273 1.24H11.2V6.4h.8v1.2a.4.4 0 00.8 0V6.4h.8v1.2a.4.4 0 00.8 0V6.4h.8v1.2a.4.4 0 00.8 0V6.4h.8v1.2a.4.4 0 00.8 0V6.4h.8v1.2a.4.4 0 00.8 0V6.4h1.2a.4.4 0 000-.8h-1.2v-.4a.4.4 0 00-.8 0v.4h-.8v-.4a.4.4 0 00-.8 0v.4H16v-.4a.4.4 0 00-.8 0v.4h-.8v-.4a.4.4 0 00-.8 0v.4h-.8v-.4a.4.4 0 00-.8 0v.4h-.8V4h10.4v12.8zm0-13.6H11.2V.8h10.4v2.4z" fill="#fff"/><path d="M17.2 1.6h-1.6a.4.4 0 000 .8h1.6a.4.4 0 000-.8zM17.2 18.4h-1.6a.4.4 0 000 .8h1.6a.4.4 0 000-.8zM17.2 21.6h-1.6a.4.4 0 000 .8h1.6a.4.4 0 000-.8zM6.692 1.717a.4.4 0 00-.576 0l-2.8 2.8a.4.4 0 00.566.566l2.8-2.8a.4.4 0 00.01-.566zM8.682 2.117a.4.4 0 00-.566 0l-4.8 4.8a.4.4 0 10.566.566l4.8-4.8a.4.4 0 000-.566zM8.8 10.4a.4.4 0 00-.4.4v2a.4.4 0 00.8 0v-2a.4.4 0 00-.4-.4z" fill="#fff"/></svg><svg fill="none" viewBox="0 0 60 61" id="compass-avenue" xmlns="http://www.w3.org/2000/svg"><circle cx="30" cy="31" r="24" stroke="#E1E3E5"/><path d="M54 31A24 24 0 019.349 43.225" stroke="#1BB0AC"/><path d="M29.686 15l-2.87 16h5.74l-2.87-16z" fill="#E1E3E5"/><path d="M29.685 47l2.87-16h-5.74l2.87 16z" fill="#1BB0AC"/><path fill="#fff" d="M0 25h12v12H0zM36 0v12H24V0zM48 25h12v12H48zM36 49v12H24V49z"/><path d="M55.32 30.928c.56.272.84.728.84 1.368 0 .504-.176.916-.528 1.236-.344.312-.836.468-1.476.468H51v-6h2.916c.632 0 1.12.156 1.464.468.352.312.528.72.528 1.224 0 .528-.196.94-.588 1.236zm-1.548-1.656h-1.32v1.08h1.32c.44 0 .66-.18.66-.54 0-.36-.22-.54-.66-.54zm.204 3.42c.448 0 .672-.192.672-.576a.48.48 0 00-.18-.396c-.12-.096-.284-.144-.492-.144h-1.524v1.116h1.524zM7.996 31.108c.608.296.912.772.912 1.428 0 .512-.212.94-.636 1.284-.424.344-1.02.516-1.788.516-1.216 0-2.044-.48-2.484-1.44l1.26-.744c.192.544.604.816 1.236.816.288 0 .508-.056.66-.168a.528.528 0 00.24-.456c0-.368-.236-.552-.708-.552h-.852v-1.32h.648c.464 0 .696-.184.696-.552a.501.501 0 00-.204-.42c-.136-.104-.316-.156-.54-.156-.52 0-.892.252-1.116.756l-1.248-.72c.456-.92 1.236-1.38 2.34-1.38.688 0 1.232.176 1.632.528.408.344.612.764.612 1.26 0 .584-.22 1.024-.66 1.32zM30.168 9.336c-.904 0-1.66-.304-2.268-.912-.6-.608-.9-1.36-.9-2.256 0-.896.3-1.648.9-2.256.608-.608 1.364-.912 2.268-.912.584 0 1.116.14 1.596.42.48.28.844.656 1.092 1.128l-1.332.78a1.349 1.349 0 00-.552-.588 1.555 1.555 0 00-.816-.216c-.464 0-.848.156-1.152.468-.304.304-.456.696-.456 1.176 0 .472.152.864.456 1.176.304.304.688.456 1.152.456.312 0 .588-.068.828-.204.248-.144.432-.34.552-.588l1.344.768a3.05 3.05 0 01-1.116 1.14 3.11 3.11 0 01-1.596.42zM31.46 52c.888 0 1.64.308 2.256.924.616.608.924 1.356.924 2.244 0 .888-.308 1.64-.924 2.256-.616.608-1.368.912-2.256.912-.752 0-1.408-.228-1.968-.684a3.067 3.067 0 01-1.08-1.764h-.864v2.28H26v-6h1.548v2.268h.876c.16-.712.52-1.296 1.08-1.752A3.006 3.006 0 0131.46 52zm-1.164 4.356c.312.312.7.468 1.164.468a1.58 1.58 0 001.164-.468c.312-.312.468-.708.468-1.188s-.156-.876-.468-1.188a1.58 1.58 0 00-1.164-.468 1.58 1.58 0 00-1.164.468c-.304.312-.456.708-.456 1.188s.152.876.456 1.188z" fill="#000"/></svg><svg fill="none" viewBox="0 0 60 61" id="compass-park" xmlns="http://www.w3.org/2000/svg"><circle cx="30" cy="31" r="24" stroke="#E1E3E5"/><path d="M54 31A24 24 0 019.349 43.225" stroke="#9BC130"/><path d="M29.686 15l-2.87 16h5.74l-2.87-16z" fill="#E1E3E5"/><path d="M29.685 47l2.87-16h-5.74l2.87 16z" fill="#9BC130"/><path fill="#fff" d="M0 25h12v12H0zM36 0v12H24V0zM48 25h12v12H48zM36 49v12H24V49z"/><path d="M55.32 30.928c.56.272.84.728.84 1.368 0 .504-.176.916-.528 1.236-.344.312-.836.468-1.476.468H51v-6h2.916c.632 0 1.12.156 1.464.468.352.312.528.72.528 1.224 0 .528-.196.94-.588 1.236zm-1.548-1.656h-1.32v1.08h1.32c.44 0 .66-.18.66-.54 0-.36-.22-.54-.66-.54zm.204 3.42c.448 0 .672-.192.672-.576a.48.48 0 00-.18-.396c-.12-.096-.284-.144-.492-.144h-1.524v1.116h1.524zM7.996 31.108c.608.296.912.772.912 1.428 0 .512-.212.94-.636 1.284-.424.344-1.02.516-1.788.516-1.216 0-2.044-.48-2.484-1.44l1.26-.744c.192.544.604.816 1.236.816.288 0 .508-.056.66-.168a.528.528 0 00.24-.456c0-.368-.236-.552-.708-.552h-.852v-1.32h.648c.464 0 .696-.184.696-.552a.501.501 0 00-.204-.42c-.136-.104-.316-.156-.54-.156-.52 0-.892.252-1.116.756l-1.248-.72c.456-.92 1.236-1.38 2.34-1.38.688 0 1.232.176 1.632.528.408.344.612.764.612 1.26 0 .584-.22 1.024-.66 1.32zM30.168 9.336c-.904 0-1.66-.304-2.268-.912-.6-.608-.9-1.36-.9-2.256 0-.896.3-1.648.9-2.256.608-.608 1.364-.912 2.268-.912.584 0 1.116.14 1.596.42.48.28.844.656 1.092 1.128l-1.332.78a1.349 1.349 0 00-.552-.588 1.555 1.555 0 00-.816-.216c-.464 0-.848.156-1.152.468-.304.304-.456.696-.456 1.176 0 .472.152.864.456 1.176.304.304.688.456 1.152.456.312 0 .588-.068.828-.204.248-.144.432-.34.552-.588l1.344.768a3.05 3.05 0 01-1.116 1.14 3.11 3.11 0 01-1.596.42zM31.46 52c.888 0 1.64.308 2.256.924.616.608.924 1.356.924 2.244 0 .888-.308 1.64-.924 2.256-.616.608-1.368.912-2.256.912-.752 0-1.408-.228-1.968-.684a3.067 3.067 0 01-1.08-1.764h-.864v2.28H26v-6h1.548v2.268h.876c.16-.712.52-1.296 1.08-1.752A3.006 3.006 0 0131.46 52zm-1.164 4.356c.312.312.7.468 1.164.468a1.58 1.58 0 001.164-.468c.312-.312.468-.708.468-1.188s-.156-.876-.468-1.188a1.58 1.58 0 00-1.164-.468 1.58 1.58 0 00-1.164.468c-.304.312-.456.708-.456 1.188s.152.876.456 1.188z" fill="#000"/></svg><svg fill="none" viewBox="0 0 60 61" id="compass-people" xmlns="http://www.w3.org/2000/svg"><circle cx="30" cy="31" r="24" stroke="#E1E3E5"/><path d="M54 31A24 24 0 019.349 43.225" stroke="#0090D7"/><path d="M29.686 15l-2.87 16h5.74l-2.87-16z" fill="#E1E3E5"/><path d="M29.685 47l2.87-16h-5.74l2.87 16z" fill="#0090D7"/><path fill="#fff" d="M0 25h12v12H0zM36 0v12H24V0zM48 25h12v12H48zM36 49v12H24V49z"/><path d="M55.32 30.928c.56.272.84.728.84 1.368 0 .504-.176.916-.528 1.236-.344.312-.836.468-1.476.468H51v-6h2.916c.632 0 1.12.156 1.464.468.352.312.528.72.528 1.224 0 .528-.196.94-.588 1.236zm-1.548-1.656h-1.32v1.08h1.32c.44 0 .66-.18.66-.54 0-.36-.22-.54-.66-.54zm.204 3.42c.448 0 .672-.192.672-.576a.48.48 0 00-.18-.396c-.12-.096-.284-.144-.492-.144h-1.524v1.116h1.524zM7.996 31.108c.608.296.912.772.912 1.428 0 .512-.212.94-.636 1.284-.424.344-1.02.516-1.788.516-1.216 0-2.044-.48-2.484-1.44l1.26-.744c.192.544.604.816 1.236.816.288 0 .508-.056.66-.168a.528.528 0 00.24-.456c0-.368-.236-.552-.708-.552h-.852v-1.32h.648c.464 0 .696-.184.696-.552a.501.501 0 00-.204-.42c-.136-.104-.316-.156-.54-.156-.52 0-.892.252-1.116.756l-1.248-.72c.456-.92 1.236-1.38 2.34-1.38.688 0 1.232.176 1.632.528.408.344.612.764.612 1.26 0 .584-.22 1.024-.66 1.32zM30.168 9.336c-.904 0-1.66-.304-2.268-.912-.6-.608-.9-1.36-.9-2.256 0-.896.3-1.648.9-2.256.608-.608 1.364-.912 2.268-.912.584 0 1.116.14 1.596.42.48.28.844.656 1.092 1.128l-1.332.78a1.349 1.349 0 00-.552-.588 1.555 1.555 0 00-.816-.216c-.464 0-.848.156-1.152.468-.304.304-.456.696-.456 1.176 0 .472.152.864.456 1.176.304.304.688.456 1.152.456.312 0 .588-.068.828-.204.248-.144.432-.34.552-.588l1.344.768a3.05 3.05 0 01-1.116 1.14 3.11 3.11 0 01-1.596.42zM31.46 52c.888 0 1.64.308 2.256.924.616.608.924 1.356.924 2.244 0 .888-.308 1.64-.924 2.256-.616.608-1.368.912-2.256.912-.752 0-1.408-.228-1.968-.684a3.067 3.067 0 01-1.08-1.764h-.864v2.28H26v-6h1.548v2.268h.876c.16-.712.52-1.296 1.08-1.752A3.006 3.006 0 0131.46 52zm-1.164 4.356c.312.312.7.468 1.164.468a1.58 1.58 0 001.164-.468c.312-.312.468-.708.468-1.188s-.156-.876-.468-1.188a1.58 1.58 0 00-1.164-.468 1.58 1.58 0 00-1.164.468c-.304.312-.456.708-.456 1.188s.152.876.456 1.188z" fill="#000"/></svg><svg fill="none" viewBox="0 0 12 4" id="dropdown" xmlns="http://www.w3.org/2000/svg"><circle cx="2" cy="2" r="2" fill="#89919A"/><circle cx="10" cy="2" r="2" fill="#89919A"/></svg><svg fill="none" viewBox="0 0 12 4" id="dropdown-active" xmlns="http://www.w3.org/2000/svg"><circle cx="2" cy="2" r="2" fill="#fff"/><circle cx="10" cy="2" r="2" fill="#fff"/></svg><svg fill="none" viewBox="0 0 24 8" id="dropdown-big-black" xmlns="http://www.w3.org/2000/svg"><circle cx="4" cy="4" r="4" fill="#222630"/><circle cx="20" cy="4" r="4" fill="#222630"/></svg><svg fill="none" viewBox="0 0 10 4" id="dropdown-black" xmlns="http://www.w3.org/2000/svg"><g opacity=".8" fill="#89919A"><circle cx="2" cy="2" r="2"/><circle cx="8" cy="2" r="2"/></g></svg><svg fill="none" viewBox="0 0 10 4" id="dropdown-black-active" xmlns="http://www.w3.org/2000/svg"><circle cx="2" cy="2" r="2" fill="#222630"/><circle cx="8" cy="2" r="2" fill="#222630"/></svg><svg fill="none" viewBox="0 0 10 4" id="dropdown-main" xmlns="http://www.w3.org/2000/svg"><g opacity=".8" fill="#fff"><circle cx="2" cy="2" r="2"/><circle cx="8" cy="2" r="2"/></g></svg><svg fill="none" viewBox="0 0 10 4" id="dropdown-main-active" xmlns="http://www.w3.org/2000/svg"><circle cx="2" cy="2" r="2" fill="#fff"/><circle cx="8" cy="2" r="2" fill="#fff"/></svg><svg fill="none" viewBox="0 0 17 17" id="facebook" xmlns="http://www.w3.org/2000/svg"><path d="M17 2.819C17 1.32 15.679 0 14.181 0H2.82C1.32 0 0 1.321 0 2.819V14.18C0 15.68 1.321 17 2.819 17h5.725v-6.43H6.43V7.75h2.114V6.606c0-1.938 1.41-3.611 3.171-3.611h2.29v2.818h-2.29c-.264 0-.528.265-.528.793v1.145h2.818v2.819h-2.819V17h2.995C15.68 17 17 15.679 17 14.181V2.82z" fill="#222630"/></svg><svg fill="none" viewBox="0 0 17 17" id="facebook-white" xmlns="http://www.w3.org/2000/svg"><path d="M17 2.819C17 1.32 15.679 0 14.181 0H2.82C1.32 0 0 1.321 0 2.819V14.18C0 15.68 1.321 17 2.819 17h5.725v-6.43H6.43V7.75h2.114V6.606c0-1.938 1.41-3.611 3.171-3.611h2.29v2.818h-2.29c-.264 0-.528.265-.528.793v1.145h2.818v2.819h-2.819V17h2.995C15.68 17 17 15.679 17 14.181V2.82z" fill="#fff"/></svg><svg fill="none" viewBox="0 0 41 41" id="fitness" xmlns="http://www.w3.org/2000/svg"><g clip-path="url(#awclip0)"><path d="M39.63 14.2A4.681 4.681 0 0041 10.9a4.681 4.681 0 00-1.37-3.3l-2.164-2.17 1.763-1.771-1.93-1.934-1.725 1.763-2.21-2.163a4.746 4.746 0 00-3.3-1.327 4.746 4.746 0 00-3.3 1.327l-.803.8a5.163 5.163 0 00-1.673-1.096 5.252 5.252 0 00-1.975-.385 5.354 5.354 0 00-3.721 1.56 5.127 5.127 0 00-1.509 3.677 5.214 5.214 0 001.514 3.704l2.687 2.689L12.3 21.28l-2.687-2.689a5.12 5.12 0 00-1.684-1.148 5.211 5.211 0 00-2.01-.407 5.396 5.396 0 00-2.026.418 5.302 5.302 0 00-1.708 1.147 5.175 5.175 0 00-1.128 1.7 5.088 5.088 0 00-.376 1.994 5.238 5.238 0 001.514 3.652l-.825.807a4.681 4.681 0 00-1.369 3.3c0 1.233.491 2.416 1.37 3.3l2.164 2.2-1.771 1.74L3.7 39.26l1.764-1.77 2.172 2.17c.427.433.94.778 1.506 1.014a4.665 4.665 0 003.581 0 4.582 4.582 0 001.505-1.014l.81-.808a5.116 5.116 0 001.672 1.1 5.206 5.206 0 001.977.382 5.355 5.355 0 003.72-1.56 5.128 5.128 0 001.51-3.677 5.215 5.215 0 00-1.514-3.704l-2.725-2.704 9.022-9.014 2.687 2.689a5.123 5.123 0 001.687 1.135 5.212 5.212 0 002.006.398 5.354 5.354 0 003.726-1.558 5.128 5.128 0 001.512-3.68 5.238 5.238 0 00-1.514-3.651l.825-.807zM31.433 3.258L37.7 9.533c.365.365.57.856.57 1.367 0 .51-.205 1-.57 1.366l-.802.8-9-9.007.803-.8a1.967 1.967 0 011.366-.549c.511 0 1.002.197 1.366.549zM9.567 37.696L3.3 31.422a1.934 1.934 0 01-.565-1.363c0-.51.203-.998.565-1.363l.803-.808 8.999 9.008-.803.8a1.967 1.967 0 01-1.366.548 1.967 1.967 0 01-1.366-.548zm11.626-2.615a2.454 2.454 0 01-.727 1.754 2.562 2.562 0 01-1.779.742 2.538 2.538 0 01-.957-.197 2.493 2.493 0 01-.806-.543L4.148 24.067a2.516 2.516 0 01-.664-1.798c.026-.66.313-1.286.8-1.743a2.489 2.489 0 011.7-.667c.632 0 1.24.239 1.699.666l12.753 12.808c.476.472.747 1.107.757 1.77v-.022zm-3.429-8.326l-3.534-3.54 9.006-9.015 3.527 3.577-8.999 8.978zm17.317-5.592a2.514 2.514 0 01-.958-.196 2.47 2.47 0 01-.805-.545L20.55 7.644a2.516 2.516 0 01-.664-1.797c.025-.661.312-1.286.8-1.744a2.504 2.504 0 011.699-.66c.632 0 1.24.236 1.7.66l12.768 12.785c.467.476.728 1.11.728 1.77 0 .66-.261 1.295-.728 1.771a2.483 2.483 0 01-.806.544 2.53 2.53 0 01-.958.197" fill="#F65C5C"/></g><defs><clipPath id="awclip0"><path fill="#fff" d="M0 0h41v41H0z"/></clipPath></defs></svg><svg fill="none" viewBox="0 0 196 43" id="gazprom" xmlns="http://www.w3.org/2000/svg"><g clip-path="url(#axclip0)"><path fill-rule="evenodd" clip-rule="evenodd" d="M40.842 21.294A20.648 20.648 0 0120.65 42.23 20.647 20.647 0 01.361 21.294 20.647 20.647 0 0120.65.372a20.647 20.647 0 0120.192 20.922z" fill="#fff"/><path fill-rule="evenodd" clip-rule="evenodd" d="M.718 21.294A20.261 20.261 0 0120.65.73a20.261 20.261 0 0119.834 20.564A20.26 20.26 0 0120.65 41.858 20.248 20.248 0 01.718 21.294zm-.716 0A20.977 20.977 0 0020.65 42.588a20.99 20.99 0 0020.646-21.294A20.99 20.99 0 0020.65 0 20.977 20.977 0 00.002 21.294z" fill="#224E75"/><path fill-rule="evenodd" clip-rule="evenodd" d="M33.698 19.133c-.151.138-.317.262-.51.413a15.515 15.515 0 01-5.422 2.312c-5.176 1.377-8.92 1.656-13.2 2.756a16.5 16.5 0 00-2.491.84c.8.4 1.652.8 2.533 1.142a37.156 37.156 0 015.078-1.182c.964-.179 3.909-.7 6.043-1.17 3.84-.853 9.47-2.753 7.97-5.093l-.001-.018zm-2.478-5a19.256 19.256 0 00-2.918-1.06 6.679 6.679 0 01-1.858 1.074c1.187.26 2.359.587 3.51.977.207.113 1.129-.78 1.267-.988l-.001-.003zm-18.83 5.313c5.01-1.528 10.3-2 15.637-3.469a11.74 11.74 0 00-5.437-.55 57.224 57.224 0 00-9.745 2.036c-1.184.427-7.337 2.175-5.616 4.735 0 0 1.032-1.55 5.162-2.749l-.001-.003zm-3.468 8.768a1.79 1.79 0 00.88 1.38c.075-.253.202-.487.373-.688-.427-.22-.853-.468-1.253-.716v.024zm2.35-.244a8.248 8.248 0 011.377-.674 49.195 49.195 0 01-2.19-.99c-.298.194-.575.42-.825.673.564.344 1.129.674 1.707.991h-.068zm19.27-11.012a25.767 25.767 0 01-4.541 1.528c-1.707.44-5.877 1.06-10.337 2.065-1.376.317-5.258 1.253-7.13 2.9.427.344.888.644 1.376.895a11.658 11.658 0 013.414-1.445 61.928 61.928 0 017.323-1.514 64.144 64.144 0 009.635-2.34 8.137 8.137 0 002.175-1.156 7.735 7.735 0 00-1.872-.95l-.042.017zm1.488-.936c.478.215.939.468 1.376.757.317-.619.124-1.019-.537-1.6-.253.31-.54.592-.853.84l.014.003zM8.633 25.414c-.44-.275-.743-.454-1.13-.716-.205.454.18.95.593 1.2.169-.172.348-.334.537-.484zm21.43-14.4a2.96 2.96 0 01-.715 1.046c.757.206 1.528.5 2.257.771-.1-.688-.881-1.376-1.542-1.817zM6.418 15.458c5.272-3.565 11.08-5.643 20.95-3.882a1.8 1.8 0 00.99-1.376 22.793 22.793 0 00-8.584-1.186 28.63 28.63 0 00-11.686 3.18l.904-1.18a28.906 28.906 0 0111.658-3.017c2.64-.122 5.28.237 7.79 1.06-.3-.606-1.018-.908-2.036-1.376-3.372-1.555-9.553-1.693-14.618.578a18.254 18.254 0 012.088-1.225 17.894 17.894 0 017.818-1.487 11.741 11.741 0 017.96 3.067c.287.34.494.74.607 1.17a6.758 6.758 0 013 2.6 2.6 2.6 0 01.193 1.542c.511.299.952.704 1.293 1.188.23.36.385.763.454 1.184a2.148 2.148 0 01-.4 1.748c.495.32.857.81 1.019 1.376a3.812 3.812 0 01-1.514 3.36 16.327 16.327 0 01-5.78 2.832c-4.13 1.074-7.763 1.528-10.668 2.078 1.94.517 3.939.771 5.946.757a27.048 27.048 0 0011.6-3.014l-.248.73a26.952 26.952 0 01-12.78 3.36 27.38 27.38 0 01-7.23-1.31c-.67.17-1.324.401-1.954.687a22.948 22.948 0 008.837 2.175 31.922 31.922 0 0011.947-2.047c-.193.193-.29.5-.482.688a27.077 27.077 0 01-8.81 2.381 32.324 32.324 0 01-7.322-.44 23.75 23.75 0 01-5.423-1.858 1.294 1.294 0 00-.537.895c6.786 3.661 13.13 3.744 20.358 1.376l-.661.661a21.626 21.626 0 01-19-.358 3.18 3.18 0 01-.482-.248 13.352 13.352 0 008.259 3.923 20.14 20.14 0 008.34-1.1l-1.2.647a14.15 14.15 0 01-7.308 1.376 13.765 13.765 0 01-8.906-3.77 3.5 3.5 0 01-1.02-1.956 5.8 5.8 0 01-2.38-2.16 2.326 2.326 0 01-.22-1.556c.028-.154.07-.306.124-.454a4.902 4.902 0 01-1.294-1.253 2.216 2.216 0 01.164-2.286 3.745 3.745 0 01-.661-1.1 3.193 3.193 0 01-.11-1.253 3.882 3.882 0 01.99-2.05 12.113 12.113 0 015.644-3.263 48.345 48.345 0 016.084-1.624 71.297 71.297 0 007.953-1.695 26.153 26.153 0 00-20.028 4.13l.372-1.225z" fill="#224E75"/><path d="M67.133 17.591l.784 5.68h-1.583l.8-5.68zm-6.222 13.007h4.25l.51-3.22h2.917l.51 3.22h4.252l-3.589-18.637h-5.257l-3.593 18.637zM77.36 19.174a1.857 1.857 0 001.913-1.831 1.664 1.664 0 00-1.844-1.721 5.246 5.246 0 00-2.3.523v-4.033a12.905 12.905 0 013.66-.482 4.681 4.681 0 014.914 4.887 4.542 4.542 0 01-2.588 4.336v.193a4.3 4.3 0 012.849 4.46 5.133 5.133 0 01-5.41 5.506 7.116 7.116 0 01-3.963-.977v-3.87a6.138 6.138 0 002.753.565 1.775 1.775 0 001.886-1.776c0-1.046-.647-1.748-2.065-1.748h-1.6v-3.991l1.795-.041zM85.935 11.961h11.411v18.637h-4.17V16.434h-3.057v14.164h-4.184V11.961zM103.925 16.063h.991c.95 0 1.542.578 1.542 2.134 0 2.01-.991 2.147-1.542 2.147h-.991v-4.28zm-4.13 14.535h4.13v-6.153h1.376c4.129 0 5.423-3.84 5.423-6.29s-1.458-6.194-5.422-6.194h-5.561l.055 18.637zM118.488 26.318c-1.473 0-2.23-1.776-2.23-5.065 0-3.29.757-5.065 2.23-5.065 1.473 0 2.244 1.776 2.244 5.065 0 3.289-.771 5.065-2.244 5.065zm0 4.5c4.969 0 6.635-4.776 6.635-9.635 0-4.86-1.666-9.566-6.635-9.566-4.969 0-6.621 4.79-6.621 9.635s1.666 9.566 6.621 9.566zM147.435 26.871V22.63h.619c.482 0 1.8 0 1.8 1.941s-1.376 2.3-1.8 2.3l-.619.001zm-4.129 3.73h5c1.074 0 5.6-.468 5.6-6.11 0-4.764-3.5-5.589-5.767-5.589h-.743v-2.48h5.506v-4.46h-9.638l.042 18.64zM169.004 11.961h4.1v6.7h2.92v-6.7h4.1v18.637h-4.1v-7.46h-2.918v7.46h-4.1l-.002-18.637zM182.865 11.961h4.1l-.014 6.7h.895l2.34-6.7h4.46l-3.193 8.837 3.634 9.8h-4.818l-2.34-7.5h-.977l.014 7.5h-4.1l-.001-18.637zM52.817 11.961h8.575v4.64H57.07v14h-4.253V11.96zM127.132 11.961h3.551l3.138 4.391 3.151-4.39h3.551v18.636h-4.184V19.23l-2.517 3.262-2.505-3.262V30.6h-4.185V11.961zM161.047 17.619l.785 5.685h-1.585l.8-5.685zm-6.22 13.007h4.253l.509-3.221h2.835l.509 3.221h4.253l-3.563-18.637h-5.258l-3.538 18.637z" fill="#224E75"/></g><defs><clipPath id="axclip0"><path fill="#fff" d="M0 0h195.088v42.587H0z"/></clipPath></defs></svg><svg viewBox="0 0 155 60" id="gp" xmlns="http://www.w3.org/2000/svg"><defs><linearGradient id="aya" x1="31.8" y1="183.29" x2="15.02" y2="166.51" gradientTransform="matrix(1 0 0 -1 0 202)" gradientUnits="userSpaceOnUse"><stop offset="0" stop-color="#00a0ff"/><stop offset=".01" stop-color="#00a1ff"/><stop offset=".26" stop-color="#00beff"/><stop offset=".51" stop-color="#00d2ff"/><stop offset=".76" stop-color="#00dfff"/><stop offset="1" stop-color="#00e3ff"/></linearGradient><linearGradient id="ayb" x1="43.83" y1="172" x2="19.64" y2="172" gradientTransform="matrix(1 0 0 -1 0 202)" gradientUnits="userSpaceOnUse"><stop offset="0" stop-color="#ffe000"/><stop offset=".41" stop-color="#ffbd00"/><stop offset=".78" stop-color="orange"/><stop offset="1" stop-color="#ff9c00"/></linearGradient><linearGradient id="ayc" x1="34.83" y1="169.7" x2="12.07" y2="146.95" gradientTransform="matrix(1 0 0 -1 0 202)" gradientUnits="userSpaceOnUse"><stop offset="0" stop-color="#ff3a44"/><stop offset="1" stop-color="#c31162"/></linearGradient><linearGradient id="ayd" x1="17.3" y1="191.82" x2="27.46" y2="181.66" gradientTransform="matrix(1 0 0 -1 0 202)" gradientUnits="userSpaceOnUse"><stop offset="0" stop-color="#32a071"/><stop offset=".07" stop-color="#2da771"/><stop offset=".48" stop-color="#15cf74"/><stop offset=".8" stop-color="#06e775"/><stop offset="1" stop-color="#00f076"/></linearGradient></defs><path fill="none" d="M0 0h155v60H0z"/><rect x="10" y="10" width="135" height="40" rx="5" ry="5"/><path d="M140 10.8a4.2 4.2 0 014.2 4.2v30a4.2 4.2 0 01-4.2 4.2H15a4.2 4.2 0 01-4.2-4.2V15a4.2 4.2 0 014.2-4.2h125m0-.8H15a5 5 0 00-5 5v30a5 5 0 005 5h125a5 5 0 005-5V15a5 5 0 00-5-5z" fill="#a6a6a6"/><path d="M57.42 20.24a2.71 2.71 0 01-.75 2 2.91 2.91 0 01-2.2.89 3.15 3.15 0 01-2.21-5.37 3 3 0 012.21-.9 3.1 3.1 0 011.23.25 2.47 2.47 0 01.94.67l-.53.53a2 2 0 00-1.64-.71 2.32 2.32 0 00-2.33 2.4 2.36 2.36 0 004 1.73 1.89 1.89 0 00.5-1.22h-2.17v-.72h2.91a2.54 2.54 0 01.04.45zm4.58-2.5h-2.7v1.9h2.46v.72H59.3v1.9H62V23h-3.5v-6H62zM65.28 23h-.77v-5.26h-1.68V17H67v.74h-1.72zm4.66 0v-6h.77v6zm4.19 0h-.77v-5.26h-1.68V17h4.12v.74h-1.67zm9.48-.78a3.12 3.12 0 01-4.4 0 3.24 3.24 0 010-4.45 3.1 3.1 0 014.4 0 3.23 3.23 0 010 4.45zm-3.83-.5a2.31 2.31 0 003.26 0 2.56 2.56 0 000-3.44 2.31 2.31 0 00-3.26 0 2.56 2.56 0 000 3.44zm5.8 1.28v-6h.94l2.92 4.67V17h.77v6h-.8l-3.05-4.89V23z" fill="#fff" stroke="#fff" stroke-miterlimit="10" stroke-width=".2"/><path d="M78.14 31.75A4.25 4.25 0 1082.41 36a4.19 4.19 0 00-4.27-4.25zm0 6.83a2.58 2.58 0 112.4-2.58 2.46 2.46 0 01-2.4 2.58zm-9.31-6.83A4.25 4.25 0 1073.09 36a4.19 4.19 0 00-4.27-4.25zm0 6.83A2.58 2.58 0 1171.22 36a2.46 2.46 0 01-2.4 2.58zm-11.09-5.52v1.8h4.32a3.77 3.77 0 01-1 2.27 4.42 4.42 0 01-3.33 1.32 4.8 4.8 0 010-9.6A4.6 4.6 0 0161 30.14l1.27-1.27A6.29 6.29 0 0057.74 27a6.61 6.61 0 100 13.21 6 6 0 004.61-1.85 6 6 0 001.56-4.22 5.87 5.87 0 00-.1-1.13zm45.31 1.4a4 4 0 00-3.64-2.71 4 4 0 00-4 4.25 4.16 4.16 0 004.22 4.25 4.23 4.23 0 003.54-1.88l-1.45-1a2.43 2.43 0 01-2.09 1.18 2.16 2.16 0 01-2.06-1.29l5.69-2.35zm-5.8 1.42a2.33 2.33 0 012.22-2.48 1.65 1.65 0 011.58.9zM92.63 40h1.87V27.5h-1.87zm-3.06-7.3h-.07a3 3 0 00-2.24-1 4.26 4.26 0 000 8.51 2.9 2.9 0 002.24-1h.06v.61c0 1.63-.87 2.5-2.27 2.5a2.35 2.35 0 01-2.14-1.51l-1.63.68A4.05 4.05 0 0087.29 44c2.19 0 4-1.29 4-4.43V32h-1.72zm-2.14 5.88a2.59 2.59 0 010-5.16A2.4 2.4 0 0189.7 36a2.38 2.38 0 01-2.28 2.58zm24.38-11.08h-4.47V40h1.87v-4.74h2.61a3.89 3.89 0 100-7.76zm0 6h-2.61v-4.26h2.65a2.14 2.14 0 110 4.29zm11.53-1.8a3.5 3.5 0 00-3.33 1.91l1.66.69a1.77 1.77 0 011.7-.92 1.8 1.8 0 012 1.61v.13a4.13 4.13 0 00-1.95-.48c-1.79 0-3.6 1-3.6 2.81a2.89 2.89 0 003.1 2.75 2.63 2.63 0 002.4-1.2h.06v1h1.8v-4.81c0-2.19-1.66-3.46-3.79-3.46zm-.23 6.85c-.61 0-1.46-.31-1.46-1.06 0-1 1.06-1.33 2-1.33a3.32 3.32 0 011.7.42 2.26 2.26 0 01-2.19 2zM133.74 32l-2.14 5.42h-.06L129.32 32h-2l3.33 7.58-1.9 4.21h1.95L135.82 32zm-16.81 8h1.87V27.5h-1.87z" fill="#fff"/><path d="M20.44 17.54a2 2 0 00-.46 1.4v22.12a2 2 0 00.46 1.4l.07.07L32.9 30.15v-.29L20.51 17.47z" fill="url(#aya)"/><path d="M37 34.28l-4.1-4.13v-.29l4.1-4.14.09.05L42 28.56c1.4.79 1.4 2.09 0 2.89l-4.89 2.78z" fill="url(#ayb)"/><path d="M37.12 34.22L32.9 30 20.44 42.46a1.63 1.63 0 002.08.06l14.61-8.3" fill="url(#ayc)"/><path d="M37.12 25.78l-14.61-8.3a1.63 1.63 0 00-2.08.06L32.9 30z" fill="url(#ayd)"/><path d="M37 34.13l-14.49 8.25a1.67 1.67 0 01-2 0l-.07.07.07.07a1.66 1.66 0 002 0l14.61-8.3z" style="isolation:isolate" opacity=".2"/><path d="M20.44 42.32a2 2 0 01-.46-1.4v.15a2 2 0 00.46 1.4l.07-.07zM42 31.3l-5 2.83.09.09L42 31.44A1.75 1.75 0 0043 30a1.86 1.86 0 01-1 1.3z" style="isolation:isolate" opacity=".12"/><path d="M22.51 17.62L42 28.7a1.86 1.86 0 011 1.3 1.75 1.75 0 00-1-1.44L22.51 17.48c-1.4-.79-2.54-.13-2.54 1.47v.15c.03-1.61 1.15-2.27 2.54-1.48z" style="isolation:isolate" fill="#fff" opacity=".25"/></svg><svg fill="none" viewBox="0 0 12 12" id="icon-check" xmlns="http://www.w3.org/2000/svg"><g clip-path="url(#azclip0)"><path d="M10.56 1.607L4.654 7.514 1.439 4.301 0 5.741l4.653 4.652L12 3.046l-1.44-1.44z" fill="#222630"/></g><defs><clipPath id="azclip0"><path fill="#fff" d="M0 0h12v12H0z"/></clipPath></defs></svg><svg fill="none" viewBox="0 0 24 24" id="icon-close" xmlns="http://www.w3.org/2000/svg"><g opacity=".5" clip-path="url(#baclip0)"><path d="M14.199 12.02l9.345-9.345a1.553 1.553 0 000-2.2 1.553 1.553 0 00-2.199 0L12 9.822 2.655.476a1.553 1.553 0 00-2.199 0 1.553 1.553 0 000 2.199l9.345 9.345-9.345 9.345a1.553 1.553 0 001.1 2.655 1.55 1.55 0 001.099-.456L12 14.219l9.345 9.345a1.55 1.55 0 002.199 0 1.553 1.553 0 000-2.199l-9.345-9.345z" fill="#fff"/></g><defs><clipPath id="baclip0"><path fill="#fff" d="M0 0h24v24H0z"/></clipPath></defs></svg><svg fill="none" viewBox="0 0 16 17" id="icon-close-black" xmlns="http://www.w3.org/2000/svg"><path d="M9.466 8.014l6.23-6.23A1.035 1.035 0 1014.23.317L8 6.548 1.77.318A1.036 1.036 0 10.304 1.783l6.23 6.23-6.23 6.23a1.035 1.035 0 00.733 1.77c.265 0 .53-.101.733-.303L8 9.48l6.23 6.23a1.034 1.034 0 001.466 0 1.035 1.035 0 000-1.466l-6.23-6.23z" fill="#222630"/></svg><svg fill="none" viewBox="0 0 16 16" id="icon-download" xmlns="http://www.w3.org/2000/svg"><path fill-rule="evenodd" clip-rule="evenodd" d="M13 12a1 1 0 110 2H3a1 1 0 110-2h10zm-5-2l-.082-.004-.119-.016-.111-.03-.111-.044-.098-.052-.074-.05-.112-.097-2-2a1 1 0 011.32-1.497l.094.083.293.292V3a1 1 0 012 0v3.585l.293-.292a1 1 0 011.32-.083l.094.083a1 1 0 01.083 1.32l-.083.094-2 2-.044.041-.068.056-.11.071-.062.031-.081.034-.076.024-.149.03L8 10z" fill="#222630"/></svg><svg fill="none" viewBox="0 0 12 12" id="icon-play" xmlns="http://www.w3.org/2000/svg"><path d="M6 0a6 6 0 100 12A6 6 0 006 0zm2.074 6.318l-3 1.875a.375.375 0 01-.574-.318v-3.75a.375.375 0 01.574-.318l3 1.875a.375.375 0 010 .636z" fill="#fff"/></svg><svg fill="none" viewBox="0 0 12 12" id="icon-reset" xmlns="http://www.w3.org/2000/svg"><g clip-path="url(#beclip0)"><path d="M7.1 6.01l4.672-4.673a.776.776 0 10-1.1-1.1L6 4.91 1.327.238A.777.777 0 10.228 1.337L4.901 6.01.228 10.682a.776.776 0 101.1 1.1L6 7.109l4.673 4.673a.775.775 0 001.099 0 .776.776 0 000-1.1L7.099 6.01z" fill="#F49528"/></g><defs><clipPath id="beclip0"><path fill="#fff" d="M0 0h12v12H0z"/></clipPath></defs></svg><svg fill="none" viewBox="0 0 172 221" id="icon-s" xmlns="http://www.w3.org/2000/svg"><path d="M64.03 65.296c0 8.929 12.693 16.602 38.082 23.02 8.928 1.954 17.019 4.325 24.272 7.116 7.254 2.511 14.508 6.278 21.762 11.301 7.533 4.744 13.392 11.162 17.577 19.254 4.185 8.092 6.277 17.44 6.277 28.043 0 21.486-8.091 38.089-24.272 49.809C131.546 215.28 111.598 221 87.883 221 44.918 221 15.623 204.397 0 171.191l46.871-26.369c6.417 18.138 20.088 27.206 41.012 27.206 19.251 0 28.876-5.999 28.876-17.998 0-8.929-12.694-16.603-38.083-23.021-9.485-2.511-17.576-5.022-24.272-7.534-6.696-2.511-13.95-6.139-21.762-10.882-7.812-5.023-13.81-11.301-17.995-18.835-3.906-7.814-5.859-16.882-5.859-27.207 0-20.649 7.533-36.833 22.599-48.553C46.732 6 65.703 0 88.302 0c17.018 0 32.503 3.907 46.452 11.72 13.95 7.534 24.97 18.416 33.061 32.647l-46.034 25.114c-6.696-14.231-17.856-21.346-33.48-21.346-6.974 0-12.833 1.674-17.576 5.022-4.464 3.07-6.696 7.116-6.696 12.139z" fill="#E1E3E5"/></svg><svg fill="none" viewBox="0 0 16 16" id="icon-sort" xmlns="http://www.w3.org/2000/svg"><path d="M6.222 13.333h3.556v-1.777H6.222v1.777zM0 2.667v1.777h16V2.667H0zm2.667 6.222h10.666V7.11H2.667V8.89z" fill="#222630"/></svg><svg fill="none" viewBox="0 0 16 16" id="icon-sort-blue" xmlns="http://www.w3.org/2000/svg"><path d="M6.222 13.333h3.556v-1.778H6.222v1.778zM0 2.667v1.777h16V2.667H0zm2.667 6.222h10.666V7.11H2.667v1.778z" fill="#0090D7"/></svg><svg fill="none" viewBox="0 0 17 17" id="instagram" xmlns="http://www.w3.org/2000/svg"><path d="M14.58 0H2.42C1.045 0 0 1.046 0 2.42v12.16C0 15.955 1.046 17 2.42 17h12.16c1.374 0 2.42-1.046 2.42-2.42V2.42C17 1.045 15.954 0 14.58 0zM8.5 13.6c2.812 0 5.1-2.223 5.1-4.904 0-.458-.065-.98-.196-1.373h1.438v6.93a.655.655 0 01-.654.655H2.813a.655.655 0 01-.654-.654V7.258h1.504c-.131.457-.197.915-.197 1.373C3.4 11.377 5.688 13.6 8.5 13.6zm0-1.961c-1.83 0-3.27-1.439-3.27-3.204 0-1.766 1.44-3.204 3.27-3.204s3.27 1.438 3.27 3.204c0 1.83-1.44 3.204-3.27 3.204zm6.277-6.997c0 .393-.327.72-.72.72h-1.83a.726.726 0 01-.72-.72V2.877c0-.392.328-.72.72-.72h1.83c.393 0 .72.328.72.72v1.765z" fill="#222630"/></svg><svg fill="none" viewBox="0 0 17 17" id="instagram-white" xmlns="http://www.w3.org/2000/svg"><path d="M14.58 0H2.42C1.045 0 0 1.046 0 2.42v12.16C0 15.955 1.046 17 2.42 17h12.16c1.374 0 2.42-1.046 2.42-2.42V2.42C17 1.045 15.954 0 14.58 0zM8.5 13.6c2.812 0 5.1-2.223 5.1-4.904 0-.458-.065-.98-.196-1.373h1.438v6.93a.655.655 0 01-.654.655H2.813a.655.655 0 01-.654-.654V7.258h1.504c-.131.457-.197.915-.197 1.373C3.4 11.377 5.688 13.6 8.5 13.6zm0-1.961c-1.83 0-3.27-1.439-3.27-3.204 0-1.766 1.44-3.204 3.27-3.204s3.27 1.438 3.27 3.204c0 1.83-1.44 3.204-3.27 3.204zm6.277-6.997c0 .393-.327.72-.72.72h-1.83a.726.726 0 01-.72-.72V2.877c0-.392.328-.72.72-.72h1.83c.393 0 .72.328.72.72v1.765z" fill="#fff"/></svg><svg fill="none" viewBox="0 0 39 43" id="kindergarten" xmlns="http://www.w3.org/2000/svg"><path d="M36.322 6.426L19.5 0 2.678 6.426a4.206 4.206 0 00-1.94 1.53A4.163 4.163 0 000 10.304v2.229h18.109v6.917h2.782v-6.895H39v-2.229a4.178 4.178 0 00-.74-2.346 4.221 4.221 0 00-1.938-1.531v-.023zM2.887 9.784a1.39 1.39 0 01.793-.743l15.82-6.07L35.32 9.02a1.423 1.423 0 01.793.743l-33.226.022zM32.06 29.16a5.523 5.523 0 00-1.635-3.911 5.6 5.6 0 00-3.938-1.623H15.32a6.9 6.9 0 00-2.042-4.889 6.995 6.995 0 00-4.922-2.028H4.181a4.196 4.196 0 00-2.956 1.216A4.139 4.139 0 000 20.861v1.382a4.146 4.146 0 001.227 2.934 4.203 4.203 0 002.954 1.219h1.391c.37 0 .723.145.984.404.261.26.408.611.408.978v12.458H0V43h39v-2.764h-6.964l.023-11.076zm-13.95-2.763h5.565v2.764c0 .367-.147.719-.407.98-.261.26-.615.407-.985.409H19.5a1.403 1.403 0 01-.984-.41 1.385 1.385 0 01-.407-.98v-2.763zM5.572 23.625h-1.39c-.37 0-.724-.146-.985-.405-.26-.26-.407-.61-.407-.977V20.86c0-.367.146-.72.407-.98.26-.26.615-.407.984-.41h4.174c1.108.003 2.17.441 2.954 1.22a4.146 4.146 0 011.227 2.934c0 .733.293 1.437.815 1.957a2.8 2.8 0 001.968.814v2.764c0 1.1.44 2.157 1.224 2.936a4.196 4.196 0 002.957 1.216h2.782a4.204 4.204 0 002.957-1.216 4.15 4.15 0 001.225-2.936v-2.764a2.8 2.8 0 011.965.811c.522.518.815 1.22.817 1.953v11.076h-2.782v-5.534h-2.79v5.534h-8.355v-5.534h-2.783v5.534H9.724V27.778a4.138 4.138 0 00-1.214-2.926 4.196 4.196 0 00-2.938-1.227z" fill="#F49528"/></svg><svg fill="none" viewBox="0 0 14 14" id="location-blue" xmlns="http://www.w3.org/2000/svg"><path d="M7 0a5.256 5.256 0 00-5.25 5.25c0 3.873 4.844 8.477 5.05 8.67a.292.292 0 00.4 0c.206-.193 5.05-4.797 5.05-8.67A5.256 5.256 0 007 0zm0 8.167A2.92 2.92 0 014.083 5.25 2.92 2.92 0 017 2.333 2.92 2.92 0 019.917 5.25 2.92 2.92 0 017 8.167z" fill="#0090D7"/></svg><svg fill="none" viewBox="0 0 14 23" id="ok" xmlns="http://www.w3.org/2000/svg"><path d="M13.238 13.793c.524-.525.6-1.274.15-2.024-.375-.6-1.05-.9-1.8-.75-.3.075-.6.225-.899.45-2.324 1.574-5.472 1.5-7.796-.075l-.45-.225c-.824-.375-1.649-.225-2.099.525-.524.75-.45 1.574.225 2.249.15.15.3.225.375.375l.075.075c1.05.824 2.324 1.349 3.973 1.574l-.975.974L1.47 19.49c-.225.225-.525.6-.525 1.124 0 .675.375 1.35 1.05 1.65.224.15.45.15.674.15.375 0 .825-.15 1.125-.525l2.923-2.924.075-.075s.075 0 .075.075c.6.675 1.274 1.274 1.874 1.95l.9.899c.374.375.674.524 1.124.524.675.075 1.424-.374 1.724-1.05.3-.599.15-1.348-.375-1.798-.75-.75-1.499-1.574-2.324-2.324l-1.274-1.274c.675-.075 1.424-.225 2.099-.525 1.124-.375 1.949-.9 2.624-1.574z" fill="#222630"/><path d="M6.791 11.694c3.223 0 5.847-2.549 5.847-5.772 0-1.574-.6-3.073-1.724-4.198C9.789.6 8.365 0 6.866 0 3.643 0 1.094 2.624 1.019 5.772c0 1.574.6 2.998 1.724 4.123 1.05 1.2 2.474 1.799 4.048 1.799zm-1.65-7.496c.45-.45 1.05-.675 1.65-.675 1.35 0 2.324 1.05 2.324 2.324 0 1.35-1.05 2.324-2.324 2.324-1.35 0-2.324-1.05-2.324-2.324 0-.6.225-1.2.675-1.65z" fill="#222630"/><path d="M13.238 13.793c.524-.525.6-1.274.15-2.024-.375-.6-1.05-.9-1.8-.75-.3.075-.6.225-.899.45-2.324 1.574-5.472 1.5-7.796-.075l-.45-.225c-.824-.375-1.649-.225-2.099.525-.524.75-.45 1.574.225 2.249.15.15.3.225.375.375l.075.075c1.05.824 2.324 1.349 3.973 1.574l-.975.974L1.47 19.49c-.225.225-.525.6-.525 1.124 0 .675.375 1.35 1.05 1.65.224.15.45.15.674.15.375 0 .825-.15 1.125-.525l2.923-2.924.075-.075s.075 0 .075.075c.6.675 1.274 1.274 1.874 1.95l.9.899c.374.375.674.524 1.124.524.675.075 1.424-.374 1.724-1.05.3-.599.15-1.348-.375-1.798-.75-.75-1.499-1.574-2.324-2.324l-1.274-1.274c.675-.075 1.424-.225 2.099-.525 1.124-.375 1.949-.9 2.624-1.574z" fill="#222630"/></svg><svg fill="none" viewBox="0 0 14 23" id="ok-white" xmlns="http://www.w3.org/2000/svg"><path d="M13.238 13.793c.524-.525.6-1.274.15-2.024-.375-.6-1.05-.9-1.8-.75-.3.075-.6.225-.899.45-2.324 1.574-5.472 1.5-7.796-.075l-.45-.225c-.824-.375-1.649-.225-2.099.525-.524.75-.45 1.574.225 2.249.15.15.3.225.375.375l.075.075c1.05.824 2.324 1.349 3.973 1.574l-.975.974L1.47 19.49c-.225.225-.525.6-.525 1.124 0 .675.375 1.35 1.05 1.65.224.15.45.15.674.15.375 0 .825-.15 1.125-.525l2.923-2.924.075-.075s.075 0 .075.075c.6.675 1.274 1.274 1.874 1.95l.9.899c.374.375.674.524 1.124.524.675.075 1.424-.374 1.724-1.05.3-.599.15-1.348-.375-1.798-.75-.75-1.499-1.574-2.324-2.324l-1.274-1.274c.675-.075 1.424-.225 2.099-.525 1.124-.375 1.949-.9 2.624-1.574z" fill="#fff"/><path d="M6.791 11.694c3.223 0 5.847-2.549 5.847-5.772 0-1.574-.6-3.073-1.724-4.198C9.789.6 8.365 0 6.866 0 3.643 0 1.094 2.624 1.019 5.772c0 1.574.6 2.998 1.724 4.123 1.05 1.2 2.474 1.799 4.048 1.799zm-1.65-7.496c.45-.45 1.05-.675 1.65-.675 1.35 0 2.324 1.05 2.324 2.324 0 1.35-1.05 2.324-2.324 2.324-1.35 0-2.324-1.05-2.324-2.324 0-.6.225-1.2.675-1.65z" fill="#fff"/><path d="M13.238 13.793c.524-.525.6-1.274.15-2.024-.375-.6-1.05-.9-1.8-.75-.3.075-.6.225-.899.45-2.324 1.574-5.472 1.5-7.796-.075l-.45-.225c-.824-.375-1.649-.225-2.099.525-.524.75-.45 1.574.225 2.249.15.15.3.225.375.375l.075.075c1.05.824 2.324 1.349 3.973 1.574l-.975.974L1.47 19.49c-.225.225-.525.6-.525 1.124 0 .675.375 1.35 1.05 1.65.224.15.45.15.674.15.375 0 .825-.15 1.125-.525l2.923-2.924.075-.075s.075 0 .075.075c.6.675 1.274 1.274 1.874 1.95l.9.899c.374.375.674.524 1.124.524.675.075 1.424-.374 1.724-1.05.3-.599.15-1.348-.375-1.798-.75-.75-1.499-1.574-2.324-2.324l-1.274-1.274c.675-.075 1.424-.225 2.099-.525 1.124-.375 1.949-.9 2.624-1.574z" fill="#fff"/></svg><svg fill="none" viewBox="0 0 193 29" id="openbank" xmlns="http://www.w3.org/2000/svg"><g clip-path="url(#boclip0)"><path d="M111.786 8.31h11.109v2.435h-.811a1.38 1.38 0 00-.458-.891 1.43 1.43 0 00-.948-.36h-1.941v11.218h-2.745V9.468h-2.004a1.407 1.407 0 00-.955.354 1.36 1.36 0 00-.452.898h-.804l.009-2.41zM135.012 8.31h2.005v12.402h-2.686v-8.678l-6.616 8.678h-2.01V10.584a1.538 1.538 0 00-.319-1.056 1.587 1.587 0 00-.95-.585V8.31h3.945v8.719l6.631-8.72zM76.91 20.712h-3.483L70.952 16.1s-.735-1.381-1.54-1.381h-1.004v5.993h-2.744V10.584a1.48 1.48 0 00-.357-1.037 1.531 1.531 0 00-.98-.52V8.31h4.081v5.193h1.206c.316-.064.612-.198.867-.392.255-.193.462-.441.604-.725 2.154-3.443 1.9-4.076 2.82-4.076h2.675v.832c-1.871 0-2.41 3.75-4.23 4.928.877.328 1.205 1.122 3.172 4.602 0 0 .465 1.184 1.402 1.184l-.013.855zM142.792 13.217h6.557v-.659a3.208 3.208 0 00-.94-2.312 3.298 3.298 0 00-2.339-.963 3.327 3.327 0 00-2.338.963 3.226 3.226 0 00-.707 1.063 3.166 3.166 0 00-.233 1.249v.66zm8.9 4.798a6.741 6.741 0 01-2.444 2.133 6.881 6.881 0 01-3.177.76c-3.348 0-6.563-2.565-6.563-5.917v-.722a6.078 6.078 0 01.504-2.427 6.182 6.182 0 011.434-2.038 6.31 6.31 0 012.134-1.322 6.401 6.401 0 012.491-.392 6.548 6.548 0 012.473.49 6.46 6.46 0 012.091 1.387 6.311 6.311 0 011.388 2.068c.32.773.48 1.6.473 2.434h-9.704v2.041c.011.448.115.889.305 1.296.19.407.462.772.799 1.073a3.39 3.39 0 001.165.678 3.43 3.43 0 001.343.174 5.492 5.492 0 002.283-.472 5.406 5.406 0 001.869-1.372l1.136.128zM86.371 8.086a4.859 4.859 0 00-2.026.377 4.78 4.78 0 00-1.676 1.18V8.31h-4.014v.728c.367.067.696.261.93.547.232.286.353.645.339 1.011v15.77h2.744v-6.973c.434.486.97.873 1.572 1.135a4.61 4.61 0 001.912.381 6.084 6.084 0 002.336-.481 5.993 5.993 0 001.959-1.34 5.869 5.869 0 001.27-1.983 5.788 5.788 0 00.382-2.314v-.77c0-3.635-2.269-5.917-5.754-5.917l.026-.018zm2.516 8.369c.03.79-.253 1.56-.79 2.149a3.128 3.128 0 01-2.087 1.008h-.265a3.18 3.18 0 01-1.945-.628 3.083 3.083 0 01-1.138-1.672v-5.367a3.102 3.102 0 011.072-1.854 3.207 3.207 0 012.035-.743h.529s2.541.13 2.612 3.157l-.023 3.95zM44.66 8.086a6.436 6.436 0 00-2.48.345 6.353 6.353 0 00-2.15 1.263 6.224 6.224 0 00-1.482 1.983 6.127 6.127 0 00-.583 2.392v1.038c0 2.758 2.745 5.786 6.695 5.786 3.702 0 6.759-2.695 6.759-5.854v-.84c0-3.153-2.542-6.113-6.759-6.113zm3.484 8.31c0 .445-.091.886-.267 1.297-.176.41-.434.782-.759 1.093a3.41 3.41 0 01-1.131.719 3.456 3.456 0 01-1.327.23c-.451.009-.9-.073-1.318-.239a3.349 3.349 0 01-1.117-.729 3.278 3.278 0 01-.735-1.1 3.23 3.23 0 01-.235-1.297v-3.948c.093-.837.5-1.61 1.14-2.168a3.49 3.49 0 012.327-.855c.857.008 1.68.33 2.31.9a3.368 3.368 0 011.096 2.19l.016 3.907zM109.911 8.31H105.9v.726c.389.067.739.27.985.573.246.302.372.682.353 1.068v10.035h2.673V8.31zM98.131 13.02V8.31H94.14v.726c.364.062.692.256.916.546.223.289.327.65.29 1.012v10.128h6.197c2.411 0 4.152-1.45 4.152-3.485v-.618c0-2.238-1.671-3.635-4.289-3.635l-3.274.036zm0 6.44v-5.194h2.354c.315.005.626.072.914.199.287.126.545.31.758.537a2.24 2.24 0 01.602 1.7v.52a2.345 2.345 0 01-.727 1.565 2.43 2.43 0 01-1.616.667l-2.285.006zM51.89 8.31h11.109v2.435H62.2a1.378 1.378 0 00-.457-.893 1.427 1.427 0 00-.949-.359h-1.947v11.219h-2.744V9.468h-2.01a1.395 1.395 0 00-.955.353c-.26.232-.42.554-.447.899h-.801V8.31z" fill="#575756"/><path d="M14.765 0c-2.92 0-5.775.85-8.203 2.444a14.56 14.56 0 00-5.438 6.508 14.258 14.258 0 00-.84 8.377 14.42 14.42 0 004.043 7.424 14.85 14.85 0 007.56 3.968c2.864.559 5.833.271 8.53-.826a14.71 14.71 0 006.627-5.341 14.315 14.315 0 002.487-8.056c0-3.846-1.556-7.533-4.326-10.252A14.903 14.903 0 0014.765 0zm-3.126 21.61a1.273 1.273 0 01.625.825c.08.333.023.684-.16.976a1.17 1.17 0 01-.451.42 1.197 1.197 0 01-.606.135 1.766 1.766 0 01-.72-.161l-.692-.322A9.331 9.331 0 016.03 20.02a9.11 9.11 0 01-1.265-4.794v-1.45a9.136 9.136 0 011.28-4.804 9.358 9.358 0 013.622-3.465l.677-.311c.224-.106.47-.161.72-.161.21-.007.418.04.604.138.185.097.342.241.452.417.183.292.24.643.16.976a1.225 1.225 0 01-.227.486c-.11.143-.252.262-.414.346a5.01 5.01 0 00-2.127 1.856 4.883 4.883 0 00-.765 2.691v5.141c-.008.947.26 1.876.773 2.678a5.017 5.017 0 002.12 1.846zm13.105-6.387a9.11 9.11 0 01-1.269 4.797 9.33 9.33 0 01-3.612 3.463l-.693.322c-.225.104-.47.159-.72.16-.21.01-.419-.037-.605-.135a1.17 1.17 0 01-.451-.419 1.319 1.319 0 01-.16-.976 1.273 1.273 0 01.624-.826 5.023 5.023 0 002.14-1.848 4.894 4.894 0 00.78-2.69v-5.126a4.883 4.883 0 00-.773-2.683 5.01 5.01 0 00-2.126-1.847 1.284 1.284 0 01-.645-.832 1.319 1.319 0 01.16-.977c.11-.176.266-.32.452-.417.186-.098.394-.145.605-.137.249 0 .495.054.72.16l.676.312a9.348 9.348 0 013.62 3.465 9.126 9.126 0 011.276 4.803l.002 1.43z" fill="#00B3E1"/><path d="M171.498 14.692h-.753v2.17h.703c.847 0 1.359-.342 1.359-1.109 0-.766-.449-1.038-1.306-1.038l-.003-.023zm-.091 2.932h-1.517v-6.162h3.231l.127.768h-2.507v1.724h.806c1.318 0 2.115.633 2.115 1.77 0 1.257-.905 1.876-2.259 1.876M176.422 15.025h1.999l-1-2.597-.999 2.597zm.592-3.6h.847l2.411 6.05-.84.186-.736-1.907h-2.548l-.693 1.844h-.893l2.452-6.172zM185.641 17.6v-2.825h-3.163V17.6h-.847v-6.139h.847v2.545h3.163V11.46h.847v6.14h-.847zM191.757 11.461l-2.591 2.758v-2.758h-.856v6.144h.856V14.49l2.888 3.179.946-.197-2.908-3.121 2.75-2.887-1.085-.002zM161.45 0h-.53v28.994h.53V0z" fill="#575756"/></g><defs><clipPath id="boclip0"><path fill="#fff" d="M0 0h193v29H0z"/></clipPath></defs></svg><svg fill="none" viewBox="0 0 38 52" id="park" xmlns="http://www.w3.org/2000/svg"><g clip-path="url(#bpclip0)"><path d="M38 18.681a18.453 18.453 0 00-3.102-10.235 18.925 18.925 0 00-8.3-6.892A19.306 19.306 0 0015.816.257 19.134 19.134 0 006.07 4.98a18.619 18.619 0 00-5.52 9.198 18.379 18.379 0 00.508 10.668 18.699 18.699 0 006.37 8.65 19.198 19.198 0 0010.151 3.808V52h14.17v-2.5H20.124V37.32c4.834-.284 9.376-2.371 12.698-5.835A18.519 18.519 0 0038 18.68zm-35.456 0c-.004-3.154.93-6.24 2.686-8.88a16.392 16.392 0 017.202-5.976 16.722 16.722 0 019.357-1.112 16.57 16.57 0 018.444 4.116 16.124 16.124 0 014.762 7.995 15.92 15.92 0 01-.48 9.252 16.2 16.2 0 01-5.566 7.477 16.633 16.633 0 01-8.826 3.25v-7.294l.238.275 9.998-8.336-1.645-1.942-8.59 7.152V11.22h-2.545v7.411L9.1 11.537l-1.68 1.909 10.008 8.336.152-.175v13.18a16.585 16.585 0 01-10.698-5.184A16.045 16.045 0 012.544 18.68z" fill="#019D64"/></g><defs><clipPath id="bpclip0"><path fill="#fff" d="M0 0h38v52H0z"/></clipPath></defs></svg><svg fill="none" viewBox="0 0 18 18" id="password" xmlns="http://www.w3.org/2000/svg"><path d="M12 0C8.692 0 6 2.692 6 6c0 .394.043.798.127 1.204l-.67.336a.375.375 0 00-.097.6l.485.485L5.47 9h-.595a.375.375 0 00-.375.375v.595l-.53.53h-.595a.375.375 0 00-.375.375v.595l-.53.53h-.595a.375.375 0 00-.375.375v.595L.11 14.36a.375.375 0 00-.11.265v3c0 .207.168.375.375.375h3c.1 0 .195-.04.265-.11l5.735-5.735.485.485a.376.376 0 00.6-.097l.335-.67C14.611 12.668 18 9.703 18 6c0-3.308-2.692-6-6-6zm-1.314 11.077a.377.377 0 00-.43.196l-.234.469-.382-.382a.375.375 0 00-.53 0l-5.89 5.89H.75v-2.47l1.39-1.39c.07-.07.11-.165.11-.265v-.375h.375c.1 0 .195-.04.265-.11l.75-.75c.07-.07.11-.165.11-.265v-.375h.375c.1 0 .195-.04.265-.11l.75-.75c.07-.07.11-.165.11-.265V9.75h.375c.1 0 .195-.04.265-.11l.75-.75a.375.375 0 000-.53l-.382-.382.47-.235a.375.375 0 00.195-.429A5.285 5.285 0 016.75 6 5.256 5.256 0 0112 .75 5.256 5.256 0 0117.25 6c0 3.322-3.1 5.97-6.564 5.077z" fill="#222630"/><path d="M13.875 2.25A1.877 1.877 0 0012 4.125C12 5.159 12.841 6 13.875 6a1.877 1.877 0 001.875-1.875 1.877 1.877 0 00-1.875-1.875zm0 3a1.126 1.126 0 010-2.25 1.126 1.126 0 010 2.25zM7.61 9.86l-5.25 5.25a.375.375 0 10.53.53l5.25-5.25a.375.375 0 10-.53-.53z" fill="#222630"/></svg><svg fill="none" viewBox="0 0 18 18" id="password-white" xmlns="http://www.w3.org/2000/svg"><path d="M12 0C8.692 0 6 2.692 6 6c0 .394.043.798.127 1.204l-.67.336a.375.375 0 00-.097.6l.485.485L5.47 9h-.595a.375.375 0 00-.375.375v.595l-.53.53h-.595a.375.375 0 00-.375.375v.595l-.53.53h-.595a.375.375 0 00-.375.375v.595L.11 14.36a.375.375 0 00-.11.265v3c0 .207.168.375.375.375h3c.1 0 .195-.04.265-.11l5.735-5.735.485.485a.376.376 0 00.6-.097l.335-.67C14.611 12.668 18 9.703 18 6c0-3.308-2.692-6-6-6zm-1.314 11.077a.377.377 0 00-.43.196l-.234.469-.382-.382a.375.375 0 00-.53 0l-5.89 5.89H.75v-2.47l1.39-1.39c.07-.07.11-.165.11-.265v-.375h.375c.1 0 .195-.04.265-.11l.75-.75c.07-.07.11-.165.11-.265v-.375h.375c.1 0 .195-.04.265-.11l.75-.75c.07-.07.11-.165.11-.265V9.75h.375c.1 0 .195-.04.265-.11l.75-.75a.375.375 0 000-.53l-.382-.382.47-.235a.375.375 0 00.195-.429A5.285 5.285 0 016.75 6 5.256 5.256 0 0112 .75 5.256 5.256 0 0117.25 6c0 3.322-3.1 5.97-6.564 5.077z" fill="#fff"/><path d="M13.875 2.25A1.877 1.877 0 0012 4.125C12 5.159 12.841 6 13.875 6a1.877 1.877 0 001.875-1.875 1.877 1.877 0 00-1.875-1.875zm0 3a1.126 1.126 0 010-2.25 1.126 1.126 0 010 2.25zM7.61 9.86l-5.25 5.25a.375.375 0 10.53.53l5.25-5.25a.375.375 0 10-.53-.53z" fill="#fff"/></svg><svg fill="none" viewBox="0 0 42 42" id="pharmacy" xmlns="http://www.w3.org/2000/svg"><g clip-path="url(#bsclip0)" fill="#1BB0AC"><path d="M33.113 15.002l-6.518.15-.15-6.526-11.443.261.15 6.518-6.526.15.262 11.443 6.518-.15.149 6.526 11.444-.261-.15-6.526 6.525-.142-.261-11.443zm-8.551 9.395l.15 6.526-6.967.157-.142-6.518-6.525.142-.157-6.96 6.518-.149-.142-6.518 6.958-.157.143 6.518 6.525-.15.157 6.967-6.518.142z"/><path d="M21.002 0A21.004 21.004 0 1042 20.996 21.018 21.018 0 0021.002 0zm0 39.758a18.761 18.761 0 1118.754-18.762 18.783 18.783 0 01-18.754 18.762z"/></g><defs><clipPath id="bsclip0"><path fill="#fff" d="M0 0h42v42H0z"/></clipPath></defs></svg><svg fill="none" viewBox="0 0 22 22" id="sale" xmlns="http://www.w3.org/2000/svg"><g clip-path="url(#btclip0)" fill="#fff"><path d="M20.536 11.285a.644.644 0 010-.57l.82-1.678a1.91 1.91 0 00-.823-2.537l-1.65-.875a.645.645 0 01-.336-.461l-.322-1.84a1.91 1.91 0 00-2.158-1.568l-1.85.262a.645.645 0 01-.542-.176l-1.342-1.3a1.91 1.91 0 00-2.667 0l-1.343 1.3a.645.645 0 01-.542.176l-1.85-.262a1.91 1.91 0 00-2.157 1.568l-.323 1.84a.645.645 0 01-.335.46l-1.65.877a1.91 1.91 0 00-.824 2.536l.82 1.678a.645.645 0 010 .57l-.82 1.679a1.91 1.91 0 00.824 2.536l1.65.875c.178.095.3.263.335.462l.323 1.84a1.909 1.909 0 002.157 1.567l1.85-.261c.2-.029.397.035.542.176l1.343 1.299a1.91 1.91 0 002.667 0l1.342-1.3a.646.646 0 01.542-.175l1.85.261a1.91 1.91 0 002.158-1.567l.322-1.84a.645.645 0 01.335-.462l1.65-.875a1.91 1.91 0 00.825-2.536l-.82-1.679zm-.598 3.094l-1.65.876c-.526.279-.887.775-.99 1.362l-.323 1.84a.646.646 0 01-.73.53l-1.85-.26a1.905 1.905 0 00-1.602.52l-1.343 1.299a.646.646 0 01-.902 0l-1.343-1.3a1.904 1.904 0 00-1.602-.52l-1.85.262a.646.646 0 01-.73-.53l-.322-1.84a1.905 1.905 0 00-.99-1.363l-1.65-.876a.646.646 0 01-.28-.858l.821-1.679a1.906 1.906 0 000-1.684l-.82-1.679a.646.646 0 01.278-.858l1.65-.875c.527-.28.888-.776.99-1.363l.323-1.84a.646.646 0 01.73-.53l1.85.261a1.906 1.906 0 001.602-.52l1.343-1.3a.646.646 0 01.902 0l1.343 1.3a1.905 1.905 0 001.602.52l1.85-.262c.348-.049.669.184.73.53l.323 1.841c.103.587.463 1.083.99 1.363l1.65.875c.311.165.434.542.279.858l-.82 1.679a1.905 1.905 0 000 1.684l.82 1.679a.646.646 0 01-.279.858z"/><path d="M15.636 6.364a.635.635 0 00-.897 0l-8.374 8.374a.635.635 0 00.897.898l8.374-8.374a.634.634 0 000-.898zM8.461 5.29a2.329 2.329 0 00-2.326 2.326A2.329 2.329 0 008.46 9.943a2.329 2.329 0 002.326-2.327A2.329 2.329 0 008.461 5.29zm0 3.384a1.059 1.059 0 010-2.115 1.059 1.059 0 010 2.115zM13.537 12.058a2.329 2.329 0 00-2.326 2.326 2.329 2.329 0 002.326 2.326 2.329 2.329 0 002.326-2.326 2.329 2.329 0 00-2.326-2.326zm0 3.383a1.059 1.059 0 010-2.115 1.059 1.059 0 010 2.115z"/></g><defs><clipPath id="btclip0"><path fill="#fff" d="M0 0h22v22H0z"/></clipPath></defs></svg><svg fill="none" viewBox="0 0 194 38" id="sberbank" xmlns="http://www.w3.org/2000/svg"><g clip-path="url(#buclip0)" fill="#52A347"><path d="M187.87 5.532h4.597a19.916 19.916 0 00-3.317 2.57l-4.588 4.61 2.512 3.541c2.066 3 4.382 5.824 6.926 8.446h-6.576a36.035 36.035 0 00-3.211-5.713l-2.968-4.37 2.57-3.19a34.596 34.596 0 004.055-5.894zm-6.975 2.133v14.853l.204 1.114c.23.255.541.427.883.486v.58h-6.412v-.58l.893-.486c.16-.349.227-.732.193-1.114V7.665l-.116-1.067a1.172 1.172 0 00-.892-.438v-.628h6.373v.628a1.14 1.14 0 00-.883.438l-.243 1.067zm-9.486 0v14.853l.194 1.114.892.486v.58h-6.431v-.58c.359-.081.693-.248.97-.486l.146-1.114v-7.712h-7.508v7.712l.194 1.114c.234.255.548.426.892.486v.58h-6.479v-.58c.368-.054.709-.224.97-.486l.194-1.114V7.665l-.194-1.067a1.276 1.276 0 00-.97-.438v-.628h6.479v.628a1.153 1.153 0 00-.892.438l-.194 1.067v5.875h7.508V7.665l-.146-1.067a1.535 1.535 0 00-.97-.438v-.628h6.431v.628a1.153 1.153 0 00-.892.438l-.194 1.067zM194 31.42H50.925v-1.905H194v1.905zM140.311 6.16v-.63h5.635c.084.981.316 1.944.689 2.857l4.152 11.426a36.853 36.853 0 002.027 4.904h-4.947l-2.115-6.884h-6.285l-1.339 4.541-.388 2.324h-3.56l6.325-14.359c.486-.982.814-2.032.97-3.113-.029-.562-.408-.962-1.164-1.067zm2.279 2.57l-2.667 7.722h5.344l-2.677-7.722zm-9.981.952h-1.087l-.252-.819a2.85 2.85 0 00-1.183-1.847l-2.677-.352h-2.629a1.74 1.74 0 00-1.183.295c-.193.25-.28.564-.243.876v4.56h1.086c3.163 0 5.355.318 6.577.953 1.746.838 2.619 2.488 2.619 4.951 0 2.39-.698 4.104-2.076 5.142-1.222.838-3.113 1.257-5.694 1.257h-7.76v-.581l.97-.486.146-1.114V7.665l-.146-1.067a1.21 1.21 0 00-.97-.438v-.628h14.55l-.048 4.151zm-9.293 3.933v8.207a1.678 1.678 0 00.34 1.257c.394.3.891.44 1.387.39h.592a3.19 3.19 0 001.554-.28 3.136 3.136 0 001.22-.986 6.82 6.82 0 00.785-3.732 5.874 5.874 0 00-.843-3.59c-.592-.847-1.698-1.266-3.308-1.266h-1.727zm-7.023-2.619c0 2.228-.688 3.809-2.075 4.809-1.197.837-3.043 1.256-5.539 1.256h-1.94V22.5l.194 1.114c.247.28.595.453.97.486v.58h-6.431v-.58l.892-.486.204-1.114V7.665l-.204-1.067a1.135 1.135 0 00-.892-.438v-.628h8.109a9.343 9.343 0 014.85.952c1.274.85 1.908 2.361 1.901 4.532l-.039-.019zm-9.292-4.123c-.204.124-.301.42-.301.867v8.112h1.94a2.708 2.708 0 001.492-.305c.457-.241.831-.609 1.079-1.056a8.19 8.19 0 00.64-3.685c0-2.752-1.164-4.132-3.512-4.132h-.494l-.844.2zm-8.556 2.81h-1.037l-.253-.82a3.329 3.329 0 00-1.232-1.847l-2.628-.352h-2.183l-.785.2-.204.752v5.923h2.58a6.903 6.903 0 003.502-.581v2.428a6.902 6.902 0 00-3.502-.581h-2.58v7.179c-.025.236.019.475.125.689.106.213.271.394.476.52l2.474.295h.543l2.667-.39a3.386 3.386 0 001.087-2.152l.194-.733h1.251v4.466H84.836v-.581c.37-.049.713-.22.97-.486L86 22.5V7.665l-.194-1.067a1.21 1.21 0 00-.97-.438v-.628h13.648l-.039 4.151zm-16.858 0h-1l-.252-.82a3.025 3.025 0 00-1.231-1.847l-2.62-.352H73.72a1.89 1.89 0 00-1.183.295 1.873 1.873 0 00-.146.876v4.56h1.087c3.13 0 5.322.318 6.576.953 1.707.838 2.57 2.485 2.57 4.951 0 2.466-.688 4.104-2.075 5.142-1.196.838-3.091 1.257-5.684 1.257h-7.828v-.581c.37-.049.712-.22.97-.486l.203-1.114V7.665l-.203-1.067c-.126-.228-.456-.371-.97-.438v-.628h14.55v4.151zm-19.643-2.6a4.835 4.835 0 00-2.774-.628 4.504 4.504 0 00-2.405.465 4.4 4.4 0 00-1.785 1.648c-.699 1.229-1.038 3.238-1.038 6.018s.378 4.837 1.135 6.16a4.905 4.905 0 002 1.925c.84.44 1.794.63 2.743.55a11.156 11.156 0 004.85-1.16l.592 1.218a12.666 12.666 0 01-6.625 1.695c-6.202 0-9.3-3.219-9.293-9.655 0-6.76 3.214-10.144 9.642-10.15a14.61 14.61 0 015.684.876v3.98h-1.193l-.34-1.162c-.2-.7-.617-1.322-1.193-1.78zm10.486 6.55v8.208c-.055.44.048.884.291 1.257.412.302.924.442 1.436.39h.533c2.373 0 3.56-1.666 3.56-4.998a5.947 5.947 0 00-.834-3.59c-.63-.847-1.746-1.266-3.366-1.266h-1.62zM32.379 2.476l1.736 1.552L12.26 16.405 1.678 10.34l.97-1.904 9.593 5.39L32.38 2.475zM27.984 0l2.319 1.162L12.26 11.359 3.88 6.665l1.406-1.714 6.975 3.932L27.984 0zm7.663 5.627l1.28 1.705-24.666 13.92L.349 14.587l.543-2.133 11.369 6.408L35.647 5.627z"/><path d="M39.207 11.892a18.53 18.53 0 011.087 6.303c0 2.182-.368 4.35-1.088 6.413l-.493 1.31a19.919 19.919 0 01-4.307 6.302 19.731 19.731 0 01-6.421 4.18 20.125 20.125 0 01-7.867 1.6 19.84 19.84 0 01-7.857-1.6 20.71 20.71 0 01-6.373-4.18 19.024 19.024 0 01-4.307-6.303A19.583 19.583 0 010 18.195v-1.304l12.26 6.836L38.122 9.17l1.086 2.723z"/></g><defs><clipPath id="buclip0"><path fill="#fff" d="M0 0h194v38H0z"/></clipPath></defs></svg><svg fill="none" viewBox="0 0 37 42" id="school" xmlns="http://www.w3.org/2000/svg"><g clip-path="url(#bvclip0)"><path d="M17.076 36.33v2.873h7.115v2.804H7.115v-2.804h7.114v-2.865A21.312 21.312 0 01.557 30.247l2.016-1.976a18.676 18.676 0 0013.084 5.331c4.903 0 9.607-1.916 13.084-5.33a18.134 18.134 0 004.01-5.9 17.952 17.952 0 000-13.939 18.135 18.135 0 00-4.01-5.9L30.748.55a20.9 20.9 0 015.758 10.417 20.73 20.73 0 01-.888 11.836 21.002 21.002 0 01-7.25 9.465c-3.29 2.4-7.21 3.81-11.291 4.063zM0 15.403a15.325 15.325 0 012.605-8.609 15.614 15.614 0 017.012-5.725A15.839 15.839 0 0118.67.161a15.719 15.719 0 018.034 4.216 15.405 15.405 0 014.304 7.916c.61 3.001.304 6.114-.88 8.943a15.505 15.505 0 01-5.765 6.95 15.797 15.797 0 01-8.705 2.611 15.742 15.742 0 01-11.051-4.5A15.352 15.352 0 010 15.402zM15.657 2.797a12.92 12.92 0 00-3.52.498l1.336.753a4.6 4.6 0 011.93 2.233 4.53 4.53 0 01.163 2.93 4.582 4.582 0 01-1.67 2.427 4.68 4.68 0 01-2.82.93H9.55a.999.999 0 00-.702.287.974.974 0 00-.29.693v1.982a.956.956 0 00.435.807l2.55 1.674a3.61 3.61 0 011.434 1.87l.832 2.45 3.168.067.1-8.36c0-.715.23-1.41.655-1.988a3.433 3.433 0 011.71-1.232l.955-.316a3.505 3.505 0 012.63.187 3.436 3.436 0 011.736 1.961l.268.754c.054.16.156.3.292.4.136.102.3.16.471.166h2.557a12.6 12.6 0 00-4.2-7.967 12.901 12.901 0 00-8.494-3.206zM2.847 15.402a12.567 12.567 0 003.523 8.663 12.878 12.878 0 008.58 3.918c3.26.178 6.467-.88 8.964-2.96a12.606 12.606 0 004.468-8.226h-2.557a3.695 3.695 0 01-2.154-.677 3.622 3.622 0 01-1.343-1.796l-.267-.754a.591.591 0 00-.3-.35.61.61 0 00-.463-.034l-.954.316a.602.602 0 00-.42.566v8.293a2.892 2.892 0 01-.866 2.053c-.552.544-1.3.85-2.08.85h-3.054a2.964 2.964 0 01-1.722-.546 2.905 2.905 0 01-1.072-1.437l-.832-2.458a.802.802 0 00-.374-.468l-2.52-1.688a3.788 3.788 0 01-1.253-1.356 3.733 3.733 0 01-.456-1.78v-1.96c0-1 .402-1.96 1.118-2.666A3.841 3.841 0 019.512 9.8h1.526c.396 0 .78-.129 1.094-.365.314-.237.542-.569.647-.945a1.766 1.766 0 00-.062-1.138 1.793 1.793 0 00-.747-.87L8.916 4.683a12.647 12.647 0 00-4.471 4.572 12.454 12.454 0 00-1.636 6.148" fill="#0090D7"/></g><defs><clipPath id="bvclip0"><path fill="#fff" d="M0 0h37v42H0z"/></clipPath></defs></svg><svg fill="none" viewBox="0 0 37 41" id="shop" xmlns="http://www.w3.org/2000/svg"><g clip-path="url(#bwclip0)"><path d="M31.054 28.704a6.292 6.292 0 00-3.536.898 6.178 6.178 0 00-2.42 2.7 6.081 6.081 0 00-.471 3.575 6.124 6.124 0 001.638 3.222 6.251 6.251 0 003.185 1.762 6.304 6.304 0 003.639-.302 6.215 6.215 0 002.842-2.264A6.098 6.098 0 0037 34.848a5.977 5.977 0 00-1.687-4.285 6.132 6.132 0 00-4.259-1.86zm0 9.56a3.502 3.502 0 01-1.97-.497 3.438 3.438 0 01-1.349-1.501 3.384 3.384 0 01.646-3.785 3.48 3.48 0 011.774-.982 3.508 3.508 0 012.026.168 3.46 3.46 0 011.582 1.261c.387.567.594 1.236.594 1.92a3.32 3.32 0 01-.936 2.383 3.405 3.405 0 01-2.367 1.033zM6.672 8.2l-.966-4.976A3.968 3.968 0 004.348.936 4.059 4.059 0 001.835 0H0v2.736h1.835c.305 0 .6.104.835.296s.395.458.453.754l6.252 32.29v.066a5.9 5.9 0 002.03 3.437 6.036 6.036 0 003.774 1.391 6.267 6.267 0 004.265-1.874 6.11 6.11 0 001.75-4.274 6.111 6.111 0 00-1.75-4.274 6.267 6.267 0 00-4.265-1.874 5.75 5.75 0 00-2.554.592c-.62.313-1.18.731-1.655 1.234L7.204 10.936h27.153v7.216c.01.32-.097.634-.302.883a1.352 1.352 0 01-.814.47l-2.846.451v-6.292h-2.643v6.714l-3.961.628v-7.342h-2.644v7.779l-2.666.429c-.3.03-.601-.057-.837-.244a1.127 1.127 0 01-.42-.755 1.42 1.42 0 010-.177v-7.032h-2.69v7.04a3.804 3.804 0 001.079 2.724 3.902 3.902 0 002.711 1.18c.188 0 .376-.015.562-.045l14.752-2.38a4.077 4.077 0 002.442-1.41A3.983 3.983 0 0037 18.13V8.2H6.672zm5.242 26.619a3.405 3.405 0 01.511-1.77c.33-.532.8-.966 1.361-1.255a3.267 3.267 0 013.656.567c.317.3.569.66.74 1.06.214.464.324.969.322 1.479a3.319 3.319 0 01-.936 2.383 3.405 3.405 0 01-2.367 1.033 3.372 3.372 0 01-2.114-.81 3.294 3.294 0 01-1.106-1.955 3.431 3.431 0 01-.067-.68" fill="#9BC130"/></g><defs><clipPath id="bwclip0"><path fill="#fff" d="M0 0h37v41H0z"/></clipPath></defs></svg><svg fill="none" viewBox="0 0 16 16" id="toilet" xmlns="http://www.w3.org/2000/svg"><path d="M14.837 8.146c0-.773-.629-1.401-1.402-1.401h-.91v-1.97h.927v.57a.469.469 0 00.938 0V4.305a.469.469 0 00-.47-.468h-1.395V2.803A1.403 1.403 0 0013.9 1.402C13.9.629 13.27 0 12.498 0H3.504c-.773 0-1.401.629-1.401 1.402 0 .764.613 1.386 1.374 1.401v3.942h-.91c-.773 0-1.402.628-1.402 1.401 0 .612.394 1.134.942 1.324a4.593 4.593 0 002.618 3.866l-.568 2.071a.469.469 0 00.452.593h6.784a.469.469 0 00.452-.593l-.568-2.07a4.593 4.593 0 002.618-3.867c.548-.19.942-.712.942-1.324zM3.04 1.402c0-.256.208-.464.464-.464h8.994a.465.465 0 010 .928H3.504a.465.465 0 01-.464-.464zm1.374 1.402h7.174v3.94H4.414v-3.94zM2.567 7.682h10.868a.465.465 0 010 .929H2.567a.465.465 0 010-.929zm8.212 7.38H5.224l.388-1.413c.344.083.702.127 1.072.127h2.635c.369 0 .728-.044 1.072-.127l.388 1.414zm-1.46-2.223H6.684a3.653 3.653 0 01-3.63-3.29h9.895a3.653 3.653 0 01-3.63 3.29z" fill="#222630"/></svg><svg fill="none" viewBox="0 0 16 16" id="toilet-white" xmlns="http://www.w3.org/2000/svg"><path d="M14.837 8.146c0-.773-.63-1.401-1.402-1.401h-.91v-1.97h.927v.57a.469.469 0 10.937 0V4.305a.469.469 0 00-.469-.468h-1.395V2.803A1.403 1.403 0 0013.9 1.402C13.9.629 13.27 0 12.497 0H3.504c-.773 0-1.402.629-1.402 1.402 0 .764.614 1.386 1.374 1.401v3.942h-.91c-.772 0-1.401.628-1.401 1.401 0 .612.394 1.134.942 1.324a4.593 4.593 0 002.618 3.866l-.569 2.071a.469.469 0 00.452.593h6.785a.469.469 0 00.452-.593l-.569-2.07a4.594 4.594 0 002.619-3.867c.547-.19.942-.712.942-1.324zM3.04 1.402c0-.256.208-.464.464-.464h8.993a.465.465 0 010 .928H3.504a.465.465 0 01-.464-.464zm1.374 1.402h7.174v3.94H4.414v-3.94zM2.567 7.682h10.868a.465.465 0 010 .929H2.567a.465.465 0 010-.929zm8.211 7.38H5.223l.388-1.413c.344.083.703.127 1.072.127h2.635c.37 0 .728-.044 1.072-.127l.388 1.414zm-1.46-2.223H6.683a3.653 3.653 0 01-3.63-3.29h9.895a3.653 3.653 0 01-3.63 3.29z" fill="#fff"/></svg><svg fill="none" viewBox="0 0 171 53" id="uralsib" xmlns="http://www.w3.org/2000/svg"><g clip-path="url(#bzclip0)" fill-rule="evenodd" clip-rule="evenodd"><path d="M53.973 43.479h-6.166l2.811-4.959-6.981-12.441h6.257l3.633 7.4 3.633-7.4h6.17l-9.356 17.4h-.001zM131.962 43.479h-7.724c-4.325 0-7.626-3.518-7.626-8.477 0-5.593 3.359-8.924 7.626-8.924h7.724v4.325h-5.042c-3 0-4.714.908-4.714 4.512 0 3.604 1.831 4.238 4.714 4.238h5.042v4.326zM152.206 43.479h-5.723V31.211l-6.531 12.268h-6.819v-17.4h5.637v11.91l6.531-11.908h6.905v17.4-.002zM78.582 43.479l7.352-17.4h6.358l6.084 14.431 6.083-14.431h6.253l7.352 17.4h-6l-4.44-12.528-4.534 12.528h-9.443l-1.355-3.6h-6.358l-1.355 3.6h-5.997z" fill="#253081"/><path d="M89.105 30.952l-1.816 4.959h3.633l-1.817-4.959z" fill="#fff"/><path d="M69.414 43.48h-5.637v-17.4h11.72a5.375 5.375 0 015.9 5.954c0 1.168 0 6.4-5.9 6.4h-6.083v5.046z" fill="#253081"/><path d="M69.413 34.114h4.08c.634 0 2.278 0 2.278-1.9s-1.643-1.8-2.278-1.8h-4.08v3.7z" fill="#fff"/><path d="M169.91 26.079v4.325h-10.9v2.249h5.766c5.983 0 5.983 3.431 5.983 5.334 0 1.903 0 5.493-5.9 5.493H153.33V26.079h16.58z" fill="#253081"/><path d="M159.01 36.718v2.71h4.815c1.269 0 1.269-.995 1.269-1.442 0-.447 0-1.269-1.269-1.269l-4.815.001z" fill="#fff"/><path d="M18.206 17.415c.435-.034.872.025 1.283.173l-.1-11.821h1.442c-.07 4.032.078 8.065.447 12.081a17.3 17.3 0 015.637 31.485c-.086-.086-.274-.36-.46-.533-5.176-6.588-6.445-16.42-6.8-25 .716.168 1.443.288 2.176.36a36.616 36.616 0 009.371 19.505 11.533 11.533 0 00-.735-15.512 17.2 17.2 0 00-8.347-4.974 19.2 19.2 0 00-4.628-.533 20.27 20.27 0 00-4.628.533C6.14 24.9 1.152 30.13 1.152 36.358a12.5 12.5 0 002.537 7.309 35.9 35.9 0 009.342-19.491 20.573 20.573 0 002.278-.36c-.36 8.578-1.629 18.323-6.8 24.9v-.086a5.49 5.49 0 01-.548.721 17.3 17.3 0 015.766-31.485c.49-8.837.4-12.1.4-12.1h1.442l-.086 11.821c.378-.14.78-.198 1.182-.173V0h1.543v17.415h-.002zm.1 6.314c.173 8.2.721 18.5 3.445 25.445.326.769.693 1.52 1.1 2.249a21.626 21.626 0 01-5.363.807 20.47 20.47 0 01-5.363-.807c.461-.894.822-1.716 1.182-2.523 2.552-6.862 3.272-17.054 3.36-25.171h1.642-.003z" fill="#253081"/></g><defs><clipPath id="bzclip0"><path fill="#fff" d="M0 0h170.759v52.23H0z"/></clipPath></defs></svg><svg fill="none" viewBox="0 0 21 13" id="vk" xmlns="http://www.w3.org/2000/svg"><path d="M20.806 11.115c0-.083-.082-.083-.082-.166-.333-.664-1.08-1.494-2.076-2.407-.498-.416-.747-.748-.913-.914-.25-.332-.25-.58-.166-.913.083-.249.415-.664.996-1.411.332-.415.498-.665.747-.914 1.245-1.66 1.827-2.74 1.66-3.237l-.082-.084c-.084-.083-.166-.166-.333-.166-.166-.083-.415-.083-.664 0h-3.736l-.083.083c-.083.083-.083.083-.083.167-.332.913-.747 1.66-1.162 2.49-.25.415-.498.83-.747 1.163-.25.332-.416.58-.582.747-.166.166-.332.249-.415.415-.083.083-.249.166-.249.083-.083 0-.166 0-.166-.083l-.249-.25c-.083-.082-.083-.248-.166-.414v-.415-.499-.498-.913-.747-.581-.498c0-.084-.083-.25-.083-.333l-.249-.249c-.083-.083-.249-.083-.332-.166A7.448 7.448 0 0010.097.24c-1.329 0-2.242.083-2.574.25-.166.082-.332.165-.415.331-.166.166-.166.25-.083.25.415.083.747.249.913.498l.083.166c.083.083.083.249.166.498s.083.498.083.83V4.39c0 .416-.083.665-.083.914s-.083.415-.166.498c-.083.166-.083.249-.166.249 0 0 0 .083-.083.083s-.166.083-.332.083c-.083 0-.25-.083-.332-.166a1 1 0 01-.415-.415c-.166-.166-.332-.415-.499-.747-.166-.333-.415-.665-.58-1.163l-.167-.332c-.083-.166-.249-.498-.415-.913-.166-.415-.332-.747-.498-1.162a1.146 1.146 0 00-.249-.333h-.083S4.119.903 4.036.903 3.87.82 3.786.82H.799C.466.82.3.903.217.986l-.083.083v.167c0 .083 0 .166.083.332.415.996.913 1.992 1.411 2.988.498.914.996 1.744 1.329 2.325.415.581.747 1.162 1.162 1.66.415.499.664.83.747.997l.332.332.25.249c.165.166.414.415.746.664.333.25.748.498 1.163.747.415.25.913.415 1.411.582.581.166 1.08.249 1.578.166h1.245a.753.753 0 00.581-.25l.083-.083c0-.082.083-.082.083-.166v-.332c0-.332 0-.58.083-.83.083-.249.083-.415.166-.581.083-.166.166-.25.25-.332l.165-.166h.083c.166-.083.415 0 .581.166.25.166.499.415.665.664.166.25.415.498.747.83.332.332.581.581.747.665l.25.165c.165.083.331.167.58.25.25.083.415.083.581.083l2.823-.083c.25 0 .498-.083.665-.167.166-.083.248-.166.248-.332v-.332c-.166-.166-.166-.249-.166-.332z" fill="#222630"/></svg><svg fill="none" viewBox="0 0 21 13" id="vk-white" xmlns="http://www.w3.org/2000/svg"><path d="M20.805 11.115c0-.083-.082-.083-.082-.166-.333-.664-1.08-1.494-2.076-2.407-.498-.416-.747-.748-.913-.914-.25-.332-.25-.58-.166-.913.083-.249.415-.664.996-1.411.332-.415.498-.665.747-.914 1.245-1.66 1.827-2.74 1.66-3.237l-.082-.084c-.084-.083-.166-.166-.333-.166-.166-.083-.415-.083-.664 0h-3.736l-.083.083c-.083.083-.083.083-.083.167-.332.913-.747 1.66-1.162 2.49-.25.415-.498.83-.747 1.163-.25.332-.415.58-.582.747-.165.166-.332.249-.415.415-.083.083-.249.166-.249.083-.083 0-.166 0-.166-.083a531.8 531.8 0 01-.249-.25c-.083-.082-.083-.248-.166-.414v-.415-.499-.498-.913-.747-.581-.498c0-.084-.083-.25-.083-.333l-.249-.249c-.083-.083-.249-.083-.332-.166A7.447 7.447 0 0010.096.24c-1.329 0-2.242.083-2.574.25-.166.082-.332.165-.415.331-.166.166-.166.25-.083.25.415.083.747.249.913.498l.083.166c.083.083.083.249.166.498s.083.498.083.83V4.39c0 .416-.083.665-.083.914s-.083.415-.166.498c-.083.166-.083.249-.166.249 0 0 0 .083-.083.083s-.166.083-.332.083c-.083 0-.25-.083-.332-.166a1 1 0 01-.415-.415c-.166-.166-.332-.415-.499-.747-.166-.333-.415-.665-.58-1.163l-.167-.332c-.083-.166-.249-.498-.415-.913-.166-.415-.332-.747-.498-1.162a1.146 1.146 0 00-.249-.333h-.083S4.118.903 4.035.903 3.869.82 3.785.82H.798C.465.82.299.903.216.986l-.083.083v.167c0 .083 0 .166.083.332.415.996.913 1.992 1.411 2.988.498.914.997 1.744 1.329 2.325.415.581.747 1.162 1.162 1.66.415.499.664.83.747.997l.332.332.25.249c.165.166.414.415.746.664.333.25.748.498 1.163.747.415.25.913.415 1.411.582.581.166 1.08.249 1.578.166h1.245a.753.753 0 00.581-.25l.083-.083c0-.082.083-.082.083-.166v-.332c0-.332 0-.58.083-.83.083-.249.083-.415.166-.581.083-.166.166-.25.25-.332L13 9.538h.083c.166-.083.415 0 .582.166.249.166.498.415.664.664.166.25.415.498.747.83.332.332.581.581.747.665l.25.165c.165.083.331.167.58.25.25.083.416.083.581.083l2.823-.083c.25 0 .498-.083.665-.167.166-.083.249-.166.249-.332v-.332c-.167-.166-.167-.249-.167-.332z" fill="#fff"/></svg><svg fill="none" viewBox="0 0 20 20" id="window" xmlns="http://www.w3.org/2000/svg"><path d="M19.707 4.687a.293.293 0 00-.293.293V17.5h-.586V2.95a.293.293 0 00-.293-.294H1.465a.293.293 0 00-.293.293V17.5H.586V16.23a.293.293 0 00-.586 0v1.563c0 .162.131.293.293.293h.879v.098c0 .161.131.292.293.292h2.98a.293.293 0 00.29-.331l-.007-.06h9.022a.293.293 0 000-.585h-9.1l-.077-.586h10.854l-.077.586H15a.293.293 0 100 .586h.273l-.008.059a.294.294 0 00.29.331h2.98a.293.293 0 00.293-.293v-.097h.879a.293.293 0 00.293-.293V4.98a.293.293 0 00-.293-.293zm-3.32 6.44a.293.293 0 010-.587h1.855v.586h-1.855zm-.816-7.885l1.285 5.228a.293.293 0 00.569-.14l-1.25-5.088h.841l.25 2.897a.293.293 0 00.585-.051l-.246-2.846h.637v6.713h-1.59l-1.65-6.713h.57zm-13.176 0L2.15 6.088a.293.293 0 10.583.05l.25-2.896h.843l-1.25 5.089a.293.293 0 00.568.14L4.43 3.241h.568L3.348 9.955h-1.59V3.242h.637zm1.218 7.884H1.758v-.585h1.855a.293.293 0 010 .585zM1.758 17.89v-6.178h1.537l.816 6.178H1.758zm2.122-6.22a.88.88 0 00.057-1.654L5.6 3.242h4.106v13.086H4.495l-.615-4.657zm6.413 4.658V3.242h4.106l1.664 6.774a.88.88 0 00.057 1.655l-.615 4.657h-5.212zm7.95 1.563h-2.354l.816-6.179h1.537v6.178z" fill="#222630"/><path d="M19.707 1.484H.293A.293.293 0 000 1.777V14.98a.293.293 0 10.586 0V2.07h18.828v1.66a.293.293 0 10.586 0V1.777a.293.293 0 00-.293-.293z" fill="#222630"/></svg><svg fill="none" viewBox="0 0 20 20" id="window-white" xmlns="http://www.w3.org/2000/svg"><path d="M19.707 4.688a.293.293 0 00-.293.292V17.5h-.586V2.95a.293.293 0 00-.293-.294H1.465a.293.293 0 00-.293.293V17.5H.586v-1.27a.293.293 0 00-.586 0v1.563c0 .162.131.293.293.293h.879v.098c0 .162.131.293.293.293h2.98a.293.293 0 00.29-.332l-.007-.06h9.022a.293.293 0 000-.585h-9.1l-.077-.586h10.854l-.077.586H15a.293.293 0 100 .586h.273l-.008.06a.294.294 0 00.29.33h2.98a.293.293 0 00.293-.292v-.098h.879a.293.293 0 00.293-.293V4.98a.293.293 0 00-.293-.293zm-3.32 6.439a.293.293 0 010-.586h1.855v.585h-1.855zm-.816-7.885l1.285 5.228a.293.293 0 00.569-.14l-1.25-5.088h.841l.25 2.897a.293.293 0 00.585-.05l-.246-2.847h.637v6.713h-1.59l-1.65-6.713h.57zm-13.176 0L2.15 6.088a.293.293 0 10.583.05l.25-2.896h.843l-1.25 5.089a.293.293 0 00.568.14L4.43 3.241h.568L3.348 9.955h-1.59V3.242h.637zm1.218 7.885H1.758v-.586h1.855a.293.293 0 010 .585zM1.758 17.89v-6.178h1.537l.816 6.178H1.758zm2.122-6.22a.88.88 0 00.057-1.654L5.6 3.242h4.106v13.086H4.495l-.615-4.657zm6.413 4.657V3.242h4.106l1.664 6.775a.88.88 0 00.057 1.654l-.615 4.657h-5.212zm7.95 1.563h-2.354l.816-6.178h1.537v6.178z" fill="#fff"/><path d="M19.707 1.484H.293A.293.293 0 000 1.777V14.98a.293.293 0 10.586 0V2.07h18.828v1.66a.293.293 0 10.586 0V1.777a.293.293 0 00-.293-.293z" fill="#fff"/></svg><svg fill="none" viewBox="0 0 18 13" id="youtube" xmlns="http://www.w3.org/2000/svg"><path d="M17.713 4.913c0-.388-.065-.84-.065-1.357a88.45 88.45 0 00-.194-1.487c-.129-.517-.323-.905-.71-1.229-.324-.323-.776-.517-1.229-.581C14.028.065 11.83 0 8.857 0 5.883 0 3.62.065 2.198.259 1.745.323 1.293.517.97.84A2.58 2.58 0 00.259 2.07c-.13.452-.194.905-.194 1.487C0 4.073 0 4.526 0 4.913v2.974c0 .388.065.84.065 1.357.064.518.129 1.035.194 1.487.129.518.323.905.71 1.229.324.323.776.517 1.229.581 1.487.194 3.685.259 6.659.259 2.973 0 5.236-.065 6.658-.259.453-.064.905-.258 1.228-.581.324-.324.582-.712.712-1.229.129-.452.194-.905.194-1.487.064-.517.064-.97.064-1.357V6.4 4.913zm-5.43 2.004l-5.107 3.168a.494.494 0 01-.323.13c-.13 0-.194 0-.324-.066a.679.679 0 01-.323-.581v-6.4c0-.259.13-.453.323-.582a.587.587 0 01.647 0l5.107 3.168c.194.129.323.323.323.517s-.13.517-.323.646z" fill="#222630"/></svg><svg fill="none" viewBox="0 0 18 13" id="youtube-white" xmlns="http://www.w3.org/2000/svg"><path d="M17.713 4.913c0-.388-.065-.84-.065-1.357a88.45 88.45 0 00-.194-1.487c-.129-.517-.323-.905-.71-1.229-.324-.323-.776-.517-1.229-.581C14.028.065 11.83 0 8.857 0 5.883 0 3.62.065 2.198.259 1.745.323 1.293.517.97.84A2.58 2.58 0 00.259 2.07c-.13.452-.194.905-.194 1.487C0 4.073 0 4.526 0 4.913v2.974c0 .388.065.84.065 1.357.064.518.129 1.035.194 1.487.129.518.323.905.71 1.229.324.323.776.517 1.229.581 1.487.194 3.685.259 6.659.259 2.973 0 5.236-.065 6.658-.259.453-.064.905-.258 1.228-.581.324-.324.582-.712.712-1.229.129-.452.194-.905.194-1.487.064-.517.064-.97.064-1.357V6.4 4.913zm-5.43 2.004l-5.107 3.168a.494.494 0 01-.323.13c-.13 0-.194 0-.324-.066a.679.679 0 01-.323-.581v-6.4c0-.259.13-.453.323-.582a.587.587 0 01.647 0l5.107 3.168c.194.129.323.323.323.517s-.13.517-.323.646z" fill="#fff"/></svg></svg>