<svg width="97" height="127" fill="none" xmlns="http://www.w3.org/2000/svg"><path d="M3.066 88.515a7.856 7.856 0 01-2.578-1.217l1.14-2.532a7.65 7.65 0 002.219 1.102 8.37 8.37 0 002.578.413c.73.052 1.46-.096 2.11-.428a1.278 1.278 0 00.69-1.125 1.086 1.086 0 00-.406-.864 2.977 2.977 0 00-1.04-.551 21.505 21.505 0 00-1.706-.46 22.12 22.12 0 01-2.724-.764 4.384 4.384 0 01-1.813-1.262 3.42 3.42 0 01-.765-2.295 4.039 4.039 0 01.681-2.295 4.689 4.689 0 012.066-1.63 8.477 8.477 0 013.373-.604c.918 0 1.833.113 2.723.337a7.84 7.84 0 012.295.956l-1.032 2.547a8.155 8.155 0 00-4.032-1.14 3.726 3.726 0 00-2.08.46 1.392 1.392 0 00-.681 1.2 1.17 1.17 0 00.765 1.11c.766.32 1.563.56 2.379.719.92.2 1.826.455 2.715.765.715.24 1.357.66 1.867 1.216.534.642.807 1.461.765 2.295a3.986 3.986 0 01-.696 2.295 4.658 4.658 0 01-2.089 1.63 8.414 8.414 0 01-3.38.603c-1.129 0-2.251-.156-3.336-.466m25.014.198l-.015-8.713-4.276 7.175h-1.515L18.02 80.2v8.53h-3.152V74.2h2.785l5.431 9.027L28.44 74.2h2.76l.046 14.527h-3.159zm16.172-3.106h-6.747l-1.286 3.114h-3.45l6.48-14.535h3.32l6.494 14.535h-3.526l-1.285-3.114zm-1.087-2.555l-2.294-5.569-2.295 5.57h4.59zm16.677 5.661l-2.808-4.046h-3.06v4.046h-3.366V74.194h6.296a8.078 8.078 0 013.35.642 4.803 4.803 0 012.923 4.667 4.929 4.929 0 01-.765 2.792 4.987 4.987 0 01-2.219 1.797l3.26 4.667-3.611-.03zm-.857-11.13a3.518 3.518 0 00-2.295-.658h-2.739v5.064h2.739c.82.057 1.633-.18 2.295-.666a2.295 2.295 0 00.765-1.866 2.295 2.295 0 00-.765-1.874zm9.654-.658h-4.65V74.2h12.66v2.739h-4.644v11.788h-3.366V76.94zm-56.535 28.622h-6.83l-1.301 3.152H.488L7.048 94h3.36l6.575 14.714h-3.57l-1.3-3.152zm-1.076-2.587l-2.323-5.63-2.324 5.63h4.647zm20.823-8.967l-6.366 14.706h-3.36l-6.35-14.706h3.678l4.476 10.501 4.538-10.501h3.384zm12.608 11.972v2.734H33.083V94.008h11.113v2.726h-7.737v3.198h6.83v2.649h-6.83v3.399h8.008zm16.201-11.972v14.706h-2.796l-7.333-8.93v8.93h-3.361V94.008h2.819l7.31 8.929v-8.93h3.36zm5.002 13.211a6.704 6.704 0 01-1.758-4.979v-8.232h3.407v8.108c0 2.633 1.092 3.949 3.276 3.949a3.106 3.106 0 002.44-.952c.64-.863.95-1.926.874-2.997v-8.108h3.361v8.232a6.084 6.084 0 01-6.66 6.729 6.61 6.61 0 01-4.902-1.75m25.308-1.239v2.734H79.625V94.008h11.12v2.726H83.01v3.198h6.83v2.649h-6.83v3.399h8.007zM.488 116.203h2.283v3.103H6.23v-3.103h2.3v7.944h-2.3v-2.969H2.77v2.969H.489v-7.944zm16.155.758a3.378 3.378 0 01.99 2.675v4.511h-2.15v-.989a2.582 2.582 0 01-2.424 1.105 3.655 3.655 0 01-1.587-.312 2.38 2.38 0 01-1.025-.891 2.268 2.268 0 01-.357-1.24 2.044 2.044 0 01.838-1.783 4.198 4.198 0 012.577-.633h1.827a1.461 1.461 0 00-.454-1.159 2.006 2.006 0 00-1.373-.41 4.011 4.011 0 00-1.248.205 3.208 3.208 0 00-1.043.535l-.83-1.605a4.938 4.938 0 011.56-.713 6.86 6.86 0 011.864-.249 4.16 4.16 0 012.835.891v.062zm-1.962 5.421c.306-.185.537-.473.651-.811v-.812h-1.578c-.945 0-1.417.312-1.417.936a.815.815 0 00.348.696c.28.19.615.281.953.258.366.008.726-.085 1.043-.267zm12.633-1.249H26.12v3.014h-2.3v-7.944h2.3v3.085h1.24l2.157-3.085h2.452l-2.782 3.807 2.97 4.137h-2.711l-2.13-3.014zm5.983-4.93h2.282v4.725l3.87-4.725h2.112v7.944h-2.29v-4.725l-3.852 4.725h-2.122v-7.944zm17.17.393c.6.336 1.094.833 1.427 1.435a4.781 4.781 0 010 4.289 3.684 3.684 0 01-1.427 1.435 4.044 4.044 0 01-2.015.508 3.047 3.047 0 01-2.39-.963v3.7h-2.308v-10.796h2.202v.891a3.053 3.053 0 012.496-1.034 4.044 4.044 0 012.015.508v.027zm-.963 5.153a2.531 2.531 0 000-3.201 2.069 2.069 0 00-2.906 0 2.534 2.534 0 000 3.201 2.07 2.07 0 002.906 0zm5.983 1.989a3.833 3.833 0 01-1.56-1.453 4.237 4.237 0 010-4.217 3.833 3.833 0 011.56-1.453 5.051 5.051 0 014.457 0 3.84 3.84 0 011.578 1.471 4.232 4.232 0 010 4.216 3.846 3.846 0 01-1.542 1.454 5.064 5.064 0 01-4.458 0l-.035-.018zm3.735-1.944a2.531 2.531 0 000-3.2 1.89 1.89 0 00-1.453-.598 1.948 1.948 0 00-1.462.598 2.532 2.532 0 000 3.2 1.934 1.934 0 001.462.598 1.914 1.914 0 001.453-.598zm11.911.098a1.935 1.935 0 01-.811 1.667 4.11 4.11 0 01-2.416.588H63.67v-7.943h4.056a4.242 4.242 0 012.327.544 1.699 1.699 0 01.892 1.506c.005.37-.101.734-.303 1.043a2.007 2.007 0 01-.892.705 1.845 1.845 0 011.4 1.89h-.018zm-5.331-2.425h1.783c.802 0 1.203-.297 1.203-.892 0-.561-.4-.838-1.203-.838h-1.783v1.73zm3.2 2.246a.781.781 0 00-.294-.677 1.6 1.6 0 00-.891-.214h-1.98v1.783h1.837c.891 0 1.266-.285 1.266-.892m9.824-4.752a3.378 3.378 0 01.99 2.675v4.511h-2.158v-.989a2.553 2.553 0 01-2.416 1.105 3.625 3.625 0 01-1.587-.312 2.332 2.332 0 01-1.025-.891c-.24-.368-.365-.8-.357-1.24a2.043 2.043 0 01.838-1.783 4.199 4.199 0 012.568-.633h1.863a1.432 1.432 0 00-.464-1.159 1.984 1.984 0 00-1.372-.41 3.96 3.96 0 00-1.24.205 3.209 3.209 0 00-1.043.535l-.829-1.605a4.937 4.937 0 011.56-.713 6.86 6.86 0 011.864-.249 4.16 4.16 0 012.835.891l-.027.062zm-1.935 5.421c.29-.168.518-.424.651-.731v-.811h-1.605c-.945 0-1.417.312-1.417.936a.814.814 0 00.348.695c.276.19.61.282.945.259.368.007.731-.086 1.052-.268" fill="#fff"/><path fill-rule="evenodd" clip-rule="evenodd" d="M5.54 13.338a30 30 0 1049.897 33.324A30 30 0 005.54 13.338zm24.948 38.306A21.643 21.643 0 1152.124 30.01a21.659 21.659 0 01-21.636 21.635zm0-36.899a15.264 15.264 0 1010.786 4.473 15.278 15.278 0 00-10.786-4.48v.007zm-.045 9.51a5.713 5.713 0 10-.016 11.426 5.713 5.713 0 00.016-11.425z" fill="#fff"/></svg>