<svg width="99" height="142" fill="none" xmlns="http://www.w3.org/2000/svg"><path d="M2.864 98.95A8.607 8.607 0 010 97.594l1.305-2.827a8.577 8.577 0 002.466 1.225 9.262 9.262 0 002.854.46 4.612 4.612 0 002.344-.47 1.428 1.428 0 00.764-1.215 1.206 1.206 0 00-.448-1.02 3.332 3.332 0 00-1.152-.612c-.469-.153-1.1-.327-1.896-.51a24.119 24.119 0 01-3.057-.878 4.852 4.852 0 01-2.039-1.398 3.82 3.82 0 01-.835-2.582 4.566 4.566 0 01.754-2.552 5.198 5.198 0 012.293-1.806 9.264 9.264 0 013.74-.663c1.03-.005 2.058.119 3.058.367a8.78 8.78 0 012.579 1.02l-1.132 2.91a8.949 8.949 0 00-4.464-1.266 4.174 4.174 0 00-2.313.51 1.55 1.55 0 00-.754 1.337 1.328 1.328 0 00.835 1.235c.85.352 1.735.615 2.64.785 1.018.236 2.021.53 3.007.878a5.014 5.014 0 012.038 1.388c.59.715.888 1.626.836 2.551a4.453 4.453 0 01-.765 2.531 5.26 5.26 0 01-2.303 1.858 9.375 9.375 0 01-3.75.663 13.548 13.548 0 01-3.741-.561zm28.628.236l-.03-9.675-4.74 7.97h-1.681l-4.719-7.766v9.47h-3.496V83.062h3.088l6.024 10.022L31.88 83.06h3.057l.051 16.124h-3.496zm18.763-3.399h-7.48l-1.427 3.45h-3.832l7.134-16.125h3.69l7.205 16.125h-3.863l-1.427-3.45zm-1.172-2.837l-2.558-6.174-2.558 6.174h5.116zm19.2 6.236l-3.109-4.49H61.74v4.49h-3.72V83.06h7.011a8.928 8.928 0 013.72.715 5.465 5.465 0 012.426 2.041 5.67 5.67 0 01.846 3.062 5.506 5.506 0 01-.856 3.061 5.495 5.495 0 01-2.456 1.99l3.618 5.184-4.046.072zm-.948-12.359a3.869 3.869 0 00-2.548-.724h-3.058v5.602h3.058c.91.065 1.815-.2 2.548-.745a2.55 2.55 0 00.876-2.04 2.554 2.554 0 00-.876-2.042m11.997-.776h-5.157v-3.04H88.22v3.04h-5.157v13.084h-3.73V86.102zm-68.545 20.124a5.381 5.381 0 013.298 5.129 5.61 5.61 0 01-.86 3.078 5.406 5.406 0 01-2.438 2.051 9.103 9.103 0 01-3.74.708H3.79v4.473H.04v-16.157h7.008a8.942 8.942 0 013.74.718zm-1.373 7.242a2.938 2.938 0 000-4.175 3.98 3.98 0 00-2.572-.728H3.77v5.632h3.073a3.986 3.986 0 002.572-.729zm20.642 5.242v3.016h-12.54v-16.219H29.75v3.006h-8.514v3.529h7.52v2.913h-7.52v3.755h8.821zm6.806 2.196a8.06 8.06 0 01-3.176-2.996 8.625 8.625 0 010-8.597 8.134 8.134 0 013.176-2.995 10.014 10.014 0 019.077 0 8.198 8.198 0 013.166 2.995 8.276 8.276 0 01-3.197 11.593 9.938 9.938 0 01-9.077 0h.031zm7.14-2.76a4.714 4.714 0 001.824-1.847 5.832 5.832 0 000-5.375 4.683 4.683 0 00-1.823-1.836 5.107 5.107 0 00-2.592-.667 5.107 5.107 0 00-2.592.667 4.724 4.724 0 00-1.814 1.836 5.832 5.832 0 000 5.375 4.755 4.755 0 001.814 1.847 5.12 5.12 0 002.592.657 5.122 5.122 0 002.592-.657zm20.078-11.92a5.794 5.794 0 013.25 6.003 5.794 5.794 0 01-.812 2.275 5.447 5.447 0 01-2.438 2.052 9.103 9.103 0 01-3.74.708h-3.257v4.473h-3.75v-16.229h7.008a8.941 8.941 0 013.739.718zm-1.383 7.242a2.913 2.913 0 000-4.175 3.931 3.931 0 00-2.561-.728h-3.074v5.632h3.074a3.932 3.932 0 002.56-.729zm8.596-7.961h3.74v13.162h8.124v3.057H71.293v-16.219zm27.613 13.203v3.016h-12.54v-16.219h12.232v3.006h-8.513v3.529h7.52v2.913h-7.52v3.755h8.82z" fill="#222630"/><path d="M9.956 129.637v7.475a4.823 4.823 0 01-1.282 3.677 5.288 5.288 0 01-3.75 1.197 9.05 9.05 0 01-2.466-.318 5.49 5.49 0 01-1.94-.911l1.096-1.866c.426.33.91.58 1.425.735a5.63 5.63 0 001.732.274 2.813 2.813 0 001.995-.603 2.434 2.434 0 00.647-1.844v-.385a3.639 3.639 0 01-2.839 1.098 4.738 4.738 0 01-2.258-.549 4.1 4.1 0 01-1.623-1.526 4.24 4.24 0 01-.602-2.272c-.02-.796.19-1.58.602-2.261a4.13 4.13 0 011.623-1.537 4.72 4.72 0 012.258-.537 3.55 3.55 0 012.883 1.306v-1.098l2.5-.055zm-3.222 5.807a2.262 2.262 0 000-3.194 2.691 2.691 0 00-3.399 0 2.188 2.188 0 00-.688 1.597 2.193 2.193 0 00.688 1.597 2.696 2.696 0 003.399 0zm9.384-5.61a4.7 4.7 0 011.82-.329v2.404h-.582a2.386 2.386 0 00-1.754.626 2.553 2.553 0 00-.635 1.877v4.237h-2.598v-9.012h2.488v1.185c.32-.44.757-.782 1.26-.988zm5.008 8.321a4.39 4.39 0 01-1.754-1.636 4.798 4.798 0 010-4.774 4.39 4.39 0 011.754-1.647 5.402 5.402 0 012.543-.593 5.32 5.32 0 012.533.593 4.449 4.449 0 011.754 1.647 4.798 4.798 0 010 4.774 4.51 4.51 0 01-1.754 1.636 5.32 5.32 0 01-2.533.593 5.402 5.402 0 01-2.543-.593zm4.188-2.195a2.9 2.9 0 000-3.623 2.189 2.189 0 00-1.645-.669 2.194 2.194 0 00-1.655.669 2.858 2.858 0 000 3.623 2.186 2.186 0 001.655.68 2.19 2.19 0 001.644-.68zm14.042-6.323v8.979h-2.467v-1.097a3.58 3.58 0 01-1.239.889 3.818 3.818 0 01-1.545.307 3.856 3.856 0 01-2.806-1.01 4.069 4.069 0 01-1.031-3.029v-5.039h2.598v4.687c0 1.449.614 2.196 1.82 2.196a1.928 1.928 0 001.502-.615 2.57 2.57 0 00.57-1.8v-4.391l2.598-.077zm9.988.45a4.209 4.209 0 011.611 1.613 5.355 5.355 0 010 4.852 4.17 4.17 0 01-1.611 1.625 4.513 4.513 0 01-2.27.57 3.497 3.497 0 01-2.708-1.097v4.182H41.77v-12.195h2.488v1.043a3.427 3.427 0 012.818-1.175 4.381 4.381 0 012.269.582zm-1.096 5.85a2.854 2.854 0 000-3.622 2.343 2.343 0 00-3.289 0 2.858 2.858 0 000 3.622 2.31 2.31 0 003.289 0zM0 33.543a33.543 33.543 0 1167.086 0 33.543 33.543 0 01-67.086 0" fill="#0090D7"/></svg>