<svg width="97" height="124" fill="none" xmlns="http://www.w3.org/2000/svg"><path d="M2.58 88.57A7.73 7.73 0 010 87.364l1.137-2.533a7.736 7.736 0 002.206 1.099c.83.27 1.698.41 2.57.412a4.12 4.12 0 002.114-.42 1.29 1.29 0 00.687-1.13 1.083 1.083 0 00-.404-.861 3.105 3.105 0 00-1.038-.55c-.42-.137-.992-.29-1.71-.457a23.5 23.5 0 01-2.715-.764 4.433 4.433 0 01-1.794-1.29 3.41 3.41 0 01-.763-2.288 4.052 4.052 0 01.68-2.29 4.617 4.617 0 012.067-1.632 8.454 8.454 0 013.358-.633c.915 0 1.828.112 2.716.335.807.2 1.58.521 2.29.954l-1.039 2.549a8.073 8.073 0 00-3.967-1.137 3.816 3.816 0 00-2.083.45 1.404 1.404 0 00-.68 1.206 1.168 1.168 0 00.764 1.106c.764.319 1.56.56 2.373.717.919.203 1.825.458 2.716.763a4.54 4.54 0 011.816 1.244c.53.642.801 1.458.763 2.289a3.914 3.914 0 01-.694 2.289 4.708 4.708 0 01-2.084 1.633 8.554 8.554 0 01-3.38.603 11.807 11.807 0 01-3.326-.458zm24.988.22l-.023-8.705-4.273 7.172h-1.51l-4.25-6.99v8.524H14.36V74.278h2.778l5.432 9.019 5.35-9.019h2.754l.038 14.513h-3.144zm16.147-3.112h-6.738l-1.282 3.114h-3.448l6.47-14.498h3.32l6.485 14.498h-3.525l-1.282-3.114zm-1.06-2.548l-2.29-5.555-2.289 5.555h4.578zm16.631 5.661l-2.8-4.044h-3.09v4.044h-3.358V74.294h6.28a8.094 8.094 0 013.35.64 4.967 4.967 0 012.182 1.824c.523.839.788 1.813.763 2.8a4.952 4.952 0 01-.763 2.793 4.975 4.975 0 01-2.205 1.793l3.212 4.647h-3.571zm-.855-11.125a3.526 3.526 0 00-2.289-.648h-2.747v5.058h2.74a3.48 3.48 0 002.289-.663 2.29 2.29 0 00.763-1.87 2.288 2.288 0 00-.763-1.877m9.652-.649H63.43v-2.739h12.643v2.74h-4.64V88.79h-3.357V77.017zM9.946 94.695a5.358 5.358 0 012.262 7.652 5.053 5.053 0 01-2.262 1.884 8.326 8.326 0 01-3.452.654H3.468v4.137H0V94.049h6.494a8.323 8.323 0 013.452.662v-.016zM8.677 101.4a2.356 2.356 0 00.788-1.915 2.364 2.364 0 00-.788-1.938 3.665 3.665 0 00-2.364-.678H3.468v5.209h2.83a3.663 3.663 0 002.363-.678m15.919 4.407h-6.959l-1.324 3.216h-3.554l6.683-14.974h3.42l6.707 14.974h-3.625l-1.348-3.216zm-1.087-2.632l-2.365-5.737-2.364 5.737h4.729zm17.174 5.847l-2.916-4.177h-3.153v4.177h-3.467V94.049h6.486a8.339 8.339 0 013.46.662 4.941 4.941 0 013.05 4.776 5.067 5.067 0 01-.789 2.876 4.988 4.988 0 01-2.277 1.852l3.365 4.823-3.76-.016zm-.883-11.49a3.625 3.625 0 00-2.364-.678h-2.822v5.225h2.83a3.573 3.573 0 002.364-.685 2.69 2.69 0 000-3.862m12.521 5.595l-2.01 2.105v3.79h-3.451V94.033h3.451v6.998l6.636-6.998h3.854l-6.21 6.675 6.572 8.314h-4.043l-4.8-5.895zM0 116.095h2.232v3.021h3.37v-3.021h2.25v7.753h-2.25v-2.895h-3.37v2.895H0v-7.753zm15.79.735a3.301 3.301 0 01.968 2.591v4.428H14.65v-.95a2.502 2.502 0 01-2.366 1.084 3.594 3.594 0 01-1.55-.304 2.273 2.273 0 01-1.005-.834 2.243 2.243 0 01-.34-1.21 2.01 2.01 0 01.815-1.703 4.139 4.139 0 012.51-.619h1.793a1.462 1.462 0 00-.448-1.138 1.99 1.99 0 00-1.345-.394 3.716 3.716 0 00-1.21.197c-.371.11-.718.289-1.022.529l-.807-1.578c.465-.316.98-.55 1.524-.69a6.915 6.915 0 011.793-.242 4.078 4.078 0 012.77.851l.026-.018zm-1.946 5.396c.297-.178.522-.453.637-.779v-.798h-1.542c-.896 0-1.39.305-1.39.896a.816.816 0 00.341.69c.265.176.579.264.897.251.359.007.712-.086 1.021-.269m16.285-.574a1.91 1.91 0 01-.798 1.632 3.977 3.977 0 01-2.357.573h-4.141v-7.753h3.962a4.195 4.195 0 012.276.52 1.661 1.661 0 01.825 1.479c.007.363-.096.719-.296 1.022-.21.302-.503.538-.842.681a1.794 1.794 0 011.371 1.846zm-5.235-2.33h1.703c.771 0 1.157-.299 1.157-.896 0-.547-.395-.825-1.183-.825h-1.703l.026 1.721zm3.129 2.196a.782.782 0 00-.287-.663 1.596 1.596 0 00-.896-.206h-1.937v1.721h1.892c.824 0 1.237-.287 1.237-.897m5.197 1.99a3.813 3.813 0 01-1.515-1.452 3.874 3.874 0 01-.546-2.062 3.921 3.921 0 01.546-2.062 3.855 3.855 0 011.515-1.416 4.716 4.716 0 012.205-.511 4.617 4.617 0 012.187.511c.625.325 1.15.815 1.515 1.416.37.624.559 1.338.547 2.062a3.875 3.875 0 01-.547 2.062 3.818 3.818 0 01-1.524 1.452 4.617 4.617 0 01-2.187.511 4.716 4.716 0 01-2.205-.511h.01zm3.577-1.918a2.172 2.172 0 00.555-1.569 2.134 2.134 0 00-.555-1.56 2.029 2.029 0 00-2.78.009 2.134 2.134 0 00-.564 1.56 2.174 2.174 0 00.565 1.568 2.025 2.025 0 002.841 0m4.356-5.449h2.241v4.607l3.774-4.607h2.061v7.753h-2.231v-4.616l-3.765 4.616h-2.08v-7.753zm10.243 0h2.232v3.021h3.37v-3.021h2.25v7.753h-2.25v-2.895h-3.37v2.895h-2.232v-7.753zm11.464 7.358a3.817 3.817 0 01-1.542-1.452 3.882 3.882 0 01-.555-2.061 3.928 3.928 0 01.555-2.062 3.861 3.861 0 011.542-1.416 4.801 4.801 0 012.232-.511 4.333 4.333 0 012.142.511 2.998 2.998 0 011.327 1.461l-1.739.941a1.901 1.901 0 00-1.748-1.067 1.972 1.972 0 00-1.452.574 2.12 2.12 0 00-.582 1.569 2.141 2.141 0 00.582 1.577 1.967 1.967 0 001.452.574 1.889 1.889 0 001.748-1.067l1.739.977a3.082 3.082 0 01-1.327 1.443 4.237 4.237 0 01-2.142.52 4.801 4.801 0 01-2.232-.511zm10.5-2.545H72.22v2.94h-2.25v-7.753h2.25v3.012h1.21l2.106-3.012h2.393l-2.707 3.72 2.895 4.033h-2.653l-2.07-2.94zm7.029 2.546a3.774 3.774 0 01-1.524-1.452 3.872 3.872 0 01-.547-2.062 3.914 3.914 0 01.547-2.061 3.807 3.807 0 011.524-1.416 4.963 4.963 0 014.392 0 3.906 3.906 0 011.515 1.416c.365.625.554 1.337.546 2.061a3.96 3.96 0 01-.546 2.062 3.855 3.855 0 01-1.515 1.425 4.977 4.977 0 01-4.392 0v.027zm3.585-1.945c.38-.432.576-.994.547-1.569a2.16 2.16 0 00-.547-1.559 2.032 2.032 0 00-2.85 0 2.138 2.138 0 00-.565 1.559 2.17 2.17 0 00.565 1.569 2.037 2.037 0 002.85 0zm4.404-5.414h2.231v4.607l3.783-4.607h2.062v7.753h-2.241v-4.616l-3.792 4.616h-2.07l.027-7.753zm1.335-3.057h1.47c-.008.29.094.572.287.789a1.028 1.028 0 00.78.278 1.091 1.091 0 00.806-.278 1.057 1.057 0 00.278-.789h1.497c0 1.488-.896 2.232-2.563 2.232-1.667 0-2.546-.744-2.555-2.232z" fill="#fff"/><path fill-rule="evenodd" clip-rule="evenodd" d="M5.058 13.337a30.01 30.01 0 1049.905 33.346A30.01 30.01 0 005.058 13.337zm38.959 30.355a19.842 19.842 0 01-11.858 5.693l.018 6.26h-4.956v-6.338a19.818 19.818 0 1122.607-19.622 19.841 19.841 0 01-5.811 14.007zM32.766 32.28c-4.08 4.296-5.308 10.595-5.513 12.027l-.15-.03a14.87 14.87 0 012.907-29.453 14.877 14.877 0 0114.221 10.56c-3.048.672-7.547 2.782-11.465 6.896zm3.586 3.415c3.107-3.27 6.515-4.814 8.506-5.36A14.869 14.869 0 0132.28 44.387c.365-1.768 1.457-5.947 4.072-8.692z" fill="#fff"/></svg>